<?xml version="1.0" encoding="UTF-8" standalone="no"?>
<!-- Created with Inkscape (http://www.inkscape.org/) -->

<svg
   width="136.07204mm"
   height="61.586681mm"
   viewBox="0 0 482.14501 218.22052"
   id="svg6366"
   version="1.1"
   inkscape:version="1.3 (0e150ed6c4, 2023-07-21)"
   sodipodi:docname="Seats1.svg"
   xmlns:inkscape="http://www.inkscape.org/namespaces/inkscape"
   xmlns:sodipodi="http://sodipodi.sourceforge.net/DTD/sodipodi-0.dtd"
   xmlns="http://www.w3.org/2000/svg"
   xmlns:svg="http://www.w3.org/2000/svg"
   xmlns:rdf="http://www.w3.org/1999/02/22-rdf-syntax-ns#"
   xmlns:cc="http://creativecommons.org/ns#"
   xmlns:dc="http://purl.org/dc/elements/1.1/">
  <defs
     id="defs6368" />
  <sodipodi:namedview
     id="base"
     pagecolor="#ffffff"
     bordercolor="#666666"
     borderopacity="1.0"
     inkscape:pageopacity="0.0"
     inkscape:pageshadow="2"
     inkscape:zoom="0.7"
     inkscape:cx="350"
     inkscape:cy="61.428571"
     inkscape:document-units="px"
     inkscape:current-layer="layer1"
     showgrid="false"
     fit-margin-top="0"
     fit-margin-left="0"
     fit-margin-right="0"
     fit-margin-bottom="0"
     inkscape:window-width="1280"
     inkscape:window-height="961"
     inkscape:window-x="-8"
     inkscape:window-y="-8"
     inkscape:window-maximized="1"
     inkscape:showpageshadow="0"
     inkscape:pagecheckerboard="0"
     inkscape:deskcolor="#d1d1d1" />
  <metadata
     id="metadata6371">
    <rdf:RDF>
      <cc:Work
         rdf:about="">
        <dc:format>image/svg+xml</dc:format>
        <dc:type
           rdf:resource="http://purl.org/dc/dcmitype/StillImage" />
        <dc:title />
      </cc:Work>
    </rdf:RDF>
  </metadata>
  <g
     inkscape:label="Calque 1"
     inkscape:groupmode="layer"
     id="layer1"
     transform="translate(-93.586365,-808.5756)">
    <path
       sodipodi:nodetypes="sssssss"
       inkscape:connector-curvature="0"
       id="rect6914"
       d="m 115.66247,809.9256 c 11.4723,0 20.70812,9.23582 20.70812,20.70813 v 6.06091 c 0,21.82636 1.11824,20.8344 -20.70812,20.70813 -22.078542,-0.12773 -20.708132,1.2445 -20.708132,-20.70813 v -6.06091 c 0,-11.47231 9.235822,-20.70813 20.708132,-20.70813 z"
       style="fill:#303030;fill-opacity:1;fill-rule:nonzero;stroke:none;stroke-width:2.7;stroke-linecap:butt;stroke-linejoin:round;stroke-miterlimit:4;stroke-dasharray:none;stroke-dashoffset:0;stroke-opacity:1" />
    <path
       style="fill:#303030;fill-opacity:1;fill-rule:nonzero;stroke:none;stroke-width:2.7;stroke-linecap:butt;stroke-linejoin:round;stroke-miterlimit:4;stroke-dasharray:none;stroke-dashoffset:0;stroke-opacity:1"
       d="m 163.66247,809.9256 c 11.4723,0 20.70812,9.23582 20.70812,20.70813 v 6.06091 c 0,21.82636 1.11824,20.8344 -20.70812,20.70813 -22.07854,-0.12773 -20.70813,1.2445 -20.70813,-20.70813 v -6.06091 c 0,-11.47231 9.23582,-20.70813 20.70813,-20.70813 z"
       id="path6917"
       inkscape:connector-curvature="0"
       sodipodi:nodetypes="sssssss" />
    <path
       sodipodi:nodetypes="sssssss"
       inkscape:connector-curvature="0"
       id="path6919"
       d="m 211.66247,809.9256 c 11.4723,0 20.70812,9.23582 20.70812,20.70813 v 6.06091 c 0,21.82636 1.11824,20.8344 -20.70812,20.70813 -22.07854,-0.12773 -20.70813,1.2445 -20.70813,-20.70813 v -6.06091 c 0,-11.47231 9.23582,-20.70813 20.70813,-20.70813 z"
       style="fill:#303030;fill-opacity:1;fill-rule:nonzero;stroke:none;stroke-width:2.7;stroke-linecap:butt;stroke-linejoin:round;stroke-miterlimit:4;stroke-dasharray:none;stroke-dashoffset:0;stroke-opacity:1" />
    <path
       style="fill:#303030;fill-opacity:1;fill-rule:nonzero;stroke:none;stroke-width:2.7;stroke-linecap:butt;stroke-linejoin:round;stroke-miterlimit:4;stroke-dasharray:none;stroke-dashoffset:0;stroke-opacity:1"
       d="m 259.66247,809.9256 c 11.4723,0 20.70812,9.23582 20.70812,20.70813 v 6.06091 c 0,21.82636 1.11824,20.8344 -20.70812,20.70813 -22.07854,-0.12773 -20.70813,1.2445 -20.70813,-20.70813 v -6.06091 c 0,-11.47231 9.23582,-20.70813 20.70813,-20.70813 z"
       id="path6921"
       inkscape:connector-curvature="0"
       sodipodi:nodetypes="sssssss" />
    <path
       style="fill:#303030;fill-opacity:1;fill-rule:nonzero;stroke:none;stroke-width:2.7;stroke-linecap:butt;stroke-linejoin:round;stroke-miterlimit:4;stroke-dasharray:none;stroke-dashoffset:0;stroke-opacity:1"
       d="m 115.66247,865.9256 c 11.4723,0 20.70812,9.23582 20.70812,20.70813 v 6.06091 c 0,21.82636 1.11824,20.8344 -20.70812,20.70813 -22.078542,-0.12773 -20.708132,1.2445 -20.708132,-20.70813 v -6.06091 c 0,-11.47231 9.235822,-20.70813 20.708132,-20.70813 z"
       id="path6923"
       inkscape:connector-curvature="0"
       sodipodi:nodetypes="sssssss" />
    <path
       sodipodi:nodetypes="sssssss"
       inkscape:connector-curvature="0"
       id="path6925"
       d="m 163.66247,865.9256 c 11.4723,0 20.70812,9.23582 20.70812,20.70813 v 6.06091 c 0,21.82636 1.11824,20.8344 -20.70812,20.70813 -22.07854,-0.12773 -20.70813,1.2445 -20.70813,-20.70813 v -6.06091 c 0,-11.47231 9.23582,-20.70813 20.70813,-20.70813 z"
       style="fill:#303030;fill-opacity:1;fill-rule:nonzero;stroke:none;stroke-width:2.7;stroke-linecap:butt;stroke-linejoin:round;stroke-miterlimit:4;stroke-dasharray:none;stroke-dashoffset:0;stroke-opacity:1" />
    <path
       style="fill:#303030;fill-opacity:1;fill-rule:nonzero;stroke:none;stroke-width:2.7;stroke-linecap:butt;stroke-linejoin:round;stroke-miterlimit:4;stroke-dasharray:none;stroke-dashoffset:0;stroke-opacity:1"
       d="m 211.66247,865.9256 c 11.4723,0 20.70812,9.23582 20.70812,20.70813 v 6.06091 c 0,21.82636 1.11824,20.8344 -20.70812,20.70813 -22.07854,-0.12773 -20.70813,1.2445 -20.70813,-20.70813 v -6.06091 c 0,-11.47231 9.23582,-20.70813 20.70813,-20.70813 z"
       id="path6927"
       inkscape:connector-curvature="0"
       sodipodi:nodetypes="sssssss" />
    <path
       sodipodi:nodetypes="sssssss"
       inkscape:connector-curvature="0"
       id="path6929"
       d="m 259.66247,865.9256 c 11.4723,0 20.70812,9.23582 20.70812,20.70813 v 6.06091 c 0,21.82636 1.11824,20.8344 -20.70812,20.70813 -22.07854,-0.12773 -20.70813,1.2445 -20.70813,-20.70813 v -6.06091 c 0,-11.47231 9.23582,-20.70813 20.70813,-20.70813 z"
       style="fill:#303030;fill-opacity:1;fill-rule:nonzero;stroke:none;stroke-width:2.7;stroke-linecap:butt;stroke-linejoin:round;stroke-miterlimit:4;stroke-dasharray:none;stroke-dashoffset:0;stroke-opacity:1" />
    <path
       sodipodi:nodetypes="sssssss"
       inkscape:connector-curvature="0"
       id="path6931"
       d="m 115.66247,921.9256 c 11.4723,0 20.70812,9.23582 20.70812,20.70813 v 6.06091 c 0,21.82636 1.11824,20.8344 -20.70812,20.70813 -22.078542,-0.12773 -20.708132,1.2445 -20.708132,-20.70813 v -6.06091 c 0,-11.47231 9.235822,-20.70813 20.708132,-20.70813 z"
       style="fill:#303030;fill-opacity:1;fill-rule:nonzero;stroke:none;stroke-width:2.7;stroke-linecap:butt;stroke-linejoin:round;stroke-miterlimit:4;stroke-dasharray:none;stroke-dashoffset:0;stroke-opacity:1" />
    <path
       style="fill:#303030;fill-opacity:1;fill-rule:nonzero;stroke:none;stroke-width:2.7;stroke-linecap:butt;stroke-linejoin:round;stroke-miterlimit:4;stroke-dasharray:none;stroke-dashoffset:0;stroke-opacity:1"
       d="m 163.66247,921.9256 c 11.4723,0 20.70812,9.23582 20.70812,20.70813 v 6.06091 c 0,21.82636 1.11824,20.8344 -20.70812,20.70813 -22.07854,-0.12773 -20.70813,1.2445 -20.70813,-20.70813 v -6.06091 c 0,-11.47231 9.23582,-20.70813 20.70813,-20.70813 z"
       id="path6933"
       inkscape:connector-curvature="0"
       sodipodi:nodetypes="sssssss" />
    <path
       sodipodi:nodetypes="sssssss"
       inkscape:connector-curvature="0"
       id="path6935"
       d="m 211.66247,921.9256 c 11.4723,0 20.70812,9.23582 20.70812,20.70813 v 6.06091 c 0,21.82636 1.11824,20.8344 -20.70812,20.70813 -22.07854,-0.12773 -20.70813,1.2445 -20.70813,-20.70813 v -6.06091 c 0,-11.47231 9.23582,-20.70813 20.70813,-20.70813 z"
       style="fill:#303030;fill-opacity:1;fill-rule:nonzero;stroke:none;stroke-width:2.7;stroke-linecap:butt;stroke-linejoin:round;stroke-miterlimit:4;stroke-dasharray:none;stroke-dashoffset:0;stroke-opacity:1" />
    <path
       style="fill:#303030;fill-opacity:1;fill-rule:nonzero;stroke:none;stroke-width:2.7;stroke-linecap:butt;stroke-linejoin:round;stroke-miterlimit:4;stroke-dasharray:none;stroke-dashoffset:0;stroke-opacity:1"
       d="m 259.66247,921.9256 c 11.4723,0 20.70812,9.23582 20.70812,20.70813 v 6.06091 c 0,21.82636 1.11824,20.8344 -20.70812,20.70813 -22.07854,-0.12773 -20.70813,1.2445 -20.70813,-20.70813 v -6.06091 c 0,-11.47231 9.23582,-20.70813 20.70813,-20.70813 z"
       id="path6937"
       inkscape:connector-curvature="0"
       sodipodi:nodetypes="sssssss" />
    <path
       style="fill:#303030;fill-opacity:1;fill-rule:nonzero;stroke:none;stroke-width:2.7;stroke-linecap:butt;stroke-linejoin:round;stroke-miterlimit:4;stroke-dasharray:none;stroke-dashoffset:0;stroke-opacity:1"
       d="m 115.66247,977.9256 c 11.4723,0 20.70812,9.23582 20.70812,20.70813 v 6.06087 c 0,21.8264 1.11824,20.8344 -20.70812,20.7082 -22.078542,-0.1278 -20.708132,1.2445 -20.708132,-20.7082 v -6.06087 c 0,-11.47231 9.235822,-20.70813 20.708132,-20.70813 z"
       id="path6939"
       inkscape:connector-curvature="0"
       sodipodi:nodetypes="sssssss" />
    <path
       sodipodi:nodetypes="sssssss"
       inkscape:connector-curvature="0"
       id="path6941"
       d="m 163.66247,977.9256 c 11.4723,0 20.70812,9.23582 20.70812,20.70813 v 6.06087 c 0,21.8264 1.11824,20.8344 -20.70812,20.7082 -22.07854,-0.1278 -20.70813,1.2445 -20.70813,-20.7082 v -6.06087 c 0,-11.47231 9.23582,-20.70813 20.70813,-20.70813 z"
       style="fill:#303030;fill-opacity:1;fill-rule:nonzero;stroke:none;stroke-width:2.7;stroke-linecap:butt;stroke-linejoin:round;stroke-miterlimit:4;stroke-dasharray:none;stroke-dashoffset:0;stroke-opacity:1" />
    <path
       style="fill:#303030;fill-opacity:1;fill-rule:nonzero;stroke:none;stroke-width:2.7;stroke-linecap:butt;stroke-linejoin:round;stroke-miterlimit:4;stroke-dasharray:none;stroke-dashoffset:0;stroke-opacity:1"
       d="m 211.66247,977.9256 c 11.4723,0 20.70812,9.23582 20.70812,20.70813 v 6.06087 c 0,21.8264 1.11824,20.8344 -20.70812,20.7082 -22.07854,-0.1278 -20.70813,1.2445 -20.70813,-20.7082 v -6.06087 c 0,-11.47231 9.23582,-20.70813 20.70813,-20.70813 z"
       id="path6943"
       inkscape:connector-curvature="0"
       sodipodi:nodetypes="sssssss" />
    <path
       sodipodi:nodetypes="sssssss"
       inkscape:connector-curvature="0"
       id="path6945"
       d="m 259.66247,977.9256 c 11.4723,0 20.70812,9.23582 20.70812,20.70813 v 6.06087 c 0,21.8264 1.11824,20.8344 -20.70812,20.7082 -22.07854,-0.1278 -20.70813,1.2445 -20.70813,-20.7082 v -6.06087 c 0,-11.47231 9.23582,-20.70813 20.70813,-20.70813 z"
       style="fill:#303030;fill-opacity:1;fill-rule:nonzero;stroke:none;stroke-width:2.7;stroke-linecap:butt;stroke-linejoin:round;stroke-miterlimit:4;stroke-dasharray:none;stroke-dashoffset:0;stroke-opacity:1" />
    <path
       style="fill:#303030;fill-opacity:1;fill-rule:nonzero;stroke:none;stroke-width:2.7;stroke-linecap:butt;stroke-linejoin:round;stroke-miterlimit:4;stroke-dasharray:none;stroke-dashoffset:0;stroke-opacity:1"
       d="m 409.66247,809.9256 c 11.4723,0 20.70812,9.23582 20.70812,20.70813 v 6.06091 c 0,21.82636 1.11824,20.8344 -20.70812,20.70813 -22.07854,-0.12773 -20.70813,1.2445 -20.70813,-20.70813 v -6.06091 c 0,-11.47231 9.23582,-20.70813 20.70813,-20.70813 z"
       id="path6999"
       inkscape:connector-curvature="0"
       sodipodi:nodetypes="sssssss" />
    <path
       sodipodi:nodetypes="sssssss"
       inkscape:connector-curvature="0"
       id="path7001"
       d="m 457.66247,809.9256 c 11.4723,0 20.70812,9.23582 20.70812,20.70813 v 6.06091 c 0,21.82636 1.11824,20.8344 -20.70812,20.70813 -22.07854,-0.12773 -20.70813,1.2445 -20.70813,-20.70813 v -6.06091 c 0,-11.47231 9.23582,-20.70813 20.70813,-20.70813 z"
       style="fill:#303030;fill-opacity:1;fill-rule:nonzero;stroke:none;stroke-width:2.7;stroke-linecap:butt;stroke-linejoin:round;stroke-miterlimit:4;stroke-dasharray:none;stroke-dashoffset:0;stroke-opacity:1" />
    <path
       style="fill:#303030;fill-opacity:1;fill-rule:nonzero;stroke:none;stroke-width:2.7;stroke-linecap:butt;stroke-linejoin:round;stroke-miterlimit:4;stroke-dasharray:none;stroke-dashoffset:0;stroke-opacity:1"
       d="m 505.66247,809.9256 c 11.4723,0 20.70812,9.23582 20.70812,20.70813 v 6.06091 c 0,21.82636 1.11824,20.8344 -20.70812,20.70813 -22.07854,-0.12773 -20.70813,1.2445 -20.70813,-20.70813 v -6.06091 c 0,-11.47231 9.23582,-20.70813 20.70813,-20.70813 z"
       id="path7003"
       inkscape:connector-curvature="0"
       sodipodi:nodetypes="sssssss" />
    <path
       sodipodi:nodetypes="sssssss"
       inkscape:connector-curvature="0"
       id="path7005"
       d="m 553.66247,809.9256 c 11.4723,0 20.70812,9.23582 20.70812,20.70813 v 6.06091 c 0,21.82636 1.11824,20.8344 -20.70812,20.70813 -22.07854,-0.12773 -20.70813,1.2445 -20.70813,-20.70813 v -6.06091 c 0,-11.47231 9.23582,-20.70813 20.70813,-20.70813 z"
       style="fill:#303030;fill-opacity:1;fill-rule:nonzero;stroke:none;stroke-width:2.7;stroke-linecap:butt;stroke-linejoin:round;stroke-miterlimit:4;stroke-dasharray:none;stroke-dashoffset:0;stroke-opacity:1" />
    <path
       sodipodi:nodetypes="sssssss"
       inkscape:connector-curvature="0"
       id="path7007"
       d="m 409.66247,865.9256 c 11.4723,0 20.70812,9.23582 20.70812,20.70813 v 6.06091 c 0,21.82636 1.11824,20.8344 -20.70812,20.70813 -22.07854,-0.12773 -20.70813,1.2445 -20.70813,-20.70813 v -6.06091 c 0,-11.47231 9.23582,-20.70813 20.70813,-20.70813 z"
       style="fill:#303030;fill-opacity:1;fill-rule:nonzero;stroke:none;stroke-width:2.7;stroke-linecap:butt;stroke-linejoin:round;stroke-miterlimit:4;stroke-dasharray:none;stroke-dashoffset:0;stroke-opacity:1" />
    <path
       style="fill:#303030;fill-opacity:1;fill-rule:nonzero;stroke:none;stroke-width:2.7;stroke-linecap:butt;stroke-linejoin:round;stroke-miterlimit:4;stroke-dasharray:none;stroke-dashoffset:0;stroke-opacity:1"
       d="m 457.66247,865.9256 c 11.4723,0 20.70812,9.23582 20.70812,20.70813 v 6.06091 c 0,21.82636 1.11824,20.8344 -20.70812,20.70813 -22.07854,-0.12773 -20.70813,1.2445 -20.70813,-20.70813 v -6.06091 c 0,-11.47231 9.23582,-20.70813 20.70813,-20.70813 z"
       id="path7009"
       inkscape:connector-curvature="0"
       sodipodi:nodetypes="sssssss" />
    <path
       sodipodi:nodetypes="sssssss"
       inkscape:connector-curvature="0"
       id="path7011"
       d="m 505.66247,865.9256 c 11.4723,0 20.70812,9.23582 20.70812,20.70813 v 6.06091 c 0,21.82636 1.11824,20.8344 -20.70812,20.70813 -22.07854,-0.12773 -20.70813,1.2445 -20.70813,-20.70813 v -6.06091 c 0,-11.47231 9.23582,-20.70813 20.70813,-20.70813 z"
       style="fill:#303030;fill-opacity:1;fill-rule:nonzero;stroke:none;stroke-width:2.7;stroke-linecap:butt;stroke-linejoin:round;stroke-miterlimit:4;stroke-dasharray:none;stroke-dashoffset:0;stroke-opacity:1" />
    <path
       style="fill:#303030;fill-opacity:1;fill-rule:nonzero;stroke:none;stroke-width:2.7;stroke-linecap:butt;stroke-linejoin:round;stroke-miterlimit:4;stroke-dasharray:none;stroke-dashoffset:0;stroke-opacity:1"
       d="m 553.66247,865.9256 c 11.4723,0 20.70812,9.23582 20.70812,20.70813 v 6.06091 c 0,21.82636 1.11824,20.8344 -20.70812,20.70813 -22.07854,-0.12773 -20.70813,1.2445 -20.70813,-20.70813 v -6.06091 c 0,-11.47231 9.23582,-20.70813 20.70813,-20.70813 z"
       id="path7013"
       inkscape:connector-curvature="0"
       sodipodi:nodetypes="sssssss" />
    <path
       style="fill:#303030;fill-opacity:1;fill-rule:nonzero;stroke:none;stroke-width:2.7;stroke-linecap:butt;stroke-linejoin:round;stroke-miterlimit:4;stroke-dasharray:none;stroke-dashoffset:0;stroke-opacity:1"
       d="m 409.66247,921.9256 c 11.4723,0 20.70812,9.23582 20.70812,20.70813 v 6.06091 c 0,21.82636 1.11824,20.8344 -20.70812,20.70813 -22.07854,-0.12773 -20.70813,1.2445 -20.70813,-20.70813 v -6.06091 c 0,-11.47231 9.23582,-20.70813 20.70813,-20.70813 z"
       id="path7015"
       inkscape:connector-curvature="0"
       sodipodi:nodetypes="sssssss" />
    <path
       sodipodi:nodetypes="sssssss"
       inkscape:connector-curvature="0"
       id="path7017"
       d="m 457.66247,921.9256 c 11.4723,0 20.70812,9.23582 20.70812,20.70813 v 6.06091 c 0,21.82636 1.11824,20.8344 -20.70812,20.70813 -22.07854,-0.12773 -20.70813,1.2445 -20.70813,-20.70813 v -6.06091 c 0,-11.47231 9.23582,-20.70813 20.70813,-20.70813 z"
       style="fill:#303030;fill-opacity:1;fill-rule:nonzero;stroke:none;stroke-width:2.7;stroke-linecap:butt;stroke-linejoin:round;stroke-miterlimit:4;stroke-dasharray:none;stroke-dashoffset:0;stroke-opacity:1" />
    <path
       style="fill:#303030;fill-opacity:1;fill-rule:nonzero;stroke:none;stroke-width:2.7;stroke-linecap:butt;stroke-linejoin:round;stroke-miterlimit:4;stroke-dasharray:none;stroke-dashoffset:0;stroke-opacity:1"
       d="m 505.66247,921.9256 c 11.4723,0 20.70812,9.23582 20.70812,20.70813 v 6.06091 c 0,21.82636 1.11824,20.8344 -20.70812,20.70813 -22.07854,-0.12773 -20.70813,1.2445 -20.70813,-20.70813 v -6.06091 c 0,-11.47231 9.23582,-20.70813 20.70813,-20.70813 z"
       id="path7019"
       inkscape:connector-curvature="0"
       sodipodi:nodetypes="sssssss" />
    <path
       sodipodi:nodetypes="sssssss"
       inkscape:connector-curvature="0"
       id="path7021"
       d="m 553.66247,921.9256 c 11.4723,0 20.70812,9.23582 20.70812,20.70813 v 6.06091 c 0,21.82636 1.11824,20.8344 -20.70812,20.70813 -22.07854,-0.12773 -20.70813,1.2445 -20.70813,-20.70813 v -6.06091 c 0,-11.47231 9.23582,-20.70813 20.70813,-20.70813 z"
       style="fill:#303030;fill-opacity:1;fill-rule:nonzero;stroke:none;stroke-width:2.7;stroke-linecap:butt;stroke-linejoin:round;stroke-miterlimit:4;stroke-dasharray:none;stroke-dashoffset:0;stroke-opacity:1" />
    <path
       sodipodi:nodetypes="sssssss"
       inkscape:connector-curvature="0"
       id="path7023"
       d="m 409.66247,977.9256 c 11.4723,0 20.70812,9.23582 20.70812,20.70813 v 6.06087 c 0,21.8264 1.11824,20.8344 -20.70812,20.7082 -22.07854,-0.1278 -20.70813,1.2445 -20.70813,-20.7082 v -6.06087 c 0,-11.47231 9.23582,-20.70813 20.70813,-20.70813 z"
       style="fill:#303030;fill-opacity:1;fill-rule:nonzero;stroke:none;stroke-width:2.7;stroke-linecap:butt;stroke-linejoin:round;stroke-miterlimit:4;stroke-dasharray:none;stroke-dashoffset:0;stroke-opacity:1" />
    <path
       style="fill:#303030;fill-opacity:1;fill-rule:nonzero;stroke:none;stroke-width:2.7;stroke-linecap:butt;stroke-linejoin:round;stroke-miterlimit:4;stroke-dasharray:none;stroke-dashoffset:0;stroke-opacity:1"
       d="m 457.66247,977.9256 c 11.4723,0 20.70812,9.23582 20.70812,20.70813 v 6.06087 c 0,21.8264 1.11824,20.8344 -20.70812,20.7082 -22.07854,-0.1278 -20.70813,1.2445 -20.70813,-20.7082 v -6.06087 c 0,-11.47231 9.23582,-20.70813 20.70813,-20.70813 z"
       id="path7025"
       inkscape:connector-curvature="0"
       sodipodi:nodetypes="sssssss" />
    <path
       sodipodi:nodetypes="sssssss"
       inkscape:connector-curvature="0"
       id="path7027"
       d="m 505.66247,977.9256 c 11.4723,0 20.70812,9.23582 20.70812,20.70813 v 6.06087 c 0,21.8264 1.11824,20.8344 -20.70812,20.7082 -22.07854,-0.1278 -20.70813,1.2445 -20.70813,-20.7082 v -6.06087 c 0,-11.47231 9.23582,-20.70813 20.70813,-20.70813 z"
       style="fill:#303030;fill-opacity:1;fill-rule:nonzero;stroke:none;stroke-width:2.7;stroke-linecap:butt;stroke-linejoin:round;stroke-miterlimit:4;stroke-dasharray:none;stroke-dashoffset:0;stroke-opacity:1" />
    <path
       style="fill:#303030;fill-opacity:1;fill-rule:nonzero;stroke:none;stroke-width:2.7;stroke-linecap:butt;stroke-linejoin:round;stroke-miterlimit:4;stroke-dasharray:none;stroke-dashoffset:0;stroke-opacity:1"
       d="m 553.66247,977.9256 c 11.4723,0 20.70812,9.23582 20.70812,20.70813 v 6.06087 c 0,21.8264 1.11824,20.8344 -20.70812,20.7082 -22.07854,-0.1278 -20.70813,1.2445 -20.70813,-20.7082 v -6.06087 c 0,-11.47231 9.23582,-20.70813 20.70813,-20.70813 z"
       id="path7029"
       inkscape:connector-curvature="0"
       sodipodi:nodetypes="sssssss" />
  </g>
</svg>
