<?xml version="1.0" encoding="UTF-8" standalone="no"?>
<!-- Created with Inkscape (http://www.inkscape.org/) -->

<svg
   width="32"
   height="32"
   viewBox="0 0 8.4666666 8.4666666"
   version="1.1"
   id="svg1517"
   inkscape:version="1.3 (0e150ed6c4, 2023-07-21)"
   sodipodi:docname="AddMusic.svg"
   xml:space="preserve"
   inkscape:export-filename="..\..\Design\MixerInsertMusic.png"
   inkscape:export-xdpi="96"
   inkscape:export-ydpi="96"
   xmlns:inkscape="http://www.inkscape.org/namespaces/inkscape"
   xmlns:sodipodi="http://sodipodi.sourceforge.net/DTD/sodipodi-0.dtd"
   xmlns:xlink="http://www.w3.org/1999/xlink"
   xmlns="http://www.w3.org/2000/svg"
   xmlns:svg="http://www.w3.org/2000/svg"><sodipodi:namedview
     id="namedview1519"
     pagecolor="#505050"
     bordercolor="#eeeeee"
     borderopacity="1"
     inkscape:showpageshadow="0"
     inkscape:pageopacity="0"
     inkscape:pagecheckerboard="0"
     inkscape:deskcolor="#505050"
     inkscape:document-units="mm"
     showgrid="false"
     inkscape:zoom="4"
     inkscape:cx="-17"
     inkscape:cy="36.25"
     inkscape:window-width="1280"
     inkscape:window-height="961"
     inkscape:window-x="-8"
     inkscape:window-y="-8"
     inkscape:window-maximized="1"
     inkscape:current-layer="layer2" /><defs
     id="defs1514"><linearGradient
       inkscape:collect="always"
       id="linearGradient2003"><stop
         style="stop-color:#d7f2f6;stop-opacity:1;"
         offset="0.65299684"
         id="stop2001" /><stop
         style="stop-color:#44c0d3;stop-opacity:1;"
         offset="1"
         id="stop1999" /></linearGradient><radialGradient
       inkscape:collect="always"
       xlink:href="#linearGradient2003"
       id="radialGradient2005-4"
       cx="19.136818"
       cy="6.0068684"
       fx="19.136818"
       fy="6.0068684"
       r="2.2632511"
       gradientUnits="userSpaceOnUse"
       gradientTransform="matrix(1.788528,0,0,1.788528,-29.993403,-6.4996632)" /></defs><g
     inkscape:groupmode="layer"
     id="layer2"
     inkscape:label="Calque 2"><g
       inkscape:label="Calque 1"
       id="layer1"
       transform="matrix(1.0139693,0,0,1.0139693,12.993196,-0.41459829)" /><path
       id="rect589-0"
       style="fill:url(#radialGradient2005-4);fill-opacity:1;stroke:#003536;stroke-width:0.536558;stroke-linecap:round;stroke-linejoin:round;stroke-dasharray:none;stroke-opacity:1;paint-order:stroke fill markers"
       d="M 3.2408363,0.28801148 V 3.2094666 H 0.27755497 V 5.2362863 H 3.2408363 v 2.963282 L 5.2467419,8.1786594 V 5.2153721 l 2.9423698,0.020909 V 3.2094666 L 5.2467419,3.1885534 V 0.26709837 Z"
       sodipodi:nodetypes="ccccccccccccc" /><path
       id="path2089"
       style="opacity:1;fill:#000000;fill-opacity:1;fill-rule:evenodd;stroke:#ffffff;stroke-width:0.569;stroke-linecap:butt;stroke-linejoin:miter;stroke-dasharray:none;stroke-opacity:1;paint-order:stroke fill markers"
       d="m 7.5750819,0.65683377 c 0,0 -1.2303257,0.62702083 -1.8176763,0.78406513 -0.5947367,0.159019 -1.8569218,0.047709 -1.8569218,0.047709 l -0.00884,2.7158776 C 3.7435556,4.1761492 3.7217144,4.1745238 3.6526135,4.1654428 3.1608384,4.1654902 2.7621958,4.4575276 2.7621456,4.8177816 2.7621958,5.1780354 3.1608384,5.4700724 3.6526135,5.47012 4.1114605,5.4699593 4.4950392,5.2144366 4.5387272,4.8798315 h 0.00218 v -0.015512 c 0.00157,-0.015485 0.00241,-0.031009 0.00244,-0.046537 -6.04e-5,-0.015529 -8.788e-4,-0.031051 -0.00244,-0.046537 V 2.1254218 c 0,0 0.8140071,0.060488 1.2567794,-0.057695 C 6.2330901,1.95151 6.9715173,1.6806987 6.9715173,1.6806987 l 0.031636,2.267426 C 6.8640881,3.8865098 6.8588371,3.8867478 6.6963143,3.8867637 6.2044325,3.886701 5.8056241,4.1787704 5.8055737,4.5391022 c 5.04e-5,0.3603319 0.3988588,0.6524014 0.8907406,0.6523387 0.491775,-4.74e-5 0.8904175,-0.2920848 0.8904682,-0.6523387 5.25e-5,-0.012704 -4.018e-4,-0.025413 -0.00135,-0.038101 z"
       sodipodi:nodetypes="cscccccccccccscccccccc" /></g></svg>
