<?xml version="1.0" encoding="UTF-8" standalone="no"?>
<!-- Created with Inkscape (http://www.inkscape.org/) -->

<svg
   width="32"
   height="32"
   viewBox="0 0 8.4666666 8.4666666"
   version="1.1"
   id="svg1517"
   inkscape:version="1.2.2 (732a01da63, 2022-12-09)"
   sodipodi:docname="MixerInsertMusic.svg"
   xml:space="preserve"
   inkscape:export-filename="..\..\Design\MixerInsertMusic.png"
   inkscape:export-xdpi="96"
   inkscape:export-ydpi="96"
   xmlns:inkscape="http://www.inkscape.org/namespaces/inkscape"
   xmlns:sodipodi="http://sodipodi.sourceforge.net/DTD/sodipodi-0.dtd"
   xmlns:xlink="http://www.w3.org/1999/xlink"
   xmlns="http://www.w3.org/2000/svg"
   xmlns:svg="http://www.w3.org/2000/svg"><sodipodi:namedview
     id="namedview1519"
     pagecolor="#505050"
     bordercolor="#eeeeee"
     borderopacity="1"
     inkscape:showpageshadow="0"
     inkscape:pageopacity="0"
     inkscape:pagecheckerboard="0"
     inkscape:deskcolor="#505050"
     inkscape:document-units="mm"
     showgrid="false"
     inkscape:zoom="4.7572175"
     inkscape:cx="27.221795"
     inkscape:cy="21.336002"
     inkscape:window-width="1280"
     inkscape:window-height="961"
     inkscape:window-x="-8"
     inkscape:window-y="-8"
     inkscape:window-maximized="1"
     inkscape:current-layer="layer2" /><defs
     id="defs1514"><radialGradient
       inkscape:collect="always"
       xlink:href="#linearGradient2003"
       id="radialGradient2005"
       cx="19.136818"
       cy="6.0068684"
       fx="19.136818"
       fy="6.0068684"
       r="2.2632511"
       gradientUnits="userSpaceOnUse"
       gradientTransform="translate(-13.561069,-1.4894535)" /><linearGradient
       inkscape:collect="always"
       id="linearGradient2003"><stop
         style="stop-color:#c1e6f2;stop-opacity:1;"
         offset="0.15047024"
         id="stop1999" /><stop
         style="stop-color:#5dcad9;stop-opacity:1;"
         offset="1"
         id="stop2001" /></linearGradient></defs><g
     inkscape:groupmode="layer"
     id="layer2"
     inkscape:label="Calque 2"><path
       id="path2089"
       style="fill:#010101;fill-opacity:1;fill-rule:evenodd;stroke:#9db9d7;stroke-width:0.165512;stroke-linecap:butt;stroke-linejoin:miter;stroke-dasharray:none;stroke-opacity:0.498039;paint-order:stroke fill markers"
       d="m 8.0056658,0.47758904 c 0,0 -1.9333363,0.98530176 -2.8562997,1.23208166 -0.9345708,0.2498824 -2.9179708,0.07497 -2.9179708,0.07497 L 2.217491,6.0523754 C 1.9847985,6.0078481 1.950477,6.0052936 1.8418917,5.9910239 1.0691152,5.9910984 0.44268775,6.4500063 0.44260853,7.01611 0.44268782,7.5822137 1.0691152,8.0411215 1.8418917,8.041196 2.5629247,8.0409435 3.165681,7.6394148 3.2343322,7.1136157 h 0.00342 v -0.024377 c 0.00247,-0.024335 0.00376,-0.048727 0.00385,-0.073129 -9.49e-5,-0.024402 -0.00138,-0.048793 -0.00385,-0.073128 V 2.7853313 c 0,0 1.2791322,0.095049 1.9749055,-0.090663 0.6842,-0.1826226 1.844566,-0.6081759 1.844566,-0.6081759 L 7.1069367,5.64953 C 6.8884088,5.5527078 6.8801571,5.5530821 6.6247684,5.553107 5.8518248,5.5530084 5.2251365,6.0119669 5.2250573,6.5781931 c 7.93e-5,0.5662261 0.6267675,1.0251846 1.3997111,1.025086 0.7727765,-7.44e-5 1.399204,-0.4589823 1.3992833,-1.025086 8.28e-5,-0.019968 -6.309e-4,-0.039934 -0.00214,-0.059872 z"
       sodipodi:nodetypes="cscccccccccccscccccccc" /><path
       id="rect589"
       style="fill:url(#radialGradient2005);fill-opacity:1;stroke:#003536;stroke-width:0.3;stroke-linecap:round;stroke-linejoin:round;stroke-dasharray:none;stroke-opacity:0.607595;paint-order:stroke fill markers"
       d="m 5.020825,2.3056647 v 1.633441 H 3.3639982 v 1.133233 H 5.020825 v 1.656828 l 1.12154,-0.01169 v -1.656831 l 1.645135,0.01169 v -1.13323 l -1.645135,-0.01169 v -1.633441 z"
       sodipodi:nodetypes="ccccccccccccc" /></g></svg>
