<?xml version="1.0" encoding="UTF-8" standalone="no"?>
<!-- Created with Inkscape (http://www.inkscape.org/) -->

<svg
   width="32"
   height="32"
   viewBox="0 0 8.4666666 8.4666666"
   version="1.1"
   id="svg1517"
   sodipodi:docname="Connect.svg"
   inkscape:version="1.3 (0e150ed6c4, 2023-07-21)"
   xml:space="preserve"
   xmlns:inkscape="http://www.inkscape.org/namespaces/inkscape"
   xmlns:sodipodi="http://sodipodi.sourceforge.net/DTD/sodipodi-0.dtd"
   xmlns="http://www.w3.org/2000/svg"
   xmlns:svg="http://www.w3.org/2000/svg"><sodipodi:namedview
     id="namedview1519"
     pagecolor="#505050"
     bordercolor="#eeeeee"
     borderopacity="1"
     inkscape:showpageshadow="0"
     inkscape:pageopacity="0"
     inkscape:pagecheckerboard="0"
     inkscape:deskcolor="#505050"
     inkscape:document-units="mm"
     showgrid="false"
     inkscape:zoom="2.3786088"
     inkscape:cx="16.816553"
     inkscape:cy="-1.6816553"
     inkscape:window-width="1280"
     inkscape:window-height="961"
     inkscape:window-x="-8"
     inkscape:window-y="-8"
     inkscape:window-maximized="1"
     inkscape:current-layer="svg1517" /><defs
     id="defs1514" /><g
     inkscape:label="Calque 1"
     id="layer1"
     transform="translate(12.896778,-0.35055867)" /><g
     id="g11"
     transform="matrix(1.051651,0,0,1.051651,-8.1623343,10.116979)"><path
       style="fill:#e7f3f9;fill-opacity:1;fill-rule:evenodd;stroke:#000000;stroke-width:0.264583px;stroke-linecap:butt;stroke-linejoin:miter;stroke-opacity:1"
       d="m 9.8164434,-7.0633899 0.013904,3.0172353 0.9872056,0.3893209 h 2.41935 l 0.0139,-3.795877 -2.433254,-0.027808 z"
       id="path5" /><path
       style="fill:#bdbdbf;fill-opacity:1;fill-rule:evenodd;stroke:#000000;stroke-width:0.264583px;stroke-linecap:butt;stroke-linejoin:miter;stroke-opacity:1"
       d="m 12.444358,-6.3125571 c 0,0 -0.02661,-0.1245526 -0.06952,-0.1668518 -0.03555,-0.035044 -0.139043,-0.055617 -0.139043,-0.055617 l -0.820355,0.041713 c 0,0 -0.674328,0.2415751 -0.677239,0.8865021 -0.0029,0.644927 0.607718,0.9349626 0.607718,0.9349626 l 0.958699,0.01629 c 0,0 0.08746,-0.072294 0.113619,-0.1210665 0.02475,-0.046153 0.03596,-0.1529474 0.03596,-0.1529474 z"
       id="path6"
       sodipodi:nodetypes="cscczccscc" /><path
       style="fill:#e7f3f9;fill-opacity:1;fill-rule:evenodd;stroke:#000000;stroke-width:0.264583px;stroke-linecap:butt;stroke-linejoin:miter;stroke-opacity:1"
       d="m 13.973833,-6.7992079 1.480145,0.027808 c 0,0 0.193617,0.1152249 0.197889,0.2780863 0.0042,0.1619924 -0.17008,0.282895 -0.17008,0.2780861 l -1.507954,-0.00239 z"
       id="path8"
       sodipodi:nodetypes="ccsccc" /><path
       style="fill:#e7f3f9;fill-opacity:1;fill-rule:evenodd;stroke:#000000;stroke-width:0.264583px;stroke-linecap:butt;stroke-linejoin:miter;stroke-opacity:1"
       d="m 13.973833,-4.9499345 1.480145,0.027808 c 0,0 0.193617,0.1152249 0.197889,0.2780863 0.0042,0.1619924 -0.17008,0.282895 -0.17008,0.2780861 l -1.507954,-0.00239 z"
       id="path9"
       sodipodi:nodetypes="ccsccc" /><path
       style="fill:#e7f3f9;fill-opacity:1;fill-rule:evenodd;stroke:#000000;stroke-width:0.264583px;stroke-linecap:butt;stroke-linejoin:miter;stroke-opacity:1"
       d="m 13.250808,-7.6751796 0.792546,-0.1251389 0.04171,4.4215709 -0.80645,-0.069521 z"
       id="path7" /><path
       style="fill:#e7f3f9;fill-opacity:1;fill-rule:evenodd;stroke:#000000;stroke-width:0.264583px;stroke-linecap:butt;stroke-linejoin:miter;stroke-opacity:1"
       d="m 9.7925053,-7.0395922 c 0,0 -0.5874975,0.094399 -0.6489011,0.2949547 -0.049768,0.1625534 -0.1134065,2.280249 0.019664,2.4382945 0.140334,0.1666722 0.6685647,0.2359634 0.6685647,0.2359634 z"
       id="path10"
       sodipodi:nodetypes="csscc" /><path
       style="fill:#bdbdbf;fill-opacity:1;fill-rule:evenodd;stroke:#000000;stroke-width:0.264583px;stroke-linecap:butt;stroke-linejoin:miter;stroke-opacity:1"
       d="m 9.1829315,-6.8232919 0.019664,2.595604 c 0,0 -0.1853849,-0.5163908 -0.4129373,-0.6685647 C 8.5621058,-5.0484265 7.9441206,-5.0338981 7.9441206,-5.0338981 L 7.9244567,-6.1154 c 0,0 0.6365281,0.061996 0.8652013,-0.078654 0.2286732,-0.1406505 0.3932735,-0.6292374 0.3932735,-0.6292379 z"
       id="path11"
       sodipodi:nodetypes="cczcczc" /></g></svg>
