<?xml version="1.0" encoding="UTF-8" standalone="no"?>
<!-- Created with Inkscape (http://www.inkscape.org/) -->

<svg
   width="32"
   height="32"
   viewBox="0 0 8.4666666 8.4666666"
   version="1.1"
   id="svg1517"
   sodipodi:docname="DmxMode.svg"
   inkscape:version="1.3 (0e150ed6c4, 2023-07-21)"
   xml:space="preserve"
   xmlns:inkscape="http://www.inkscape.org/namespaces/inkscape"
   xmlns:sodipodi="http://sodipodi.sourceforge.net/DTD/sodipodi-0.dtd"
   xmlns="http://www.w3.org/2000/svg"
   xmlns:svg="http://www.w3.org/2000/svg"><sodipodi:namedview
     id="namedview1519"
     pagecolor="#505050"
     bordercolor="#eeeeee"
     borderopacity="1"
     inkscape:showpageshadow="0"
     inkscape:pageopacity="0"
     inkscape:pagecheckerboard="0"
     inkscape:deskcolor="#505050"
     inkscape:document-units="mm"
     showgrid="false"
     inkscape:zoom="4.7572176"
     inkscape:cx="2.7326898"
     inkscape:cy="16.396139"
     inkscape:window-width="1280"
     inkscape:window-height="961"
     inkscape:window-x="-8"
     inkscape:window-y="-8"
     inkscape:window-maximized="1"
     inkscape:current-layer="svg1517" /><defs
     id="defs1514" /><g
     inkscape:label="Calque 1"
     id="layer1"
     transform="translate(12.896778,-0.35055867)" /><g
     inkscape:label="Calque 1"
     id="layer1-9"
     transform="translate(4.8976993,0.0878633)" /><g
     inkscape:label="Calque 1"
     id="layer1-6"
     transform="translate(21.720118,-13.235905)" /><g
     inkscape:label="Calque 1"
     id="layer1-9-6"
     transform="translate(13.72104,-12.797483)" /><g
     inkscape:label="Calque 1"
     id="layer1-66"
     transform="translate(42.033791,-18.1545)" /><g
     inkscape:label="Calque 1"
     id="layer1-9-7"
     transform="translate(34.034712,-17.716078)" /><g
     inkscape:label="Calque 1"
     id="layer1-2"
     transform="translate(40.439928,-12.606668)" /><g
     inkscape:label="Calque 1"
     id="layer1-3"
     transform="translate(25.574197,-4.1119641)" /><g
     inkscape:label="Calque 1"
     id="layer1-9-0"
     transform="translate(17.575118,-3.6735421)" /><g
     inkscape:label="Calque 1"
     id="layer1-6-5"
     transform="translate(34.397537,-16.99731)" /><g
     inkscape:label="Calque 1"
     id="layer1-9-6-7"
     transform="translate(26.398459,-16.558888)" /><g
     inkscape:label="Calque 1"
     id="layer1-66-4"
     transform="translate(54.71121,-21.915905)" /><g
     inkscape:label="Calque 1"
     id="layer1-9-7-8"
     transform="translate(46.712131,-21.477483)" /><g
     inkscape:label="Calque 1"
     id="layer1-2-1"
     transform="translate(53.117347,-16.368073)" /><path
     id="path129"
     style="fill:#a7cafd;fill-opacity:1;fill-rule:evenodd;stroke:#055cda;stroke-width:0.2;stroke-linecap:round;stroke-linejoin:round;stroke-dasharray:none;stroke-opacity:1"
     d="M 3.8402175,1.3945374 V 2.3359966 A 1.9396146,1.9396146 0 0 0 3.1678838,2.6113698 L 2.5042002,1.9476862 1.9481671,2.5037199 2.6123314,3.1678834 A 1.9396146,1.9396146 0 0 0 2.3383995,3.8402172 H 1.3945377 V 4.626449 H 2.339361 A 1.9396146,1.9396146 0 0 0 2.614734,5.2958993 L 1.9481671,5.9624661 2.5042002,6.5184992 3.1707672,5.8519323 A 1.9396146,1.9396146 0 0 0 3.8402175,6.1249028 V 7.0721292 H 4.6264491 V 6.1297086 A 1.9396146,1.9396146 0 0 0 5.2963802,5.8524129 L 5.9624664,6.5184992 6.5184995,5.9624661 5.8533737,5.2973411 A 1.9396146,1.9396146 0 0 0 6.1316312,4.626449 H 7.072129 V 3.8402172 H 6.1325916 A 1.9396146,1.9396146 0 0 0 5.8552967,3.1669223 L 6.5184995,2.5037199 5.9624664,1.9476862 5.2992635,2.6108891 A 1.9396146,1.9396146 0 0 0 4.6264491,2.3316712 V 1.3945374 Z M 4.2333333,3.317825 A 0.91257819,0.91257819 0 0 1 5.145477,4.2304496 0.91257819,0.91257819 0 0 1 4.2333333,5.1430744 0.91257819,0.91257819 0 0 1 3.3207088,4.2304496 0.91257819,0.91257819 0 0 1 4.2333333,3.317825 Z" /></svg>
