<?xml version="1.0" encoding="UTF-8" standalone="no"?>
<!-- Created with Inkscape (http://www.inkscape.org/) -->

<svg
   sodipodi:docname="Library.svg"
   inkscape:version="1.3 (0e150ed6c4, 2023-07-21)"
   version="1.1"
   id="svg2"
   height="398.87408"
   width="460.5"
   xmlns:inkscape="http://www.inkscape.org/namespaces/inkscape"
   xmlns:sodipodi="http://sodipodi.sourceforge.net/DTD/sodipodi-0.dtd"
   xmlns:xlink="http://www.w3.org/1999/xlink"
   xmlns="http://www.w3.org/2000/svg"
   xmlns:svg="http://www.w3.org/2000/svg"
   xmlns:rdf="http://www.w3.org/1999/02/22-rdf-syntax-ns#"
   xmlns:cc="http://creativecommons.org/ns#"
   xmlns:dc="http://purl.org/dc/elements/1.1/">
  <sodipodi:namedview
     id="base"
     pagecolor="#ffffff"
     bordercolor="#666666"
     borderopacity="1.0"
     inkscape:pageopacity="0.0"
     inkscape:pageshadow="2"
     inkscape:zoom="0.70000001"
     inkscape:cx="260"
     inkscape:cy="7.1428571"
     inkscape:document-units="px"
     inkscape:current-layer="layer12"
     showgrid="false"
     inkscape:window-width="1280"
     inkscape:window-height="961"
     inkscape:window-x="-8"
     inkscape:window-y="-8"
     inkscape:window-maximized="1"
     fit-margin-top="0"
     fit-margin-left="0"
     fit-margin-right="0"
     fit-margin-bottom="0"
     inkscape:showpageshadow="0"
     inkscape:pagecheckerboard="0"
     inkscape:deskcolor="#d1d1d1" />
  <defs
     id="defs4">
    <linearGradient
       inkscape:collect="always"
       id="linearGradient6989">
      <stop
         style="stop-color:#3887d0;stop-opacity:1"
         offset="0"
         id="stop6991" />
      <stop
         style="stop-color:#cbdae7;stop-opacity:1"
         offset="1"
         id="stop6993" />
    </linearGradient>
    <linearGradient
       inkscape:collect="always"
       id="linearGradient6979">
      <stop
         style="stop-color:#353535;stop-opacity:1"
         offset="0"
         id="stop6981" />
      <stop
         style="stop-color:#888888;stop-opacity:1"
         offset="1"
         id="stop6983" />
    </linearGradient>
    <linearGradient
       inkscape:collect="always"
       id="linearGradient6969">
      <stop
         style="stop-color:#868686;stop-opacity:1"
         offset="0"
         id="stop6971" />
      <stop
         style="stop-color:#343434;stop-opacity:1"
         offset="1"
         id="stop6973" />
    </linearGradient>
    <linearGradient
       inkscape:collect="always"
       id="linearGradient6953">
      <stop
         style="stop-color:#eeeeee;stop-opacity:1"
         offset="0"
         id="stop6955" />
      <stop
         style="stop-color:#868686;stop-opacity:1"
         offset="1"
         id="stop6957" />
    </linearGradient>
    <linearGradient
       inkscape:collect="always"
       id="linearGradient6913">
      <stop
         style="stop-color:#3887d0;stop-opacity:1"
         offset="0"
         id="stop6915" />
      <stop
         style="stop-color:#cbdae7;stop-opacity:1"
         offset="1"
         id="stop6917" />
    </linearGradient>
    <linearGradient
       inkscape:collect="always"
       xlink:href="#linearGradient6953"
       id="linearGradient7080"
       gradientUnits="userSpaceOnUse"
       x1="158.57143"
       y1="745.93359"
       x2="580"
       y2="746.64789" />
    <linearGradient
       inkscape:collect="always"
       xlink:href="#linearGradient6969"
       id="linearGradient7082"
       gradientUnits="userSpaceOnUse"
       gradientTransform="translate(-24)"
       x1="91.428574"
       y1="625.93359"
       x2="190"
       y2="625.93359" />
    <linearGradient
       inkscape:collect="always"
       xlink:href="#linearGradient6979"
       id="linearGradient7084"
       gradientUnits="userSpaceOnUse"
       x1="72.5"
       y1="622.7193"
       x2="161.07143"
       y2="622.7193" />
    <linearGradient
       inkscape:collect="always"
       xlink:href="#linearGradient6989"
       id="linearGradient7086"
       gradientUnits="userSpaceOnUse"
       x1="116.07143"
       y1="556.64789"
       x2="116.42857"
       y2="704.14789" />
    <linearGradient
       inkscape:collect="always"
       xlink:href="#linearGradient6913"
       id="linearGradient4891"
       gradientUnits="userSpaceOnUse"
       x1="385"
       y1="552.7193"
       x2="385.35715"
       y2="608.07648" />
  </defs>
  <metadata
     id="metadata7">
    <rdf:RDF>
      <cc:Work
         rdf:about="">
        <dc:format>image/svg+xml</dc:format>
        <dc:type
           rdf:resource="http://purl.org/dc/dcmitype/StillImage" />
      </cc:Work>
    </rdf:RDF>
  </metadata>
  <g
     style="display:inline"
     inkscape:label="png"
     id="layer11"
     inkscape:groupmode="layer"
     transform="translate(-131.64286,-337.77381)" />
  <g
     inkscape:groupmode="layer"
     id="layer12"
     inkscape:label="toiture"
     style="display:inline"
     transform="translate(-131.64286,-337.77381)">
    <rect
       style="fill:#ffffff;fill-opacity:1;fill-rule:nonzero;stroke:none"
       id="rect7072"
       width="361.97104"
       height="217.60843"
       x="184.83328"
       y="495.41519" />
    <path
       style="display:inline;fill:#cccccf;fill-opacity:1;stroke:#cccccf;stroke-width:1px;stroke-linecap:butt;stroke-linejoin:miter;stroke-opacity:1"
       d="m 215,712.00504 v 4.46428 h -34.28571 l 0.17857,-237.32142 371.96428,0.53571 -0.17857,236.60714 -233.57143,0.35715 v -5 l 225.17858,0.17857 -0.17858,-203.39286 c -4.7339,2.57734 -8.48183,5.78212 -18.21428,5.17857 -10.4576,0.46225 -15.0918,-3.44305 -20,-7.14286 -3.96272,3.34179 -6.92046,7.01858 -20.53572,7.14286 -10.16654,0.51718 -15.90077,-3.80089 -20.89285,-8.92857 -4.45954,5.92283 -10.95935,9.19331 -20.17857,8.92857 -11.60012,0.0275 -18.80026,-4.03071 -23.75,-10.17857 -4.95556,4.34656 -6.91015,10.12215 -21.25,10 -10.75699,0.1321 -19.41237,-3.06336 -24.46429,-11.96429 -5.92484,10.18569 -14.29016,11.82967 -23.03571,12.14286 -16.36688,-0.0378 -19.71395,-7.08627 -24.10715,-13.57143 -6.73191,12.72818 -14.91601,12.87075 -23.03571,13.57143 -13.61185,1.43829 -20.039,-5.90471 -25.17857,-14.82143 -4.7863,11.23688 -13.39547,14.48047 -23.39286,14.82143 -13.86674,2.20248 -20.26278,-5.42491 -25.17857,-15 -5.02891,10.04959 -12.53626,15.71423 -23.75,14.82143 -9.40161,1.1278 -14.19388,-2.35374 -19.46429,-5.35714 v 203.75 z"
       id="path6909"
       inkscape:connector-curvature="0"
       sodipodi:nodetypes="cccccccccccccccccccccccccccc" />
    <rect
       style="display:inline;fill:#868686;fill-opacity:1;fill-rule:nonzero;stroke:none"
       id="rect6943"
       width="171.89055"
       height="93.09864"
       x="350.31439"
       y="533.94531" />
    <path
       style="display:inline;fill:url(#linearGradient4891);fill-opacity:1;stroke:none"
       d="m 364.82143,548.25504 142.85714,0.89285 1.07143,63.03572 -143.57143,-0.35714 z"
       id="path6911"
       inkscape:connector-curvature="0"
       sodipodi:nodetypes="ccccc" />
    <rect
       style="display:inline;fill:none;stroke:#343434;stroke-width:7.34282;stroke-miterlimit:4;stroke-dasharray:none;stroke-opacity:1"
       id="rect6939"
       width="148.07028"
       height="66.50045"
       x="362.09824"
       y="546.73944" />
    <g
       style="display:inline"
       id="g6961"
       transform="translate(0,-20)">
      <rect
         y="736.64789"
         x="146.25"
         height="20"
         width="445.89285"
         id="rect6949"
         style="fill:#868686;fill-opacity:1;fill-rule:nonzero;stroke:none" />
      <rect
         y="742.18359"
         x="154.10715"
         height="8.75"
         width="431.60715"
         id="rect6951"
         style="fill:url(#linearGradient7080);fill-opacity:1;fill-rule:nonzero;stroke:none" />
    </g>
    <g
       style="display:inline"
       id="g6999"
       transform="translate(150)">
      <rect
         y="533.43359"
         x="64.642853"
         height="182.85715"
         width="104.64286"
         id="rect6967"
         style="fill:url(#linearGradient7082);fill-opacity:1;fill-rule:nonzero;stroke:none" />
      <rect
         y="543.07648"
         x="70"
         height="173.21428"
         width="93.571426"
         id="rect6977"
         style="fill:url(#linearGradient7084);fill-opacity:1;fill-rule:nonzero;stroke:none" />
      <rect
         y="553.43359"
         x="77.142853"
         height="155.71429"
         width="79.64286"
         id="rect6987"
         style="fill:url(#linearGradient7086);fill-opacity:1;fill-rule:nonzero;stroke:none" />
      <rect
         y="621.29077"
         x="144.28571"
         height="18.928572"
         width="7.8571429"
         id="rect6997"
         style="fill:#666666;fill-opacity:1;fill-rule:nonzero;stroke:none" />
    </g>
    <path
       style="fill:#d40000;fill-opacity:1;stroke:#000000;stroke-width:1px;stroke-linecap:butt;stroke-linejoin:miter;stroke-opacity:1"
       d="m 183.92857,338.43361 -2.47845,-0.14024 -49.30726,124.06881 v 21.42857 c 6.01358,6.60547 9.93828,15.29982 25,12.85715 10.31018,0.96659 19.89362,-0.61043 26.42857,-12.85715 z"
       id="path6823"
       inkscape:connector-curvature="0"
       sodipodi:nodetypes="ccccccc" />
    <path
       style="fill:#000000;fill-opacity:0;stroke:#000000;stroke-width:1px;stroke-linecap:butt;stroke-linejoin:miter;stroke-opacity:1"
       d="M 235.35714,338.79075 235,484.50504 c -4.4514,9.26623 -12.93012,12.99489 -25,11.78571 -15.05781,2.5874 -20.64741,-5.24023 -26.42857,-12.85714 l 0.35714,-144.28571 z"
       id="path6825"
       inkscape:connector-curvature="0"
       sodipodi:nodetypes="cccccc" />
    <path
       sodipodi:nodetypes="cccccc"
       inkscape:connector-curvature="0"
       id="path6827"
       d="m 285.58001,338.78216 -0.34494,145.73013 c -4.29938,9.26724 -12.48854,12.9963 -24.14622,11.78699 -14.54357,2.58768 -19.94228,-5.2408 -25.52601,-12.85854 l 0.34495,-144.30139 z"
       style="fill:#d40000;fill-opacity:1;stroke:#000000;stroke-width:0.982829px;stroke-linecap:butt;stroke-linejoin:miter;stroke-opacity:1" />
    <path
       sodipodi:nodetypes="cccccc"
       inkscape:connector-curvature="0"
       id="path6829"
       d="M 235.35714,338.79075 235,484.50504 c -4.4514,9.26623 -12.93012,12.99489 -25,11.78571 -15.05781,2.5874 -20.64741,-5.24023 -26.42857,-12.85714 l 0.35714,-144.28571 z"
       style="fill:#f3f3f3;fill-opacity:1;stroke:#000000;stroke-width:1px;stroke-linecap:butt;stroke-linejoin:miter;stroke-opacity:1" />
    <path
       style="fill:#f3f3f3;fill-opacity:1;stroke:#000000;stroke-width:0.986287px;stroke-linecap:butt;stroke-linejoin:miter;stroke-opacity:1"
       d="m 336.07827,338.42675 -0.34738,145.72694 c -4.32978,9.26703 -12.57685,12.99602 -24.31696,11.78673 -14.64641,2.58763 -20.0833,-5.24068 -25.70651,-12.85825 l 0.34739,-144.29824 z"
       id="path6831"
       inkscape:connector-curvature="0"
       sodipodi:nodetypes="cccccc" />
    <path
       style="fill:#d40000;fill-opacity:1;stroke:#000000;stroke-width:0.99659px;stroke-linecap:butt;stroke-linejoin:miter;stroke-opacity:1"
       d="m 387.0017,338.78904 -0.3547,145.71744 c -4.42099,9.26643 -12.84179,12.99517 -24.82923,11.78596 -14.95496,2.58746 -20.50638,-5.24034 -26.24805,-12.85742 l 0.35471,-144.28882 z"
       id="path6833"
       inkscape:connector-curvature="0"
       sodipodi:nodetypes="cccccc" />
    <path
       sodipodi:nodetypes="cccccc"
       inkscape:connector-curvature="0"
       id="path6835"
       d="m 437.01205,338.42154 -0.34007,145.73655 c -4.23857,9.26764 -12.31193,12.99687 -23.80474,11.7875 -14.3379,2.5878 -19.66026,-5.24102 -25.16503,-12.8591 l 0.34008,-144.30774 z"
       style="fill:#f3f3f3;fill-opacity:1;stroke:#000000;stroke-width:0.975877px;stroke-linecap:butt;stroke-linejoin:miter;stroke-opacity:1" />
    <path
       sodipodi:nodetypes="cccccc"
       inkscape:connector-curvature="0"
       id="path6837"
       d="m 489.0017,338.78904 -0.3547,145.71744 c -4.42099,9.26643 -12.84179,12.99517 -24.82923,11.78596 -14.95496,2.58746 -20.50638,-5.24034 -26.24805,-12.85742 l 0.35471,-144.28882 z"
       style="fill:#d40000;fill-opacity:1;stroke:#000000;stroke-width:0.99659px;stroke-linecap:butt;stroke-linejoin:miter;stroke-opacity:1" />
    <path
       style="fill:#f3f3f3;fill-opacity:1;stroke:#000000;stroke-width:0.975877px;stroke-linecap:butt;stroke-linejoin:miter;stroke-opacity:1"
       d="m 539.01205,338.42154 -0.34007,145.73655 c -4.23857,9.26764 -12.31193,12.99687 -23.80474,11.7875 -14.3379,2.5878 -19.66026,-5.24102 -25.16503,-12.8591 l 0.34008,-144.30774 z"
       id="path6839"
       inkscape:connector-curvature="0"
       sodipodi:nodetypes="cccccc" />
    <path
       sodipodi:nodetypes="ccccccc"
       inkscape:connector-curvature="0"
       id="path6841"
       d="m 538.14286,338.43361 2.47845,-0.14024 49.30726,124.06881 v 21.42857 c -6.01358,6.60547 -9.93828,15.29982 -25,12.85715 -10.31018,0.96659 -19.89362,-0.61043 -26.42857,-12.85715 z"
       style="fill:#d40000;fill-opacity:1;stroke:#000000;stroke-width:1px;stroke-linecap:butt;stroke-linejoin:miter;stroke-opacity:1" />
  </g>
</svg>
