<?xml version="1.0" encoding="UTF-8" standalone="no"?>
<!-- Created with Inkscape (http://www.inkscape.org/) -->

<svg
   width="32"
   height="32"
   viewBox="0 0 8.4666666 8.4666666"
   version="1.1"
   id="svg1517"
   sodipodi:docname="Link.svg"
   inkscape:version="1.3 (0e150ed6c4, 2023-07-21)"
   xml:space="preserve"
   xmlns:inkscape="http://www.inkscape.org/namespaces/inkscape"
   xmlns:sodipodi="http://sodipodi.sourceforge.net/DTD/sodipodi-0.dtd"
   xmlns="http://www.w3.org/2000/svg"
   xmlns:svg="http://www.w3.org/2000/svg"><sodipodi:namedview
     id="namedview1519"
     pagecolor="#505050"
     bordercolor="#eeeeee"
     borderopacity="1"
     inkscape:showpageshadow="0"
     inkscape:pageopacity="0"
     inkscape:pagecheckerboard="0"
     inkscape:deskcolor="#505050"
     inkscape:document-units="mm"
     showgrid="false"
     inkscape:zoom="2.3786088"
     inkscape:cx="-26.065657"
     inkscape:cy="-66.004969"
     inkscape:window-width="1280"
     inkscape:window-height="961"
     inkscape:window-x="-8"
     inkscape:window-y="-8"
     inkscape:window-maximized="1"
     inkscape:current-layer="svg1517" /><defs
     id="defs1514" /><g
     inkscape:label="Calque 1"
     id="layer1"
     transform="translate(12.896778,-0.35055867)" /><g
     id="g20"
     transform="matrix(0.66771603,0.66771603,-0.66771603,0.66771603,6.9382045,9.984077)"><path
       id="path15"
       style="fill:#ada8a8;fill-rule:evenodd;stroke:#000000;stroke-width:0.2;stroke-linecap:round;stroke-linejoin:round;stroke-dasharray:none;stroke-opacity:1"
       d="m -6.3314872,-7.6686698 a 2.1236758,3.6181142 0 0 0 -2.123901,3.6178671 2.1236758,3.6181142 0 0 0 2.123901,3.61838368 2.1236758,3.6181142 0 0 0 2.123384,-3.61838368 2.1236758,3.6181142 0 0 0 -2.123384,-3.6178671 z m 0,1.1379151 a 1.1922166,2.4798067 0 0 1 1.192175,2.479952 1.1922166,2.4798067 0 0 1 -1.192175,2.4799519 1.1922166,2.4798067 0 0 1 -1.192175,-2.4799519 1.1922166,2.4798067 0 0 1 1.192175,-2.479952 z" /><path
       id="path16"
       style="fill:#ada8a8;fill-rule:evenodd;stroke:#000000;stroke-width:0.2;stroke-linecap:round;stroke-linejoin:round;stroke-dasharray:none;stroke-opacity:1"
       d="m -6.3314872,-4.12921 a 2.1236758,3.6181142 0 0 0 -2.123901,3.61786705 2.1236758,3.6181142 0 0 0 2.123901,3.61838365 2.1236758,3.6181142 0 0 0 2.123384,-3.61838365 2.1236758,3.6181142 0 0 0 -2.123384,-3.61786705 z m 0,1.1379151 a 1.1922166,2.4798067 0 0 1 1.192175,2.47995195 1.1922166,2.4798067 0 0 1 -1.192175,2.47995195 1.1922166,2.4798067 0 0 1 -1.192175,-2.47995195 1.1922166,2.4798067 0 0 1 1.192175,-2.47995195 z" /><path
       style="fill:none;fill-rule:evenodd;stroke:#000000;stroke-width:0.2;stroke-linecap:butt;stroke-linejoin:miter;stroke-dasharray:none;stroke-opacity:1"
       d="m -7.5016883,-3.5591234 c 0,0 0.017648,0.4533933 0.083571,0.69806 0.054544,0.20245 0.2507117,0.6292374 0.2507117,0.6292374"
       id="path17"
       sodipodi:nodetypes="csc" /><path
       style="fill:none;fill-rule:evenodd;stroke:#000000;stroke-width:0.2;stroke-linecap:butt;stroke-linejoin:miter;stroke-dasharray:none;stroke-opacity:1"
       d="m -8.2095803,-2.349808 c 0,0 0.134312,0.4796892 0.2703756,0.7324716 0.1162083,0.2158945 0.4768438,0.65381681 0.4768438,0.65381681"
       id="path18"
       sodipodi:nodetypes="csc" /><path
       style="fill:#ada8a8;fill-opacity:1;fill-rule:evenodd;stroke:none;stroke-width:0.264583px;stroke-linecap:butt;stroke-linejoin:miter;stroke-opacity:1"
       d="m -7.6024645,-3.5664973 0.022122,0.3219926 -0.2507118,0.4129368 -0.1622253,0.3834416 -0.08357,0.1917207 -0.098318,-0.34903 0.1376458,-0.4522643 0.2457958,-0.3686936 z"
       id="path19"
       sodipodi:nodetypes="ccccccccc" /><path
       style="fill:#ada8a8;fill-opacity:1;fill-rule:evenodd;stroke:none;stroke-width:0.264583px;stroke-linecap:butt;stroke-linejoin:miter;stroke-opacity:1"
       d="m -7.2903039,-2.2588635 0.1351878,0.2113844 -0.1228979,0.4276847 -0.07128,0.4731569 -0.044244,0.089716 -0.1769731,-0.2064685 0.049159,-0.46947 0.1646833,-0.4547223 z"
       id="path20"
       sodipodi:nodetypes="ccccccccc" /></g></svg>
