<?xml version="1.0" encoding="UTF-8" standalone="no"?>
<!-- Created with Inkscape (http://www.inkscape.org/) -->

<svg
   width="32"
   height="32"
   viewBox="0 0 8.4666666 8.4666666"
   version="1.1"
   id="svg1517"
   sodipodi:docname="Loop.svg"
   inkscape:version="1.3 (0e150ed6c4, 2023-07-21)"
   xml:space="preserve"
   xmlns:inkscape="http://www.inkscape.org/namespaces/inkscape"
   xmlns:sodipodi="http://sodipodi.sourceforge.net/DTD/sodipodi-0.dtd"
   xmlns="http://www.w3.org/2000/svg"
   xmlns:svg="http://www.w3.org/2000/svg"><sodipodi:namedview
     id="namedview1519"
     pagecolor="#505050"
     bordercolor="#eeeeee"
     borderopacity="1"
     inkscape:showpageshadow="0"
     inkscape:pageopacity="0"
     inkscape:pagecheckerboard="0"
     inkscape:deskcolor="#505050"
     inkscape:document-units="mm"
     showgrid="false"
     inkscape:zoom="6.7277216"
     inkscape:cx="8.6210464"
     inkscape:cy="-3.5673295"
     inkscape:window-width="1280"
     inkscape:window-height="961"
     inkscape:window-x="-8"
     inkscape:window-y="-8"
     inkscape:window-maximized="1"
     inkscape:current-layer="svg1517" /><defs
     id="defs1514" /><g
     inkscape:label="Calque 1"
     id="layer1"
     transform="translate(12.896778,-0.35055867)" /><g
     inkscape:label="Calque 1"
     id="layer1-9"
     transform="translate(4.8976993,0.0878633)" /><g
     inkscape:label="Calque 1"
     id="layer1-6"
     transform="translate(21.720118,-13.235905)" /><g
     inkscape:label="Calque 1"
     id="layer1-9-6"
     transform="translate(13.72104,-12.797483)" /><g
     inkscape:label="Calque 1"
     id="layer1-66"
     transform="translate(42.033791,-18.1545)" /><g
     inkscape:label="Calque 1"
     id="layer1-9-7"
     transform="translate(34.034712,-17.716078)" /><g
     inkscape:label="Calque 1"
     id="layer1-2"
     transform="translate(40.439928,-12.606668)" /><g
     inkscape:label="Calque 1"
     id="layer1-3"
     transform="translate(25.574197,-4.1119641)" /><g
     inkscape:label="Calque 1"
     id="layer1-9-0"
     transform="translate(17.575118,-3.6735421)" /><g
     inkscape:label="Calque 1"
     id="layer1-6-5"
     transform="translate(34.397537,-16.99731)" /><g
     inkscape:label="Calque 1"
     id="layer1-9-6-7"
     transform="translate(26.398459,-16.558888)" /><g
     inkscape:label="Calque 1"
     id="layer1-66-4"
     transform="translate(54.71121,-21.915905)" /><g
     inkscape:label="Calque 1"
     id="layer1-9-7-8"
     transform="translate(46.712131,-21.477483)" /><g
     inkscape:label="Calque 1"
     id="layer1-2-1"
     transform="translate(53.117347,-16.368073)" /><g
     inkscape:label="Calque 1"
     id="layer1-94"
     transform="translate(9.2752343,-14.205676)" /><g
     id="g2"
     transform="translate(4.2085287,8.67004)"><path
       style="fill:#a7cafd;fill-opacity:1;fill-rule:evenodd;stroke:#055cda;stroke-width:0.2;stroke-linecap:butt;stroke-linejoin:miter;stroke-dasharray:none;stroke-opacity:1"
       d="m -0.81497453,-7.3906108 v 3.4332965 l 1.74934713,-1.7493465 -1.74934713,-1.880139 z"
       id="path13" /><path
       id="path1"
       style="fill:#a7cafd;fill-opacity:1;fill-rule:evenodd;stroke:#055cda;stroke-width:0.2;stroke-linecap:round;stroke-linejoin:round;stroke-dasharray:none;stroke-opacity:1"
       d="m 1.2485026,-6.1391602 v 0.8971029 c 0.3827053,0.012124 0.7179543,0.044788 0.9503296,0.1291911 0.5568152,0.2022456 0.9007203,0.6799035 0.9007202,0.9901204 -10e-8,0.3102171 -0.3415269,0.8283804 -0.9007202,1.0247437 -0.4523086,0.1588301 -1.32501585,0.125057 -2.17402751,0.125057 -0.84901177,0 -1.68387379,0.030264 -2.17402749,-0.1374594 -0.560929,-0.1919413 -0.9002034,-0.7021242 -0.9002035,-1.0123413 -2e-7,-0.3102169 0.3414691,-0.78072 0.9002035,-0.9782348 0.2485015,-0.087846 0.5778172,-0.1241111 0.9503296,-0.1384929 v -0.8914184 c -0.6835088,0.014215 -1.294476,0.067456 -1.7244426,0.2537313 -0.7677154,0.3325985 -1.2211143,1.1891755 -1.2211141,1.740979 2e-7,0.5518032 0.4639226,1.4450155 1.2211141,1.8009236 0.6856609,0.3222864 1.7968373,0.2439128 2.94814049,0.2439128 1.15130311,0 2.31163871,0.089729 2.94814041,-0.2227254 0.7510527,-0.3686866 1.2211139,-1.2703078 1.2211141,-1.822111 2e-7,-0.5518035 -0.4633919,-1.4063556 -1.2211141,-1.7611329 C 2.5602026,-6.0905668 1.9412884,-6.1331683 1.2485026,-6.1391602 Z" /></g></svg>
