<?xml version="1.0" encoding="UTF-8" standalone="no"?>
<!-- Created with Inkscape (http://www.inkscape.org/) -->

<svg
   width="32"
   height="32"
   viewBox="0 0 8.4666666 8.4666666"
   version="1.1"
   id="svg1517"
   sodipodi:docname="MicroNotFound.svg"
   inkscape:version="1.3 (0e150ed6c4, 2023-07-21)"
   xml:space="preserve"
   xmlns:inkscape="http://www.inkscape.org/namespaces/inkscape"
   xmlns:sodipodi="http://sodipodi.sourceforge.net/DTD/sodipodi-0.dtd"
   xmlns:xlink="http://www.w3.org/1999/xlink"
   xmlns="http://www.w3.org/2000/svg"
   xmlns:svg="http://www.w3.org/2000/svg"><sodipodi:namedview
     id="namedview1519"
     pagecolor="#505050"
     bordercolor="#eeeeee"
     borderopacity="1"
     inkscape:showpageshadow="0"
     inkscape:pageopacity="0"
     inkscape:pagecheckerboard="0"
     inkscape:deskcolor="#505050"
     inkscape:document-units="mm"
     showgrid="false"
     inkscape:zoom="6.7277216"
     inkscape:cx="18.579841"
     inkscape:cy="2.8241359"
     inkscape:window-width="1280"
     inkscape:window-height="961"
     inkscape:window-x="-8"
     inkscape:window-y="-8"
     inkscape:window-maximized="1"
     inkscape:current-layer="svg1517" /><defs
     id="defs1514"><linearGradient
       inkscape:collect="always"
       id="linearGradient5"><stop
         style="stop-color:#9bbdfb;stop-opacity:1;"
         offset="0"
         id="stop4" /><stop
         style="stop-color:#5392ee;stop-opacity:1;"
         offset="1"
         id="stop5" /></linearGradient><radialGradient
       inkscape:collect="always"
       xlink:href="#linearGradient5"
       id="radialGradient6"
       cx="10.347651"
       cy="4.9154654"
       fx="10.347651"
       fy="4.9154654"
       r="2.3109622"
       gradientTransform="matrix(-1.2853243,0.01738333,-0.01926379,-1.424366,17.618796,8.9368606)"
       gradientUnits="userSpaceOnUse" /></defs><g
     inkscape:label="Calque 1"
     id="layer1"
     transform="translate(12.896778,-0.35055867)" /><g
     inkscape:label="Calque 1"
     id="layer1-9"
     transform="translate(4.8976993,0.0878633)" /><g
     inkscape:label="Calque 1"
     id="layer1-6"
     transform="translate(21.720118,-13.235905)" /><g
     inkscape:label="Calque 1"
     id="layer1-9-6"
     transform="translate(13.72104,-12.797483)" /><g
     inkscape:label="Calque 1"
     id="layer1-66"
     transform="translate(42.033791,-18.1545)" /><g
     inkscape:label="Calque 1"
     id="layer1-9-7"
     transform="translate(34.034712,-17.716078)" /><g
     inkscape:label="Calque 1"
     id="layer1-2"
     transform="translate(40.439928,-12.606668)" /><path
     d="M 4.2333329,0.20179428 A 1.2731176,1.2731176 0 0 1 5.5064519,1.4749119 V 4.0211471 A 1.2731176,1.2731176 0 0 1 4.2333329,5.2942647 1.2731176,1.2731176 0 0 1 2.9602149,4.0211471 V 1.4749119 a 1.2731176,1.2731176 0 0 1 1.273118,-1.27311762 m 2.970608,3.81935282 c 0,1.4980349 -1.107613,2.7329591 -2.546236,2.9409017 V 8.2648724 H 3.8089599 V 6.9620488 C 2.3703368,6.7541062 1.2627258,5.519182 1.2627258,4.0211471 h 0.848744 a 2.1218627,2.1218627 0 0 0 2.1218631,2.1218626 2.1218627,2.1218627 0 0 0 2.121863,-2.1218626 z"
     id="path1"
     style="fill:url(#radialGradient6);stroke:#2f2f2f;stroke-width:0.128544;stroke-dasharray:none;stroke-opacity:1" /><path
     id="rect2"
     style="fill:#e60014;fill-rule:evenodd;stroke:#bb0010;stroke-width:0.0802987;stroke-linecap:round;stroke-linejoin:round"
     d="M 2.3698811,2.0086629 2.0086629,2.3698812 3.8715983,4.2333334 2.0086629,6.0962687 2.3698812,6.4580037 4.2333334,4.5945516 6.0962687,6.4580038 6.4580037,6.0962688 4.5945516,4.2333334 6.4580037,2.3698812 6.0962687,2.008663 4.2333333,3.8715983 Z" /></svg>
