<?xml version="1.0" encoding="UTF-8" standalone="no"?>
<!-- Created with Inkscape (http://www.inkscape.org/) -->

<svg
   width="32"
   height="32"
   viewBox="0 0 8.4666666 8.4666666"
   version="1.1"
   id="svg1517"
   sodipodi:docname="OnOfft.svg"
   inkscape:version="1.3 (0e150ed6c4, 2023-07-21)"
   xml:space="preserve"
   xmlns:inkscape="http://www.inkscape.org/namespaces/inkscape"
   xmlns:sodipodi="http://sodipodi.sourceforge.net/DTD/sodipodi-0.dtd"
   xmlns="http://www.w3.org/2000/svg"
   xmlns:svg="http://www.w3.org/2000/svg"><sodipodi:namedview
     id="namedview1519"
     pagecolor="#505050"
     bordercolor="#eeeeee"
     borderopacity="1"
     inkscape:showpageshadow="0"
     inkscape:pageopacity="0"
     inkscape:pagecheckerboard="0"
     inkscape:deskcolor="#505050"
     inkscape:document-units="mm"
     showgrid="false"
     inkscape:zoom="3.3638608"
     inkscape:cx="8.9183238"
     inkscape:cy="-12.188376"
     inkscape:window-width="1280"
     inkscape:window-height="961"
     inkscape:window-x="-8"
     inkscape:window-y="-8"
     inkscape:window-maximized="1"
     inkscape:current-layer="svg1517" /><defs
     id="defs1514" /><g
     inkscape:label="Calque 1"
     id="layer1"
     transform="translate(12.896778,-0.35055867)" /><g
     inkscape:label="Calque 1"
     id="layer1-9"
     transform="translate(4.8976993,0.0878633)" /><g
     id="g34"
     transform="matrix(1.3938094,0,0,1.3938094,-17.075883,-9.9134973)"><path
       id="circle34"
       style="fill:#fe0000;fill-rule:evenodd;stroke:#7e2b2b;stroke-width:0.109006;stroke-linecap:round;stroke-linejoin:round;stroke-opacity:1"
       d="m 16.301331,7.9948608 v 1.3601237 c 0.302526,0.2804248 0.475232,0.6737375 0.476973,1.0862385 7.4e-5,0.822842 -0.66699,1.489906 -1.489832,1.489832 -0.822842,7.4e-5 -1.489905,-0.66699 -1.489831,-1.489832 0.0017,-0.412501 0.174447,-0.8058137 0.476973,-1.0862385 v -1.354956 c -0.987903,0.4089835 -1.632892,1.3719823 -1.635042,2.4411945 -8e-6,1.462398 1.185502,2.647909 2.6479,2.647901 1.462399,8e-6 2.647909,-1.185502 2.647901,-2.647901 -6.3e-5,-1.0710939 -0.645404,-2.0366576 -1.635042,-2.4463622 z"
       sodipodi:nodetypes="ccccccccccc" /><rect
       style="fill:#fe0000;fill-opacity:1;fill-rule:evenodd;stroke:#7e2b2b;stroke-width:0.211657;stroke-linecap:round;stroke-linejoin:round;stroke-dasharray:none;stroke-opacity:1"
       id="rect33"
       width="0.95186239"
       height="2.5249555"
       x="14.812541"
       y="7.2617211" /></g></svg>
