<?xml version="1.0" encoding="UTF-8" standalone="no"?>
<!-- Created with Inkscape (http://www.inkscape.org/) -->

<svg
   width="32"
   height="32"
   viewBox="0 0 8.4666666 8.4666666"
   version="1.1"
   id="svg1517"
   sodipodi:docname="ProgramOptions.svg"
   inkscape:version="1.3 (0e150ed6c4, 2023-07-21)"
   xml:space="preserve"
   xmlns:inkscape="http://www.inkscape.org/namespaces/inkscape"
   xmlns:sodipodi="http://sodipodi.sourceforge.net/DTD/sodipodi-0.dtd"
   xmlns="http://www.w3.org/2000/svg"
   xmlns:svg="http://www.w3.org/2000/svg"><sodipodi:namedview
     id="namedview1519"
     pagecolor="#505050"
     bordercolor="#eeeeee"
     borderopacity="1"
     inkscape:showpageshadow="0"
     inkscape:pageopacity="0"
     inkscape:pagecheckerboard="0"
     inkscape:deskcolor="#505050"
     inkscape:document-units="mm"
     showgrid="false"
     inkscape:zoom="4.7572176"
     inkscape:cx="0.63062072"
     inkscape:cy="13.453242"
     inkscape:window-width="1280"
     inkscape:window-height="961"
     inkscape:window-x="-8"
     inkscape:window-y="-8"
     inkscape:window-maximized="1"
     inkscape:current-layer="svg1517" /><defs
     id="defs1514" /><g
     inkscape:label="Calque 1"
     id="layer1"
     transform="translate(12.896778,-0.35055867)" /><g
     inkscape:label="Calque 1"
     id="layer1-9"
     transform="translate(4.8976993,0.0878633)" /><g
     inkscape:label="Calque 1"
     id="layer1-6"
     transform="translate(21.720118,-13.235905)" /><g
     inkscape:label="Calque 1"
     id="layer1-9-6"
     transform="translate(13.72104,-12.797483)" /><g
     inkscape:label="Calque 1"
     id="layer1-66"
     transform="translate(42.033791,-18.1545)" /><g
     inkscape:label="Calque 1"
     id="layer1-9-7"
     transform="translate(34.034712,-17.716078)" /><g
     inkscape:label="Calque 1"
     id="layer1-2"
     transform="translate(40.439928,-12.606668)" /><path
     id="path129"
     style="fill:#a7cafd;fill-opacity:1;fill-rule:evenodd;stroke:#055cda;stroke-width:0.172555;stroke-linecap:round;stroke-linejoin:round;stroke-dasharray:none;stroke-opacity:1"
     d="m 2.3552189,0.0862775 v 0.873424 A 1.7994469,1.7994469 0 0 0 1.7314718,1.2151746 L 1.11575,0.5994526 0.5998991,1.1153041 1.2160668,1.7314714 A 1.7994469,1.7994469 0 0 0 0.961931,2.3552185 H 0.0862775 V 3.0846326 H 0.9628227 A 1.7994469,1.7994469 0 0 0 1.218296,3.7057046 L 0.5998991,4.3241015 1.11575,4.8399524 1.7341469,4.2215555 a 1.7994469,1.7994469 0 0 0 0.621072,0.2532441 V 5.353574 H 3.0846331 V 4.4792581 A 1.7994469,1.7994469 0 0 0 3.7061509,4.2220014 L 4.324102,4.8399524 4.8399529,4.3241015 4.2228935,3.7070422 A 1.7994469,1.7994469 0 0 0 4.4810419,3.0846326 H 5.3535745 V 2.3552185 H 4.4819335 A 1.7994469,1.7994469 0 0 0 4.2246769,1.7305797 L 4.8399529,1.1153041 4.324102,0.5994526 3.708826,1.2147287 A 1.7994469,1.7994469 0 0 0 3.0846331,0.9556887 V 0.0862775 Z M 2.719926,1.8705773 A 0.84663006,0.84663006 0 0 1 3.5661533,2.7172504 0.84663006,0.84663006 0 0 1 2.719926,3.5639237 0.84663006,0.84663006 0 0 1 1.8732528,2.7172504 0.84663006,0.84663006 0 0 1 2.719926,1.8705773 Z" /><path
     id="path145"
     style="fill:#a7cafd;fill-opacity:1;fill-rule:evenodd;stroke:#055cda;stroke-width:0.172555;stroke-linecap:round;stroke-linejoin:round;stroke-dasharray:none;stroke-opacity:1"
     d="M 4.4355271,3.5207544 4.7772966,4.3245349 A 1.7994469,1.7994469 0 0 0 4.3032509,4.8037088 L 3.4956933,4.4780131 3.2228263,5.1545842 4.0309684,5.4805153 a 1.7994469,1.7994469 0 0 0 0.010199,0.6734548 L 3.2353354,6.496612 3.520754,7.1678654 4.3274069,6.8248746 A 1.7994469,1.7994469 0 0 0 4.8055342,7.2964584 L 4.4784236,8.1075245 5.1549942,8.3803918 5.4821048,7.5693257 a 1.7994469,1.7994469 0 0 0 0.6706441,-0.00997 L 6.4966119,8.3680569 7.1678655,8.0826383 6.825747,7.278037 A 1.7994469,1.7994469 0 0 0 7.2970432,6.798094 L 8.1075246,7.1249687 8.3803918,6.4483981 7.5710801,6.1219951 A 1.7994469,1.7994469 0 0 0 7.5650968,5.448201 L 8.368057,5.1067804 8.0826384,4.435527 7.2804987,4.7765987 A 1.7994469,1.7994469 0 0 0 6.7993346,4.3024303 L 7.1247945,3.4954579 6.4482237,3.22259 6.122764,4.0295629 a 1.7994469,1.7994469 0 0 0 -0.6757841,0.00586 L 5.1067807,3.2353358 Z M 5.4693476,5.0200717 A 0.84663006,0.84663006 0 0 1 6.5794018,5.4681069 0.84663006,0.84663006 0 0 1 6.1319514,6.5783971 0.84663006,0.84663006 0 0 1 5.0214867,6.1305362 0.84663006,0.84663006 0 0 1 5.4693476,5.0200717 Z" /></svg>
