<?xml version="1.0" encoding="UTF-8" standalone="no"?>
<!-- Created with Inkscape (http://www.inkscape.org/) -->

<svg
   width="32"
   height="32"
   viewBox="0 0 8.4666666 8.4666666"
   version="1.1"
   id="svg1517"
   sodipodi:docname="Reverse.svg"
   inkscape:version="1.3 (0e150ed6c4, 2023-07-21)"
   xml:space="preserve"
   xmlns:inkscape="http://www.inkscape.org/namespaces/inkscape"
   xmlns:sodipodi="http://sodipodi.sourceforge.net/DTD/sodipodi-0.dtd"
   xmlns:xlink="http://www.w3.org/1999/xlink"
   xmlns="http://www.w3.org/2000/svg"
   xmlns:svg="http://www.w3.org/2000/svg"><sodipodi:namedview
     id="namedview1519"
     pagecolor="#505050"
     bordercolor="#eeeeee"
     borderopacity="1"
     inkscape:showpageshadow="0"
     inkscape:pageopacity="0"
     inkscape:pagecheckerboard="0"
     inkscape:deskcolor="#505050"
     inkscape:document-units="mm"
     showgrid="false"
     inkscape:zoom="1.6819304"
     inkscape:cx="-30.619578"
     inkscape:cy="5.9455492"
     inkscape:window-width="1280"
     inkscape:window-height="961"
     inkscape:window-x="-8"
     inkscape:window-y="-8"
     inkscape:window-maximized="1"
     inkscape:current-layer="svg1517" /><defs
     id="defs1514"><linearGradient
       id="linearGradient5"
       inkscape:collect="always"><stop
         style="stop-color:#b8e59d;stop-opacity:1;"
         offset="0"
         id="stop4" /><stop
         style="stop-color:#70c736;stop-opacity:1;"
         offset="1"
         id="stop5" /></linearGradient><linearGradient
       inkscape:collect="always"
       xlink:href="#linearGradient5"
       id="linearGradient3"
       x1="18.962967"
       y1="-9.307683"
       x2="18.930374"
       y2="-5.7481794"
       gradientUnits="userSpaceOnUse"
       gradientTransform="translate(-14.296208,9.5379345)" /><linearGradient
       inkscape:collect="always"
       xlink:href="#linearGradient5"
       id="linearGradient6"
       gradientUnits="userSpaceOnUse"
       gradientTransform="rotate(180,11.381438,-0.53563394)"
       x1="18.962967"
       y1="-9.307683"
       x2="18.930374"
       y2="-5.7481794" /></defs><path
     style="fill:url(#linearGradient3);fill-rule:evenodd;stroke:#0a7006;stroke-width:0.264583px;stroke-linecap:butt;stroke-linejoin:miter;stroke-opacity:1"
     d="m 5.8403727,2.6637967 -1.259463,1.1126839 h 3.480469 V 0.33533924 L 6.9405497,1.5348227 c 0,0 -0.650492,-0.57603636 -1.042174,-0.74721896 -0.508847,-0.2223893 -1.07794,-0.3704382 -1.632084,-0.3342826 -0.781874,0.051014 -1.553626,0.357965 -2.221994,0.76688316 -0.403337,0.2467681 -0.734084,0.6085034 -1.022511,0.9831832 -0.20582203,0.2673711 -0.49159203,0.8848648 -0.49159203,0.8848648 0,0 0.62969703,-0.2424188 0.90452903,-0.4326006 0.216583,-0.1498736 0.874247,-0.5845029 1.120829,-0.6685645 0.599519,-0.20438 1.014495,-0.1486921 1.367733,-0.1227529 0.465411,0.034177 0.667386,0.1147387 1.112274,0.2556277 0.329941,0.1044871 0.804813,0.5438347 0.804813,0.5438347 z"
     id="path1"
     sodipodi:nodetypes="cccccsssscssssc" /><path
     style="fill:url(#linearGradient6);fill-rule:evenodd;stroke:#0a7006;stroke-width:0.264583px;stroke-linecap:butt;stroke-linejoin:miter;stroke-opacity:1"
     d="M 2.626294,5.8028699 3.885757,4.690186 H 0.405288 V 8.1313274 L 1.526117,6.9318439 c 0,0 0.650492,0.5760364 1.042174,0.747219 0.508847,0.2223893 1.07794,0.3704382 1.632084,0.3342826 C 4.982249,7.9623315 5.754001,7.6553805 6.422369,7.2464623 6.825706,6.9996942 7.156453,6.6379589 7.44488,6.2632791 7.650702,5.995908 7.936472,5.3784143 7.936472,5.3784143 c 0,0 -0.629697,0.2424188 -0.904529,0.4326006 C 6.81536,5.9608885 6.157696,6.3955178 5.911114,6.4795794 5.311595,6.6839594 4.896619,6.6282715 4.543381,6.6023323 4.07797,6.5681553 3.875995,6.4875936 3.431107,6.3467046 3.101166,6.2422175 2.626294,5.8028699 2.626294,5.8028699 Z"
     id="path5"
     sodipodi:nodetypes="cccccsssscssssc" /></svg>
