<?xml version="1.0" encoding="UTF-8" standalone="no"?>
<!-- Created with Inkscape (http://www.inkscape.org/) -->

<svg
   width="32"
   height="32"
   viewBox="0 0 8.4666666 8.4666666"
   version="1.1"
   id="svg1517"
   inkscape:version="1.3 (0e150ed6c4, 2023-07-21)"
   sodipodi:docname="SendMail.svg"
   xml:space="preserve"
   xmlns:inkscape="http://www.inkscape.org/namespaces/inkscape"
   xmlns:sodipodi="http://sodipodi.sourceforge.net/DTD/sodipodi-0.dtd"
   xmlns="http://www.w3.org/2000/svg"
   xmlns:svg="http://www.w3.org/2000/svg"><sodipodi:namedview
     id="namedview1519"
     pagecolor="#505050"
     bordercolor="#eeeeee"
     borderopacity="1"
     inkscape:showpageshadow="0"
     inkscape:pageopacity="0"
     inkscape:pagecheckerboard="0"
     inkscape:deskcolor="#505050"
     inkscape:document-units="mm"
     showgrid="false"
     inkscape:zoom="2.3786088"
     inkscape:cx="43.933245"
     inkscape:cy="-45.404693"
     inkscape:window-width="1280"
     inkscape:window-height="961"
     inkscape:window-x="-8"
     inkscape:window-y="-8"
     inkscape:window-maximized="1"
     inkscape:current-layer="svg1517" /><defs
     id="defs1514" /><path
     style="fill:#e9c367;fill-opacity:1;fill-rule:evenodd;stroke:#393939;stroke-width:0.32585px;stroke-linecap:butt;stroke-linejoin:miter;stroke-opacity:1"
     d="M 0.36229395,3.6114922 C 0.38742516,3.6574048 0.23644605,6.7442479 0.97659268,6.7685419 1.6715256,6.7913516 5.1191541,6.7440881 7.1884526,6.6764902 7.9157561,6.6527314 8.2056345,3.6616855 8.2050803,3.6114922 8.2028636,3.4107191 4.7027965,0.27231437 4.2836871,0.2551904 3.8645778,0.23806642 0.26176667,3.427843 0.36229395,3.6114922 Z"
     id="path2"
     sodipodi:nodetypes="sssszs" /><rect
     style="fill:#237dd5;fill-opacity:1;fill-rule:evenodd;stroke:none;stroke-width:0.793867;stroke-opacity:1"
     id="rect4"
     width="5.8906522"
     height="5.137197"
     x="1.2302455"
     y="0.86157191" /><path
     d="m 4.4266398,3.9880146 q -0.1372766,0.1583951 -0.3083434,0.2555441 -0.168954,0.095037 -0.3400206,0.095037 -0.1879624,0 -0.3653648,-0.1098218 Q 3.2355086,4.1189534 3.123576,3.890865 3.0137565,3.6627759 3.0137565,3.3903364 q 0,-0.3357975 0.1710656,-0.6715952 Q 3.358001,2.3808317 3.6135448,2.2118771 3.8690897,2.0429223 4.1098505,2.0429223 q 0.1837382,0 0.3505805,0.097149 0.1668425,0.095037 0.2872235,0.2914469 L 4.8194521,2.1041691 H 5.1974895 L 4.8933756,3.5212773 q -0.063358,0.2956708 -0.063358,0.3273497 0,0.057022 0.042231,0.099261 0.044352,0.040126 0.105599,0.040126 0.1119297,0 0.2935592,-0.1288272 0.2407608,-0.1689551 0.3801477,-0.4519542 0.1415004,-0.285111 0.1415004,-0.587118 0,-0.3526929 -0.1816266,-0.6589233 Q 5.4319142,1.8549608 5.072885,1.6712224 4.7159687,1.4874843 4.2830215,1.4874843 q -0.4941919,0 -0.9039079,0.2323127 -0.4076032,0.2302009 -0.6335799,0.6631476 -0.2238652,0.4308345 -0.2238652,0.9250271 0,0.5174241 0.2238652,0.8912364 0.2259767,0.3738125 0.6504756,0.5512149 0.4266103,0.1795145 0.9440347,0.1795145 0.5533271,0 0.9271391,-0.1858503 0.3738133,-0.1858503 0.5596628,-0.451954 H 6.2091064 Q 6.1013972,4.5138865 5.8395174,4.7440872 5.577638,4.9742881 5.2164975,5.10734 4.8553569,5.2425038 4.3463797,5.2425038 q -0.46885,0 -0.8658934,-0.1203793 Q 3.085563,5.001743 2.8067865,4.7588706 2.5280115,4.5181103 2.3865119,4.2034319 2.2091095,3.8042764 2.2091095,3.3417627 q 0,-0.5153119 0.2111937,-0.9820497 Q 2.6779596,1.7873788 3.1510316,1.4832604 3.6262174,1.1791417 4.302037,1.1791417 q 0.5237588,0 0.9398106,0.2154172 0.4181631,0.2133057 0.658924,0.6378043 0.2048566,0.3653648 0.2048566,0.7940876 0,0.612461 -0.4308345,1.0876461 -0.3843708,0.4266107 -0.8405494,0.4266107 -0.145724,0 -0.2365366,-0.04435 Q 4.5090026,4.2520069 4.4667679,4.1696413 4.4393102,4.1168431 4.4266356,3.9880151 Z M 3.4044626,3.4156804 q 0,0.2893351 0.1372765,0.449842 0.1372751,0.160507 0.314678,0.160507 0.1182725,0 0.2492079,-0.069694 0.1309399,-0.071806 0.2492092,-0.2111936 0.1203838,-0.1393877 0.1964083,-0.352693 0.076031,-0.2154172 0.076031,-0.4308345 0,-0.2872231 -0.1436116,-0.4456181 -0.1415005,-0.1583953 -0.3463577,-0.1583953 -0.1351639,0 -0.2555449,0.069694 -0.1182725,0.067583 -0.2301997,0.2196415 -0.1119297,0.1520592 -0.179514,0.3695885 -0.06759,0.2175293 -0.06759,0.3991556 z"
     id="text4"
     style="font-size:7.05556px;line-height:125%;font-family:Arial;-inkscape-font-specification:Arial;letter-spacing:0px;word-spacing:0px;fill:#ffffff;fill-opacity:1;stroke:#ffffff;stroke-width:0.162196px;stroke-opacity:1"
     aria-label="@" /><path
     style="fill:#e9c367;fill-opacity:1;fill-rule:evenodd;stroke:#393939;stroke-width:0.32585px;stroke-linecap:butt;stroke-linejoin:miter;stroke-opacity:1"
     d="m 0.36229395,8.0674157 c 0.10052729,0.1836492 7.84500305,0.2007732 7.84278635,0 C 8.2028636,7.8666426 4.7027965,4.7282379 4.2836871,4.711114 3.8645778,4.69399 0.26176667,7.8837666 0.36229395,8.0674157 Z"
     id="path1"
     sodipodi:nodetypes="zzzz" /><path
     style="fill:#e9c367;fill-opacity:1;fill-rule:evenodd;stroke:#393939;stroke-width:0.32585px;stroke-linecap:butt;stroke-linejoin:miter;stroke-opacity:1"
     d="m 8.1537083,8.0845395 c 0.087134,-0.034273 0.144421,-4.41206 0,-4.4864846 C 8.0092874,3.5236309 5.9356004,5.6480636 5.944714,5.8070494 5.953824,5.9660353 8.0665742,8.1188127 8.1537083,8.0845395 Z"
     id="path3"
     sodipodi:nodetypes="zzzz" /><path
     style="fill:#e9c367;fill-opacity:1;fill-rule:evenodd;stroke:#393939;stroke-width:0.32585px;stroke-linecap:butt;stroke-linejoin:miter;stroke-opacity:1"
     d="m 0.31295829,8.0845395 c -0.0871341,-0.034273 -0.14442089,-4.41206 0,-4.4864846 C 0.45737922,3.5236305 2.5310662,5.6480636 2.5219527,5.8070494 2.5128391,5.9660353 0.40009249,8.1188127 0.31295829,8.0845395 Z"
     id="path4"
     sodipodi:nodetypes="zzzz" /></svg>
