<?xml version="1.0" encoding="UTF-8" standalone="no"?>
<!-- Created with Inkscape (http://www.inkscape.org/) -->

<svg
   width="32"
   height="32"
   viewBox="0 0 8.4666666 8.4666666"
   version="1.1"
   id="svg1517"
   sodipodi:docname="SingleProjector.svg"
   inkscape:version="1.3 (0e150ed6c4, 2023-07-21)"
   xml:space="preserve"
   xmlns:inkscape="http://www.inkscape.org/namespaces/inkscape"
   xmlns:sodipodi="http://sodipodi.sourceforge.net/DTD/sodipodi-0.dtd"
   xmlns:xlink="http://www.w3.org/1999/xlink"
   xmlns="http://www.w3.org/2000/svg"
   xmlns:svg="http://www.w3.org/2000/svg"><sodipodi:namedview
     id="namedview1519"
     pagecolor="#505050"
     bordercolor="#eeeeee"
     borderopacity="1"
     inkscape:showpageshadow="0"
     inkscape:pageopacity="0"
     inkscape:pagecheckerboard="0"
     inkscape:deskcolor="#505050"
     inkscape:document-units="mm"
     showgrid="false"
     inkscape:zoom="1.1893044"
     inkscape:cx="3.3633105"
     inkscape:cy="-102.58097"
     inkscape:window-width="1280"
     inkscape:window-height="961"
     inkscape:window-x="-8"
     inkscape:window-y="-8"
     inkscape:window-maximized="1"
     inkscape:current-layer="svg1517" /><defs
     id="defs1514"><linearGradient
       id="linearGradient147"
       inkscape:collect="always"><stop
         style="stop-color:#c9d1d2;stop-opacity:1;"
         offset="0"
         id="stop146" /><stop
         style="stop-color:#f6f7f7;stop-opacity:1;"
         offset="1"
         id="stop147" /></linearGradient><inkscape:path-effect
       effect="perspective-envelope"
       up_left_point="11.399388,168.74076"
       up_right_point="19.222226,169.5194"
       down_left_point="11.399388,177.17539"
       down_right_point="19.166608,176.06305"
       id="path-effect38"
       is_visible="true"
       lpeversion="1"
       deform_type="perspective"
       horizontal_mirror="false"
       vertical_mirror="false"
       overflow_perspective="false" /><linearGradient
       id="linearGradient61"
       inkscape:collect="always"><stop
         style="stop-color:#e7e9e9;stop-opacity:1;"
         offset="0"
         id="stop61" /><stop
         style="stop-color:#ffffff;stop-opacity:1;"
         offset="1"
         id="stop60" /></linearGradient><linearGradient
       id="linearGradient11"
       inkscape:collect="always"><stop
         style="stop-color:#dee4e5;stop-opacity:1;"
         offset="0"
         id="stop12" /><stop
         style="stop-color:#ffffff;stop-opacity:1;"
         offset="1"
         id="stop13" /></linearGradient><linearGradient
       id="linearGradient9"
       inkscape:collect="always"><stop
         style="stop-color:#d9e0e2;stop-opacity:1;"
         offset="0"
         id="stop9" /><stop
         style="stop-color:#ffffff;stop-opacity:1;"
         offset="0.5"
         id="stop11" /><stop
         style="stop-color:#d6dce1;stop-opacity:1;"
         offset="1"
         id="stop10" /></linearGradient><linearGradient
       inkscape:collect="always"
       xlink:href="#linearGradient9"
       id="linearGradient38"
       gradientUnits="userSpaceOnUse"
       gradientTransform="matrix(-0.23194386,0,0,0.23194386,6.4446455,-29.46083)"
       x1="3.0442989"
       y1="139.25931"
       x2="9.143837"
       y2="154.36099" /><linearGradient
       inkscape:collect="always"
       xlink:href="#linearGradient11"
       id="linearGradient39"
       gradientUnits="userSpaceOnUse"
       gradientTransform="matrix(-0.23194386,0,0,0.23194386,5.4034912,-29.757771)"
       x1="-0.26440275"
       y1="139.28838"
       x2="11.991067"
       y2="139.28838" /><linearGradient
       inkscape:collect="always"
       xlink:href="#linearGradient147"
       id="linearGradient40"
       gradientUnits="userSpaceOnUse"
       gradientTransform="matrix(-0.23194386,0,0,0.23194386,6.4446455,-29.46083)"
       x1="-8.5556889"
       y1="150.02419"
       x2="2.0003819"
       y2="150.02419" /><linearGradient
       inkscape:collect="always"
       xlink:href="#linearGradient61"
       id="linearGradient41"
       gradientUnits="userSpaceOnUse"
       gradientTransform="translate(7.2302419,-7.8420316)"
       x1="4.0368543"
       y1="180.80009"
       x2="12.736064"
       y2="180.80009" /></defs><g
     inkscape:label="Calque 1"
     id="layer1"
     transform="translate(12.896778,-0.35055867)" /><g
     inkscape:label="Calque 1"
     id="layer1-9"
     transform="translate(4.8976993,0.0878633)" /><g
     inkscape:label="Calque 1"
     id="layer1-6"
     transform="translate(21.720118,-13.235905)" /><g
     inkscape:label="Calque 1"
     id="layer1-9-6"
     transform="translate(13.72104,-12.797483)" /><g
     inkscape:label="Calque 1"
     id="layer1-66"
     transform="translate(42.033791,-18.1545)" /><g
     inkscape:label="Calque 1"
     id="layer1-9-7"
     transform="translate(34.034712,-17.716078)" /><g
     inkscape:label="Calque 1"
     id="layer1-2"
     transform="translate(40.439928,-12.606668)" /><g
     inkscape:label="Calque 1"
     id="layer1-3"
     transform="translate(25.574197,-4.1119641)" /><g
     inkscape:label="Calque 1"
     id="layer1-9-0"
     transform="translate(17.575118,-3.6735421)" /><g
     inkscape:label="Calque 1"
     id="layer1-6-5"
     transform="translate(34.397537,-16.99731)" /><g
     inkscape:label="Calque 1"
     id="layer1-9-6-7"
     transform="translate(26.398459,-16.558888)" /><g
     inkscape:label="Calque 1"
     id="layer1-66-4"
     transform="translate(54.71121,-21.915905)" /><g
     inkscape:label="Calque 1"
     id="layer1-9-7-8"
     transform="translate(46.712131,-21.477483)" /><g
     inkscape:label="Calque 1"
     id="layer1-2-1"
     transform="translate(53.117347,-16.368073)" /><path
     style="fill:#ffffff;fill-opacity:1;fill-rule:evenodd;stroke:#8e8e8e;stroke-width:0.05291667;stroke-linecap:butt;stroke-linejoin:miter;stroke-opacity:1;stroke-dasharray:none"
     d="M 7.3194009,3.2263621 6.8033977,3.1102603 5.9777935,5.1355732 5.7842897,6.7222826 6.1196921,6.9415855 6.6356953,4.8130715 7.0742988,3.613365 Z"
     id="path16" /><path
     style="fill:url(#linearGradient38);fill-rule:evenodd;stroke:#8e8e8e;stroke-width:0.10583333;stroke-linecap:butt;stroke-linejoin:miter;stroke-opacity:1;stroke-dasharray:none"
     d="M 5.978835,7.0005572 C 5.8757893,7.0798124 5.7010752,7.003758 5.5957217,6.927583 5.544984,6.8909011 5.5569708,6.7975553 5.5045051,6.7633923 5.3919288,6.6900887 5.2301294,6.7707449 5.1031495,6.7269052 4.9867577,6.6867163 2.026282,5.8597784 1.948045,5.7646954 1.8856219,5.6888312 1.9115092,5.5568737 1.8385837,5.4910434 1.67427,5.3427199 1.4051224,5.3919709 1.2000631,5.3086079 1.0337084,5.2409801 0.86693608,5.164144 0.72573098,5.0532006 0.59706708,4.9521079 0.4895008,4.8235414 0.3973495,4.6883297 0.30545334,4.5534938 0.23503983,4.4035259 0.17842697,4.250487 0.12623264,4.1093932 0.07545781,3.9629439 0.06896802,3.8126442 0.06233443,3.6588237 0.10531363,3.5061003 0.14193988,3.3565568 0.18311455,3.1884532 0.23099705,3.0198972 0.30613294,2.8639846 0.3691057,2.7333074 0.44725222,2.6078235 0.54329786,2.499116 0.64331205,2.3859158 0.76735562,2.2955041 0.88992404,2.2072193 0.99401348,2.1322435 1.1005221,2.0573697 1.2183055,2.0065415 1.3456265,1.9515963 1.4810492,1.9011531 1.6196612,1.8970802 c 0.1180246,-0.00346 0.2300419,0.05427 0.3466262,0.072974 0.1631168,0.026168 0.3286876,0.033924 0.4925745,0.05473 0.1279727,0.016259 0.2548692,0.068693 0.3831109,0.054732 0.1033055,-0.011249 0.1880346,-0.1061723 0.2918968,-0.1094613 0.1461269,-0.00464 3.1314926,0.8286844 3.2645657,0.8892356 0.052218,0.02376 0.089366,0.081744 0.145946,0.091219 0.080021,0.013406 0.1560913,-0.057817 0.237165,-0.054732 0.1018651,0.00387 0.1935107,0.064536 0.2918967,0.091219 0.078304,0.021246 0.2181524,-0.024143 0.2371649,0.05473 C 7.3460072,3.1885715 7.0583991,3.2157112 6.9639817,3.3336199 6.8568747,3.4673749 6.8046641,3.6370558 6.7268168,3.7897073 6.6526875,3.9350712 6.568914,4.0762137 6.5078943,4.2275501 6.4316543,4.4166353 6.3813573,4.6152767 6.3254611,4.8113412 6.2720839,4.9985732 6.2252846,5.1876538 6.1795128,5.3768899 6.1340773,5.5647342 6.0796053,5.7511846 6.0518091,5.9424363 6.0255113,6.1233757 6.0279166,6.307335 6.015322,6.4897403 6.0035625,6.6600404 6.1141464,6.896484 5.978835,7.0005572 Z"
     id="path17"
     sodipodi:nodetypes="ssssssssssssssssssssssssssssssssss" /><path
     style="fill:url(#linearGradient40);fill-rule:evenodd;stroke:#8e8e8e;stroke-width:0.10583333;stroke-linecap:butt;stroke-linejoin:miter;stroke-opacity:1;stroke-dasharray:none"
     d="m 6.0114695,6.9878791 0.012896,0.3999037 h 0.051601 L 6.0888622,7.7489844 7.1466676,7.2458819 7.5336706,6.6137769 7.9722718,5.1689684 8.3979746,3.5177578 8.3334734,2.9114542 7.3014693,3.0791566 7.0305681,3.3242586 6.7338656,3.969262 Z"
     id="path19" /><path
     style="fill:#ffffff;fill-opacity:1;fill-rule:evenodd;stroke:#8e8e8e;stroke-width:0.05291667;stroke-linecap:butt;stroke-linejoin:miter;stroke-opacity:1;stroke-dasharray:none"
     d="M 8.0754822,3.4790579 7.2885779,3.6080582 7.1595776,4.1885626 6.9273763,4.2530639 6.3468719,6.6137769 6.5661748,6.5492779 6.4629737,7.0910803 7.1982775,6.8072784 7.3401784,6.2396746 7.5465806,6.162275 8.0883829,3.9950611 H 7.9206805 Z"
     id="path20" /><path
     style="fill:none;fill-rule:evenodd;stroke:#8e8e8e;stroke-width:0.10583333;stroke-linecap:butt;stroke-linejoin:miter;stroke-opacity:1;stroke-dasharray:none"
     d="m 5.468018,6.7360275 c 0,0 -0.03799,-0.2181339 -0.045609,-0.3283837 -0.015308,-0.2214345 -0.018579,-0.4447037 0,-0.6658854 C 5.4392013,5.5420153 5.4799724,5.3446752 5.5227475,5.148845 5.5677608,4.9427606 5.624216,4.7390906 5.6869382,4.5376892 5.7598568,4.3035465 5.8339489,4.0686778 5.9332255,3.8444368 6.0295982,3.6267552 6.1453451,3.4174026 6.2707293,3.2150386 6.3316053,3.1167872 6.4714095,2.9322642 6.4714095,2.9322642"
     id="path21"
     sodipodi:nodetypes="cssssssc" /><path
     style="fill:none;fill-rule:evenodd;stroke:#8e8e8e;stroke-width:0.10583333;stroke-linecap:butt;stroke-linejoin:miter;stroke-opacity:1;stroke-dasharray:none"
     d="M 1.8297977,5.4645531 1.8024306,5.1635363 1.8206846,4.7621783 1.8936588,4.2422414 2.0669719,3.6219632 2.2585273,3.0929016 2.5321793,2.5455976 2.7693443,2.2080937 2.8788055,2.0712677"
     id="path23" /><path
     style="fill:url(#linearGradient39);fill-rule:evenodd;stroke:#8e8e8e;stroke-width:0.10583333;stroke-linecap:butt;stroke-linejoin:miter;stroke-opacity:1;stroke-dasharray:none"
     d="M 5.1566032,2.480252 5.4302552,0.92043652 4.919436,0.70151631 3.4052299,0.92043652 3.2592816,1.0663849 2.6572481,4.1495311 3.2592816,4.386696 3.8613151,1.3582793 4.0802376,1.1393591 4.7187582,1.0663849 4.77349,1.1211143 4.5561818,2.3302794 4.6668283,2.3584281 c 0.1249806,0.037209 0.2280356,0.072865 0.3255819,0.093995 0.048699,0.010553 0.1242894,0.027548 0.164193,0.027829 z"
     id="path18"
     sodipodi:nodetypes="cccccccccccccsc" /><path
     id="path24"
     style="fill:url(#linearGradient41);fill-opacity:1;fill-rule:evenodd;stroke:#8e8e8e;stroke-width:0.43540805;stroke-linecap:butt;stroke-linejoin:miter;stroke-opacity:1;stroke-dasharray:none"
     d="m 15.79611,169.17838 c -0.555495,-0.0553 -1.010427,0.40366 -1.273664,0.97016 -0.148849,0.32034 -0.171779,0.87115 -0.149503,1.39544 -0.579347,-0.0344 -1.212528,-0.0269 -1.603026,0.10785 -0.72215,0.24976 -1.370529,0.71652 -1.370529,1.31427 0,0.59697 0.757115,1.0494 1.366701,1.25028 0.41473,0.13668 1.037025,0.11866 1.598018,0.0566 -0.02563,0.52194 -0.0063,1.06711 0.139657,1.37746 0.257576,0.54748 0.705535,0.97935 1.257141,0.90036 0.532279,-0.0762 0.961566,-0.6838 1.170236,-1.16511 0.144927,-0.33427 0.168683,-0.82973 0.148652,-1.2899 0.453936,-0.007 0.924443,-0.0579 1.221196,-0.21385 0.412105,-0.21677 0.889467,-0.62464 0.893404,-1.08785 0.0039,-0.46367 -0.396201,-0.83355 -0.877287,-1.05126 -0.276534,-0.12514 -0.753417,-0.15288 -1.221833,-0.14268 0.02577,-0.46392 0.0081,-0.96231 -0.133411,-1.2934 -0.204227,-0.47787 -0.629874,-1.07501 -1.165752,-1.12835 z m 0.03464,3.65882 0.0011,0.0825 -0.08552,2.8e-4 0.0017,-0.0791 z"
     inkscape:path-effect="#path-effect38"
     inkscape:original-d="m 15.604816,168.74076 c -0.597364,0 -1.068921,0.55389 -1.334803,1.19579 -0.148557,0.35865 -0.169719,0.95886 -0.145727,1.52911 -0.570245,-0.024 -1.170457,-0.002 -1.529106,0.14624 -0.641899,0.26588 -1.195792,0.73744 -1.195792,1.3348 0,0.59736 0.650383,1.09115 1.195792,1.33481 0.38277,0.171 0.975237,0.1954 1.529106,0.16794 -0.02406,0.57056 -0.0029,1.17128 0.145727,1.53014 0.265882,0.6419 0.737439,1.1958 1.334803,1.1958 0.597363,0 1.091142,-0.65039 1.334802,-1.1958 0.171114,-0.38302 0.196005,-0.97595 0.168465,-1.53014 0.554188,0.0275 1.147112,0.003 1.530139,-0.16794 0.54541,-0.24366 1.195793,-0.73745 1.195793,-1.33481 0,-0.59736 -0.553893,-1.06892 -1.195793,-1.3348 -0.358864,-0.14865 -0.959587,-0.1703 -1.530139,-0.14624 0.02745,-0.55387 0.0025,-1.14634 -0.168465,-1.52911 -0.24366,-0.54541 -0.737439,-1.19579 -1.334802,-1.19579 z m 0.05736,4.17029 0.0016,0.0946 -0.09405,-0.002 0.0015,-0.0904 z"
     transform="matrix(-0.24306701,0,0,0.24306701,6.6908145,-37.759897)" /></svg>
