<?xml version="1.0" encoding="UTF-8" standalone="no"?>
<!-- Created with Inkscape (http://www.inkscape.org/) -->

<svg
   width="32"
   height="32"
   viewBox="0 0 8.4666666 8.4666666"
   version="1.1"
   id="svg1517"
   sodipodi:docname="Unlock.svg"
   inkscape:version="1.3 (0e150ed6c4, 2023-07-21)"
   xml:space="preserve"
   xmlns:inkscape="http://www.inkscape.org/namespaces/inkscape"
   xmlns:sodipodi="http://sodipodi.sourceforge.net/DTD/sodipodi-0.dtd"
   xmlns:xlink="http://www.w3.org/1999/xlink"
   xmlns="http://www.w3.org/2000/svg"
   xmlns:svg="http://www.w3.org/2000/svg"><sodipodi:namedview
     id="namedview1519"
     pagecolor="#505050"
     bordercolor="#eeeeee"
     borderopacity="1"
     inkscape:showpageshadow="0"
     inkscape:pageopacity="0"
     inkscape:pagecheckerboard="0"
     inkscape:deskcolor="#505050"
     inkscape:document-units="mm"
     showgrid="false"
     inkscape:zoom="1.6819304"
     inkscape:cx="43.402509"
     inkscape:cy="-24.971307"
     inkscape:window-width="1280"
     inkscape:window-height="961"
     inkscape:window-x="-8"
     inkscape:window-y="-8"
     inkscape:window-maximized="1"
     inkscape:current-layer="svg1517" /><defs
     id="defs1514"><linearGradient
       id="linearGradient59"
       inkscape:collect="always"><stop
         style="stop-color:#fdd536;stop-opacity:1;"
         offset="0"
         id="stop59" /><stop
         style="stop-color:#f9f7ef;stop-opacity:1;"
         offset="0.41145834"
         id="stop69" /><stop
         style="stop-color:#fed636;stop-opacity:1;"
         offset="1"
         id="stop68" /></linearGradient><linearGradient
       inkscape:collect="always"
       xlink:href="#linearGradient59"
       id="linearGradient69"
       x1="136.79454"
       y1="133.7263"
       x2="143.49008"
       y2="133.7263"
       gradientUnits="userSpaceOnUse" /></defs><g
     inkscape:label="Calque 1"
     id="layer1"
     transform="translate(12.896778,-0.35055867)" /><g
     inkscape:label="Calque 1"
     id="layer1-9"
     transform="translate(4.8976993,0.0878633)" /><g
     id="g69"
     transform="translate(-135.90898,-127.49783)"><path
       style="fill:none;fill-rule:evenodd;stroke:#c9c9c9;stroke-width:0.227559px;stroke-linecap:butt;stroke-linejoin:miter;stroke-opacity:1"
       d="m 137.86335,131.71729 c 0,0 -0.15992,-1.45429 0.136,-2.02228 0.43545,-0.83576 1.29026,-1.5655 2.1757,-1.56348 0.91175,0.002 1.74662,0.77024 2.17571,1.61999 0.28301,0.5605 0.11637,1.95675 0.11637,1.95675"
       id="path55"
       sodipodi:nodetypes="csasc" /><path
       style="fill:none;fill-rule:evenodd;stroke:#d7d7d7;stroke-width:0.245267px;stroke-linecap:butt;stroke-linejoin:miter;stroke-opacity:1"
       d="m 137.71484,131.69943 c 0,0 -0.18071,-1.50904 0.13824,-2.12124 0.46933,-0.90079 1.39066,-1.68732 2.345,-1.68514 0.98271,0.002 1.88254,0.83018 2.34502,1.74605 0.30504,0.60412 0.14212,2.05061 0.14212,2.05061"
       id="path54"
       sodipodi:nodetypes="csasc" /><path
       style="fill:none;fill-rule:evenodd;stroke:#e5e5e5;stroke-width:0.264583px;stroke-linecap:butt;stroke-linejoin:miter;stroke-opacity:1"
       d="m 137.49217,131.72226 c 0,0 -0.19076,-1.57359 0.15331,-2.234 0.50628,-0.97173 1.50018,-1.8202 2.52968,-1.81786 1.0601,0.002 2.03079,0.89557 2.52969,1.88357 0.32907,0.65169 0.15331,2.2121 0.15331,2.2121"
       id="path53"
       sodipodi:nodetypes="csasc" /><path
       style="fill:none;fill-rule:evenodd;stroke:#909090;stroke-width:0.181577px;stroke-linecap:butt;stroke-linejoin:miter;stroke-opacity:1"
       d="m 138.35879,131.67742 c 0,0 -0.14977,-1.2852 0.0861,-1.73898 0.34702,-0.66771 1.02826,-1.25072 1.73391,-1.24912 0.72662,0.002 1.39196,0.61538 1.73392,1.29427 0.22554,0.4478 0.0611,1.68661 0.0611,1.68661"
       id="path59"
       sodipodi:nodetypes="csasc" /><path
       style="fill:none;fill-rule:evenodd;stroke:#a1a1a1;stroke-width:0.195061px;stroke-linecap:butt;stroke-linejoin:miter;stroke-opacity:1"
       d="m 138.24002,131.68474 c 0,0 -0.16343,-1.33742 0.0899,-1.8249 0.37279,-0.7173 1.10462,-1.3436 1.86267,-1.34188 0.78058,0.002 1.49533,0.66108 1.86268,1.39038 0.24229,0.48105 0.0749,1.77412 0.0749,1.77412"
       id="path58"
       sodipodi:nodetypes="csasc" /><path
       style="fill:none;fill-rule:evenodd;stroke:#b5b5b5;stroke-width:0.209258px;stroke-linecap:butt;stroke-linejoin:miter;stroke-opacity:1"
       d="m 138.07495,131.69515 c 0,0 -0.16967,-1.40364 0.10245,-1.92595 0.40043,-0.76855 1.18649,-1.4396 2.00073,-1.43775 0.83842,0.002 1.60615,0.7083 2.00073,1.48971 0.26025,0.51542 0.0864,1.86569 0.0864,1.86569"
       id="path57"
       sodipodi:nodetypes="csasc" /><rect
       style="fill:url(#linearGradient69);fill-rule:evenodd;stroke:#f6c809;stroke-width:0.343958;stroke-linecap:round;stroke-linejoin:round;stroke-dasharray:none;stroke-opacity:1"
       id="rect45"
       width="6.3515821"
       height="4.0518718"
       x="136.96652"
       y="131.70036" /></g><path
     id="rect31464"
     style="fill:#e60014;fill-opacity:1;stroke:#000000;stroke-width:0.2;stroke-linecap:round;stroke-linejoin:round;stroke-dasharray:none;stroke-opacity:0.189873;paint-order:normal"
     d="m 2.1636923,1.3720093 -0.791683,0.791683 2.069641,2.0696411 -2.069641,2.0696411 0.791683,0.7916829 2.069641,-2.0696411 2.069641,2.0696411 0.791683,-0.7916829 -2.069641,-2.0696412 2.069641,-2.0696411 -0.791683,-0.7916829 -2.069641,2.0696411 z" /></svg>
