<?xml version="1.0" encoding="UTF-8" standalone="no"?>
<!-- Created with Inkscape (http://www.inkscape.org/) -->

<svg
   width="32"
   height="32"
   viewBox="0 0 8.4666666 8.4666666"
   version="1.1"
   id="svg1517"
   inkscape:version="1.2.2 (732a01da63, 2022-12-09)"
   sodipodi:docname="ToolBar2Web.svg"
   xml:space="preserve"
   xmlns:inkscape="http://www.inkscape.org/namespaces/inkscape"
   xmlns:sodipodi="http://sodipodi.sourceforge.net/DTD/sodipodi-0.dtd"
   xmlns:xlink="http://www.w3.org/1999/xlink"
   xmlns="http://www.w3.org/2000/svg"
   xmlns:svg="http://www.w3.org/2000/svg"><sodipodi:namedview
     id="namedview1519"
     pagecolor="#505050"
     bordercolor="#eeeeee"
     borderopacity="1"
     inkscape:showpageshadow="0"
     inkscape:pageopacity="0"
     inkscape:pagecheckerboard="0"
     inkscape:deskcolor="#505050"
     inkscape:document-units="mm"
     showgrid="false"
     inkscape:zoom="4.7572175"
     inkscape:cx="21.546208"
     inkscape:cy="26.170761"
     inkscape:window-width="1280"
     inkscape:window-height="961"
     inkscape:window-x="-8"
     inkscape:window-y="-8"
     inkscape:window-maximized="1"
     inkscape:current-layer="svg1517" /><defs
     id="defs1514"><linearGradient
       inkscape:collect="always"
       id="linearGradient11014"><stop
         style="stop-color:#c1e6f2;stop-opacity:1;"
         offset="0.15047021"
         id="stop11010" /><stop
         style="stop-color:#5dcad9;stop-opacity:1;"
         offset="1"
         id="stop11012" /></linearGradient><linearGradient
       inkscape:collect="always"
       xlink:href="#linearGradient11014"
       id="linearGradient14617"
       x1="9.0540152"
       y1="4.3172889"
       x2="17.54493"
       y2="4.3172889"
       gradientUnits="userSpaceOnUse" /></defs><g
     id="g14623"
     transform="matrix(0.99017469,0,0,0.99017469,-8.935468,-0.04153684)"><circle
       style="font-variation-settings:normal;opacity:1;vector-effect:none;fill:url(#linearGradient14617);fill-opacity:1;stroke:#003536;stroke-width:0.2;stroke-linecap:butt;stroke-linejoin:miter;stroke-miterlimit:4;stroke-dasharray:none;stroke-dashoffset:0;stroke-opacity:0.607843;-inkscape-stroke:none;stop-color:#000000;stop-opacity:1"
       id="path13421"
       cx="13.299473"
       cy="4.3172889"
       r="4.1454573" /><path
       style="fill:#196a99;fill-opacity:1;fill-rule:evenodd;stroke:#0e3b55;stroke-width:0.264583px;stroke-linecap:butt;stroke-linejoin:miter;stroke-opacity:0.49789"
       d="M 9.6356878,4.0878675 9.9693911,6.0344711 11.09564,7.3136677 11.471057,7.1468159 11.332014,6.0205667 10.942693,5.8676193 11.09564,5.144595 Z"
       id="path13363" /><path
       style="font-variation-settings:normal;opacity:1;vector-effect:none;fill:#196a99;fill-opacity:1;fill-rule:evenodd;stroke:#0e3b55;stroke-width:0.264583px;stroke-linecap:butt;stroke-linejoin:miter;stroke-miterlimit:4;stroke-dasharray:none;stroke-dashoffset:0;stroke-opacity:0.49789;-inkscape-stroke:none;stop-color:#000000;stop-opacity:1"
       d="m 15.378168,3.4760778 0.931589,0.027808 0.597885,0.4310338 -0.639598,0.2085646 z"
       id="path13365" /><path
       style="font-variation-settings:normal;opacity:1;vector-effect:none;fill:#196a99;fill-opacity:1;fill-rule:evenodd;stroke:#0e3b55;stroke-width:0.264583px;stroke-linecap:butt;stroke-linejoin:miter;stroke-miterlimit:4;stroke-dasharray:none;stroke-dashoffset:0;stroke-opacity:0.49789;-inkscape-stroke:none;stop-color:#000000;stop-opacity:1"
       d="M 15.697967,7.1607203 14.238015,7.911553 12.305315,7.994979 12.194081,7.5500409 13.209096,6.6462608 13.556703,6.215227 V 5.7563847 L 12.944914,5.2836383 12.555593,4.8526046 12.152368,4.5745185 l -0.472746,0.013904 -0.41713,0.041713 -0.222469,-0.2641817 -0.222469,-0.264182 0.180756,-0.1251389 0.444938,0.055617 h 0.319799 l -0.08343,-0.3615121 0.222468,-0.403225 0.347608,-0.2085646 0.333704,-0.1390431 0.236373,-0.083426 -0.19466,-0.4727467 -0.472747,-0.2919905 0.0139,-0.4171293 0.0139,-0.3615121 -0.139044,-0.2919906 -0.0139,-0.0834258 0.05562,-0.25027763 0.305895,0.0139044 0.305894,0.40322503 0.125139,0.3476077 -0.0139,0.2780863 0.139043,0.2224689 0.264182,0.2780863 L 13.806978,1.80756 14.46048,1.3904307 14.627332,1.00111 l 0.250277,-0.1668517 0.570077,0.361512 0.444938,0.4588423 0.278086,0.4032251 0.264182,0.2363732 -0.111234,0.1946604 -0.375417,0.069522 -0.458842,-0.222469 -0.208565,-0.2780862 -0.166851,0.2641819 0.05562,0.2919905 -0.02781,0.3615121 -0.222469,0.2224688 -0.278086,0.083426 0.139043,0.264182 0.05562,0.2363732 -0.166852,0.2502775 -0.361512,0.3476078 -0.02781,0.2780863 -0.139043,0.3197992 0.222469,0.319799 0.472747,0.09733 h 0.278086 l 0.319799,-0.027808 0.208565,0.222469 -0.139043,0.403225 -0.125139,0.2780861 0.222469,0.2224691 0.0139,0.1668518 v 0.2363732 z"
       id="path13367" /></g></svg>
