<?xml version="1.0" encoding="UTF-8" standalone="no"?>
<!-- Generator: Adobe Illustrator 16.0.0, SVG Export Plug-In . SVG Version: 6.00 Build 0)  -->

<svg
   version="1.1"
   id="Calque_1"
   x="0px"
   y="0px"
   width="509.04086"
   height="422.16129"
   viewBox="0 0 509.04091 422.16131"
   enable-background="new 0 0 141.732 141.732"
   xml:space="preserve"
   sodipodi:docname="SplashImage.svg"
   inkscape:version="1.3 (0e150ed6c4, 2023-07-21)"
   inkscape:export-filename="logo256.png"
   inkscape:export-xdpi="186.82529"
   inkscape:export-ydpi="186.82529"
   xmlns:inkscape="http://www.inkscape.org/namespaces/inkscape"
   xmlns:sodipodi="http://sodipodi.sourceforge.net/DTD/sodipodi-0.dtd"
   xmlns:xlink="http://www.w3.org/1999/xlink"
   xmlns="http://www.w3.org/2000/svg"
   xmlns:svg="http://www.w3.org/2000/svg"><defs
   id="defs39"><linearGradient
     id="linearGradient43"
     inkscape:collect="always"><stop
       style="stop-color:#ffe200;stop-opacity:1;"
       offset="0"
       id="stop42" /><stop
       style="stop-color:#ffe200;stop-opacity:0;"
       offset="1"
       id="stop43" /></linearGradient><linearGradient
     id="linearGradient41"
     inkscape:collect="always"><stop
       style="stop-color:#59b8c1;stop-opacity:1;"
       offset="0"
       id="stop40" /><stop
       style="stop-color:#59b8c1;stop-opacity:0.0625;"
       offset="1"
       id="stop41" /></linearGradient><linearGradient
     id="linearGradient36"
     inkscape:collect="always"><stop
       style="stop-color:#eb3799;stop-opacity:1;"
       offset="0"
       id="stop36" /><stop
       style="stop-color:#eb3799;stop-opacity:0.07458564;"
       offset="1"
       id="stop37" /></linearGradient><inkscape:path-effect
     effect="perspective-envelope"
     up_left_point="11.399388,168.74076"
     up_right_point="19.222226,169.5194"
     down_left_point="11.399388,177.17539"
     down_right_point="19.166608,176.06305"
     id="path-effect32"
     is_visible="true"
     lpeversion="1"
     deform_type="perspective"
     horizontal_mirror="false"
     vertical_mirror="false"
     overflow_perspective="false" /><linearGradient
     id="linearGradient17"
     inkscape:collect="always"><stop
       style="stop-color:#eb9737;stop-opacity:1;"
       offset="0.63385826"
       id="stop18" /><stop
       style="stop-color:#eb9737;stop-opacity:0;"
       offset="0.99606299"
       id="stop19" /></linearGradient><inkscape:path-effect
     effect="perspective-envelope"
     up_left_point="11.399388,168.74076"
     up_right_point="19.222226,169.5194"
     down_left_point="11.399388,177.17539"
     down_right_point="19.166608,176.06305"
     id="path-effect11"
     is_visible="true"
     lpeversion="1"
     deform_type="perspective"
     horizontal_mirror="false"
     vertical_mirror="false"
     overflow_perspective="false" /><inkscape:path-effect
     effect="perspective-envelope"
     up_left_point="11.399388,168.74076"
     up_right_point="19.222226,169.5194"
     down_left_point="11.399388,177.17539"
     down_right_point="19.166608,176.06305"
     id="path-effect77"
     is_visible="true"
     lpeversion="1"
     deform_type="perspective"
     horizontal_mirror="false"
     vertical_mirror="false"
     overflow_perspective="false" /><linearGradient
     id="linearGradient61"
     inkscape:collect="always"><stop
       style="stop-color:#5e6667;stop-opacity:1;"
       offset="0"
       id="stop61" /><stop
       style="stop-color:#31383c;stop-opacity:1;"
       offset="1"
       id="stop60" /></linearGradient><linearGradient
     id="linearGradient11"
     inkscape:collect="always"><stop
       style="stop-color:#31383c;stop-opacity:1;"
       offset="0"
       id="stop12" /><stop
       style="stop-color:#5e6667;stop-opacity:1;"
       offset="1"
       id="stop13" /></linearGradient><linearGradient
     id="linearGradient9"
     inkscape:collect="always"><stop
       style="stop-color:#323f42;stop-opacity:1;"
       offset="0"
       id="stop9" /><stop
       style="stop-color:#626a6b;stop-opacity:1;"
       offset="0.5"
       id="stop11" /><stop
       style="stop-color:#293137;stop-opacity:1;"
       offset="1"
       id="stop10" /></linearGradient><linearGradient
     inkscape:collect="always"
     xlink:href="#linearGradient9"
     id="linearGradient74"
     x1="3.0442989"
     y1="139.25931"
     x2="9.143837"
     y2="154.36099"
     gradientUnits="userSpaceOnUse"
     gradientTransform="translate(105.08263,-18.877119)" /><linearGradient
     inkscape:collect="always"
     xlink:href="#linearGradient11"
     id="linearGradient76"
     x1="-0.26440275"
     y1="139.28838"
     x2="11.991067"
     y2="139.28838"
     gradientUnits="userSpaceOnUse"
     gradientTransform="translate(105.08263,-18.877119)" /><linearGradient
     inkscape:collect="always"
     xlink:href="#linearGradient61"
     id="linearGradient77"
     gradientUnits="userSpaceOnUse"
     gradientTransform="translate(7.2302419,-7.8420316)"
     x1="4.0368543"
     y1="180.80009"
     x2="12.736064"
     y2="180.80009" /><linearGradient
     inkscape:collect="always"
     xlink:href="#linearGradient11"
     id="linearGradient79"
     x1="-8.5556889"
     y1="150.02419"
     x2="2.0003819"
     y2="150.02419"
     gradientUnits="userSpaceOnUse"
     gradientTransform="translate(105.08263,-18.877119)" /><radialGradient
     inkscape:collect="always"
     xlink:href="#linearGradient17"
     id="radialGradient19"
     cx="80.263992"
     cy="68.580002"
     fx="80.263992"
     fy="68.580002"
     r="211.81906"
     gradientTransform="matrix(1.2043858,0,0,0.99930615,157.8516,142.54822)"
     gradientUnits="userSpaceOnUse" /><linearGradient
     inkscape:collect="always"
     xlink:href="#linearGradient9"
     id="linearGradient32"
     gradientUnits="userSpaceOnUse"
     gradientTransform="translate(105.08263,-18.877119)"
     x1="3.0442989"
     y1="139.25931"
     x2="9.143837"
     y2="154.36099" /><linearGradient
     inkscape:collect="always"
     xlink:href="#linearGradient11"
     id="linearGradient33"
     gradientUnits="userSpaceOnUse"
     gradientTransform="translate(105.08263,-18.877119)"
     x1="-0.26440275"
     y1="139.28838"
     x2="11.991067"
     y2="139.28838" /><linearGradient
     inkscape:collect="always"
     xlink:href="#linearGradient11"
     id="linearGradient34"
     gradientUnits="userSpaceOnUse"
     gradientTransform="translate(105.08263,-18.877119)"
     x1="-8.5556889"
     y1="150.02419"
     x2="2.0003819"
     y2="150.02419" /><linearGradient
     inkscape:collect="always"
     xlink:href="#linearGradient61"
     id="linearGradient35"
     gradientUnits="userSpaceOnUse"
     gradientTransform="translate(7.2302419,-7.8420316)"
     x1="4.0368543"
     y1="180.80009"
     x2="12.736064"
     y2="180.80009" /><radialGradient
     inkscape:collect="always"
     xlink:href="#linearGradient43"
     id="radialGradient37"
     cx="186.78932"
     cy="15.80525"
     fx="186.78932"
     fy="15.80525"
     r="56.52787"
     gradientUnits="userSpaceOnUse"
     gradientTransform="matrix(2.2948718,0,0,2.2948718,-174.1371,179.38211)" /><linearGradient
     inkscape:collect="always"
     xlink:href="#linearGradient41"
     id="linearGradient39"
     x1="380.24542"
     y1="145.82996"
     x2="66.713013"
     y2="293.82455"
     gradientUnits="userSpaceOnUse"
     gradientTransform="translate(6.5205538,-4.6554449)" /><linearGradient
     inkscape:collect="always"
     xlink:href="#linearGradient36"
     id="linearGradient40"
     gradientUnits="userSpaceOnUse"
     gradientTransform="matrix(-1,0,0,1,511.88523,-4.6554449)"
     x1="380.24542"
     y1="145.82996"
     x2="66.713013"
     y2="293.82455" /></defs><sodipodi:namedview
   id="namedview39"
   pagecolor="#505050"
   bordercolor="#eeeeee"
   borderopacity="1"
   inkscape:showpageshadow="0"
   inkscape:pageopacity="0"
   inkscape:pagecheckerboard="0"
   inkscape:deskcolor="#d1d1d1"
   inkscape:zoom="1.0200046"
   inkscape:cx="155.88165"
   inkscape:cy="240.195"
   inkscape:window-width="1280"
   inkscape:window-height="961"
   inkscape:window-x="-8"
   inkscape:window-y="-8"
   inkscape:window-maximized="1"
   inkscape:current-layer="Calque_1"
   inkscape:export-bgcolor="#ffffff00" />&#10;<rect
   style="fill:url(#radialGradient19);fill-rule:evenodd;stroke:none;stroke-width:1.18289;stroke-linecap:round;stroke-linejoin:round"
   id="rect1"
   width="509.04086"
   height="422.16129"
   x="0"
   y="0" /><circle
   style="fill:url(#radialGradient37);fill-rule:evenodd;stroke:none;stroke-width:2.25391;stroke-linecap:round;stroke-linejoin:round;stroke-opacity:1"
   id="path36"
   cx="254.52043"
   cy="215.65309"
   r="128.59726" /><line
   fill="none"
   stroke="#000000"
   stroke-width="6.11358"
   stroke-linecap="round"
   stroke-miterlimit="10"
   x1="135.16412"
   y1="312.46402"
   x2="380.26422"
   y2="312.46402"
   id="line32" />&#10;<g
   id="g82"
   transform="matrix(2.5177279,0,0,2.5177279,129.76208,-190.52511)"><path
     style="fill:#3c4141;fill-opacity:1;fill-rule:evenodd;stroke:none;stroke-width:0.264583px;stroke-linecap:butt;stroke-linejoin:miter;stroke-opacity:1"
     d="m 101.31122,122.05005 2.22469,-0.50056 3.5595,8.73191 0.83427,6.84092 -1.44605,0.9455 -2.22469,-9.17685 -1.89099,-5.1724 z"
     id="path82" /><path
     style="fill:url(#linearGradient74);fill-rule:evenodd;stroke:#000000;stroke-width:0.264583px;stroke-linecap:butt;stroke-linejoin:miter;stroke-opacity:1"
     d="m 107.09092,138.32207 c 0.44427,0.3417 1.19753,0.0138 1.65175,-0.31462 0.21875,-0.15815 0.16707,-0.5606 0.39327,-0.70789 0.48536,-0.31604 1.18294,0.0317 1.7304,-0.15731 0.50181,-0.17327 0.99982,-0.45526 1.33713,-0.8652 0.26913,-0.32708 0.15752,-0.896 0.47193,-1.17982 0.70842,-0.63948 1.86882,-0.42714 2.75291,-0.78655 0.71722,-0.29157 1.43624,-0.62284 2.04503,-1.10116 0.55472,-0.43585 1.01848,-0.99015 1.41578,-1.5731 0.3962,-0.58133 0.69978,-1.2279 0.94386,-1.88771 0.22503,-0.60831 0.44394,-1.23971 0.47192,-1.88771 0.0286,-0.66318 -0.1567,-1.32163 -0.31461,-1.96637 -0.17752,-0.72476 -0.38396,-1.45147 -0.7079,-2.12367 -0.2715,-0.5634 -0.60842,-1.10441 -1.02251,-1.57309 -0.4312,-0.48805 -0.966,-0.87785 -1.49444,-1.25848 -0.44877,-0.32325 -0.90797,-0.64606 -1.41578,-0.8652 -0.54893,-0.23689 -1.13279,-0.45437 -1.7304,-0.47193 -0.50885,-0.0149 -0.9918,0.23398 -1.49444,0.31462 -0.70326,0.11282 -1.4171,0.14626 -2.12368,0.23596 -0.55174,0.0701 -1.09884,0.29616 -1.65174,0.23597 -0.44539,-0.0485 -0.81069,-0.45775 -1.25848,-0.47193 -0.63001,-0.02 -1.23533,0.28952 -1.80906,0.55058 -0.22513,0.10244 -0.38529,0.35243 -0.62923,0.39328 -0.345,0.0578 -0.67297,-0.24927 -1.02251,-0.23597 -0.43918,0.0167 -0.8343,0.27824 -1.25848,0.39328 -0.3376,0.0916 -0.94054,-0.10409 -1.02251,0.23596 -0.15262,0.63311 1.08737,0.75012 1.49444,1.25847 0.46178,0.57667 0.68688,1.30823 1.02251,1.96637 0.3196,0.62672 0.68078,1.23524 0.94386,1.88771 0.3287,0.81522 0.54555,1.67164 0.78654,2.51695 0.23013,0.80723 0.4319,1.62243 0.62924,2.4383 0.19589,0.80987 0.43074,1.61373 0.55058,2.43829 0.11338,0.7801 0.10301,1.57322 0.15731,2.35964 0.0507,0.73423 -0.42607,1.75363 0.15731,2.20233 z"
     id="path67"
     sodipodi:nodetypes="ssssssssssssssssssssssssssssssssss" /><path
     style="fill:url(#linearGradient76);fill-rule:evenodd;stroke:#000000;stroke-width:0.264583px;stroke-linecap:butt;stroke-linejoin:miter;stroke-opacity:1"
     d="m 106.14706,120.11351 -1.17982,-6.72497 2.20234,-0.94385 6.52833,0.94385 0.62924,0.62924 2.5956,13.29264 -2.5956,1.02251 -2.5956,-13.05668 -0.94386,-0.94385 -2.75291,-0.31462 -0.23597,0.23596 1.10117,6.05641 -0.61941,0.0885 c 0,0 -0.55152,-0.32397 -0.85537,-0.41298 -0.18374,-0.0538 -0.37933,-0.0832 -0.57024,-0.0688 -0.24421,0.0185 -0.7079,0.19663 -0.7079,0.19663 z"
     id="path68"
     sodipodi:nodetypes="cccccccccccccssc" /><path
     style="fill:url(#linearGradient79);fill-rule:evenodd;stroke:#000000;stroke-width:0.264583px;stroke-linecap:butt;stroke-linejoin:miter;stroke-opacity:1"
     d="m 106.95022,138.26741 -0.0556,1.72414 h -0.22247 l -0.0556,1.55728 -4.56061,-2.16907 -1.66852,-2.72525 -1.890985,-6.22913 -1.83537,-7.11901 0.278088,-2.61401 4.449377,0.72303 1.16796,1.05673 1.2792,2.78086 z"
     id="path69" /><path
     style="fill:#59b8c1;fill-opacity:1;fill-rule:evenodd;stroke:#000000;stroke-width:0.264583px;stroke-linecap:butt;stroke-linejoin:miter;stroke-opacity:1"
     d="m 98.051457,123.13952 3.392653,0.55617 0.55617,2.50278 1.00111,0.27809 2.50278,10.17795 -0.9455,-0.27808 0.44494,2.33592 -3.17018,-1.22358 -0.61179,-2.44716 -0.88988,-0.3337 -2.33592,-9.3437 h 0.723024 z"
     id="path70" /><path
     style="fill:none;fill-rule:evenodd;stroke:#000000;stroke-width:0.264583px;stroke-linecap:butt;stroke-linejoin:miter;stroke-opacity:1"
     d="m 109.29325,137.18158 0.19664,-1.41579 v -2.87089 l -0.4326,-2.55628 -0.70789,-2.63493 -1.06184,-2.98888 -1.45511,-2.71358 -0.86521,-1.21915"
     id="path71" /><path
     style="fill:none;fill-rule:evenodd;stroke:#000000;stroke-width:0.264583px;stroke-linecap:butt;stroke-linejoin:miter;stroke-opacity:1"
     d="m 110.55173,137.14225 0.66856,-0.82587 0.27529,-1.1405 0.0787,-1.88771 -0.4326,-2.04502 -0.47193,-2.51695 -0.78655,-2.43829 -0.98318,-2.35964 -1.06184,-1.88771 -0.90453,-1.37646 -0.62924,-0.58991"
     id="path72" /><path
     style="fill:none;fill-rule:evenodd;stroke:#000000;stroke-width:0.264583px;stroke-linecap:butt;stroke-linejoin:miter;stroke-opacity:1"
     d="m 112.79338,134.97925 0.11799,-1.2978 -0.0787,-1.73041 -0.31462,-2.24165 -0.74722,-2.67426 -0.82587,-2.28099 -1.17982,-2.35964 -1.02251,-1.45511 -0.47193,-0.58991"
     id="path73" /><path
     id="path76"
     style="fill:url(#linearGradient77);fill-opacity:1;fill-rule:evenodd;stroke:#000000;stroke-width:0.264583px;stroke-linecap:butt;stroke-linejoin:miter;stroke-opacity:1"
     d="m 15.79611,169.17838 c -0.555495,-0.0553 -1.010427,0.40366 -1.273664,0.97016 -0.148849,0.32034 -0.171779,0.87115 -0.149503,1.39544 -0.579347,-0.0344 -1.212528,-0.0269 -1.603026,0.10785 -0.72215,0.24976 -1.370529,0.71652 -1.370529,1.31427 0,0.59697 0.757115,1.0494 1.366701,1.25028 0.41473,0.13668 1.037025,0.11866 1.598018,0.0566 -0.02563,0.52194 -0.0063,1.06711 0.139657,1.37746 0.257576,0.54748 0.705535,0.97935 1.257141,0.90036 0.532279,-0.0762 0.961566,-0.6838 1.170236,-1.16511 0.144927,-0.33427 0.168683,-0.82973 0.148652,-1.2899 0.453936,-0.007 0.924443,-0.0579 1.221196,-0.21385 0.412105,-0.21677 0.889467,-0.62464 0.893404,-1.08785 0.0039,-0.46367 -0.396201,-0.83355 -0.877287,-1.05126 -0.276534,-0.12514 -0.753417,-0.15288 -1.221833,-0.14268 0.02577,-0.46392 0.0081,-0.96231 -0.133411,-1.2934 -0.204227,-0.47787 -0.629874,-1.07501 -1.165752,-1.12835 z m 0.03464,3.65882 0.0011,0.0825 -0.08552,2.8e-4 0.0017,-0.0791 z"
     inkscape:path-effect="#path-effect77"
     inkscape:original-d="m 15.604816,168.74076 c -0.597364,0 -1.068921,0.55389 -1.334803,1.19579 -0.148557,0.35865 -0.169719,0.95886 -0.145727,1.52911 -0.570245,-0.024 -1.170457,-0.002 -1.529106,0.14624 -0.641899,0.26588 -1.195792,0.73744 -1.195792,1.3348 0,0.59736 0.650383,1.09115 1.195792,1.33481 0.38277,0.171 0.975237,0.1954 1.529106,0.16794 -0.02406,0.57056 -0.0029,1.17128 0.145727,1.53014 0.265882,0.6419 0.737439,1.1958 1.334803,1.1958 0.597363,0 1.091142,-0.65039 1.334802,-1.1958 0.171114,-0.38302 0.196005,-0.97595 0.168465,-1.53014 0.554188,0.0275 1.147112,0.003 1.530139,-0.16794 0.54541,-0.24366 1.195793,-0.73745 1.195793,-1.33481 0,-0.59736 -0.553893,-1.06892 -1.195793,-1.3348 -0.358864,-0.14865 -0.959587,-0.1703 -1.530139,-0.14624 0.02745,-0.55387 0.0025,-1.14634 -0.168465,-1.52911 -0.24366,-0.54541 -0.737439,-1.19579 -1.334802,-1.19579 z m 0.05736,4.17029 0.0016,0.0946 -0.09405,-0.002 0.0015,-0.0904 z"
     transform="matrix(1.0479562,0,0,1.0479562,99.532472,-53.377391)" /></g><path
   style="opacity:0.644205;fill:url(#linearGradient39);fill-rule:evenodd;stroke:none;stroke-width:1px;stroke-linecap:butt;stroke-linejoin:miter;stroke-opacity:1"
   d="M 381.53603,128.97075 68.304713,233.86014 c 0,0 -6.105063,43.62743 2.873682,60.34732 8.978745,16.71989 43.105225,31.6105 43.105225,31.6105 L 390.15707,150.52337 Z"
   id="path37"
   sodipodi:nodetypes="cczccc" /><g
   id="g31"
   transform="matrix(-2.5177279,0,0,2.5177279,388.65816,-190.52511)"><path
     style="fill:#3c4141;fill-opacity:1;fill-rule:evenodd;stroke:none;stroke-width:0.264583px;stroke-linecap:butt;stroke-linejoin:miter;stroke-opacity:1"
     d="m 101.31122,122.05005 2.22469,-0.50056 3.5595,8.73191 0.83427,6.84092 -1.44605,0.9455 -2.22469,-9.17685 -1.89099,-5.1724 z"
     id="path21" /><path
     style="fill:url(#linearGradient32);fill-rule:evenodd;stroke:#000000;stroke-width:0.264583px;stroke-linecap:butt;stroke-linejoin:miter;stroke-opacity:1"
     d="m 107.09092,138.32207 c 0.44427,0.3417 1.19753,0.0138 1.65175,-0.31462 0.21875,-0.15815 0.16707,-0.5606 0.39327,-0.70789 0.48536,-0.31604 1.18294,0.0317 1.7304,-0.15731 0.50181,-0.17327 0.99982,-0.45526 1.33713,-0.8652 0.26913,-0.32708 0.15752,-0.896 0.47193,-1.17982 0.70842,-0.63948 1.86882,-0.42714 2.75291,-0.78655 0.71722,-0.29157 1.43624,-0.62284 2.04503,-1.10116 0.55472,-0.43585 1.01848,-0.99015 1.41578,-1.5731 0.3962,-0.58133 0.69978,-1.2279 0.94386,-1.88771 0.22503,-0.60831 0.44394,-1.23971 0.47192,-1.88771 0.0286,-0.66318 -0.1567,-1.32163 -0.31461,-1.96637 -0.17752,-0.72476 -0.38396,-1.45147 -0.7079,-2.12367 -0.2715,-0.5634 -0.60842,-1.10441 -1.02251,-1.57309 -0.4312,-0.48805 -0.966,-0.87785 -1.49444,-1.25848 -0.44877,-0.32325 -0.90797,-0.64606 -1.41578,-0.8652 -0.54893,-0.23689 -1.13279,-0.45437 -1.7304,-0.47193 -0.50885,-0.0149 -0.9918,0.23398 -1.49444,0.31462 -0.70326,0.11282 -1.4171,0.14626 -2.12368,0.23596 -0.55174,0.0701 -1.09884,0.29616 -1.65174,0.23597 -0.44539,-0.0485 -0.81069,-0.45775 -1.25848,-0.47193 -0.63001,-0.02 -1.23533,0.28952 -1.80906,0.55058 -0.22513,0.10244 -0.38529,0.35243 -0.62923,0.39328 -0.345,0.0578 -0.67297,-0.24927 -1.02251,-0.23597 -0.43918,0.0167 -0.8343,0.27824 -1.25848,0.39328 -0.3376,0.0916 -0.94054,-0.10409 -1.02251,0.23596 -0.15262,0.63311 1.08737,0.75012 1.49444,1.25847 0.46178,0.57667 0.68688,1.30823 1.02251,1.96637 0.3196,0.62672 0.68078,1.23524 0.94386,1.88771 0.3287,0.81522 0.54555,1.67164 0.78654,2.51695 0.23013,0.80723 0.4319,1.62243 0.62924,2.4383 0.19589,0.80987 0.43074,1.61373 0.55058,2.43829 0.11338,0.7801 0.10301,1.57322 0.15731,2.35964 0.0507,0.73423 -0.42607,1.75363 0.15731,2.20233 z"
     id="path24"
     sodipodi:nodetypes="ssssssssssssssssssssssssssssssssss" /><path
     style="fill:url(#linearGradient33);fill-rule:evenodd;stroke:#000000;stroke-width:0.264583px;stroke-linecap:butt;stroke-linejoin:miter;stroke-opacity:1"
     d="m 106.14706,120.11351 -1.17982,-6.72497 2.20234,-0.94385 6.52833,0.94385 0.62924,0.62924 2.5956,13.29264 -2.5956,1.02251 -2.5956,-13.05668 -0.94386,-0.94385 -2.75291,-0.31462 -0.23597,0.23596 1.10117,6.05641 -0.61941,0.0885 c 0,0 -0.55152,-0.32397 -0.85537,-0.41298 -0.18374,-0.0538 -0.37933,-0.0832 -0.57024,-0.0688 -0.24421,0.0185 -0.7079,0.19663 -0.7079,0.19663 z"
     id="path25"
     sodipodi:nodetypes="cccccccccccccssc" /><path
     style="fill:url(#linearGradient34);fill-rule:evenodd;stroke:#000000;stroke-width:0.264583px;stroke-linecap:butt;stroke-linejoin:miter;stroke-opacity:1"
     d="m 106.95022,138.26741 -0.0556,1.72414 h -0.22247 l -0.0556,1.55728 -4.56061,-2.16907 -1.66852,-2.72525 -1.890985,-6.22913 -1.83537,-7.11901 0.278088,-2.61401 4.449377,0.72303 1.16796,1.05673 1.2792,2.78086 z"
     id="path26" /><path
     style="fill:#eb3799;fill-opacity:1;fill-rule:evenodd;stroke:#000000;stroke-width:0.264583px;stroke-linecap:butt;stroke-linejoin:miter;stroke-opacity:1"
     d="m 98.051457,123.13952 3.392653,0.55617 0.55617,2.50278 1.00111,0.27809 2.50278,10.17795 -0.9455,-0.27808 0.44494,2.33592 -3.17018,-1.22358 -0.61179,-2.44716 -0.88988,-0.3337 -2.33592,-9.3437 h 0.723024 z"
     id="path27" /><path
     style="fill:none;fill-rule:evenodd;stroke:#000000;stroke-width:0.264583px;stroke-linecap:butt;stroke-linejoin:miter;stroke-opacity:1"
     d="m 109.29325,137.18158 0.19664,-1.41579 v -2.87089 l -0.4326,-2.55628 -0.70789,-2.63493 -1.06184,-2.98888 -1.45511,-2.71358 -0.86521,-1.21915"
     id="path28" /><path
     style="fill:none;fill-rule:evenodd;stroke:#000000;stroke-width:0.264583px;stroke-linecap:butt;stroke-linejoin:miter;stroke-opacity:1"
     d="m 110.55173,137.14225 0.66856,-0.82587 0.27529,-1.1405 0.0787,-1.88771 -0.4326,-2.04502 -0.47193,-2.51695 -0.78655,-2.43829 -0.98318,-2.35964 -1.06184,-1.88771 -0.90453,-1.37646 -0.62924,-0.58991"
     id="path29" /><path
     style="fill:none;fill-rule:evenodd;stroke:#000000;stroke-width:0.264583px;stroke-linecap:butt;stroke-linejoin:miter;stroke-opacity:1"
     d="m 112.79338,134.97925 0.11799,-1.2978 -0.0787,-1.73041 -0.31462,-2.24165 -0.74722,-2.67426 -0.82587,-2.28099 -1.17982,-2.35964 -1.02251,-1.45511 -0.47193,-0.58991"
     id="path30" /><path
     id="path31"
     style="fill:url(#linearGradient35);fill-opacity:1;fill-rule:evenodd;stroke:#000000;stroke-width:0.264583px;stroke-linecap:butt;stroke-linejoin:miter;stroke-opacity:1"
     d="m 15.79611,169.17838 c -0.555495,-0.0553 -1.010427,0.40366 -1.273664,0.97016 -0.148849,0.32034 -0.171779,0.87115 -0.149503,1.39544 -0.579347,-0.0344 -1.212528,-0.0269 -1.603026,0.10785 -0.72215,0.24976 -1.370529,0.71652 -1.370529,1.31427 0,0.59697 0.757115,1.0494 1.366701,1.25028 0.41473,0.13668 1.037025,0.11866 1.598018,0.0566 -0.02563,0.52194 -0.0063,1.06711 0.139657,1.37746 0.257576,0.54748 0.705535,0.97935 1.257141,0.90036 0.532279,-0.0762 0.961566,-0.6838 1.170236,-1.16511 0.144927,-0.33427 0.168683,-0.82973 0.148652,-1.2899 0.453936,-0.007 0.924443,-0.0579 1.221196,-0.21385 0.412105,-0.21677 0.889467,-0.62464 0.893404,-1.08785 0.0039,-0.46367 -0.396201,-0.83355 -0.877287,-1.05126 -0.276534,-0.12514 -0.753417,-0.15288 -1.221833,-0.14268 0.02577,-0.46392 0.0081,-0.96231 -0.133411,-1.2934 -0.204227,-0.47787 -0.629874,-1.07501 -1.165752,-1.12835 z m 0.03464,3.65882 0.0011,0.0825 -0.08552,2.8e-4 0.0017,-0.0791 z"
     inkscape:path-effect="#path-effect32"
     inkscape:original-d="m 15.604816,168.74076 c -0.597364,0 -1.068921,0.55389 -1.334803,1.19579 -0.148557,0.35865 -0.169719,0.95886 -0.145727,1.52911 -0.570245,-0.024 -1.170457,-0.002 -1.529106,0.14624 -0.641899,0.26588 -1.195792,0.73744 -1.195792,1.3348 0,0.59736 0.650383,1.09115 1.195792,1.33481 0.38277,0.171 0.975237,0.1954 1.529106,0.16794 -0.02406,0.57056 -0.0029,1.17128 0.145727,1.53014 0.265882,0.6419 0.737439,1.1958 1.334803,1.1958 0.597363,0 1.091142,-0.65039 1.334802,-1.1958 0.171114,-0.38302 0.196005,-0.97595 0.168465,-1.53014 0.554188,0.0275 1.147112,0.003 1.530139,-0.16794 0.54541,-0.24366 1.195793,-0.73745 1.195793,-1.33481 0,-0.59736 -0.553893,-1.06892 -1.195793,-1.3348 -0.358864,-0.14865 -0.959587,-0.1703 -1.530139,-0.14624 0.02745,-0.55387 0.0025,-1.14634 -0.168465,-1.52911 -0.24366,-0.54541 -0.737439,-1.19579 -1.334802,-1.19579 z m 0.05736,4.17029 0.0016,0.0946 -0.09405,-0.002 0.0015,-0.0904 z"
     transform="matrix(1.0479562,0,0,1.0479562,99.532472,-53.377391)" /></g><path
   style="opacity:0.644205;fill:url(#linearGradient40);fill-rule:evenodd;stroke:none;stroke-width:1px;stroke-linecap:butt;stroke-linejoin:miter;stroke-opacity:1"
   d="m 136.86975,128.97075 313.23132,104.88939 c 0,0 6.10507,43.62743 -2.87368,60.34732 -8.97875,16.71989 -43.10523,31.6105 -43.10523,31.6105 L 128.24871,150.52337 Z"
   id="path39"
   sodipodi:nodetypes="cczccc" /><g
   id="g39"
   transform="matrix(1.5889547,0,0,1.5889547,153.76084,100.62294)"><path
     d="m 83.593,34.837 c 0,4.767 -3.864,8.631 -8.631,8.631 -4.766,0 -8.63,-3.864 -8.63,-8.631 0,-4.767 3.864,-8.631 8.63,-8.631 4.767,0 8.631,3.864 8.631,8.631"
     id="path34" /><path
     d="m 69.824,46.03 c 0.013,-0.608 0.593,-1.038 1.174,-0.86 1.109,0.339 2.781,0.781 3.963,0.781 1.428,0 2.773,-0.015 3.96,-0.494 0.492,-0.199 1.048,0.061 1.203,0.569 2.343,7.624 15.581,54.837 -15.854,54.837 0,0 -17.389,-5.022 -18.355,-24.729 10e-4,0 23.274,-0.564 23.909,-30.104"
     id="path35" /><line
     fill="none"
     stroke="#000000"
     stroke-width="4.621"
     stroke-linecap="round"
     stroke-miterlimit="10"
     x1="64.638"
     y1="47.592999"
     x2="45.916"
     y2="57.573002"
     id="line35" /><line
     fill="none"
     stroke="#000000"
     stroke-width="4.621"
     stroke-linecap="round"
     stroke-miterlimit="10"
     x1="84.885002"
     y1="48.888"
     x2="93.593002"
     y2="68.234001"
     id="line36" /><line
     fill="none"
     stroke="#000000"
     stroke-width="4.621"
     stroke-linecap="round"
     stroke-miterlimit="10"
     x1="64.269997"
     y1="104.009"
     x2="64.269997"
     y2="129.12601"
     id="line37" /><line
     fill="none"
     stroke="#000000"
     stroke-width="4.621"
     stroke-linecap="round"
     stroke-miterlimit="10"
     x1="50.992001"
     y1="96.806999"
     x2="33.231998"
     y2="114.568"
     id="line38" /></g><g
   id="g16"
   transform="matrix(1.8815391,0,0,1.8815391,95.158393,136.06863)"><path
     d="m 16.380024,55.804955 c 1.782,2.806 5.699,-0.159 5.699,-0.159 -2.878,1.803 -8.623001,-4.765 -8.623001,-4.765 l -1.116,0.699 13.535001,21.603 c -1.291,-0.057 -2.905,0.389 -4.447,1.355 -2.717,1.701 -4.146,4.314 -3.192,5.837 0.953,1.521 3.928,1.376 6.645,-0.326 2.604,-1.631 4.001,-4.09 3.274,-5.632 l 0.033,-0.022 z"
     id="path22" /><path
     fill="none"
     stroke="#000000"
     stroke-width="0.8"
     stroke-miterlimit="10"
     d="m 16.380024,55.804955 c 1.782,2.806 5.699,-0.159 5.699,-0.159 -2.878,1.803 -8.623001,-4.765 -8.623001,-4.765 l -1.116,0.699 13.535001,21.603 c -1.291,-0.057 -2.905,0.389 -4.447,1.355 -2.717,1.701 -4.146,4.314 -3.192,5.837 0.953,1.521 3.928,1.376 6.645,-0.326 2.604,-1.631 4.001,-4.09 3.274,-5.632 l 0.033,-0.022 z"
     id="path23"
     style="stroke-width:1.5;stroke-dasharray:none" /></g><path
   d="m 390.8822,213.95224 -25.93222,-21.32168 -0.0558,-0.0455 -1.79712,-1.47694 -0.0145,0.0186 -3.82146,-3.07782 -14.67647,32.86662 5.68881,4.58162 0.0103,-0.0248 21.05521,17.31018 c -1.60915,0.46271 -3.40833,1.67318 -4.90386,3.49096 -2.63578,3.20589 -3.31745,7.00257 -1.52033,8.47744 1.79506,1.47901 5.3893,0.0744 8.02507,-3.13153 2.52836,-3.07369 3.23068,-6.66586 1.70416,-8.26055 l 0.0351,-0.0393 -23.6724,-19.46672 13.22226,-29.60909 24.07313,19.7931 c -1.56577,0.49576 -3.29059,1.68557 -4.73448,3.44138 -2.63577,3.20796 -3.31744,7.00463 -1.52032,8.47951 1.79505,1.47694 5.38929,0.0744 8.02713,-3.1336 2.63371,-3.20589 3.31331,-7.00256 1.51826,-8.47744 -0.21277,-0.17145 -0.45238,-0.30159 -0.71059,-0.39454"
   id="path18"
   style="stroke-width:2.06565" /><path
   fill="none"
   stroke="#000000"
   stroke-width="0.648"
   stroke-miterlimit="10"
   d="m 390.8822,213.95224 -25.93222,-21.32168 -0.0558,-0.0455 -1.79712,-1.47694 -0.0145,0.0186 -3.82146,-3.07782 -14.67647,32.86662 5.68881,4.58162 0.0103,-0.0248 21.05521,17.31018 c -1.60915,0.46271 -3.40833,1.67318 -4.90386,3.49096 -2.63578,3.20589 -3.31745,7.00257 -1.52033,8.47744 1.79506,1.47901 5.3893,0.0744 8.02507,-3.13153 2.52836,-3.07369 3.23068,-6.66586 1.70416,-8.26055 l 0.0351,-0.0393 -23.6724,-19.46672 13.22226,-29.60909 24.07313,19.7931 c -1.56577,0.49576 -3.29059,1.68557 -4.73448,3.44138 -2.63577,3.20796 -3.31744,7.00463 -1.52032,8.47951 1.79505,1.47694 5.38929,0.0744 8.02713,-3.1336 2.63371,-3.20589 3.31331,-7.00256 1.51826,-8.47744 -0.21277,-0.17145 -0.45238,-0.30159 -0.71059,-0.39454 z"
   id="path19"
   style="stroke-width:2.7845;stroke-dasharray:none" /><circle
   style="fill:#4b3821;fill-opacity:1;fill-rule:evenodd;stroke:none;stroke-width:0.982151;stroke-linecap:round;stroke-linejoin:round;stroke-opacity:1"
   id="path43"
   cx="173.24043"
   cy="343.13229"
   r="17.24209" /><ellipse
   style="fill:#4b3821;fill-opacity:1;fill-rule:evenodd;stroke:none;stroke-width:1.09579;stroke-linecap:round;stroke-linejoin:round;stroke-opacity:1"
   id="path48"
   cx="173.24043"
   cy="383.0451"
   rx="24.493214"
   ry="24.50288" /><circle
   style="fill:#4b3821;fill-opacity:1;fill-rule:evenodd;stroke:none;stroke-width:0.861178;stroke-linecap:round;stroke-linejoin:round;stroke-opacity:1"
   id="circle48"
   cx="224.41025"
   cy="351.06644"
   r="15.118361" /><ellipse
   style="fill:#4b3821;fill-opacity:1;fill-rule:evenodd;stroke:none;stroke-width:0.96082;stroke-linecap:round;stroke-linejoin:round;stroke-opacity:1"
   id="ellipse48"
   cx="224.41025"
   cy="386.06314"
   rx="21.476355"
   ry="21.484831" /><g
   id="g52"
   transform="translate(-0.59144592,-0.59144503)"><g
     id="g50"
     transform="matrix(0.78884938,0,0,0.78884938,80.3997,77.362708)"
     style="opacity:1"><circle
       style="opacity:1;fill:#4b3821;fill-opacity:1;fill-rule:evenodd;stroke:none;stroke-width:0.982151;stroke-linecap:round;stroke-linejoin:round;stroke-opacity:1"
       id="circle49"
       cx="248.7179"
       cy="354.89972"
       r="17.24209" /><ellipse
       style="opacity:1;fill:#4b3821;fill-opacity:1;fill-rule:evenodd;stroke:none;stroke-width:1.09579;stroke-linecap:round;stroke-linejoin:round;stroke-opacity:1"
       id="ellipse49"
       cx="248.7179"
       cy="394.81253"
       rx="24.493214"
       ry="24.50288" /></g></g><g
   id="g51"
   transform="translate(79.898326,-11.767444)"
   style="opacity:1"><circle
     style="opacity:1;fill:#4b3821;fill-opacity:1;fill-rule:evenodd;stroke:none;stroke-width:0.982151;stroke-linecap:round;stroke-linejoin:round;stroke-opacity:1"
     id="circle50"
     cx="248.7179"
     cy="354.89972"
     r="17.24209" /><ellipse
     style="opacity:1;fill:#4b3821;fill-opacity:1;fill-rule:evenodd;stroke:none;stroke-width:1.09579;stroke-linecap:round;stroke-linejoin:round;stroke-opacity:1"
     id="ellipse50"
     cx="248.7179"
     cy="394.81253"
     rx="24.493214"
     ry="24.50288" /></g><g
   id="g54"
   transform="translate(24.056487,7.1448199)"><g
     id="g53"
     transform="matrix(0.78884938,0,0,0.78884938,80.3997,77.362708)"
     style="opacity:1"><circle
       style="opacity:1;fill:#3b2c1a;fill-opacity:1;fill-rule:evenodd;stroke:none;stroke-width:0.982151;stroke-linecap:round;stroke-linejoin:round;stroke-opacity:1"
       id="circle52"
       cx="248.7179"
       cy="354.89972"
       r="17.24209" /><ellipse
       style="opacity:1;fill:#3b2c1a;fill-opacity:1;fill-rule:evenodd;stroke:none;stroke-width:1.09579;stroke-linecap:round;stroke-linejoin:round;stroke-opacity:1"
       id="ellipse52"
       cx="248.7179"
       cy="394.81253"
       rx="24.493214"
       ry="24.50288" /></g></g><g
   id="g56"
   transform="translate(-75.943059,4.2036568)"><g
     id="g55"
     transform="matrix(0.78884938,0,0,0.78884938,80.3997,77.362708)"
     style="opacity:1"><circle
       style="opacity:1;fill:#3b2c1a;fill-opacity:1;fill-rule:evenodd;stroke:none;stroke-width:0.982151;stroke-linecap:round;stroke-linejoin:round;stroke-opacity:1"
       id="circle54"
       cx="248.7179"
       cy="354.89972"
       r="17.24209" /><ellipse
       style="opacity:1;fill:#3b2c1a;fill-opacity:1;fill-rule:evenodd;stroke:none;stroke-width:1.09579;stroke-linecap:round;stroke-linejoin:round;stroke-opacity:1"
       id="ellipse54"
       cx="248.7179"
       cy="394.81253"
       rx="24.493214"
       ry="24.50288" /></g></g><g
   id="g58"
   transform="translate(-23.98251,-3.6394449)"><g
     id="g57"
     transform="matrix(0.78884938,0,0,0.78884938,80.3997,77.362708)"
     style="opacity:1"><circle
       style="opacity:1;fill:#3b2c1a;fill-opacity:1;fill-rule:evenodd;stroke:none;stroke-width:0.982151;stroke-linecap:round;stroke-linejoin:round;stroke-opacity:1"
       id="circle56"
       cx="248.7179"
       cy="354.89972"
       r="17.24209" /><ellipse
       style="opacity:1;fill:#3b2c1a;fill-opacity:1;fill-rule:evenodd;stroke:none;stroke-width:1.09579;stroke-linecap:round;stroke-linejoin:round;stroke-opacity:1"
       id="ellipse56"
       cx="248.7179"
       cy="394.81253"
       rx="24.493214"
       ry="24.50288" /></g></g><circle
   style="fill:#4b3821;fill-opacity:1;fill-rule:evenodd;stroke:none;stroke-width:0.982151;stroke-linecap:round;stroke-linejoin:round;stroke-opacity:1"
   id="circle63"
   cx="78.266716"
   cy="343.13229"
   r="17.24209" /><ellipse
   style="fill:#4b3821;fill-opacity:1;fill-rule:evenodd;stroke:none;stroke-width:1.09579;stroke-linecap:round;stroke-linejoin:round;stroke-opacity:1"
   id="ellipse63"
   cx="78.266716"
   cy="383.0451"
   rx="24.493214"
   ry="24.50288" /><circle
   style="fill:#4b3821;fill-opacity:1;fill-rule:evenodd;stroke:none;stroke-width:0.861178;stroke-linecap:round;stroke-linejoin:round;stroke-opacity:1"
   id="circle64"
   cx="129.43654"
   cy="351.06644"
   r="15.118361" /><ellipse
   style="fill:#4b3821;fill-opacity:1;fill-rule:evenodd;stroke:none;stroke-width:0.96082;stroke-linecap:round;stroke-linejoin:round;stroke-opacity:1"
   id="ellipse64"
   cx="129.43654"
   cy="386.06314"
   rx="21.476355"
   ry="21.484831" /><g
   id="g66"
   transform="translate(-170.91678,4.2036568)"><g
     id="g65"
     transform="matrix(0.78884938,0,0,0.78884938,80.3997,77.362708)"
     style="opacity:1"><circle
       style="opacity:1;fill:#3b2c1a;fill-opacity:1;fill-rule:evenodd;stroke:none;stroke-width:0.982151;stroke-linecap:round;stroke-linejoin:round;stroke-opacity:1"
       id="circle65"
       cx="248.7179"
       cy="354.89972"
       r="17.24209" /><ellipse
       style="opacity:1;fill:#3b2c1a;fill-opacity:1;fill-rule:evenodd;stroke:none;stroke-width:1.09579;stroke-linecap:round;stroke-linejoin:round;stroke-opacity:1"
       id="ellipse65"
       cx="248.7179"
       cy="394.81253"
       rx="24.493214"
       ry="24.50288" /></g></g><g
   id="g68"
   transform="translate(-118.95623,-3.6394449)"><g
     id="g67"
     transform="matrix(0.78884938,0,0,0.78884938,80.3997,77.362708)"
     style="opacity:1"><circle
       style="opacity:1;fill:#3b2c1a;fill-opacity:1;fill-rule:evenodd;stroke:none;stroke-width:0.982151;stroke-linecap:round;stroke-linejoin:round;stroke-opacity:1"
       id="circle66"
       cx="248.7179"
       cy="354.89972"
       r="17.24209" /><ellipse
       style="opacity:1;fill:#3b2c1a;fill-opacity:1;fill-rule:evenodd;stroke:none;stroke-width:1.09579;stroke-linecap:round;stroke-linejoin:round;stroke-opacity:1"
       id="ellipse66"
       cx="248.7179"
       cy="394.81253"
       rx="24.493214"
       ry="24.50288" /></g></g><g
   id="g70"
   transform="translate(103.39437,-0.59144503)"><g
     id="g69"
     transform="matrix(0.78884938,0,0,0.78884938,80.3997,77.362708)"
     style="opacity:1"><circle
       style="opacity:1;fill:#4b3821;fill-opacity:1;fill-rule:evenodd;stroke:none;stroke-width:0.982151;stroke-linecap:round;stroke-linejoin:round;stroke-opacity:1"
       id="circle68"
       cx="248.7179"
       cy="354.89972"
       r="17.24209" /><ellipse
       style="opacity:1;fill:#4b3821;fill-opacity:1;fill-rule:evenodd;stroke:none;stroke-width:1.09579;stroke-linecap:round;stroke-linejoin:round;stroke-opacity:1"
       id="ellipse68"
       cx="248.7179"
       cy="394.81253"
       rx="24.493214"
       ry="24.50288" /></g></g><g
   id="g71"
   transform="translate(183.88414,-11.767444)"
   style="opacity:1"><circle
     style="opacity:1;fill:#4b3821;fill-opacity:1;fill-rule:evenodd;stroke:none;stroke-width:0.982151;stroke-linecap:round;stroke-linejoin:round;stroke-opacity:1"
     id="circle70"
     cx="248.7179"
     cy="354.89972"
     r="17.24209" /><ellipse
     style="opacity:1;fill:#4b3821;fill-opacity:1;fill-rule:evenodd;stroke:none;stroke-width:1.09579;stroke-linecap:round;stroke-linejoin:round;stroke-opacity:1"
     id="ellipse70"
     cx="248.7179"
     cy="394.81253"
     rx="24.493214"
     ry="24.50288" /></g><g
   id="g73"
   transform="translate(128.0423,7.1448199)"><g
     id="g72"
     transform="matrix(0.78884938,0,0,0.78884938,80.3997,77.362708)"
     style="opacity:1"><circle
       style="opacity:1;fill:#3b2c1a;fill-opacity:1;fill-rule:evenodd;stroke:none;stroke-width:0.982151;stroke-linecap:round;stroke-linejoin:round;stroke-opacity:1"
       id="circle71"
       cx="248.7179"
       cy="354.89972"
       r="17.24209" /><ellipse
       style="opacity:1;fill:#3b2c1a;fill-opacity:1;fill-rule:evenodd;stroke:none;stroke-width:1.09579;stroke-linecap:round;stroke-linejoin:round;stroke-opacity:1"
       id="ellipse71"
       cx="248.7179"
       cy="394.81253"
       rx="24.493214"
       ry="24.50288" /></g></g><g
   id="g75"
   transform="translate(80.00331,-3.6394449)"><g
     id="g74"
     transform="matrix(0.78884938,0,0,0.78884938,80.3997,77.362708)"
     style="opacity:1"><circle
       style="opacity:1;fill:#3b2c1a;fill-opacity:1;fill-rule:evenodd;stroke:none;stroke-width:0.982151;stroke-linecap:round;stroke-linejoin:round;stroke-opacity:1"
       id="circle73"
       cx="248.7179"
       cy="354.89972"
       r="17.24209" /><ellipse
       style="opacity:1;fill:#3b2c1a;fill-opacity:1;fill-rule:evenodd;stroke:none;stroke-width:1.09579;stroke-linecap:round;stroke-linejoin:round;stroke-opacity:1"
       id="ellipse73"
       cx="248.7179"
       cy="394.81253"
       rx="24.493214"
       ry="24.50288" /></g></g></svg>
