<?xml version="1.0" encoding="UTF-8" standalone="no"?>
<svg xmlns:inkscape="http://www.inkscape.org/namespaces/inkscape" xmlns:rdf="http://www.w3.org/1999/02/22-rdf-syntax-ns#" xmlns="http://www.w3.org/2000/svg" xmlns:sodipodi="http://inkscape.sourceforge.net/DTD/sodipodi-0.dtd" xmlns:ns1="http://sozi.baierouge.fr" xmlns:cc="http://web.resource.org/cc/" xmlns:xlink="http://www.w3.org/1999/xlink" xmlns:dc="http://purl.org/dc/elements/1.1/" id="svg1" viewBox="0 0 60 60" sodipodi:version="0.32" _SVGFile__filename="oldscale/actions/noatunloopplaylist.svg" version="1.0" inkscape:version="0.41" y="0" x="0" sodipodi:docname="loop.svg" sodipodi:docbase="/home/danny/work/icons/primary/scalable/actions">
  <sodipodi:namedview id="base" bordercolor="#666666" inkscape:window-x="0" inkscape:window-y="0" pagecolor="#ffffff" inkscape:zoom="4.9119411" inkscape:pageshadow="2" borderopacity="1.0" inkscape:current-layer="svg1" inkscape:cx="54.725263" inkscape:cy="27.150992" inkscape:window-width="1020" inkscape:pageopacity="0.0" inkscape:window-height="691"/>
  <g id="g1738" transform="translate(-.0000059415 -.079538)">
    <path id="path1721" style="stroke-linejoin:round;stroke:#ffffff;stroke-width:5.8918;fill:none" transform="matrix(1.3982 0 0 2.0602 -5.7605 -49.514)" d="m18.327 35.315c-5.642 0-10.184 2.384-10.184 5.344 0.0004 2.961 4.542 5.345 10.184 5.345h14.497c5.642 0 10.183-2.384 10.183-5.345 0-2.96-4.541-5.344-10.183-5.344h-14.497z"/>
    <path id="rect850" style="stroke-linejoin:round;stroke:#000000;stroke-width:2.9459;fill:none" transform="matrix(1.3982 0 0 2.0602 -5.7605 -49.514)" d="m18.327 35.315c-5.642 0-10.184 2.384-10.184 5.344 0.0004 2.961 4.542 5.345 10.184 5.345h14.497c5.642 0 10.183-2.384 10.183-5.345 0-2.96-4.541-5.344-10.183-5.344h-14.497z"/>
    <g id="g1735" transform="translate(.043287)">
      <path id="path1717" sodipodi:nodetypes="cccc" style="stroke-linejoin:round;stroke:#ffffff;stroke-linecap:round;stroke-width:7.5;fill:none" d="m34.473 13.645l-9.033 10.002 9.033 10.001v-20.003z"/>
      <path id="path878" sodipodi:nodetypes="cccc" style="stroke-linejoin:round;fill-rule:evenodd;stroke:#62b01e;stroke-linecap:round;stroke-width:2.5;fill:#62b01e" d="m34.473 13.646l-9.033 10.001 9.033 10.001v-20.002z"/>
    </g>
  </g>
  <metadata>
    <rdf:RDF>
      <cc:Work>
        <dc:format>image/svg+xml</dc:format>
        <dc:type rdf:resource="http://purl.org/dc/dcmitype/StillImage"/>
        <cc:license rdf:resource="http://creativecommons.org/licenses/publicdomain/"/>
        <dc:publisher>
          <cc:Agent rdf:about="http://openclipart.org/">
            <dc:title>Openclipart</dc:title>
          </cc:Agent>
        </dc:publisher>
      </cc:Work>
      <cc:License rdf:about="http://creativecommons.org/licenses/publicdomain/">
        <cc:permits rdf:resource="http://creativecommons.org/ns#Reproduction"/>
        <cc:permits rdf:resource="http://creativecommons.org/ns#Distribution"/>
        <cc:permits rdf:resource="http://creativecommons.org/ns#DerivativeWorks"/>
      </cc:License>
    </rdf:RDF>
  </metadata>
</svg>