<?xml version="1.0" encoding="UTF-8" standalone="no"?>
<!-- Created with Inkscape (http://www.inkscape.org/) -->

<svg
   width="32"
   height="32"
   viewBox="0 0 8.4666666 8.4666666"
   version="1.1"
   id="svg1"
   xml:space="preserve"
   inkscape:version="1.3 (0e150ed6c4, 2023-07-21)"
   sodipodi:docname="BladeRotation.svg"
   xmlns:inkscape="http://www.inkscape.org/namespaces/inkscape"
   xmlns:sodipodi="http://sodipodi.sourceforge.net/DTD/sodipodi-0.dtd"
   xmlns:xlink="http://www.w3.org/1999/xlink"
   xmlns="http://www.w3.org/2000/svg"
   xmlns:svg="http://www.w3.org/2000/svg"><sodipodi:namedview
     id="namedview1"
     pagecolor="#505050"
     bordercolor="#eeeeee"
     borderopacity="1"
     inkscape:showpageshadow="0"
     inkscape:pageopacity="0"
     inkscape:pagecheckerboard="0"
     inkscape:deskcolor="#d1d1d1"
     inkscape:document-units="mm"
     inkscape:zoom="3.9999998"
     inkscape:cx="35.000002"
     inkscape:cy="15.000001"
     inkscape:window-width="1280"
     inkscape:window-height="961"
     inkscape:window-x="-8"
     inkscape:window-y="-8"
     inkscape:window-maximized="1"
     inkscape:current-layer="layer1" /><defs
     id="defs1"><linearGradient
       inkscape:collect="always"
       id="linearGradient3"><stop
         style="stop-color:#78aaf6;stop-opacity:1;"
         offset="0"
         id="stop2" /><stop
         style="stop-color:#2678eb;stop-opacity:1;"
         offset="1"
         id="stop3" /></linearGradient><radialGradient
       inkscape:collect="always"
       xlink:href="#linearGradient3"
       id="radialGradient5"
       cx="11.443229"
       cy="-1.7528646"
       fx="11.443229"
       fy="-1.7528646"
       r="2.6458337"
       gradientTransform="matrix(1.5674539,0,0,1.4107083,-13.703401,6.7409024)"
       gradientUnits="userSpaceOnUse" /><rect
       x="1.5"
       y="-34.75"
       width="29.5"
       height="32"
       id="rect15" /></defs><g
     inkscape:label="Layer 1"
     inkscape:groupmode="layer"
     id="layer1"><path
       d="M 0.08611103,1.7797887 2.1970473,2.8373303 C 1.910889,3.2313164 1.7450007,3.7331302 1.7450007,4.2681218 c 0,0.5349916 0.1658883,1.0368054 0.4520466,1.4307914 L 0.08611103,6.7564547 V 1.7797887 M 1.7450007,0.18773866 H 6.7216675 L 5.6641252,2.2318359 C 5.2701394,1.9456776 4.7683253,1.7797887 4.2333345,1.7797887 c -0.5349924,0 -1.0368065,0.1658889 -1.4307922,0.4520472 L 1.7450007,0.18773866 M 8.3805556,1.7797887 v 4.976666 L 6.26962,5.6989132 C 6.5557776,5.3049272 6.7216675,4.8031134 6.7216675,4.2681218 6.7216675,3.7331302 6.555776,3.2313164 6.26962,2.8373303 L 8.3805556,1.7797887 M 6.7216675,8.278928 H 1.7450007 L 2.8025423,6.3044077 c 0.3939857,0.2861583 0.8957982,0.452047 1.4307922,0.452047 0.5349908,0 1.0368049,-0.1658887 1.4307907,-0.452047 L 6.7216675,8.278928 M 4.2333345,2.6092332 c 0.9161787,3e-7 1.6588881,0.7427099 1.6588881,1.6588886 0,0.9161787 -0.7427094,1.6588884 -1.6588881,1.6588887 -0.9161793,6e-7 -1.6588898,-0.7427094 -1.6588898,-1.6588887 0,-0.9161793 0.7427105,-1.6588892 1.6588898,-1.6588886 m 0,0.8294442 c -0.4580898,-3e-7 -0.829445,0.3713547 -0.8294449,0.8294444 0,0.4580897 0.3713552,0.8294446 0.8294449,0.8294443 0.458089,-6e-7 0.8294432,-0.3713552 0.8294432,-0.8294443 1e-7,-0.458089 -0.3713542,-0.8294439 -0.8294432,-0.8294444 z"
       id="path1-2"
       style="fill:url(#radialGradient5);stroke:#333333;stroke-width:0.0991711;stroke-dasharray:none;stroke-opacity:1"
       sodipodi:nodetypes="ccsccccccscccccscccccscccssscsssss" /><path
       d="m 6.6426927,0.26162226 0.73537,2.74443764 -2.722027,0.6965413 0.858375,-1.4867504 a 2.6393198,2.6393198 0 0 0 -3.211915,1.1484664 2.6393198,2.6393198 0 0 0 0.966076,3.6054484 2.6393198,2.6393198 0 0 0 3.36069,-0.6145546 l 0.771357,0.4453424 A 3.5222718,3.5222718 0 0 1 2.8271397,7.734393 3.5222718,3.5222718 0 0 1 1.5379177,2.9229493 3.5222718,3.5222718 0 0 1 5.9599937,1.4445403 l 0.0052,-0.00896 z"
       id="path1"
       style="fill:#eff4ff;fill-opacity:1;stroke:none;stroke-width:0.184523;stroke-dasharray:none;stroke-opacity:1" /></g></svg>
