<?xml version="1.0" encoding="UTF-8" standalone="no"?>
<!-- Created with Inkscape (http://www.inkscape.org/) -->

<svg
   width="32"
   height="32"
   viewBox="0 0 8.4666666 8.4666666"
   version="1.1"
   id="svg1"
   xml:space="preserve"
   inkscape:version="1.3 (0e150ed6c4, 2023-07-21)"
   sodipodi:docname="BladeInsertion.svg"
   xmlns:inkscape="http://www.inkscape.org/namespaces/inkscape"
   xmlns:sodipodi="http://sodipodi.sourceforge.net/DTD/sodipodi-0.dtd"
   xmlns:xlink="http://www.w3.org/1999/xlink"
   xmlns="http://www.w3.org/2000/svg"
   xmlns:svg="http://www.w3.org/2000/svg"><sodipodi:namedview
     id="namedview1"
     pagecolor="#505050"
     bordercolor="#eeeeee"
     borderopacity="1"
     inkscape:showpageshadow="0"
     inkscape:pageopacity="0"
     inkscape:pagecheckerboard="0"
     inkscape:deskcolor="#d1d1d1"
     inkscape:document-units="mm"
     inkscape:zoom="11.313708"
     inkscape:cx="16.705398"
     inkscape:cy="6.8059028"
     inkscape:window-width="1280"
     inkscape:window-height="961"
     inkscape:window-x="-8"
     inkscape:window-y="-8"
     inkscape:window-maximized="1"
     inkscape:current-layer="layer1" /><defs
     id="defs1"><linearGradient
       inkscape:collect="always"
       id="linearGradient3"><stop
         style="stop-color:#78aaf6;stop-opacity:1;"
         offset="0"
         id="stop2" /><stop
         style="stop-color:#2678eb;stop-opacity:1;"
         offset="1"
         id="stop3" /></linearGradient><radialGradient
       inkscape:collect="always"
       xlink:href="#linearGradient3"
       id="radialGradient5"
       cx="11.443229"
       cy="-1.7528646"
       fx="11.443229"
       fy="-1.7528646"
       r="2.6458337"
       gradientTransform="matrix(1.5805555,0,0,1.4224997,-13.853326,6.761862)"
       gradientUnits="userSpaceOnUse" /></defs><g
     inkscape:label="Layer 1"
     inkscape:groupmode="layer"
     id="layer1"><path
       d="M 0.05144636,1.7592807 2.180027,2.8256618 C 1.8914768,3.222941 1.7242019,3.7289492 1.7242019,4.2684126 c 0,0.5394633 0.1672749,1.0454715 0.4558251,1.4427507 L 0.05144636,6.7775443 V 1.7592807 M 1.7242019,0.15392345 H 6.7424663 L 5.6760845,2.2151063 C 5.2788056,1.9265562 4.7727971,1.7592807 4.2333345,1.7592807 c -0.5394641,0 -1.0454726,0.1672755 -1.4427515,0.4558256 L 1.7242019,0.15392345 M 8.4152203,1.7592807 V 6.7775443 L 6.2866404,5.7111633 C 6.5751898,5.3138841 6.7424663,4.8078759 6.7424663,4.2684126 6.7424663,3.7289492 6.5751882,3.222941 6.2866404,2.8256618 L 8.4152203,1.7592807 M 6.7424663,8.3127432 H 1.7242019 L 2.790583,6.3217188 c 0.3972789,0.2885502 0.9032858,0.4558255 1.4427515,0.4558255 0.5394626,0 1.0454711,-0.1672753 1.44275,-0.4558255 L 6.7424663,8.3127432 M 4.2333345,2.5956581 c 0.9238366,3e-7 1.672754,0.7489179 1.672754,1.6727545 0,0.9238366 -0.7489174,1.6727542 -1.672754,1.6727545 -0.9238372,6e-7 -1.6727556,-0.7489173 -1.6727556,-1.6727545 0,-0.9238372 0.7489184,-1.6727551 1.6727556,-1.6727545 m 0,0.8363771 c -0.4619187,-3e-7 -0.8363779,0.3744587 -0.8363778,0.8363774 0,0.4619186 0.3744592,0.8363775 0.8363778,0.8363772 0.461918,-6e-7 0.8363762,-0.3744592 0.8363762,-0.8363772 1e-7,-0.461918 -0.3744582,-0.8363768 -0.8363762,-0.8363774 z"
       id="path1-2"
       style="fill:url(#radialGradient5);stroke-width:0.418188"
       sodipodi:nodetypes="ccsccccccscccccscccccscccssscsssss" /></g></svg>
