<?xml version="1.0" encoding="UTF-8" standalone="no"?>
<!-- Created with Inkscape (http://www.inkscape.org/) -->

<svg
   width="32"
   height="32"
   viewBox="0 0 8.4666666 8.4666666"
   version="1.1"
   id="svg1"
   xml:space="preserve"
   inkscape:version="1.3 (0e150ed6c4, 2023-07-21)"
   sodipodi:docname="ColorTemperature.svg"
   xmlns:inkscape="http://www.inkscape.org/namespaces/inkscape"
   xmlns:sodipodi="http://sodipodi.sourceforge.net/DTD/sodipodi-0.dtd"
   xmlns:xlink="http://www.w3.org/1999/xlink"
   xmlns="http://www.w3.org/2000/svg"
   xmlns:svg="http://www.w3.org/2000/svg"><sodipodi:namedview
     id="namedview1"
     pagecolor="#505050"
     bordercolor="#eeeeee"
     borderopacity="1"
     inkscape:showpageshadow="0"
     inkscape:pageopacity="0"
     inkscape:pagecheckerboard="0"
     inkscape:deskcolor="#d1d1d1"
     inkscape:document-units="mm"
     inkscape:zoom="2.8284271"
     inkscape:cx="44.547727"
     inkscape:cy="-2.1213203"
     inkscape:window-width="1280"
     inkscape:window-height="961"
     inkscape:window-x="-8"
     inkscape:window-y="-8"
     inkscape:window-maximized="1"
     inkscape:current-layer="layer1" /><defs
     id="defs1"><linearGradient
       inkscape:collect="always"
       id="linearGradient3"><stop
         style="stop-color:#78aaf6;stop-opacity:1;"
         offset="0"
         id="stop2" /><stop
         style="stop-color:#2678eb;stop-opacity:1;"
         offset="1"
         id="stop3" /></linearGradient><radialGradient
       inkscape:collect="always"
       xlink:href="#linearGradient3"
       id="radialGradient5"
       cx="10.934991"
       cy="3.1948543"
       fx="10.934991"
       fy="3.1948543"
       r="1.3054788"
       gradientTransform="matrix(1,0,0,2.4060652,0,-4.4921732)"
       gradientUnits="userSpaceOnUse" /></defs><g
     inkscape:label="Layer 1"
     inkscape:groupmode="layer"
     id="layer1"><g
       id="g9"
       transform="matrix(1.1245076,0,0,1.1245076,1.4556233,-0.08649503)"><g
         id="g5"
         transform="matrix(1.165385,0,0,1.165385,-10.273318,0.11829369)"><path
           id="path3"
           style="fill:url(#radialGradient5);fill-opacity:1;fill-rule:evenodd;stroke:#2e2e2e;stroke-width:0.1;stroke-linecap:butt;stroke-linejoin:miter;stroke-dasharray:none;stroke-opacity:1"
           d="M 10.93525,0.10386963 C 10.356541,0.09585484 10.251054,0.65784098 10.251054,0.65784098 V 3.9780518 A 1.2554235,1.2554235 0 0 0 9.6795125,5.0301839 1.2554235,1.2554235 0 0 0 10.93525,6.2859212 1.2554235,1.2554235 0 0 0 12.19047,5.0301839 1.2554235,1.2554235 0 0 0 11.618929,3.977535 V 0.65784098 c 0,0 -0.07072,-0.54548236 -0.683679,-0.55397135 z" /><path
           id="path4"
           style="fill:#eb5e5e;fill-opacity:1;fill-rule:evenodd;stroke:#2b2b2b;stroke-width:0.0481544;stroke-linecap:butt;stroke-linejoin:miter;stroke-dasharray:none;stroke-opacity:1"
           d="M 10.935116,1.5245883 C 10.656442,1.5207283 10.605646,1.79135 10.605646,1.79135 v 2.6551159 c -0.171554,0.1114384 -0.275114,0.3020768 -0.275223,0.5066481 -8.4e-5,0.3339973 0.270696,0.6047766 0.604693,0.6046931 0.3339,-5.41e-5 0.604527,-0.270793 0.604444,-0.6046931 -2.5e-5,-0.2046594 -0.103594,-0.3954102 -0.275222,-0.506897 V 1.79135 c 0,0 -0.03405,-0.2626739 -0.329222,-0.2667617 z"
           sodipodi:nodetypes="scccccccs" /></g><path
         style="fill:none;fill-rule:evenodd;stroke:#2b2b2b;stroke-width:0.165;stroke-linecap:butt;stroke-linejoin:miter;stroke-dasharray:none;stroke-opacity:1"
         d="M 2.3550013,2.510847 H 2.834577"
         id="path5" /><path
         style="fill:none;fill-rule:evenodd;stroke:#2b2b2b;stroke-width:0.165;stroke-linecap:butt;stroke-linejoin:miter;stroke-dasharray:none;stroke-opacity:1"
         d="M 2.3550013,3.0400137 H 2.834577"
         id="path6" /><path
         style="fill:none;fill-rule:evenodd;stroke:#2b2b2b;stroke-width:0.165;stroke-linecap:butt;stroke-linejoin:miter;stroke-dasharray:none;stroke-opacity:1"
         d="M 2.3550013,3.5691804 H 2.834577"
         id="path7" /><path
         style="fill:none;fill-rule:evenodd;stroke:#2b2b2b;stroke-width:0.165;stroke-linecap:butt;stroke-linejoin:miter;stroke-dasharray:none;stroke-opacity:1"
         d="M 2.3550013,4.0983471 H 2.834577"
         id="path8" /><path
         style="fill:none;fill-rule:evenodd;stroke:#2b2b2b;stroke-width:0.165;stroke-linecap:butt;stroke-linejoin:miter;stroke-dasharray:none;stroke-opacity:1"
         d="M 2.3550013,4.6275138 H 2.834577"
         id="path9" /></g></g></svg>
