<?xml version="1.0" encoding="UTF-8" standalone="no"?>
<!-- Created with Inkscape (http://www.inkscape.org/) -->

<svg
   width="32"
   height="32"
   viewBox="0 0 8.4666666 8.4666666"
   version="1.1"
   id="svg1"
   xml:space="preserve"
   inkscape:version="1.3 (0e150ed6c4, 2023-07-21)"
   sodipodi:docname="Fan.svg"
   xmlns:inkscape="http://www.inkscape.org/namespaces/inkscape"
   xmlns:sodipodi="http://sodipodi.sourceforge.net/DTD/sodipodi-0.dtd"
   xmlns:xlink="http://www.w3.org/1999/xlink"
   xmlns="http://www.w3.org/2000/svg"
   xmlns:svg="http://www.w3.org/2000/svg"><sodipodi:namedview
     id="namedview1"
     pagecolor="#505050"
     bordercolor="#eeeeee"
     borderopacity="1"
     inkscape:showpageshadow="0"
     inkscape:pageopacity="0"
     inkscape:pagecheckerboard="0"
     inkscape:deskcolor="#d1d1d1"
     inkscape:document-units="mm"
     inkscape:zoom="4"
     inkscape:cx="-4.375"
     inkscape:cy="-29.75"
     inkscape:window-width="1280"
     inkscape:window-height="961"
     inkscape:window-x="-8"
     inkscape:window-y="-8"
     inkscape:window-maximized="1"
     inkscape:current-layer="layer1" /><defs
     id="defs1"><linearGradient
       inkscape:collect="always"
       id="linearGradient12"><stop
         style="stop-color:#2678eb;stop-opacity:1;"
         offset="0"
         id="stop12" /><stop
         style="stop-color:#78aaf6;stop-opacity:1;"
         offset="1"
         id="stop11" /></linearGradient><radialGradient
       inkscape:collect="always"
       xlink:href="#linearGradient12"
       id="radialGradient11"
       cx="4.2219644"
       cy="4.2767415"
       fx="4.2219644"
       fy="4.2767415"
       r="4.1993117"
       gradientUnits="userSpaceOnUse"
       gradientTransform="matrix(0.84201791,0.84201791,-0.84201791,0.84201791,4.2766964,-2.9192609)" /><rect
       x="1.5"
       y="-34.75"
       width="29.5"
       height="32"
       id="rect15" /></defs><g
     inkscape:label="Layer 1"
     inkscape:groupmode="layer"
     id="layer1"><path
       id="path1"
       style="fill:url(#radialGradient11);fill-rule:evenodd;stroke:#343434;stroke-width:0.129796;stroke-linecap:butt;stroke-linejoin:miter;stroke-dasharray:none;stroke-opacity:1"
       d="M 7.6741514,0.70097748 C 6.2832964,-0.64894049 5.5561104,0.99303098 4.9505864,1.7792018 4.6506504,2.1686188 4.3557794,2.5561354 4.2292684,3.2320986 4.0913824,2.5691341 3.8217804,2.2935877 3.4740104,1.7834423 2.9484004,1.0124234 2.1314694,-0.68706579 0.69474944,0.79322408 c -1.349918,1.39085502 0.210369,2.21434022 1.03145296,2.70017822 0.584227,0.3456891 0.823283,0.6186242 1.499233,0.74514 C 2.5624704,4.376428 2.3247074,4.5914452 1.7776494,4.9704147 0.88176444,5.5910303 -0.69285856,6.3363409 0.78743044,7.7730611 2.1782864,9.1229791 2.8737304,7.4352854 3.5343814,6.6948374 c 0.159789,-0.179089 0.571121,-0.7778668 0.697498,-1.4542027 0.137781,0.663257 0.515315,1.2512877 0.731872,1.4729127 0.698722,0.715075 1.365926,2.4471217 2.802646,0.9668317 C 9.1163154,6.2895243 7.5881274,5.4635738 6.7349454,4.9568151 6.1114714,4.5864945 5.9099984,4.3618268 5.2335364,4.2354964 5.8969894,4.0977852 6.2049614,3.9073663 6.6605464,3.5971683 7.4869474,3.0344897 9.1544414,2.1376978 7.6741514,0.70097748 Z M 4.2327494,4.224183 c 0.0036,0.00481 0.007,0.010153 0.01088,0.01436 -0.0049,0.0037 -0.0105,0.00732 -0.01479,0.011313 -0.0036,-0.00481 -0.007,-0.010153 -0.01088,-0.01436 0.0049,-0.0037 0.0105,-0.00731 0.01479,-0.011313 z"
       sodipodi:nodetypes="sscssscssscssscssccccc" /></g></svg>
