<?xml version="1.0" encoding="UTF-8" standalone="no"?>
<!-- Created with Inkscape (http://www.inkscape.org/) -->

<svg
   width="31.880875"
   height="31.71797"
   viewBox="0 0 8.435148 8.3920461"
   version="1.1"
   id="svg1"
   xml:space="preserve"
   inkscape:version="1.3 (0e150ed6c4, 2023-07-21)"
   sodipodi:docname="Focus.svg"
   xmlns:inkscape="http://www.inkscape.org/namespaces/inkscape"
   xmlns:sodipodi="http://sodipodi.sourceforge.net/DTD/sodipodi-0.dtd"
   xmlns:xlink="http://www.w3.org/1999/xlink"
   xmlns="http://www.w3.org/2000/svg"
   xmlns:svg="http://www.w3.org/2000/svg"><sodipodi:namedview
     id="namedview1"
     pagecolor="#505050"
     bordercolor="#eeeeee"
     borderopacity="1"
     inkscape:showpageshadow="0"
     inkscape:pageopacity="0"
     inkscape:pagecheckerboard="0"
     inkscape:deskcolor="#d1d1d1"
     inkscape:document-units="mm"
     inkscape:zoom="8"
     inkscape:cx="24.375"
     inkscape:cy="31.25"
     inkscape:window-width="1280"
     inkscape:window-height="961"
     inkscape:window-x="-8"
     inkscape:window-y="-8"
     inkscape:window-maximized="1"
     inkscape:current-layer="layer1" /><defs
     id="defs1"><linearGradient
       inkscape:collect="always"
       id="linearGradient3"><stop
         style="stop-color:#78aaf6;stop-opacity:1;"
         offset="0"
         id="stop2" /><stop
         style="stop-color:#2678eb;stop-opacity:1;"
         offset="1"
         id="stop3" /></linearGradient><radialGradient
       inkscape:collect="always"
       xlink:href="#linearGradient3"
       id="radialGradient6"
       cx="13.437361"
       cy="0.62338269"
       fx="13.437361"
       fy="0.62338269"
       r="2.3812499"
       gradientUnits="userSpaceOnUse"
       gradientTransform="matrix(1.6680919,0,0,1.6680919,-8.0941801,3.1934737)" /></defs><g
     inkscape:label="Layer 1"
     inkscape:groupmode="layer"
     id="layer1"
     transform="translate(-10.102999,-0.03731034)"><path
       d="m 14.320573,2.9092854 c -0.731252,-10e-8 -1.324048,0.5927965 -1.324048,1.324048 0,0.7312515 0.592796,1.3240481 1.324048,1.324048 0.731252,1e-7 1.324048,-0.5927965 1.324048,-1.324048 0,-0.7312515 -0.592796,-1.3240481 -1.324048,-1.324048 m 3.089443,4.4134926 h -1.765395 v 0.8826992 h 1.765395 c 0.487502,1.3e-6 0.882701,-0.3951971 0.882701,-0.8826992 V 5.5573814 h -0.882701 z m 0,-7.06158836 H 15.644621 V 1.1438888 h 1.765395 v 1.7653966 h 0.882701 V 1.1438888 c 0,-0.48750213 -0.395199,-0.88270047 -0.882701,-0.88269916 M 11.231127,1.1438888 h 1.765398 V 0.26118964 h -1.765398 c -0.487501,3.4e-7 -0.882698,0.3951982 -0.882698,0.88269916 v 1.7653966 h 0.882698 z m 0,4.4134926 H 10.348429 V 7.322778 c 0,0.487501 0.395197,0.8826989 0.882698,0.8826992 h 1.765398 V 7.322778 h -1.765398 z"
       id="path1"
       style="fill:url(#radialGradient6);fill-opacity:1;stroke:#2a2a2a;stroke-width:0.166809;stroke-dasharray:none;stroke-opacity:1"
       sodipodi:nodetypes="cssscccccscccccccccscccccccccccsscccc" /></g></svg>
