<?xml version="1.0" encoding="UTF-8" standalone="no"?>
<!-- Created with Inkscape (http://www.inkscape.org/) -->

<svg
   width="32"
   height="32"
   viewBox="0 0 8.4666666 8.4666666"
   version="1.1"
   id="svg1"
   xml:space="preserve"
   inkscape:version="1.3 (0e150ed6c4, 2023-07-21)"
   sodipodi:docname="Iris.svg"
   xmlns:inkscape="http://www.inkscape.org/namespaces/inkscape"
   xmlns:sodipodi="http://sodipodi.sourceforge.net/DTD/sodipodi-0.dtd"
   xmlns:xlink="http://www.w3.org/1999/xlink"
   xmlns="http://www.w3.org/2000/svg"
   xmlns:svg="http://www.w3.org/2000/svg"><sodipodi:namedview
     id="namedview1"
     pagecolor="#505050"
     bordercolor="#eeeeee"
     borderopacity="1"
     inkscape:showpageshadow="0"
     inkscape:pageopacity="0"
     inkscape:pagecheckerboard="0"
     inkscape:deskcolor="#d1d1d1"
     inkscape:document-units="mm"
     inkscape:zoom="8"
     inkscape:cx="27"
     inkscape:cy="5.875"
     inkscape:window-width="1280"
     inkscape:window-height="961"
     inkscape:window-x="-8"
     inkscape:window-y="-8"
     inkscape:window-maximized="1"
     inkscape:current-layer="layer1" /><defs
     id="defs1"><linearGradient
       inkscape:collect="always"
       id="linearGradient3"><stop
         style="stop-color:#78aaf6;stop-opacity:1;"
         offset="0"
         id="stop2" /><stop
         style="stop-color:#2678eb;stop-opacity:1;"
         offset="1"
         id="stop3" /></linearGradient><radialGradient
       inkscape:collect="always"
       xlink:href="#linearGradient3"
       id="radialGradient2"
       cx="11.244792"
       cy="-4.1010418"
       fx="11.244792"
       fy="-4.1010418"
       r="2.6458337"
       gradientUnits="userSpaceOnUse"
       gradientTransform="matrix(1.5437499,0,0,1.5437499,-13.109276,10.580851)" /></defs><g
     inkscape:label="Layer 1"
     inkscape:groupmode="layer"
     id="layer1"><path
       d="m 4.9564892,5.4752211 -1.592957,2.7611253 c 0.2859149,0.061268 0.5799992,0.098028 0.8863379,0.098028 0.9802812,0 1.8788717,-0.3471828 2.5814061,-0.9190136 L 5.3363474,4.8217004 M 0.35325185,5.4752211 C 0.72902635,6.6678965 1.639871,7.6236707 2.7998706,8.0647972 L 4.2988841,5.4752211 M 2.8366303,4.2498696 1.243674,1.4928288 c -0.66985889,0.7147883 -1.07830933,1.690985 -1.07830933,2.7570408 0,0.2777464 0.0285918,0.5514082 0.0816906,0.8169011 H 3.3063487 M 8.2526839,3.4329686 h -3.059294 l 0.118452,0.2042253 1.9442248,3.3697166 C 7.9259245,6.2798686 8.3343761,5.311841 8.3343761,4.2498696 c 0,-0.2818308 -0.02859,-0.5554926 -0.081695,-0.816901 M 8.1464862,3.0245182 C 7.7707128,1.8277582 6.859868,0.87606848 5.699868,0.43494195 L 4.2008545,3.0245182 M 3.1878983,3.6371939 5.1362064,0.26339274 C 4.8502915,0.20212594 4.5562072,0.16536462 4.2498685,0.16536462 c -0.9802812,0 -1.8788717,0.34309842 -2.5814064,0.91901378 l 1.4949291,2.5936605 z"
       id="path1"
       style="fill:url(#radialGradient2);stroke-width:0.40845" /></g></svg>
