<?xml version="1.0" encoding="UTF-8" standalone="no"?>
<!-- Created with Inkscape (http://www.inkscape.org/) -->

<svg
   width="32"
   height="32"
   viewBox="0 0 8.4666666 8.4666666"
   version="1.1"
   id="svg1"
   xml:space="preserve"
   inkscape:version="1.3 (0e150ed6c4, 2023-07-21)"
   sodipodi:docname="RotationGobo.svg"
   xmlns:inkscape="http://www.inkscape.org/namespaces/inkscape"
   xmlns:sodipodi="http://sodipodi.sourceforge.net/DTD/sodipodi-0.dtd"
   xmlns:xlink="http://www.w3.org/1999/xlink"
   xmlns="http://www.w3.org/2000/svg"
   xmlns:svg="http://www.w3.org/2000/svg"><sodipodi:namedview
     id="namedview1"
     pagecolor="#505050"
     bordercolor="#eeeeee"
     borderopacity="1"
     inkscape:showpageshadow="0"
     inkscape:pageopacity="0"
     inkscape:pagecheckerboard="0"
     inkscape:deskcolor="#d1d1d1"
     inkscape:document-units="mm"
     inkscape:zoom="5.6568542"
     inkscape:cx="0"
     inkscape:cy="16.617009"
     inkscape:window-width="1280"
     inkscape:window-height="961"
     inkscape:window-x="-8"
     inkscape:window-y="-8"
     inkscape:window-maximized="1"
     inkscape:current-layer="layer1" /><defs
     id="defs1"><radialGradient
       inkscape:collect="always"
       xlink:href="#linearGradient3"
       id="radialGradient6"
       cx="-0.36152744"
       cy="0.25835574"
       fx="-0.36152744"
       fy="0.25835574"
       r="5.8847041"
       gradientTransform="matrix(1,0,0,1.0469003,0,-0.01211697)"
       gradientUnits="userSpaceOnUse" /><linearGradient
       inkscape:collect="always"
       id="linearGradient3"><stop
         style="stop-color:#78aaf6;stop-opacity:1;"
         offset="0"
         id="stop2" /><stop
         style="stop-color:#2678eb;stop-opacity:1;"
         offset="1"
         id="stop3" /></linearGradient></defs><g
     inkscape:label="Layer 1"
     inkscape:groupmode="layer"
     id="layer1"><path
       id="path5"
       style="opacity:1;fill:url(#radialGradient6);fill-rule:evenodd;stroke:#343434;stroke-width:0.16491079;stroke-linecap:round;stroke-linejoin:round;stroke-opacity:1;stroke-dasharray:none"
       inkscape:transform-center-x="-0.086698848"
       inkscape:transform-center-y="-0.51006476"
       transform="matrix(0.62742683,0.2078659,-0.2078659,0.62742683,4.1463241,4.4392013)"
       d="M 5.5231766,3.9687496 1.0889188,2.7546986 -1.6876005,6.4190544 -1.9032304,1.8266622 -6.2462315,0.31838377 l 4.3009912,-1.62420347 0.092397,-4.5965232 2.8737887,3.5885792 4.4001055,-1.3325291 -2.5248921,3.84206744 z" /><path
       d="M 6.6426926,0.2616223 7.3780626,3.00606 4.6560363,3.7026013 5.5144115,2.2158509 A 2.6393198,2.6393198 0 0 0 2.3024958,3.3643173 2.6393198,2.6393198 0 0 0 3.2685716,6.9697657 2.6393198,2.6393198 0 0 0 6.6292616,6.3552111 L 7.4006187,6.8005535 A 3.5222718,3.5222718 0 0 1 2.82714,7.7343931 3.5222718,3.5222718 0 0 1 1.5379177,2.9229494 3.5222718,3.5222718 0 0 1 5.9599944,1.4445404 l 0.00516,-0.00896 z"
       id="path1"
       style="fill:#eff4ff;fill-opacity:1;stroke:#000000;stroke-width:0.184523;stroke-dasharray:none;stroke-opacity:1" /></g></svg>
