<?xml version="1.0" encoding="UTF-8" standalone="no"?>
<!-- Created with Inkscape (http://www.inkscape.org/) -->

<svg
   width="32"
   height="32"
   viewBox="0 0 8.4666666 8.4666666"
   version="1.1"
   id="svg1"
   xml:space="preserve"
   inkscape:version="1.3 (0e150ed6c4, 2023-07-21)"
   sodipodi:docname="Smoke.svg"
   xmlns:inkscape="http://www.inkscape.org/namespaces/inkscape"
   xmlns:sodipodi="http://sodipodi.sourceforge.net/DTD/sodipodi-0.dtd"
   xmlns:xlink="http://www.w3.org/1999/xlink"
   xmlns="http://www.w3.org/2000/svg"
   xmlns:svg="http://www.w3.org/2000/svg"><sodipodi:namedview
     id="namedview1"
     pagecolor="#505050"
     bordercolor="#eeeeee"
     borderopacity="1"
     inkscape:showpageshadow="0"
     inkscape:pageopacity="0"
     inkscape:pagecheckerboard="0"
     inkscape:deskcolor="#d1d1d1"
     inkscape:document-units="mm"
     inkscape:zoom="5.6568543"
     inkscape:cx="8.0433396"
     inkscape:cy="9.8994949"
     inkscape:window-width="1280"
     inkscape:window-height="961"
     inkscape:window-x="-8"
     inkscape:window-y="-8"
     inkscape:window-maximized="1"
     inkscape:current-layer="layer1" /><defs
     id="defs1"><linearGradient
       id="linearGradient32"
       inkscape:collect="always"><stop
         style="stop-color:#000000;stop-opacity:0.521348;"
         offset="0"
         id="stop32" /><stop
         style="stop-color:#000000;stop-opacity:0;"
         offset="1"
         id="stop33" /></linearGradient><linearGradient
       id="linearGradient30"
       inkscape:collect="always"><stop
         style="stop-color:#838383;stop-opacity:1;"
         offset="0"
         id="stop30" /><stop
         style="stop-color:#b0b0b0;stop-opacity:1;"
         offset="1"
         id="stop31" /></linearGradient><linearGradient
       id="linearGradient28"
       inkscape:collect="always"><stop
         style="stop-color:#2a2a2a;stop-opacity:1;"
         offset="0"
         id="stop28" /><stop
         style="stop-color:#2a2a2a;stop-opacity:0.07611549;"
         offset="1"
         id="stop29" /></linearGradient><linearGradient
       inkscape:collect="always"
       id="linearGradient12"><stop
         style="stop-color:#2678eb;stop-opacity:1;"
         offset="0"
         id="stop12" /><stop
         style="stop-color:#78aaf6;stop-opacity:1;"
         offset="1"
         id="stop11" /></linearGradient><linearGradient
       inkscape:collect="always"
       xlink:href="#linearGradient28"
       id="linearGradient29"
       x1="-5.5081692"
       y1="-2.2315848"
       x2="-1.5023401"
       y2="-2.2315848"
       gradientUnits="userSpaceOnUse"
       gradientTransform="matrix(1.4754066,0,0,1.4754066,10.709206,7.468697)" /><linearGradient
       inkscape:collect="always"
       xlink:href="#linearGradient30"
       id="linearGradient31"
       x1="-5.5081692"
       y1="-2.2315849"
       x2="-1.5023401"
       y2="-2.2315849"
       gradientUnits="userSpaceOnUse"
       gradientTransform="matrix(1.4754066,0,0,1.4754066,10.709206,7.468697)" /><linearGradient
       inkscape:collect="always"
       xlink:href="#linearGradient32"
       id="linearGradient33"
       x1="-4.0414807"
       y1="-2.7715944"
       x2="-1.7799326"
       y2="-2.7715944"
       gradientUnits="userSpaceOnUse"
       gradientTransform="matrix(1.4754066,0,0,1.4754066,10.709206,7.468697)" /><linearGradient
       inkscape:collect="always"
       xlink:href="#linearGradient32"
       id="linearGradient35"
       x1="-3.3466034"
       y1="-1.4698488"
       x2="-1.8579038"
       y2="-1.4698488"
       gradientUnits="userSpaceOnUse"
       gradientTransform="matrix(1.4754066,0,0,1.4754066,10.709206,7.468697)" /><linearGradient
       inkscape:collect="always"
       xlink:href="#linearGradient12"
       id="linearGradient38"
       x1="-7.2050457"
       y1="-1.9476376"
       x2="-5.6573014"
       y2="-1.9476376"
       gradientUnits="userSpaceOnUse"
       gradientTransform="matrix(1.4754066,0,0,1.4754066,10.709206,7.468697)" /></defs><g
     inkscape:label="Layer 1"
     inkscape:groupmode="layer"
     id="layer1"><path
       style="fill:url(#linearGradient31);fill-rule:evenodd;stroke:url(#linearGradient29);stroke-width:0.351331;stroke-linecap:butt;stroke-linejoin:miter;stroke-dasharray:none;stroke-opacity:1;paint-order:stroke fill markers"
       d="m 8.3165913,6.8648766 c 0,0 -0.5411847,0.2561561 -0.8971035,0.1725199 C 7.0635689,6.9537603 6.4016205,6.2610569 6.4016205,6.2610569 c 0,0 -0.7246092,0.2739897 -1.0868753,0.1207639 C 4.952479,6.2285951 4.5384055,5.3812054 4.5384055,5.3812054 c 0,0 -0.6224596,0.1925711 -0.9316078,0.1380155 C 3.2976494,5.4646648 2.7787022,5.0706691 2.7787022,5.0706691 L 2.7614503,4.1390627 c 0,0 1.0339501,0.026121 1.4146632,-0.2760318 0.3807132,-0.3021517 0.2689826,-1.0916654 0.6038196,-1.3456553 0.3348371,-0.25399 1.0351198,-0.1552677 1.0351198,-0.1552677 0,0 0.5925637,-0.9572361 1.0351193,-1.0523717 0.4425556,-0.095136 1.1558834,0.4485517 1.1558834,0.4485517 l 0.2932838,0.1380154"
       id="path26"
       sodipodi:nodetypes="czczczcczzczcc" /><path
       style="fill:url(#linearGradient38);fill-rule:evenodd;stroke:#343434;stroke-width:0.273257;stroke-linecap:butt;stroke-linejoin:miter;stroke-dasharray:none;stroke-opacity:1"
       d="M 0.25449962,3.0521871 V 6.1402937 H 1.013587 c 0,0 0.2059956,-0.062668 0.2760319,-0.1380159 C 1.3615981,5.9248395 1.4103824,5.708994 1.4103824,5.708994 L 1.4276329,5.1569302 2.1867206,5.3639541 V 3.8285269 L 1.4276329,4.0355508 V 3.586999 c 0,0 -0.027891,-0.2943789 -0.1207635,-0.3967957 C 1.2315941,3.107191 0.99633347,3.0614269 0.99633347,3.0614269 Z"
       id="path27"
       sodipodi:nodetypes="cccsccccccscc" /><path
       style="fill:none;fill-rule:evenodd;stroke:url(#linearGradient33);stroke-width:0.195184;stroke-linecap:butt;stroke-linejoin:miter;stroke-dasharray:none;stroke-opacity:0.521348"
       d="m 4.8292881,4.126171 c 0,0 0.3198241,-0.5150739 0.634348,-0.6099499 0.3145239,-0.094876 1.0735121,0.1951839 1.0735121,0.1951839 0,0 0.6024802,-0.9636749 0.9271239,-1.0247159 0.3246438,-0.061041 0.536756,0.2683779 0.536756,0.2683779"
       id="path31"
       sodipodi:nodetypes="czczc" /><path
       style="fill:none;fill-rule:evenodd;stroke:url(#linearGradient35);stroke-width:0.195184;stroke-linecap:butt;stroke-linejoin:miter;stroke-dasharray:none;stroke-opacity:1"
       d="m 5.8540041,4.6385291 c 0,0 0.2797583,0.440809 0.5123581,0.463562 0.2325997,0.022752 0.6099499,-0.36597 0.6099499,-0.36597 0,0 0.180621,1.1165301 0.463562,1.2198999 0.2829409,0.1033698 0.439164,-0.24398 0.439164,-0.24398"
       id="path33"
       sodipodi:nodetypes="czczc" /></g></svg>
