<?xml version="1.0" encoding="UTF-8" standalone="no"?>
<!-- Created with Inkscape (http://www.inkscape.org/) -->

<svg
   width="31.880875"
   height="31.71797"
   viewBox="0 0 8.435148 8.3920461"
   version="1.1"
   id="svg1"
   xml:space="preserve"
   inkscape:version="1.3 (0e150ed6c4, 2023-07-21)"
   sodipodi:docname="SoundControled.svg"
   xmlns:inkscape="http://www.inkscape.org/namespaces/inkscape"
   xmlns:sodipodi="http://sodipodi.sourceforge.net/DTD/sodipodi-0.dtd"
   xmlns:xlink="http://www.w3.org/1999/xlink"
   xmlns="http://www.w3.org/2000/svg"
   xmlns:svg="http://www.w3.org/2000/svg"><sodipodi:namedview
     id="namedview1"
     pagecolor="#505050"
     bordercolor="#eeeeee"
     borderopacity="1"
     inkscape:showpageshadow="0"
     inkscape:pageopacity="0"
     inkscape:pagecheckerboard="0"
     inkscape:deskcolor="#d1d1d1"
     inkscape:document-units="mm"
     inkscape:zoom="4"
     inkscape:cx="-9.7500001"
     inkscape:cy="21"
     inkscape:window-width="1280"
     inkscape:window-height="961"
     inkscape:window-x="-8"
     inkscape:window-y="-8"
     inkscape:window-maximized="1"
     inkscape:current-layer="layer1" /><defs
     id="defs1"><linearGradient
       inkscape:collect="always"
       id="linearGradient5"><stop
         style="stop-color:#a2c4f8;stop-opacity:1;"
         offset="0"
         id="stop4" /><stop
         style="stop-color:#2678eb;stop-opacity:1;"
         offset="1"
         id="stop5" /></linearGradient><linearGradient
       inkscape:collect="always"
       xlink:href="#linearGradient5"
       id="linearGradient9"
       x1="14.229518"
       y1="4.2333336"
       x2="14.21319"
       y2="10.31875"
       gradientUnits="userSpaceOnUse" /></defs><g
     inkscape:label="Layer 1"
     inkscape:groupmode="layer"
     id="layer1"
     transform="translate(-10.102999,-0.03731034)"><path
       id="path2"
       style="fill:url(#linearGradient9);fill-rule:evenodd;stroke:#2d2d2d;stroke-width:0.137577;stroke-linecap:butt;stroke-linejoin:miter;stroke-dasharray:none;stroke-opacity:1"
       d="m 18.376047,0.18981707 c 0,0 -2.262095,1.14629133 -3.491936,1.37561153 -0.878439,0.1637962 -2.680679,-0.017635 -2.680679,-0.017635 v 4.6206441 l 0.0027,0.1680935 a 1.5078819,1.0140726 0 0 0 -0.434838,-0.044641 1.5078819,1.0140726 0 0 0 -1.507884,1.0140727 1.5078819,1.0140726 0 0 0 1.507884,1.0140726 1.5078819,1.0140726 0 0 0 1.507881,-1.0140726 1.5078819,1.0140726 0 0 0 -0.0044,-0.04409 h 0.0044 V 2.6235913 c 0,0 1.051482,0.1089231 1.569608,0.035273 0.872521,-0.1240281 2.521954,-0.793622 2.521954,-0.793622 l 0.05291,3.9857464 0.0056,0.094243 a 1.5078819,1.0140726 0 0 0 -0.559393,-0.072749 1.5078819,1.0140726 0 0 0 -1.507883,1.0140725 1.5078819,1.0140726 0 0 0 1.507883,1.0140728 1.5078819,1.0140726 0 0 0 1.507882,-1.0140728 1.5078819,1.0140726 0 0 0 -0.0039,-0.065584 h 0.0022 z" /></g></svg>
