<?xml version="1.0" encoding="UTF-8" standalone="no"?>
<!-- Created with Inkscape (http://www.inkscape.org/) -->

<svg
   width="31.880875"
   height="31.71797"
   viewBox="0 0 8.435148 8.3920461"
   version="1.1"
   id="svg1"
   xml:space="preserve"
   inkscape:version="1.3 (0e150ed6c4, 2023-07-21)"
   sodipodi:docname="SoundSensitivity.svg"
   xmlns:inkscape="http://www.inkscape.org/namespaces/inkscape"
   xmlns:sodipodi="http://sodipodi.sourceforge.net/DTD/sodipodi-0.dtd"
   xmlns:xlink="http://www.w3.org/1999/xlink"
   xmlns="http://www.w3.org/2000/svg"
   xmlns:svg="http://www.w3.org/2000/svg"><sodipodi:namedview
     id="namedview1"
     pagecolor="#505050"
     bordercolor="#eeeeee"
     borderopacity="1"
     inkscape:showpageshadow="0"
     inkscape:pageopacity="0"
     inkscape:pagecheckerboard="0"
     inkscape:deskcolor="#d1d1d1"
     inkscape:document-units="mm"
     inkscape:zoom="2.8284271"
     inkscape:cx="53.386562"
     inkscape:cy="24.395184"
     inkscape:window-width="1280"
     inkscape:window-height="961"
     inkscape:window-x="-8"
     inkscape:window-y="-8"
     inkscape:window-maximized="1"
     inkscape:current-layer="layer1" /><defs
     id="defs1"><linearGradient
       inkscape:collect="always"
       id="linearGradient5"><stop
         style="stop-color:#78aaf6;stop-opacity:1;"
         offset="0"
         id="stop4" /><stop
         style="stop-color:#2678eb;stop-opacity:1;"
         offset="1"
         id="stop5" /></linearGradient><rect
       x="1.5"
       y="-34.75"
       width="29.5"
       height="32"
       id="rect15" /><rect
       x="1.5"
       y="-34.75"
       width="29.5"
       height="32"
       id="rect15-1" /><radialGradient
       inkscape:collect="always"
       xlink:href="#linearGradient5"
       id="radialGradient6"
       cx="2.5058556"
       cy="5.5100222"
       fx="2.5058556"
       fy="5.5100222"
       r="2.3109622"
       gradientTransform="matrix(-1.2853243,0.01738333,-0.01926379,-1.424366,17.603037,8.8995504)"
       gradientUnits="userSpaceOnUse" /></defs><g
     inkscape:label="Layer 1"
     inkscape:groupmode="layer"
     id="layer1"
     transform="translate(-10.102999,-0.03731034)"><path
       d="M 14.320573,0.20179441 A 1.2731176,1.2731176 0 0 1 15.593692,1.474912 V 4.0211472 A 1.2731176,1.2731176 0 0 1 14.320573,5.2942648 1.2731176,1.2731176 0 0 1 13.047455,4.0211472 V 1.474912 a 1.2731176,1.2731176 0 0 1 1.273118,-1.27311759 m 2.970608,3.81935279 c 0,1.4980349 -1.107613,2.7329591 -2.546236,2.9409017 V 8.2648725 H 13.8962 V 6.9620489 C 12.457577,6.7541063 11.349966,5.5191821 11.349966,4.0211472 h 0.848744 a 2.1218627,2.1218627 0 0 0 2.121863,2.1218626 2.1218627,2.1218627 0 0 0 2.121863,-2.1218626 z"
       id="path1"
       style="fill:url(#radialGradient6);stroke:#2f2f2f;stroke-width:0.128544;stroke-dasharray:none;stroke-opacity:1" /></g></svg>
