<?xml version="1.0" encoding="UTF-8" standalone="no"?>
<!-- Created with Inkscape (http://www.inkscape.org/) -->

<svg
   width="32"
   height="32"
   viewBox="0 0 8.4666666 8.4666666"
   version="1.1"
   id="svg1"
   xml:space="preserve"
   inkscape:version="1.3 (0e150ed6c4, 2023-07-21)"
   sodipodi:docname="TiltContinuous.svg"
   xmlns:inkscape="http://www.inkscape.org/namespaces/inkscape"
   xmlns:sodipodi="http://sodipodi.sourceforge.net/DTD/sodipodi-0.dtd"
   xmlns:xlink="http://www.w3.org/1999/xlink"
   xmlns="http://www.w3.org/2000/svg"
   xmlns:svg="http://www.w3.org/2000/svg"><sodipodi:namedview
     id="namedview1"
     pagecolor="#505050"
     bordercolor="#eeeeee"
     borderopacity="1"
     inkscape:showpageshadow="0"
     inkscape:pageopacity="0"
     inkscape:pagecheckerboard="0"
     inkscape:deskcolor="#d1d1d1"
     inkscape:document-units="mm"
     inkscape:zoom="8"
     inkscape:cx="19.6875"
     inkscape:cy="7.375"
     inkscape:window-width="1280"
     inkscape:window-height="961"
     inkscape:window-x="-8"
     inkscape:window-y="-8"
     inkscape:window-maximized="1"
     inkscape:current-layer="layer1" /><defs
     id="defs1"><linearGradient
       inkscape:collect="always"
       id="linearGradient10"><stop
         style="stop-color:#114ba0;stop-opacity:1;"
         offset="0"
         id="stop10" /><stop
         style="stop-color:#dfe3ff;stop-opacity:1;"
         offset="1"
         id="stop9" /></linearGradient><linearGradient
       inkscape:collect="always"
       id="linearGradient4"><stop
         style="stop-color:#dfe3ff;stop-opacity:1;"
         offset="0"
         id="stop3" /><stop
         style="stop-color:#114ba0;stop-opacity:1;"
         offset="1"
         id="stop4" /></linearGradient><rect
       x="1.5"
       y="-34.75"
       width="29.5"
       height="32"
       id="rect15" /><radialGradient
       inkscape:collect="always"
       xlink:href="#linearGradient10"
       id="radialGradient7"
       cx="13.080338"
       cy="-4.0514321"
       fx="13.080338"
       fy="-4.0514321"
       r="2.1164844"
       gradientUnits="userSpaceOnUse"
       gradientTransform="rotate(-6.8694576,78.421628,73.283688)" /><linearGradient
       inkscape:collect="always"
       xlink:href="#linearGradient4"
       id="linearGradient3-4"
       x1="2.4228387"
       y1="4.2367802"
       x2="6.5812626"
       y2="4.2367802"
       gradientUnits="userSpaceOnUse"
       gradientTransform="matrix(1.0494592,0,0,1.0494592,-0.51817435,-0.20381187)" /></defs><g
     inkscape:label="Layer 1"
     inkscape:groupmode="layer"
     id="layer1"><path
       style="fill:url(#linearGradient3-4);fill-rule:evenodd;stroke:#282828;stroke-width:0.17316;stroke-linecap:butt;stroke-linejoin:miter;stroke-dasharray:none;stroke-opacity:1"
       d="M 2.1345727,2.0175433 4.206544,0.14327482 6.3276009,2.0175433 H 4.9871912 V 6.6685064 H 6.3276009 L 4.206544,8.3518767 2.1345727,6.6685064 H 3.4749822 V 2.0175433 c -0.375468,-0.026325 -0.9643097,0 -1.3404095,0 z"
       id="path2-0"
       sodipodi:nodetypes="ccccccccccc" /><path
       id="path5"
       style="fill:url(#radialGradient7);fill-rule:evenodd;stroke:#141414;stroke-width:0.265;stroke-linecap:round;stroke-linejoin:round;stroke-dasharray:none;stroke-opacity:1;paint-order:stroke fill markers"
       d="M 5.9856563,1.6810199 5.368831,2.2164942 5.364141,2.2207042 5.1002561,2.4497649 a 2.0339844,2.0339844 0 0 0 -1.0439947,-0.150093 2.0339844,2.0339844 0 0 0 -1.7761036,2.262663 2.0339844,2.0339844 0 0 0 0.014673,0.074226 l -0.525422,1.1818552 0.7625929,-0.2933052 0.00597,-0.00228 0.098494,-0.037891 A 2.0339844,2.0339844 0 0 0 4.5428192,6.3384394 2.0339844,2.0339844 0 0 0 5.1092939,6.1843122 L 6.3467089,6.5401237 5.9509518,5.8257885 5.9481577,5.819885 5.8457829,5.6354692 A 2.0339844,2.0339844 0 0 0 6.3189216,4.0757737 2.0339844,2.0339844 0 0 0 5.8888497,3.0506692 Z M 4.1155955,2.7922032 a 1.5378906,1.5378906 0 0 1 0.551149,0.034058 L 4.1776449,3.2510961 5.5007735,3.359233 A 1.5378906,1.5378906 0 0 1 5.8263888,4.1351098 1.5378906,1.5378906 0 0 1 5.5843849,5.1636263 L 5.1870471,4.4447973 4.7886505,5.7737457 A 1.5378906,1.5378906 0 0 1 4.4834824,5.8459042 1.5378906,1.5378906 0 0 1 3.120519,5.2990996 L 4.004978,4.9588417 2.7688198,4.393117 A 1.5378906,1.5378906 0 0 1 4.1155955,2.7922032 Z"
       inkscape:transform-center-x="0.24156348"
       inkscape:transform-center-y="-0.21961287" /></g></svg>
