<?xml version="1.0" encoding="UTF-8" standalone="no"?>
<!-- Created with Inkscape (http://www.inkscape.org/) -->

<svg
   width="31.880875"
   height="31.71797"
   viewBox="0 0 8.435148 8.3920461"
   version="1.1"
   id="svg1"
   xml:space="preserve"
   inkscape:version="1.3 (0e150ed6c4, 2023-07-21)"
   sodipodi:docname="Zoom.svg"
   xmlns:inkscape="http://www.inkscape.org/namespaces/inkscape"
   xmlns:sodipodi="http://sodipodi.sourceforge.net/DTD/sodipodi-0.dtd"
   xmlns:xlink="http://www.w3.org/1999/xlink"
   xmlns="http://www.w3.org/2000/svg"
   xmlns:svg="http://www.w3.org/2000/svg"><sodipodi:namedview
     id="namedview1"
     pagecolor="#505050"
     bordercolor="#eeeeee"
     borderopacity="1"
     inkscape:showpageshadow="0"
     inkscape:pageopacity="0"
     inkscape:pagecheckerboard="0"
     inkscape:deskcolor="#d1d1d1"
     inkscape:document-units="mm"
     inkscape:zoom="1.4142136"
     inkscape:cx="34.648232"
     inkscape:cy="91.216775"
     inkscape:window-width="1280"
     inkscape:window-height="961"
     inkscape:window-x="-8"
     inkscape:window-y="-8"
     inkscape:window-maximized="1"
     inkscape:current-layer="layer1" /><defs
     id="defs1"><linearGradient
       inkscape:collect="always"
       id="linearGradient3"><stop
         style="stop-color:#78aaf6;stop-opacity:1;"
         offset="0"
         id="stop2" /><stop
         style="stop-color:#2678eb;stop-opacity:1;"
         offset="1"
         id="stop3" /></linearGradient><radialGradient
       inkscape:collect="always"
       xlink:href="#linearGradient3"
       id="radialGradient7"
       cx="10.084479"
       cy="1.2245626"
       fx="10.084479"
       fy="1.2245626"
       r="2.3151042"
       gradientUnits="userSpaceOnUse"
       gradientTransform="matrix(1.1321365,-0.02581957,0.02757894,1.2092805,1.895521,1.9788225)" /></defs><g
     inkscape:label="Layer 1"
     inkscape:groupmode="layer"
     id="layer1"
     transform="translate(-10.102999,-0.03731034)"><path
       d="m 16.015202,5.2429616 2.283337,2.283336 -0.685002,0.6850008 -2.283335,-2.2833359 V 5.5671953 L 15.206891,5.4393288 c -0.52059,0.4475341 -1.196459,0.7169677 -1.931692,0.7169677 A 2.9683369,2.9683369 0 0 1 10.306861,3.1879597 2.9683369,2.9683369 0 0 1 13.275199,0.21962211 2.9683369,2.9683369 0 0 1 16.243536,3.1879597 c 0,0.7352341 -0.269433,1.4111016 -0.716969,1.9317024 l 0.127861,0.1233017 h 0.360769 m -2.740004,0 c 1.141668,0 2.055002,-0.9133345 2.055002,-2.0550034 0,-1.1416676 -0.913334,-2.0550025 -2.055002,-2.0550025 -1.141669,0 -2.055003,0.9133349 -2.055003,2.0550025 0,1.1416689 0.913334,2.0550034 2.055003,2.0550034 M 14.416868,3.4162927 H 13.503532 V 4.3296272 H 13.046865 V 3.4162927 H 12.133531 V 2.959625 h 0.913334 V 2.0462916 h 0.456667 V 2.959625 h 0.913336 z"
       id="path1-3"
       style="fill:url(#radialGradient7);stroke:#2a2a2a;stroke-width:0.172599;stroke-dasharray:none;stroke-opacity:1" /></g></svg>
