<?xml version="1.0" encoding="UTF-8" standalone="no"?>
<!-- Created with Inkscape (http://www.inkscape.org/) -->

<svg
   width="31.880875"
   height="31.71797"
   viewBox="0 0 8.435148 8.3920461"
   version="1.1"
   id="svg1"
   xml:space="preserve"
   inkscape:version="1.3 (0e150ed6c4, 2023-07-21)"
   sodipodi:docname="Zoom.svg"
   xmlns:inkscape="http://www.inkscape.org/namespaces/inkscape"
   xmlns:sodipodi="http://sodipodi.sourceforge.net/DTD/sodipodi-0.dtd"
   xmlns:xlink="http://www.w3.org/1999/xlink"
   xmlns="http://www.w3.org/2000/svg"
   xmlns:svg="http://www.w3.org/2000/svg"><sodipodi:namedview
     id="namedview1"
     pagecolor="#505050"
     bordercolor="#eeeeee"
     borderopacity="1"
     inkscape:showpageshadow="0"
     inkscape:pageopacity="0"
     inkscape:pagecheckerboard="0"
     inkscape:deskcolor="#d1d1d1"
     inkscape:document-units="mm"
     inkscape:zoom="1"
     inkscape:cx="-56.999998"
     inkscape:cy="-30.999999"
     inkscape:window-width="1280"
     inkscape:window-height="961"
     inkscape:window-x="-8"
     inkscape:window-y="-8"
     inkscape:window-maximized="1"
     inkscape:current-layer="layer1" /><defs
     id="defs1"><radialGradient
       inkscape:collect="always"
       xlink:href="#linearGradient3-3"
       id="radialGradient7-7"
       cx="10.084479"
       cy="1.2245626"
       fx="10.084479"
       fy="1.2245626"
       r="2.3151042"
       gradientUnits="userSpaceOnUse"
       gradientTransform="matrix(2.3961271,-0.0195897,0.01882937,2.3031144,-10.840034,0.57696738)" /><linearGradient
       inkscape:collect="always"
       id="linearGradient3-3"><stop
         style="stop-color:#e0ebfc;stop-opacity:1;"
         offset="0"
         id="stop2-2" /><stop
         style="stop-color:#a2c5f6;stop-opacity:1;"
         offset="1"
         id="stop3-0" /></linearGradient></defs><g
     inkscape:label="Layer 1"
     inkscape:groupmode="layer"
     id="layer1"
     transform="translate(-10.102999,-0.03731034)"><circle
       style="fill:#1d1d1d;fill-opacity:0.99530518;fill-rule:evenodd;stroke:none;stroke-width:0.315957;stroke-linecap:round;stroke-linejoin:round"
       id="path1"
       cx="13.213347"
       cy="3.1944315"
       r="2.3152223" /><path
       d="m 16.014485,5.2425306 2.282364,2.2823635 -0.684711,0.684709 -2.282364,-2.2823635 V 5.5666265 L 15.206516,5.4388197 c -0.520376,0.4473434 -1.195958,0.7166616 -1.930878,0.7166616 -1.63867,0 -2.967072,-1.328404 -2.967072,-2.9670743 -2e-6,-1.6386686 1.328402,-2.96707427 2.967072,-2.96707427 1.63867,0 2.967074,1.32840397 2.967074,2.96707427 0,0.734922 -0.269318,1.4105018 -0.716663,1.9308814 l 0.127807,0.1232404 h 0.360615 m -2.738838,0 c 1.141182,0 2.054129,-0.9129472 2.054129,-2.0541289 0,-1.1411818 -0.912947,-2.054129 -2.054129,-2.054129 -1.141182,0 -2.054129,0.9129472 -2.054129,2.054129 0,1.1411835 0.912947,2.0541289 2.054129,2.0541289 M 14.820882,3.6022834 H 13.755048 V 4.7336419 H 12.83992 V 3.6022869 H 11.839609 V 2.7308337 H 12.83992 V 1.6540798 h 0.915135 v 1.0767539 h 1.065834 z"
       id="path1-3-8"
       style="fill:url(#radialGradient7-7);stroke:#2a2a2a;stroke-width:0.172525;stroke-dasharray:none;stroke-opacity:1"
       sodipodi:nodetypes="ccccccssssccccssscccccccccccccc" /></g></svg>
