<?xml version="1.0" encoding="UTF-8" standalone="no"?>
<!-- Generator: Adobe Illustrator 16.0.0, SVG Export Plug-In . SVG Version: 6.00 Build 0)  -->

<svg
   version="1.1"
   id="Calque_1"
   x="0px"
   y="0px"
   width="140.16141"
   height="140.16139"
   viewBox="0 0 140.16142 140.1614"
   enable-background="new 0 0 141.732 141.732"
   xml:space="preserve"
   sodipodi:docname="modified.svg"
   inkscape:version="1.3 (0e150ed6c4, 2023-07-21)"
   inkscape:export-filename="logo256.png"
   inkscape:export-xdpi="186.82529"
   inkscape:export-ydpi="186.82529"
   xmlns:inkscape="http://www.inkscape.org/namespaces/inkscape"
   xmlns:sodipodi="http://sodipodi.sourceforge.net/DTD/sodipodi-0.dtd"
   xmlns:xlink="http://www.w3.org/1999/xlink"
   xmlns="http://www.w3.org/2000/svg"
   xmlns:svg="http://www.w3.org/2000/svg"><defs
   id="defs39"><linearGradient
     id="linearGradient20"
     inkscape:collect="always"><stop
       style="stop-color:#109aac;stop-opacity:1;"
       offset="0"
       id="stop20" /><stop
       style="stop-color:#8eced1;stop-opacity:1;"
       offset="0.5"
       id="stop22" /><stop
       style="stop-color:#108ca2;stop-opacity:1;"
       offset="1"
       id="stop21" /></linearGradient><linearGradient
     id="linearGradient1"
     inkscape:collect="always"><stop
       style="stop-color:#ac2a5e;stop-opacity:1;"
       offset="0"
       id="stop15" /><stop
       style="stop-color:#fe7bad;stop-opacity:1;"
       offset="0.5"
       id="stop17" /><stop
       style="stop-color:#a42a5b;stop-opacity:1;"
       offset="1"
       id="stop16" /></linearGradient><linearGradient
     inkscape:collect="always"
     xlink:href="#linearGradient1"
     id="linearGradient16"
     x1="49.265656"
     y1="90.83065"
     x2="76.228699"
     y2="72.510933"
     gradientUnits="userSpaceOnUse" /><linearGradient
     inkscape:collect="always"
     xlink:href="#linearGradient20"
     id="linearGradient21"
     x1="53.457657"
     y1="85.213097"
     x2="82.509621"
     y2="104.96966"
     gradientUnits="userSpaceOnUse" /></defs><sodipodi:namedview
   id="namedview39"
   pagecolor="#505050"
   bordercolor="#eeeeee"
   borderopacity="1"
   inkscape:showpageshadow="0"
   inkscape:pageopacity="0"
   inkscape:pagecheckerboard="0"
   inkscape:deskcolor="#d1d1d1"
   inkscape:zoom="2.7838851"
   inkscape:cx="62.86179"
   inkscape:cy="59.628898"
   inkscape:window-width="1280"
   inkscape:window-height="961"
   inkscape:window-x="-8"
   inkscape:window-y="-8"
   inkscape:window-maximized="1"
   inkscape:current-layer="Calque_1"
   inkscape:export-bgcolor="#ffffff00" />&#10;<rect
   style="fill:#ffffff;fill-opacity:1;fill-rule:evenodd;stroke:none;stroke-width:1.8386;stroke-linecap:round;stroke-linejoin:round;stroke-opacity:1"
   id="rect39"
   width="140.16141"
   height="140.16139"
   x="0"
   y="0"
   ry="15.410416"
   inkscape:export-filename="logo256.png"
   inkscape:export-xdpi="175.3407"
   inkscape:export-ydpi="175.3407" /><path
   d="m 130.54502,4.0469454 4.995,4.995 c 0.292,0.2919996 0.291,0.7649996 -0.002,1.0549996 l -1.396,1.38 c -0.29,0.288 -0.76,0.287 -1.049,-0.002 l -4.995,-4.9959996 c -0.291,-0.291 -0.29,-0.764 0.003,-1.054 l 1.395,-1.381 c 0.291,-0.287 0.76,-0.286 1.049,0.003"
   id="path17" /><path
   d="m 129.92702,72.213955 -12.554,-10.322 -0.027,-0.022 -0.87,-0.715 -0.007,0.009 -1.85,-1.49 -7.105,15.911 2.754,2.218 0.005,-0.012 10.193,8.38 c -0.779,0.224 -1.65,0.81 -2.374,1.69 -1.276,1.552 -1.606,3.39 -0.736,4.104 0.869,0.716 2.609,0.036 3.885,-1.516 1.224,-1.488 1.564,-3.227 0.825,-3.999 l 0.017,-0.019 -11.46,-9.424 6.401,-14.334 11.654,9.582 c -0.758,0.24 -1.593,0.816 -2.292,1.666 -1.276,1.553 -1.606,3.391 -0.736,4.105 0.869,0.715 2.609,0.036 3.886,-1.517 1.275,-1.552 1.604,-3.39 0.735,-4.104 -0.103,-0.083 -0.219,-0.146 -0.344,-0.191"
   id="path18" /><path
   fill="none"
   stroke="#000000"
   stroke-width="0.648"
   stroke-miterlimit="10"
   d="m 129.92702,72.213955 -12.554,-10.322 -0.027,-0.022 -0.87,-0.715 -0.007,0.009 -1.85,-1.49 -7.105,15.911 2.754,2.218 0.005,-0.012 10.193,8.38 c -0.779,0.224 -1.65,0.81 -2.374,1.69 -1.276,1.552 -1.606,3.39 -0.736,4.104 0.869,0.716 2.609,0.036 3.885,-1.516 1.224,-1.488 1.564,-3.227 0.825,-3.999 l 0.017,-0.019 -11.46,-9.424 6.401,-14.334 11.654,9.582 c -0.758,0.24 -1.593,0.816 -2.292,1.666 -1.276,1.553 -1.606,3.391 -0.736,4.105 0.869,0.715 2.609,0.036 3.886,-1.517 1.275,-1.552 1.604,-3.39 0.735,-4.104 -0.103,-0.083 -0.219,-0.146 -0.344,-0.191 z"
   id="path19"
   style="stroke-width:1.348;stroke-dasharray:none" /><path
   d="m 16.380024,55.804955 c 1.782,2.806 5.699,-0.159 5.699,-0.159 -2.878,1.803 -8.623001,-4.765 -8.623001,-4.765 l -1.116,0.699 13.535001,21.603 c -1.291,-0.057 -2.905,0.389 -4.447,1.355 -2.717,1.701 -4.146,4.314 -3.192,5.837 0.953,1.521 3.928,1.376 6.645,-0.326 2.604,-1.631 4.001,-4.09 3.274,-5.632 l 0.033,-0.022 z"
   id="path22" /><path
   fill="none"
   stroke="#000000"
   stroke-width="0.8"
   stroke-miterlimit="10"
   d="m 16.380024,55.804955 c 1.782,2.806 5.699,-0.159 5.699,-0.159 -2.878,1.803 -8.623001,-4.765 -8.623001,-4.765 l -1.116,0.699 13.535001,21.603 c -1.291,-0.057 -2.905,0.389 -4.447,1.355 -2.717,1.701 -4.146,4.314 -3.192,5.837 0.953,1.521 3.928,1.376 6.645,-0.326 2.604,-1.631 4.001,-4.09 3.274,-5.632 l 0.033,-0.022 z"
   id="path23"
   style="stroke-width:1.5;stroke-dasharray:none" /><path
   style="fill:url(#linearGradient16);fill-rule:evenodd;stroke:none;stroke-width:1px;stroke-linecap:butt;stroke-linejoin:miter;stroke-opacity:1;fill-opacity:1"
   d="M 30.532869,25.503926 132.18936,133.98541 H 69.686784 L 22.271034,29.096028 Z"
   id="path1" /><path
   style="fill:url(#linearGradient21);fill-rule:evenodd;stroke:none;stroke-width:1px;stroke-linecap:butt;stroke-linejoin:miter;stroke-opacity:1"
   d="M 116.74332,30.89208 68.609153,133.98541 7.902625,133.6262 109.55912,24.426295 Z"
   id="path20" /><path
   d="m 107.48102,14.999955 c -2.558,4.779 -1.476,10.981 2.473,14.961 1.57,1.582 3.505,2.487 5.623,3.055 5.367,1.441 11.017,-0.9 13.717,-5.692 1.134,-2.013 1.479,-4.196 1.524,-6.485 0.052,-2.651 0.535,-5.226 1.958,-7.54101 0.335,-0.544 0.275,-0.902 -0.19,-1.372 -0.833,-0.841 -1.674,-1.676 -2.511,-2.513 -0.806,-0.8059996 -1.611,-1.6129996 -2.419,-2.4179996 -0.709,-0.708 -1.014,-0.64 -1.982,0.012 -0.158,0.106 -0.436,0.257 -0.613,0.328 -2.295,0.918 -4.671,1.314 -7.136,1.373 -4.653,0.11 -8.234,2.1619996 -10.444,6.2920096"
   id="path16" /><line
   fill="none"
   stroke="#000000"
   stroke-width="4.378"
   stroke-linecap="round"
   stroke-miterlimit="10"
   x1="7.3030224"
   y1="134.14294"
   x2="132.99402"
   y2="134.14294"
   id="line32" /><path
   d="m 22.141024,8.9469454 c -2.464,-0.059 -4.841,-0.455 -7.136,-1.373 -0.177,-0.071 -0.454,-0.221 -0.613,-0.328 -0.969001,-0.652 -1.274001,-0.72 -1.983001,-0.012 -0.806,0.806 -1.612,1.612 -2.418,2.4189996 -0.838,0.837 -1.6779999,1.671 -2.5109999,2.512 -0.465,0.47 -0.526,0.828 -0.191,1.372 1.424,2.31501 1.9059999,4.89001 1.9579999,7.54101 0.045,2.289 0.391,4.473 1.526,6.485 2.7,4.792 8.349001,7.133 13.715001,5.692 2.119,-0.568 4.053,-1.473 5.623,-3.055 3.949,-3.98 5.031,-10.182 2.473,-14.961 -2.21,-4.12901 -5.79,-6.1810096 -10.443,-6.2920096"
   id="path32" /><path
   d="M 9.521023,4.2859454 4.5260231,9.280945 c -0.292,0.292 -0.29,0.765 0.002,1.054 l 1.396,1.381 c 0.29,0.288 0.759,0.287 1.048,-0.003 L 11.968023,6.7179454 c 0.291,-0.291 0.29,-0.764 -0.003,-1.054 l -1.395,-1.381 c -0.291,-0.287 -0.761,-0.286 -1.049,0.003"
   id="path33" /><g
   id="g39"
   transform="translate(-0.34197693,-1.1580546)"><path
     d="m 83.593,34.837 c 0,4.767 -3.864,8.631 -8.631,8.631 -4.766,0 -8.63,-3.864 -8.63,-8.631 0,-4.767 3.864,-8.631 8.63,-8.631 4.767,0 8.631,3.864 8.631,8.631"
     id="path34" /><path
     d="m 69.824,46.03 c 0.013,-0.608 0.593,-1.038 1.174,-0.86 1.109,0.339 2.781,0.781 3.963,0.781 1.428,0 2.773,-0.015 3.96,-0.494 0.492,-0.199 1.048,0.061 1.203,0.569 2.343,7.624 15.581,54.837 -15.854,54.837 0,0 -17.389,-5.022 -18.355,-24.729 10e-4,0 23.274,-0.564 23.909,-30.104"
     id="path35" /><line
     fill="none"
     stroke="#000000"
     stroke-width="4.621"
     stroke-linecap="round"
     stroke-miterlimit="10"
     x1="64.638"
     y1="47.592999"
     x2="45.916"
     y2="57.573002"
     id="line35" /><line
     fill="none"
     stroke="#000000"
     stroke-width="4.621"
     stroke-linecap="round"
     stroke-miterlimit="10"
     x1="84.885002"
     y1="48.888"
     x2="93.593002"
     y2="68.234001"
     id="line36" /><line
     fill="none"
     stroke="#000000"
     stroke-width="4.621"
     stroke-linecap="round"
     stroke-miterlimit="10"
     x1="64.269997"
     y1="104.009"
     x2="64.269997"
     y2="129.12601"
     id="line37" /><line
     fill="none"
     stroke="#000000"
     stroke-width="4.621"
     stroke-linecap="round"
     stroke-miterlimit="10"
     x1="50.992001"
     y1="96.806999"
     x2="33.231998"
     y2="114.568"
     id="line38" /></g>&#10;</svg>
