<?xml version="1.0" encoding="utf-8"?>
<!-- Generator: Adobe Illustrator 16.0.0, SVG Export Plug-In . SVG Version: 6.00 Build 0)  -->
<!DOCTYPE svg PUBLIC "-//W3C//DTD SVG 1.1//EN" "http://www.w3.org/Graphics/SVG/1.1/DTD/svg11.dtd">
<svg version="1.1" id="Calque_1" xmlns="http://www.w3.org/2000/svg" xmlns:xlink="http://www.w3.org/1999/xlink" x="0px" y="0px"
	 width="141.732px" height="141.732px" viewBox="0 0 141.732 141.732" enable-background="new 0 0 141.732 141.732"
	 xml:space="preserve">
<g>
	<g>
		<g opacity="0.8">
			<g>
				<g>
					<defs>
						<polygon id="SVGID_1_" points="113.517,21.462 7.37,135.301 69.734,135.301 119.454,26.641 						"/>
					</defs>
					<clipPath id="SVGID_2_">
						<use xlink:href="#SVGID_1_"  overflow="visible"/>
					</clipPath>
					
						<linearGradient id="SVGID_3_" gradientUnits="userSpaceOnUse" x1="0" y1="141.6997" x2="1" y2="141.6997" gradientTransform="matrix(-41.8471 -29.3017 -29.3017 41.8471 4246.4194 -5829.5981)">
						<stop  offset="0" style="stop-color:#0097B3"/>
						<stop  offset="0.2763" style="stop-color:#00CDDB"/>
						<stop  offset="0.3028" style="stop-color:#08CFDC"/>
						<stop  offset="0.3436" style="stop-color:#1DD3DF"/>
						<stop  offset="0.3934" style="stop-color:#40DAE4"/>
						<stop  offset="0.4498" style="stop-color:#70E4EB"/>
						<stop  offset="0.5" style="stop-color:#A1EEF2"/>
						<stop  offset="0.5394" style="stop-color:#78E6EC"/>
						<stop  offset="0.5869" style="stop-color:#4DDDE6"/>
						<stop  offset="0.6331" style="stop-color:#2CD6E1"/>
						<stop  offset="0.6769" style="stop-color:#14D1DE"/>
						<stop  offset="0.7174" style="stop-color:#05CEDC"/>
						<stop  offset="0.7514" style="stop-color:#00CDDB"/>
						<stop  offset="1" style="stop-color:#0097B3"/>
					</linearGradient>
					<polygon clip-path="url(#SVGID_2_)" fill="url(#SVGID_3_)" points="82.579,187.963 -46.117,97.849 44.245,-31.2 172.94,58.914 
											"/>
				</g>
			</g>
		</g>
		<path d="M107.823,16.158c-2.558,4.779-1.476,10.981,2.473,14.961c1.57,1.582,3.505,2.487,5.623,3.055
			c5.367,1.441,11.017-0.9,13.717-5.692c1.134-2.013,1.479-4.196,1.524-6.485c0.052-2.651,0.535-5.226,1.958-7.541
			c0.335-0.544,0.275-0.902-0.19-1.372c-0.833-0.841-1.674-1.676-2.511-2.513c-0.806-0.806-1.611-1.613-2.419-2.418
			c-0.709-0.708-1.014-0.64-1.982,0.012c-0.158,0.106-0.436,0.257-0.613,0.328c-2.295,0.918-4.671,1.314-7.136,1.373
			C113.614,9.976,110.033,12.028,107.823,16.158"/>
		<path d="M130.887,5.205l4.995,4.995c0.292,0.292,0.291,0.765-0.002,1.055l-1.396,1.38c-0.29,0.288-0.76,0.287-1.049-0.002
			l-4.995-4.996c-0.291-0.291-0.29-0.764,0.003-1.054l1.395-1.381C130.129,4.915,130.598,4.916,130.887,5.205"/>
		<path d="M130.269,73.372L117.715,63.05l-0.027-0.022l-0.87-0.715l-0.007,0.009l-1.85-1.49l-7.105,15.911l2.754,2.218l0.005-0.012
			l10.193,8.38c-0.779,0.224-1.65,0.81-2.374,1.69c-1.276,1.552-1.606,3.39-0.736,4.104c0.869,0.716,2.609,0.036,3.885-1.516
			c1.224-1.488,1.564-3.227,0.825-3.999l0.017-0.019l-11.46-9.424l6.401-14.334l11.654,9.582c-0.758,0.24-1.593,0.816-2.292,1.666
			c-1.276,1.553-1.606,3.391-0.736,4.105c0.869,0.715,2.609,0.036,3.886-1.517c1.275-1.552,1.604-3.39,0.735-4.104
			C130.51,73.48,130.394,73.417,130.269,73.372"/>
		<path fill="none" stroke="#000000" stroke-width="0.648" stroke-miterlimit="10" d="M130.269,73.372L117.715,63.05l-0.027-0.022
			l-0.87-0.715l-0.007,0.009l-1.85-1.49l-7.105,15.911l2.754,2.218l0.005-0.012l10.193,8.38c-0.779,0.224-1.65,0.81-2.374,1.69
			c-1.276,1.552-1.606,3.39-0.736,4.104c0.869,0.716,2.609,0.036,3.885-1.516c1.224-1.488,1.564-3.227,0.825-3.999l0.017-0.019
			l-11.46-9.424l6.401-14.334l11.654,9.582c-0.758,0.24-1.593,0.816-2.292,1.666c-1.276,1.553-1.606,3.391-0.736,4.105
			c0.869,0.715,2.609,0.036,3.886-1.517c1.275-1.552,1.604-3.39,0.735-4.104C130.51,73.48,130.394,73.417,130.269,73.372z"/>
		<path d="M57.255,18.772l1.819-4.069l0.004-0.008l0.126-0.282l-0.003-0.002l0.26-0.597l-4.723-0.725l-0.387,0.889l0.004,0.001
			l-1.477,3.303c-0.116-0.19-0.334-0.377-0.62-0.505c-0.503-0.225-1.013-0.179-1.139,0.103c-0.126,0.282,0.18,0.693,0.683,0.917
			c0.482,0.216,0.967,0.18,1.118-0.071l0.006,0.003l1.661-3.715l4.255,0.654l-1.689,3.777c-0.118-0.183-0.331-0.362-0.607-0.486
			c-0.503-0.225-1.013-0.178-1.139,0.103c-0.126,0.282,0.18,0.693,0.683,0.918c0.503,0.225,1.013,0.179,1.139-0.103
			C57.245,18.844,57.252,18.808,57.255,18.772"/>
		<path fill="none" stroke="#000000" stroke-width="0.178" stroke-miterlimit="10" d="M57.255,18.772l1.819-4.069l0.004-0.008
			l0.126-0.282l-0.003-0.002l0.26-0.597l-4.723-0.725l-0.387,0.889l0.004,0.001l-1.477,3.303c-0.116-0.19-0.334-0.377-0.62-0.505
			c-0.503-0.225-1.013-0.179-1.139,0.103c-0.126,0.282,0.18,0.693,0.683,0.917c0.482,0.216,0.967,0.18,1.118-0.071l0.006,0.003
			l1.661-3.715l4.255,0.654l-1.689,3.777c-0.118-0.183-0.331-0.362-0.607-0.486c-0.503-0.225-1.013-0.178-1.139,0.103
			c-0.126,0.282,0.18,0.693,0.683,0.918c0.503,0.225,1.013,0.179,1.139-0.103C57.245,18.844,57.252,18.808,57.255,18.772z"/>
		<path d="M16.722,56.963c1.782,2.806,5.699-0.159,5.699-0.159c-2.878,1.803-8.623-4.765-8.623-4.765l-1.116,0.699l13.535,21.603
			c-1.291-0.057-2.905,0.389-4.447,1.355c-2.717,1.701-4.146,4.314-3.192,5.837c0.953,1.521,3.928,1.376,6.645-0.326
			c2.604-1.631,4.001-4.09,3.274-5.632l0.033-0.022L16.722,56.963z"/>
		<path fill="none" stroke="#000000" stroke-width="0.8" stroke-miterlimit="10" d="M16.722,56.963
			c1.782,2.806,5.699-0.159,5.699-0.159c-2.878,1.803-8.623-4.765-8.623-4.765l-1.116,0.699l13.535,21.603
			c-1.291-0.057-2.905,0.389-4.447,1.355c-2.717,1.701-4.146,4.314-3.192,5.837c0.953,1.521,3.928,1.376,6.645-0.326
			c2.604-1.631,4.001-4.09,3.274-5.632l0.033-0.022L16.722,56.963z"/>
		<path d="M25.577,97.392c-0.896,1.364,1.221,2.519,1.221,2.519c-1.388-0.924,0.392-4.819,0.392-4.819l-0.537-0.358l-6.937,10.413
			c-0.235-0.59-0.76-1.222-1.503-1.717c-1.31-0.872-2.767-0.983-3.256-0.251c-0.488,0.734,0.177,2.036,1.486,2.908
			c1.256,0.836,2.638,0.965,3.181,0.329l0.016,0.011L25.577,97.392z"/>
		<path fill="none" stroke="#000000" stroke-width="0.393" stroke-miterlimit="10" d="M25.577,97.392
			c-0.896,1.364,1.221,2.519,1.221,2.519c-1.388-0.924,0.392-4.819,0.392-4.819l-0.537-0.358l-6.937,10.413
			c-0.235-0.59-0.76-1.222-1.503-1.717c-1.31-0.872-2.767-0.983-3.256-0.251c-0.488,0.734,0.177,2.036,1.486,2.908
			c1.256,0.836,2.638,0.965,3.181,0.329l0.016,0.011L25.577,97.392z"/>
	</g>
	<g>
		<defs>
			<polygon id="SVGID_4_" points="20.686,26.641 70.405,135.302 132.77,135.302 26.622,21.462 			"/>
		</defs>
		<clipPath id="SVGID_5_">
			<use xlink:href="#SVGID_4_"  overflow="visible"/>
		</clipPath>
		
			<linearGradient id="SVGID_6_" gradientUnits="userSpaceOnUse" x1="0" y1="141.6987" x2="1" y2="141.6987" gradientTransform="matrix(41.8471 -29.3017 29.3017 41.8471 -4106.2944 -5829.5981)">
			<stop  offset="0" style="stop-color:#7A0B35"/>
			<stop  offset="0.2763" style="stop-color:#D54380"/>
			<stop  offset="0.3313" style="stop-color:#DB4B86"/>
			<stop  offset="0.4157" style="stop-color:#EA6097"/>
			<stop  offset="0.5" style="stop-color:#FF7CAE"/>
			<stop  offset="0.6287" style="stop-color:#EB6198"/>
			<stop  offset="0.7514" style="stop-color:#D54380"/>
			<stop  offset="1" style="stop-color:#7A0B35"/>
		</linearGradient>
		<polygon clip-path="url(#SVGID_5_)" fill="url(#SVGID_6_)" points="57.561,187.964 186.257,97.85 95.896,-31.2 -32.801,58.914 		
			"/>
	</g>
	<g>
		
			<line fill="none" stroke="#000000" stroke-width="4.378" stroke-linecap="round" stroke-miterlimit="10" x1="7.645" y1="135.301" x2="133.336" y2="135.301"/>
		<path d="M22.483,10.105c-2.464-0.059-4.841-0.455-7.136-1.373c-0.177-0.071-0.454-0.221-0.613-0.328
			c-0.969-0.652-1.274-0.72-1.983-0.012c-0.806,0.806-1.612,1.612-2.418,2.419c-0.838,0.837-1.678,1.671-2.511,2.512
			c-0.465,0.47-0.526,0.828-0.191,1.372c1.424,2.315,1.906,4.89,1.958,7.541c0.045,2.289,0.391,4.473,1.526,6.485
			c2.7,4.792,8.349,7.133,13.715,5.692c2.119-0.568,4.053-1.473,5.623-3.055c3.949-3.98,5.031-10.182,2.473-14.961
			C30.716,12.268,27.136,10.216,22.483,10.105"/>
		<path d="M9.863,5.444l-4.995,4.995c-0.292,0.292-0.29,0.765,0.002,1.054l1.396,1.381c0.29,0.288,0.759,0.287,1.048-0.003
			l4.996-4.995c0.291-0.291,0.29-0.764-0.003-1.054l-1.395-1.381C10.621,5.154,10.151,5.155,9.863,5.444"/>
		<path d="M83.593,34.837c0,4.767-3.864,8.631-8.631,8.631c-4.766,0-8.63-3.864-8.63-8.631s3.864-8.631,8.63-8.631
			C79.729,26.206,83.593,30.07,83.593,34.837"/>
		<path d="M69.824,46.03c0.013-0.608,0.593-1.038,1.174-0.86c1.109,0.339,2.781,0.781,3.963,0.781c1.428,0,2.773-0.015,3.96-0.494
			c0.492-0.199,1.048,0.061,1.203,0.569c2.343,7.624,15.581,54.837-15.854,54.837c0,0-17.389-5.022-18.355-24.729
			C45.916,76.134,69.189,75.57,69.824,46.03"/>
		
			<line fill="none" stroke="#000000" stroke-width="4.621" stroke-linecap="round" stroke-miterlimit="10" x1="64.638" y1="47.593" x2="45.916" y2="57.573"/>
		
			<line fill="none" stroke="#000000" stroke-width="4.621" stroke-linecap="round" stroke-miterlimit="10" x1="84.885" y1="48.888" x2="93.593" y2="68.234"/>
		
			<line fill="none" stroke="#000000" stroke-width="4.621" stroke-linecap="round" stroke-miterlimit="10" x1="64.27" y1="104.009" x2="64.27" y2="129.126"/>
		
			<line fill="none" stroke="#000000" stroke-width="4.621" stroke-linecap="round" stroke-miterlimit="10" x1="50.992" y1="96.807" x2="33.232" y2="114.568"/>
	</g>
</g>
</svg>
