<?xml version="1.0" encoding="UTF-8" standalone="no"?>
<!-- Created with Inkscape (http://www.inkscape.org/) -->

<svg
   width="32"
   height="32"
   viewBox="0 0 8.4666666 8.4666666"
   version="1.1"
   id="svg1517"
   inkscape:version="1.3 (0e150ed6c4, 2023-07-21)"
   sodipodi:docname="AudioFollower.svg"
   xml:space="preserve"
   inkscape:export-filename="..\..\Design\MixerInsertMusic.png"
   inkscape:export-xdpi="96"
   inkscape:export-ydpi="96"
   xmlns:inkscape="http://www.inkscape.org/namespaces/inkscape"
   xmlns:sodipodi="http://sodipodi.sourceforge.net/DTD/sodipodi-0.dtd"
   xmlns="http://www.w3.org/2000/svg"
   xmlns:svg="http://www.w3.org/2000/svg"><sodipodi:namedview
     id="namedview1519"
     pagecolor="#505050"
     bordercolor="#eeeeee"
     borderopacity="1"
     inkscape:showpageshadow="0"
     inkscape:pageopacity="0"
     inkscape:pagecheckerboard="0"
     inkscape:deskcolor="#505050"
     inkscape:document-units="mm"
     showgrid="false"
     inkscape:zoom="0.8409652"
     inkscape:cx="2.3782197"
     inkscape:cy="89.183238"
     inkscape:window-width="1280"
     inkscape:window-height="961"
     inkscape:window-x="-8"
     inkscape:window-y="-8"
     inkscape:window-maximized="1"
     inkscape:current-layer="layer2" /><defs
     id="defs1514"><inkscape:path-effect
       effect="spiro"
       id="path-effect6"
       is_visible="true"
       lpeversion="1" /></defs><g
     inkscape:groupmode="layer"
     id="layer2"
     inkscape:label="Calque 2"><path
       id="path2089"
       style="fill:#010101;fill-opacity:1;fill-rule:evenodd;stroke:none;stroke-width:0.3;stroke-linecap:butt;stroke-linejoin:miter;stroke-dasharray:none;stroke-opacity:1;paint-order:stroke fill markers"
       d="m 8.2067173,0.28314076 c 0,0 -2.0363763,1.03781474 -3.0085304,1.29774714 -0.9843801,0.2632003 -3.0734884,0.078966 -3.0734884,0.078966 L 2.1100535,6.1550435 C 1.8649593,6.1081435 1.8288086,6.1054525 1.7144361,6.0904215 0.90047301,6.0905 0.24065966,6.5738661 0.24057645,7.1701411 c 8.321e-5,0.596275 0.65989656,1.079641 1.47385965,1.0797195 0.7594615,-2.66e-4 1.3943426,-0.4231948 1.4666526,-0.9770171 h 0.0036 v -0.025676 c 0.0026,-0.025632 0.00396,-0.051324 0.00406,-0.077026 -9.99e-5,-0.025703 -0.00145,-0.051394 -0.00406,-0.077026 V 2.7138769 c 0,0 1.3473054,0.1001148 2.080161,-0.095495 C 5.9855175,2.4260262 7.2077269,1.9777924 7.2077269,1.9777924 l 0.052363,3.7529349 C 7.0299147,5.628745 7.0212232,5.629139 6.7522232,5.6291653 5.9380845,5.6290614 5.2779959,6.1124808 5.2779125,6.7088849 5.277996,7.3052888 5.9380845,7.7887082 6.7522232,7.7886043 7.566186,7.788526 8.2259999,7.3051599 8.2260834,6.7088849 c 8.72e-5,-0.021032 -6.645e-4,-0.042062 -0.00225,-0.063063 z"
       sodipodi:nodetypes="cscccccccccccscccccccc" /></g></svg>
