<?xml version="1.0" encoding="UTF-8" standalone="no"?>
<!-- Created with Inkscape (http://www.inkscape.org/) -->

<svg
   width="32.610638mm"
   height="34.855606mm"
   viewBox="0 0 32.610638 34.855606"
   version="1.1"
   id="svg5"
   xml:space="preserve"
   inkscape:version="1.3 (0e150ed6c4, 2023-07-21)"
   sodipodi:docname="SaynetesFixtures.svg"
   xmlns:inkscape="http://www.inkscape.org/namespaces/inkscape"
   xmlns:sodipodi="http://sodipodi.sourceforge.net/DTD/sodipodi-0.dtd"
   xmlns:xlink="http://www.w3.org/1999/xlink"
   xmlns="http://www.w3.org/2000/svg"
   xmlns:svg="http://www.w3.org/2000/svg"><sodipodi:namedview
     id="namedview7"
     pagecolor="#505050"
     bordercolor="#eeeeee"
     borderopacity="1"
     inkscape:showpageshadow="0"
     inkscape:pageopacity="0"
     inkscape:pagecheckerboard="0"
     inkscape:deskcolor="#505050"
     inkscape:document-units="px"
     showgrid="false"
     inkscape:zoom="1.0677598"
     inkscape:cx="141.88584"
     inkscape:cy="498.2394"
     inkscape:window-width="1280"
     inkscape:window-height="961"
     inkscape:window-x="-8"
     inkscape:window-y="-8"
     inkscape:window-maximized="1"
     inkscape:current-layer="layer5" /><defs
     id="defs2"><linearGradient
       id="linearGradient65"
       inkscape:collect="always"><stop
         style="stop-color:#31383c;stop-opacity:1;"
         offset="0"
         id="stop65" /><stop
         style="stop-color:#5e6667;stop-opacity:1;"
         offset="1"
         id="stop64" /></linearGradient><inkscape:path-effect
       effect="perspective-envelope"
       up_left_point="11.399388,168.74076"
       up_right_point="19.222226,169.5194"
       down_left_point="11.399388,177.17539"
       down_right_point="19.166608,176.06305"
       id="path-effect62"
       is_visible="true"
       lpeversion="1"
       deform_type="perspective"
       horizontal_mirror="false"
       vertical_mirror="false"
       overflow_perspective="false" /><linearGradient
       id="linearGradient61"
       inkscape:collect="always"><stop
         style="stop-color:#5e6667;stop-opacity:1;"
         offset="0"
         id="stop61" /><stop
         style="stop-color:#31383c;stop-opacity:1;"
         offset="1"
         id="stop60" /></linearGradient><inkscape:path-effect
       effect="bspline"
       id="path-effect50"
       is_visible="true"
       lpeversion="1.3"
       weight="33.333333"
       steps="2"
       helper_size="0"
       apply_no_weight="true"
       apply_with_weight="true"
       only_selected="false"
       uniform="false" /><linearGradient
       id="linearGradient11"
       inkscape:collect="always"><stop
         style="stop-color:#31383c;stop-opacity:1;"
         offset="0"
         id="stop12" /><stop
         style="stop-color:#5e6667;stop-opacity:1;"
         offset="1"
         id="stop13" /></linearGradient><linearGradient
       id="linearGradient9"
       inkscape:collect="always"><stop
         style="stop-color:#323f42;stop-opacity:1;"
         offset="0"
         id="stop9" /><stop
         style="stop-color:#626a6b;stop-opacity:1;"
         offset="0.5"
         id="stop11" /><stop
         style="stop-color:#293137;stop-opacity:1;"
         offset="1"
         id="stop10" /></linearGradient><linearGradient
       inkscape:collect="always"
       xlink:href="#linearGradient9"
       id="linearGradient53"
       x1="-16.519098"
       y1="170.68379"
       x2="-5.8037033"
       y2="182.16737"
       gradientUnits="userSpaceOnUse"
       gradientTransform="matrix(1.2694385,0,0,1.2694385,123.24123,-52.389277)" /><linearGradient
       inkscape:collect="always"
       xlink:href="#linearGradient11"
       id="linearGradient55"
       x1="-19.370865"
       y1="169.64189"
       x2="-5.8735437"
       y2="169.64189"
       gradientUnits="userSpaceOnUse"
       gradientTransform="matrix(1.2694385,0,0,1.2694385,123.24123,-52.389277)" /><linearGradient
       inkscape:collect="always"
       xlink:href="#linearGradient61"
       id="linearGradient62"
       gradientUnits="userSpaceOnUse"
       x1="4.0368543"
       y1="180.80009"
       x2="12.736064"
       y2="180.80009"
       gradientTransform="translate(7.2302419,-7.8420316)" /><linearGradient
       inkscape:collect="always"
       xlink:href="#linearGradient65"
       id="linearGradient64"
       x1="-14.08735"
       y1="177.58374"
       x2="-2.0338347"
       y2="177.58374"
       gradientUnits="userSpaceOnUse"
       gradientTransform="matrix(1.2694385,0,0,1.2694385,123.24123,-52.389277)" /><linearGradient
       inkscape:collect="always"
       xlink:href="#linearGradient9"
       id="linearGradient67"
       x1="-23.132967"
       y1="178.24126"
       x2="-15.236662"
       y2="188.25237"
       gradientUnits="userSpaceOnUse"
       gradientTransform="matrix(1.2694385,0,0,1.2694385,123.24123,-52.389277)" /></defs><g
     inkscape:groupmode="layer"
     id="layer5"
     inkscape:label="Projector"
     transform="translate(-91.051239,-152.93429)"><g
       id="g80"><path
         style="fill:url(#linearGradient53);fill-opacity:1;fill-rule:evenodd;stroke:#000000;stroke-width:0.335872px;stroke-linecap:butt;stroke-linejoin:miter;stroke-opacity:1"
         d="m 108.87918,158.81609 1.20025,0.0706 0.56482,0.42363 7.06027,-0.14121 1.12964,0.84723 4.65978,11.72004 v 0.56483 l -16.23862,14.61475 -1.20024,-0.21181 -5.50701,-10.7316 -1.553261,-1.76507 -7.342679,-1.48266 0.706028,-1.20024 z"
         id="path45" /><path
         style="fill:url(#linearGradient64);fill-opacity:1;fill-rule:evenodd;stroke:#000000;stroke-width:0.335872px;stroke-linecap:butt;stroke-linejoin:miter;stroke-opacity:1"
         d="m 105.56086,176.96098 1.48265,3.53013 13.41451,-11.43763 -1.41205,-3.45954 z"
         id="path46" /><path
         style="fill:#8b8b8b;fill-opacity:1;fill-rule:evenodd;stroke:none;stroke-width:0.335872px;stroke-linecap:butt;stroke-linejoin:miter;stroke-opacity:1"
         d="m 110.64425,159.52212 -1.48266,1.20024 4.30676,0.14121 1.27085,-1.27085 z"
         id="path47" /><path
         style="fill:none;fill-rule:evenodd;stroke:#000000;stroke-width:0.335872px;stroke-linecap:butt;stroke-linejoin:miter;stroke-opacity:1"
         d="m 99.983244,172.513 1.765066,-0.70602 13.55572,-11.93186 -6.00123,-0.42361 -15.744396,11.93186 z"
         id="path48" /><path
         style="fill:url(#linearGradient67);fill-rule:evenodd;stroke:#000000;stroke-width:0.335872px;stroke-linecap:butt;stroke-linejoin:miter;stroke-opacity:1"
         d="m 105.70206,187.62197 0.14121,-0.91782 -5.2952,-10.73161 -1.553261,-1.76506 -7.483886,-1.34146 -0.282408,1.20024 4.800982,9.74317 1.976874,1.83567 6.424839,1.97687 z"
         id="path49" /><path
         style="fill:#8d9595;fill-opacity:1;fill-rule:evenodd;stroke:#000000;stroke-width:0.264583px;stroke-linecap:butt;stroke-linejoin:miter;stroke-opacity:1"
         d="m -22.03856,179.03919 c 0.824993,0.27809 2.04857,1.20504 3.133107,2.33592 1.084536,1.13089 2.030025,2.4657 2.484233,3.56879 0.454209,1.10308 0.417132,1.9744 -0.0927,2.32664 -0.509835,0.35224 -1.492387,0.18539 -2.345192,-0.22247 -0.852805,-0.40787 -1.575818,-1.05673 -2.271039,-1.9188 -0.69522,-0.86208 -1.362614,-1.93733 -1.789013,-2.91063 -0.426398,-0.9733 -0.611791,-1.84464 -0.491277,-2.4657 0.120514,-0.62107 0.546891,-0.99183 1.371884,-0.71375 z"
         id="path50"
         inkscape:path-effect="#path-effect50"
         inkscape:original-d="m -22.43715,178.39032 c 1.22358,0.92696 2.447159,1.85391 3.670738,2.78086 0.945493,1.33482 1.890985,2.66963 2.836479,4.00445 -0.03708,0.87135 -0.07415,1.74267 -0.111233,2.61401 -0.982591,-0.16686 -1.965143,-0.33371 -2.947715,-0.50056 -0.723038,-0.64888 -1.446049,-1.29774 -2.169073,-1.9466 -0.667422,-1.07529 -1.334815,-2.15054 -2.002221,-3.22581 -0.185391,-0.87133 -0.370782,-1.74267 -0.556173,-2.614 0.426417,-0.3708 0.852798,-0.74156 1.279198,-1.11235 z"
         sodipodi:nodetypes="csccccccc"
         transform="matrix(1.2694385,0,0,1.2694385,123.24123,-52.389277)" /><path
         style="fill:#000000;fill-opacity:1;fill-rule:evenodd;stroke:none;stroke-width:0.335872px;stroke-linecap:butt;stroke-linejoin:miter;stroke-opacity:1"
         d="m 106.5493,183.73883 15.46198,-13.48511 -0.21181,-0.28241 -15.53259,13.37921 z"
         id="path51" /><path
         style="fill:url(#linearGradient55);fill-rule:evenodd;stroke:#000000;stroke-width:0.335872px;stroke-linecap:butt;stroke-linejoin:miter;stroke-opacity:1"
         d="m 100.72897,165.07553 c 0,-0.64901 -1.8971,-10.57133 -1.8971,-10.57133 l 0.599086,-0.64901 12.430984,-0.74885 1.19817,1.14824 2.5461,16.2751 -2.04687,2.0968 -2.5461,-17.52319 -0.64901,-0.84871 -9.31504,0.54411 1.38966,8.99127 z"
         id="path52"
         sodipodi:nodetypes="cccccccccccc" /><path
         id="path61"
         style="fill:url(#linearGradient62);fill-opacity:1;fill-rule:evenodd;stroke:#000000;stroke-width:0.264583px;stroke-linecap:butt;stroke-linejoin:miter;stroke-opacity:1"
         d="m 15.79611,169.17838 c -0.555495,-0.0553 -1.010427,0.40366 -1.273664,0.97016 -0.148849,0.32034 -0.171779,0.87115 -0.149503,1.39544 -0.579347,-0.0344 -1.212528,-0.0269 -1.603026,0.10785 -0.72215,0.24976 -1.370529,0.71652 -1.370529,1.31427 0,0.59697 0.757115,1.0494 1.366701,1.25028 0.41473,0.13668 1.037025,0.11866 1.598018,0.0566 -0.02563,0.52194 -0.0063,1.06711 0.139657,1.37746 0.257576,0.54748 0.705535,0.97935 1.257141,0.90036 0.532279,-0.0762 0.961566,-0.6838 1.170236,-1.16511 0.144927,-0.33427 0.168683,-0.82973 0.148652,-1.2899 0.453936,-0.007 0.924443,-0.0579 1.221196,-0.21385 0.412105,-0.21677 0.889467,-0.62464 0.893404,-1.08785 0.0039,-0.46367 -0.396201,-0.83355 -0.877287,-1.05126 -0.276534,-0.12514 -0.753417,-0.15288 -1.221833,-0.14268 0.02577,-0.46392 0.0081,-0.96231 -0.133411,-1.2934 -0.204227,-0.47787 -0.629874,-1.07501 -1.165752,-1.12835 z m 0.03464,3.65882 0.0011,0.0825 -0.08552,2.8e-4 0.0017,-0.0791 z"
         inkscape:path-effect="#path-effect62"
         inkscape:original-d="m 15.604816,168.74076 c -0.597364,0 -1.068921,0.55389 -1.334803,1.19579 -0.148557,0.35865 -0.169719,0.95886 -0.145727,1.52911 -0.570245,-0.024 -1.170457,-0.002 -1.529106,0.14624 -0.641899,0.26588 -1.195792,0.73744 -1.195792,1.3348 0,0.59736 0.650383,1.09115 1.195792,1.33481 0.38277,0.171 0.975237,0.1954 1.529106,0.16794 -0.02406,0.57056 -0.0029,1.17128 0.145727,1.53014 0.265882,0.6419 0.737439,1.1958 1.334803,1.1958 0.597363,0 1.091142,-0.65039 1.334802,-1.1958 0.171114,-0.38302 0.196005,-0.97595 0.168465,-1.53014 0.554188,0.0275 1.147112,0.003 1.530139,-0.16794 0.54541,-0.24366 1.195793,-0.73745 1.195793,-1.33481 0,-0.59736 -0.553893,-1.06892 -1.195793,-1.3348 -0.358864,-0.14865 -0.959587,-0.1703 -1.530139,-0.14624 0.02745,-0.55387 0.0025,-1.14634 -0.168465,-1.52911 -0.24366,-0.54541 -0.737439,-1.19579 -1.334802,-1.19579 z m 0.05736,4.17029 0.0016,0.0946 -0.09405,-0.002 0.0015,-0.0904 z"
         transform="matrix(1.0479562,0,0,1.0479562,98.342856,-9.583746)" /></g></g></svg>
