<?xml version="1.0" encoding="UTF-8" standalone="no"?>
<!-- Created with Inkscape (http://www.inkscape.org/) -->

<svg
   width="24.959232mm"
   height="30.967602mm"
   viewBox="0 0 24.959232 30.967602"
   version="1.1"
   id="svg5"
   xml:space="preserve"
   inkscape:version="1.3 (0e150ed6c4, 2023-07-21)"
   sodipodi:docname="SaynetesFixtures.svg"
   xmlns:inkscape="http://www.inkscape.org/namespaces/inkscape"
   xmlns:sodipodi="http://sodipodi.sourceforge.net/DTD/sodipodi-0.dtd"
   xmlns:xlink="http://www.w3.org/1999/xlink"
   xmlns="http://www.w3.org/2000/svg"
   xmlns:svg="http://www.w3.org/2000/svg"><sodipodi:namedview
     id="namedview7"
     pagecolor="#505050"
     bordercolor="#eeeeee"
     borderopacity="1"
     inkscape:showpageshadow="0"
     inkscape:pageopacity="0"
     inkscape:pagecheckerboard="0"
     inkscape:deskcolor="#505050"
     inkscape:document-units="px"
     showgrid="false"
     inkscape:zoom="1.0677598"
     inkscape:cx="141.88584"
     inkscape:cy="498.2394"
     inkscape:window-width="1280"
     inkscape:window-height="961"
     inkscape:window-x="-8"
     inkscape:window-y="-8"
     inkscape:window-maximized="1"
     inkscape:current-layer="layer5" /><defs
     id="defs2"><linearGradient
       id="linearGradient90"
       inkscape:collect="always"><stop
         style="stop-color:#5e6667;stop-opacity:1;"
         offset="0"
         id="stop90" /><stop
         style="stop-color:#31383c;stop-opacity:1;"
         offset="1"
         id="stop89" /></linearGradient><linearGradient
       id="linearGradient11"
       inkscape:collect="always"><stop
         style="stop-color:#31383c;stop-opacity:1;"
         offset="0"
         id="stop12" /><stop
         style="stop-color:#5e6667;stop-opacity:1;"
         offset="1"
         id="stop13" /></linearGradient><linearGradient
       inkscape:collect="always"
       xlink:href="#linearGradient90"
       id="linearGradient89"
       x1="15.972367"
       y1="105.90999"
       x2="21.911444"
       y2="105.90999"
       gradientUnits="userSpaceOnUse" /><linearGradient
       inkscape:collect="always"
       xlink:href="#linearGradient11"
       id="linearGradient92"
       x1="-3.0477884"
       y1="106.03394"
       x2="16.40518"
       y2="106.03394"
       gradientUnits="userSpaceOnUse" /><linearGradient
       inkscape:collect="always"
       xlink:href="#linearGradient11"
       id="linearGradient94"
       x1="1.6076437"
       y1="120.73395"
       x2="15.737424"
       y2="120.73395"
       gradientUnits="userSpaceOnUse" /></defs><g
     inkscape:groupmode="layer"
     id="layer5"
     inkscape:label="Projector"
     transform="translate(-140.1037,-110.06548)"><g
       id="g94"
       transform="translate(143.15149,13.843221)"
       inkscape:export-filename="03_Halogen.svg"
       inkscape:export-xdpi="96"
       inkscape:export-ydpi="96"><path
         style="fill:url(#linearGradient92);fill-rule:evenodd;stroke:#000000;stroke-width:0.264583px;stroke-linecap:butt;stroke-linejoin:miter;stroke-opacity:1"
         d="m -2.470559,96.466119 -0.4449379,0.333703 v 16.685168 l 0.4449379,0.55618 17.964371,1.66852 0.778641,-0.50056 -0.111234,-18.464926 -0.389321,-0.389322 z"
         id="path84" /><path
         style="fill:#8d9595;fill-opacity:1;fill-rule:evenodd;stroke:#000000;stroke-width:0.264583px;stroke-linecap:butt;stroke-linejoin:miter;stroke-opacity:1"
         d="m -1.7671333,98.208194 16.6747883,0.07865 0.314619,15.573626 -16.8320979,-1.17983 z"
         id="path80" /><path
         style="fill:#d4dbe2;fill-opacity:0.244224;fill-rule:evenodd;stroke:none;stroke-width:0.264583px;stroke-linecap:butt;stroke-linejoin:miter;stroke-opacity:1"
         d="m -1.6294872,98.542477 0.1549241,13.272973 10.1685012,-5.34852 6.2389349,0.007 -0.06475,-3.45903 -6.3314969,-0.009 z"
         id="path94"
         sodipodi:nodetypes="ccccccc" /><path
         style="fill:#8195ab;fill-opacity:1;fill-rule:evenodd;stroke:none;stroke-width:0.264583px;stroke-linecap:butt;stroke-linejoin:miter;stroke-opacity:1"
         d="m 5.3714726,103.91883 c 0,0 -0.5225919,0.2243 -0.5005551,0.47274 0.018676,0.21056 0.5005551,0.47275 0.5005551,0.47275 l 8.6762904,0.11124 c 0,0 0.65367,-0.21521 0.61179,-0.50056 -0.03975,-0.27082 -0.723024,-0.50055 -0.723024,-0.50055 z"
         id="path83"
         sodipodi:nodetypes="csccscc" /><path
         style="fill:url(#linearGradient94);fill-rule:evenodd;stroke:#000000;stroke-width:0.264583px;stroke-linecap:butt;stroke-linejoin:miter;stroke-opacity:1"
         d="m 1.7563517,114.43049 1.1123448,10.78974 0.7786416,0.72303 9.5661659,1.11234 1.724135,-0.44494 0.333703,-3.05894 0.333704,-2.8921 -0.05562,-4.89432 -1.557283,-0.22247 -0.166852,6.1179 -0.61179,4.505 -7.4527105,-0.88988 -0.7786415,-0.44494 -0.7230242,-5.61734 -0.3337034,-4.505 z"
         id="path85" /><path
         style="fill:#333f4b;fill-opacity:1;fill-rule:evenodd;stroke:#000000;stroke-width:0.264583px;stroke-linecap:butt;stroke-linejoin:miter;stroke-opacity:1"
         d="m 20.276895,103.02895 -0.05562,-1.83537 -0.38932,-0.77864 -3.003332,-1.724133 0.05562,5.116783 z"
         id="path88" /><path
         style="fill:#333f4b;fill-opacity:1;fill-rule:evenodd;stroke:#000000;stroke-width:0.264583px;stroke-linecap:butt;stroke-linejoin:miter;stroke-opacity:1"
         d="m 17.162329,113.04006 2.447159,-2.83648 0.500555,-1.2792 v -1.33481 l -3.2258,1.33481 z"
         id="path87" /><path
         style="fill:url(#linearGradient89);fill-rule:evenodd;stroke:#000000;stroke-width:0.264583px;stroke-linecap:butt;stroke-linejoin:miter;stroke-opacity:1"
         d="m 16.105601,96.63297 0.723024,-0.166851 0.333704,0.389318 0.05562,6.117893 4.115676,-0.77864 0.333704,0.44494 0.111234,4.06006 -0.222469,0.66741 -4.338145,2.11345 0.278086,5.45049 -1.223579,0.38932 z"
         id="path86" /></g></g></svg>
