<?xml version="1.0" encoding="UTF-8" standalone="no"?>
<!-- Created with Inkscape (http://www.inkscape.org/) -->

<svg
   width="29.472441mm"
   height="27.479977mm"
   viewBox="0 0 29.472441 27.479977"
   version="1.1"
   id="svg5"
   xml:space="preserve"
   inkscape:version="1.3 (0e150ed6c4, 2023-07-21)"
   sodipodi:docname="SaynetesFixtures.svg"
   xmlns:inkscape="http://www.inkscape.org/namespaces/inkscape"
   xmlns:sodipodi="http://sodipodi.sourceforge.net/DTD/sodipodi-0.dtd"
   xmlns:xlink="http://www.w3.org/1999/xlink"
   xmlns="http://www.w3.org/2000/svg"
   xmlns:svg="http://www.w3.org/2000/svg"><sodipodi:namedview
     id="namedview7"
     pagecolor="#505050"
     bordercolor="#eeeeee"
     borderopacity="1"
     inkscape:showpageshadow="0"
     inkscape:pageopacity="0"
     inkscape:pagecheckerboard="0"
     inkscape:deskcolor="#505050"
     inkscape:document-units="px"
     showgrid="false"
     inkscape:zoom="0.5338799"
     inkscape:cx="502.9221"
     inkscape:cy="576.90878"
     inkscape:window-width="1280"
     inkscape:window-height="961"
     inkscape:window-x="-8"
     inkscape:window-y="-8"
     inkscape:window-maximized="1"
     inkscape:current-layer="g173" /><defs
     id="defs2"><inkscape:path-effect
       effect="perspective-envelope"
       up_left_point="11.399388,168.74076"
       up_right_point="19.222226,169.5194"
       down_left_point="11.399388,177.17539"
       down_right_point="19.166608,176.06305"
       id="path-effect184"
       is_visible="true"
       lpeversion="1"
       deform_type="perspective"
       horizontal_mirror="false"
       vertical_mirror="false"
       overflow_perspective="false" /><inkscape:path-effect
       effect="bspline"
       id="path-effect182"
       is_visible="true"
       lpeversion="1.3"
       weight="33.333333"
       steps="2"
       helper_size="0"
       apply_no_weight="true"
       apply_with_weight="true"
       only_selected="false"
       uniform="false" /><linearGradient
       id="linearGradient61"
       inkscape:collect="always"><stop
         style="stop-color:#5e6667;stop-opacity:1;"
         offset="0"
         id="stop61" /><stop
         style="stop-color:#31383c;stop-opacity:1;"
         offset="1"
         id="stop60" /></linearGradient><linearGradient
       id="linearGradient11"
       inkscape:collect="always"><stop
         style="stop-color:#31383c;stop-opacity:1;"
         offset="0"
         id="stop12" /><stop
         style="stop-color:#5e6667;stop-opacity:1;"
         offset="1"
         id="stop13" /></linearGradient><linearGradient
       id="linearGradient9"
       inkscape:collect="always"><stop
         style="stop-color:#323f42;stop-opacity:1;"
         offset="0"
         id="stop9" /><stop
         style="stop-color:#626a6b;stop-opacity:1;"
         offset="0.5"
         id="stop11" /><stop
         style="stop-color:#293137;stop-opacity:1;"
         offset="1"
         id="stop10" /></linearGradient><linearGradient
       inkscape:collect="always"
       xlink:href="#linearGradient9"
       id="linearGradient178"
       x1="3.4315345"
       y1="62.100452"
       x2="11.536632"
       y2="52.897858"
       gradientUnits="userSpaceOnUse" /><linearGradient
       inkscape:collect="always"
       xlink:href="#linearGradient9"
       id="linearGradient180"
       x1="-11.203968"
       y1="48.178471"
       x2="13.912488"
       y2="48.178471"
       gradientUnits="userSpaceOnUse" /><linearGradient
       inkscape:collect="always"
       xlink:href="#linearGradient11"
       id="linearGradient182"
       gradientUnits="userSpaceOnUse"
       x1="23.010962"
       y1="166.96333"
       x2="38.69854"
       y2="166.96333" /><linearGradient
       inkscape:collect="always"
       xlink:href="#linearGradient61"
       id="linearGradient184"
       gradientUnits="userSpaceOnUse"
       gradientTransform="translate(7.2302419,-7.8420316)"
       x1="4.0368543"
       y1="180.80009"
       x2="12.736064"
       y2="180.80009" /></defs><g
     inkscape:groupmode="layer"
     id="layer5"
     inkscape:label="Projector"
     transform="translate(-44.594643,-113.03576)"><g
       id="g184"
       transform="translate(56.00212,72.991527)"><path
         style="fill:url(#linearGradient180);fill-rule:evenodd;stroke:#000000;stroke-width:0.264583px;stroke-linecap:butt;stroke-linejoin:miter;stroke-opacity:1"
         d="m 13.491591,55.142503 c 0.562804,-0.392577 0.166851,-1.890985 -0.05562,-2.057837 C 13.213502,52.917815 10.948209,51.161127 9.7096159,50.192569 8.4825273,49.233007 7.2615163,48.265697 6.0388776,47.300472 4.7958014,46.319112 3.6335349,45.226388 2.3125221,44.352757 0.95623104,43.455796 -0.33821095,42.702629 -1.7733692,41.938178 c -0.92213,-0.491182 -1.9572236,-1.1424 -2.9774988,-1.367393 -0.7974033,-0.175845 -1.8264442,-0.322091 -2.6418193,-0.278085 -0.8903168,0.04805 -1.3318715,-0.04866 -2.1603499,0.280881 -0.4036262,0.160548 -1.1133038,0.725213 -1.3157278,1.109549 -0.277669,0.5272 -0.432171,1.184624 -0.402816,1.779752 0.0335,0.679081 0.0642,1.64385 0.310667,2.277512 0.292667,0.545192 1.5269175,2.061212 1.5269175,2.061212 0,0 2.9004,-1.868009 3.4646591,-2.275295 0.6303647,-0.455 1.0204189,-0.448385 1.4387221,-0.29264 0.864981,0.322053 1.0653165,0.611311 1.8932025,1.176926 0.9342663,0.638294 1.86946594,1.276059 2.78086242,1.946603 0.4151778,0.30546 0.90359228,0.541407 1.22357938,0.945494 0.2781305,0.35123 0.2320279,0.914306 0.5561725,1.223578 3.0038713,2.866047 8.1631635,6.9915 11.5683895,4.616231 z"
         id="path175"
         sodipodi:nodetypes="sssssssssssscsssssss" /><path
         style="fill:url(#linearGradient178);fill-rule:evenodd;stroke:#000000;stroke-width:0.264583px;stroke-linecap:butt;stroke-linejoin:miter;stroke-opacity:1"
         d="m 17.885353,59.591882 c 0.246533,1.194752 -0.545823,2.396103 -1.056728,3.503888 -0.387666,0.840567 -0.87303,1.656472 -1.501665,2.335924 -0.458295,0.495343 -1.002186,0.936477 -1.6129,1.223579 -0.809856,0.380721 -1.723925,0.519256 -2.614011,0.611791 -0.811556,0.08437 -1.6923432,0.254212 -2.4471588,-0.05562 C 7.4032577,66.698503 6.6786189,65.367119 5.7051763,64.430583 4.7132072,63.476223 3.7169903,62.525456 2.757462,61.538486 1.7881499,60.541452 0.75108314,59.595143 -0.07901746,58.479537 -0.51556921,57.892838 -0.96671465,57.284486 -1.1913623,56.58855 c -0.2459442,-0.761911 -0.3531468,-1.601657 -0.2224691,-2.391543 0.1259682,-0.76142 0.49849369,-1.484313 0.94549331,-2.113455 0.51652291,-0.726994 1.20165637,-1.345094 1.94660369,-1.835369 0.6242672,-0.410851 1.3242193,-0.747355 2.0578379,-0.889876 0.7463743,-0.144999 1.5448767,-0.137361 2.280307,0.05562 0.9546155,0.250496 1.7719917,0.875608 2.6140107,1.390431 1.2724513,0.777996 2.5191098,1.610678 3.6707378,2.558393 1.1946,0.983078 2.295511,2.0818 3.337035,3.225801 0.559409,0.614451 1.03007,1.304315 1.557283,1.946603 0.292172,0.355945 0.796814,0.605727 0.889876,1.056727 z"
         id="path173"
         sodipodi:nodetypes="ssssssssssssssssssss" /><ellipse
         style="opacity:0.945255;fill:#242726;fill-opacity:1;fill-rule:evenodd;stroke:none;stroke-width:0.185208;stroke-linecap:round;stroke-linejoin:round;stroke-dasharray:none;stroke-opacity:1"
         id="path174"
         cx="42.202473"
         cy="49.718452"
         rx="2.2524986"
         ry="1.251388"
         transform="rotate(32.501989)" /><g
         id="g180"
         transform="translate(-2.1236759,2.0450212)"><path
           style="fill:#4e5453;fill-opacity:1;fill-rule:evenodd;stroke:#000000;stroke-width:0.264583px;stroke-linecap:butt;stroke-linejoin:miter;stroke-opacity:1"
           d="m -6.669661,48.829946 0.2502774,-2.753052 -0.2578435,-0.647167 1.3594884,-0.901392 1.3455139,1.131427 c 0,0 3.58731249,0.472747 3.47607795,0.472747 -0.11123454,0 -3.44826915,1.557285 -3.44826915,1.557285 z"
           id="path177"
           sodipodi:nodetypes="cccccscc" /><ellipse
           style="opacity:1;fill:#889290;fill-opacity:1;fill-rule:evenodd;stroke:#000000;stroke-width:0.185208;stroke-linecap:round;stroke-linejoin:round;stroke-dasharray:none;stroke-opacity:1"
           id="path176"
           cx="-22.088434"
           cy="42.322628"
           rx="3.5734079"
           ry="0.63959831"
           transform="rotate(-23.272942)" /></g><path
         style="fill:none;fill-rule:evenodd;stroke:#000000;stroke-width:0.264583px;stroke-linecap:butt;stroke-linejoin:miter;stroke-opacity:0.690377"
         d="m 5.2046208,49.358309 c 0,0 -3.3370346,-3.114564 -3.5595037,-3.170182 -0.2224688,-0.05562 -5.5061073,-3.337034 -5.5061073,-3.337034 l -2.2803071,-0.556172"
         id="path180" /><path
         style="fill:url(#linearGradient182);fill-rule:evenodd;stroke:#000000;stroke-width:0.264583px;stroke-linecap:butt;stroke-linejoin:miter;stroke-opacity:1"
         d="m 33.759666,179.59735 c -0.166851,-0.2132 -0.500555,-0.6396 -0.648867,-1.33483 -0.148312,-0.69522 -0.111235,-1.65923 0.111237,-2.52131 0.222472,-0.86207 0.630327,-1.62216 0.945493,-2.81795 0.315167,-1.19578 0.537632,-2.82719 0.685945,-5.20022 0.148314,-2.37304 0.222469,-5.48754 0.194659,-7.43415 -0.02781,-1.94661 -0.157581,-2.72524 -0.255515,-3.35604 -0.09793,-0.6308 -0.180084,-1.23109 -1.14445,-1.42382 -0.964365,-0.19272 -4.049319,-0.22533 -5.31401,0.0718 -1.26469,0.29708 -1.312243,0.91749 -1.456525,1.75606 -0.144283,0.83857 -0.385286,1.89528 -0.592164,2.91188 -0.206878,1.01661 -0.379617,1.99304 -0.490745,2.6657 -0.111127,0.67266 -0.160636,1.0415 -0.210145,1.41035 -0.716485,-0.58254 -1.432972,-1.16509 -2.149455,-1.74763 0.08594,-0.5403 0.171883,-1.08059 0.279742,-1.97181 0.107859,-0.89122 0.237629,-2.13331 0.348865,-3.06954 0.111235,-0.93623 0.203929,-1.56655 0.407862,-2.02076 0.203932,-0.45421 0.51909,-0.73229 0.852797,-0.94549 0.333706,-0.21321 0.685942,-0.36152 2.410109,-0.42641 1.724167,-0.0649 4.820131,-0.0464 6.609159,0.0834 1.789027,0.12978 2.271029,0.37078 2.567656,0.73229 0.296627,0.36152 0.40786,0.84353 0.491286,2.32668 0.08343,1.48315 0.139043,3.96734 0.19466,5.75637 0.05562,1.78903 0.111234,2.88282 0.166852,4.4772 0.05562,1.59438 0.111234,3.68925 0.250278,5.06115 0.139045,1.3719 0.361511,2.02076 0.472745,2.89211 0.111234,0.87134 0.111234,1.96513 -0.04635,2.70669 -0.157586,0.74157 -0.472742,1.13088 -0.732292,1.32554 -0.25955,0.19466 -0.463475,0.19466 -0.789037,0.0431 -0.325563,-0.15159 -0.772734,-0.45476 -1.214401,-0.4291 -0.441667,0.0257 -0.877763,0.38011 -1.173285,0.55025 -0.295521,0.17015 -0.450387,0.15591 -0.527818,0.1488 -0.07743,-0.007 -0.07743,-0.007 -0.244285,-0.22025 z"
         id="path181"
         inkscape:path-effect="#path-effect182"
         inkscape:original-d="m 33.926518,179.81055 c -0.333703,-0.4264 -0.667407,-0.8528 -1.00111,-1.2792 0.03708,-0.96405 0.07416,-1.92806 0.111234,-2.8921 0.407868,-0.76011 0.815721,-1.5202 1.223581,-2.2803 0.222473,-1.63147 0.444937,-3.26288 0.667407,-4.89432 0.07416,-3.11463 0.148312,-6.22913 0.222469,-9.3437 -0.129778,-0.77865 -0.259548,-1.55728 -0.389321,-2.33592 -0.06609,-0.48296 0.167329,-1.12644 -0.198275,-1.44884 -1.8787,-0.0199 -4.963655,-0.0524 -7.445483,-0.0787 -0.04755,0.62039 -0.09511,1.2408 -0.142657,1.86119 -0.241012,1.05675 -0.482015,2.11346 -0.723024,3.17019 -0.172748,0.97648 -0.345487,1.95291 -0.518233,2.92938 -0.04951,0.36885 -0.148527,1.10654 -0.148527,1.10654 0,0 -1.43297,-1.16509 -2.149455,-1.74763 0,0 0.171883,-1.08059 0.257825,-1.62089 0.129776,-1.24214 0.259547,-2.48423 0.38932,-3.72635 0.0927,-0.63034 0.185391,-1.26066 0.278087,-1.89099 0.31517,-0.27809 0.630329,-0.55617 0.945493,-0.83426 0.352249,-0.14831 0.704485,-0.29662 1.056727,-0.44494 3.09609,0.0185 6.192054,0.0371 9.288081,0.0556 0.482026,0.24102 0.96403,0.48202 1.446048,0.72303 0.111236,0.48202 0.22247,0.96403 0.333703,1.44604 0.05562,2.48429 0.111234,4.96848 0.166852,7.45272 0.05562,1.09382 0.111233,2.18761 0.166851,3.28141 0.05562,2.09496 0.111234,4.18983 0.166852,6.28475 0.222475,0.64888 0.444939,1.29774 0.667406,1.94661 0,1.09382 0,2.18761 0,3.28141 -0.315169,0.38933 -0.630327,0.77864 -0.945491,1.16796 -0.203936,0 -0.407861,0 -0.611791,0 -0.447196,-0.30318 -0.894365,-0.60635 -1.341561,-0.90953 -0.436143,0.35449 -0.872238,0.70895 -1.308402,1.06347 -0.154879,-0.0142 -0.309739,-0.0285 -0.464603,-0.0427 z"
         sodipodi:nodetypes="cccccccascccccccccccccccccccccccc"
         transform="matrix(0.74566882,0,0,0.74566882,-12.471192,-74.76964)" /><ellipse
         style="fill:#000000;fill-opacity:1;fill-rule:evenodd;stroke:none;stroke-width:0.356658;stroke-linecap:round;stroke-linejoin:round"
         id="ellipse182"
         cx="14.323184"
         cy="57.403931"
         rx="0.74721926"
         ry="0.51125532" /><g
         id="g183"
         transform="matrix(1.8017972,-1.9593978,1.4578232,0.40452457,-361.91378,89.800932)"><circle
           style="opacity:0.830645;fill:#bdc6c6;fill-opacity:1;fill-rule:evenodd;stroke-width:0.356658;stroke-linecap:round;stroke-linejoin:round"
           id="circle182"
           cx="56.355515"
           cy="179.96823"
           r="1.293101" /><circle
           style="opacity:0.830645;fill:#7ea8a4;fill-opacity:1;fill-rule:evenodd;stroke-width:0.450981;stroke-linecap:round;stroke-linejoin:round"
           id="circle183"
           cx="56.355515"
           cy="179.96823"
           r="1.0636798" /></g><path
         id="path183"
         style="fill:url(#linearGradient184);fill-opacity:1;fill-rule:evenodd;stroke:#000000;stroke-width:0.264583px;stroke-linecap:butt;stroke-linejoin:miter;stroke-opacity:1"
         d="m 15.79611,169.17838 c -0.555495,-0.0553 -1.010427,0.40366 -1.273664,0.97016 -0.148849,0.32034 -0.171779,0.87115 -0.149503,1.39544 -0.579347,-0.0344 -1.212528,-0.0269 -1.603026,0.10785 -0.72215,0.24976 -1.370529,0.71652 -1.370529,1.31427 0,0.59697 0.757115,1.0494 1.366701,1.25028 0.41473,0.13668 1.037025,0.11866 1.598018,0.0566 -0.02563,0.52194 -0.0063,1.06711 0.139657,1.37746 0.257576,0.54748 0.705535,0.97935 1.257141,0.90036 0.532279,-0.0762 0.961566,-0.6838 1.170236,-1.16511 0.144927,-0.33427 0.168683,-0.82973 0.148652,-1.2899 0.453936,-0.007 0.924443,-0.0579 1.221196,-0.21385 0.412105,-0.21677 0.889467,-0.62464 0.893404,-1.08785 0.0039,-0.46367 -0.396201,-0.83355 -0.877287,-1.05126 -0.276534,-0.12514 -0.753417,-0.15288 -1.221833,-0.14268 0.02577,-0.46392 0.0081,-0.96231 -0.133411,-1.2934 -0.204227,-0.47787 -0.629874,-1.07501 -1.165752,-1.12835 z m 0.03464,3.65882 0.0011,0.0825 -0.08552,2.8e-4 0.0017,-0.0791 z"
         inkscape:path-effect="#path-effect184"
         inkscape:original-d="m 15.604816,168.74076 c -0.597364,0 -1.068921,0.55389 -1.334803,1.19579 -0.148557,0.35865 -0.169719,0.95886 -0.145727,1.52911 -0.570245,-0.024 -1.170457,-0.002 -1.529106,0.14624 -0.641899,0.26588 -1.195792,0.73744 -1.195792,1.3348 0,0.59736 0.650383,1.09115 1.195792,1.33481 0.38277,0.171 0.975237,0.1954 1.529106,0.16794 -0.02406,0.57056 -0.0029,1.17128 0.145727,1.53014 0.265882,0.6419 0.737439,1.1958 1.334803,1.1958 0.597363,0 1.091142,-0.65039 1.334802,-1.1958 0.171114,-0.38302 0.196005,-0.97595 0.168465,-1.53014 0.554188,0.0275 1.147112,0.003 1.530139,-0.16794 0.54541,-0.24366 1.195793,-0.73745 1.195793,-1.33481 0,-0.59736 -0.553893,-1.06892 -1.195793,-1.3348 -0.358864,-0.14865 -0.959587,-0.1703 -1.530139,-0.14624 0.02745,-0.55387 0.0025,-1.14634 -0.168465,-1.52911 -0.24366,-0.54541 -0.737439,-1.19579 -1.334802,-1.19579 z m 0.05736,4.17029 0.0016,0.0946 -0.09405,-0.002 0.0015,-0.0904 z"
         transform="matrix(0.69715265,0.35127918,-0.35127918,0.69715265,64.17291,-67.892229)" /></g></g></svg>
