<?xml version="1.0" encoding="UTF-8" standalone="no"?>
<!-- Created with Inkscape (http://www.inkscape.org/) -->

<svg
   width="18.513695mm"
   height="29.350323mm"
   viewBox="0 0 18.513695 29.350323"
   version="1.1"
   id="svg5"
   xml:space="preserve"
   inkscape:version="1.3 (0e150ed6c4, 2023-07-21)"
   sodipodi:docname="SaynetesFixtures.svg"
   xmlns:inkscape="http://www.inkscape.org/namespaces/inkscape"
   xmlns:sodipodi="http://sodipodi.sourceforge.net/DTD/sodipodi-0.dtd"
   xmlns:xlink="http://www.w3.org/1999/xlink"
   xmlns="http://www.w3.org/2000/svg"
   xmlns:svg="http://www.w3.org/2000/svg"><sodipodi:namedview
     id="namedview7"
     pagecolor="#505050"
     bordercolor="#eeeeee"
     borderopacity="1"
     inkscape:showpageshadow="0"
     inkscape:pageopacity="0"
     inkscape:pagecheckerboard="0"
     inkscape:deskcolor="#505050"
     inkscape:document-units="px"
     showgrid="false"
     inkscape:zoom="0.5338799"
     inkscape:cx="502.9221"
     inkscape:cy="576.90878"
     inkscape:window-width="1280"
     inkscape:window-height="961"
     inkscape:window-x="-8"
     inkscape:window-y="-8"
     inkscape:window-maximized="1"
     inkscape:current-layer="g173" /><defs
     id="defs2"><linearGradient
       id="linearGradient233"
       inkscape:collect="always"><stop
         style="stop-color:#697477;stop-opacity:1;"
         offset="0"
         id="stop233" /><stop
         style="stop-color:#bdc1c1;stop-opacity:1;"
         offset="1"
         id="stop232" /></linearGradient><linearGradient
       id="linearGradient231"
       inkscape:collect="always"><stop
         style="stop-color:#bdc1c1;stop-opacity:1;"
         offset="0"
         id="stop231" /><stop
         style="stop-color:#697477;stop-opacity:1;"
         offset="1"
         id="stop230" /></linearGradient><linearGradient
       id="linearGradient228"
       inkscape:collect="always"><stop
         style="stop-color:#697477;stop-opacity:1;"
         offset="0"
         id="stop227" /><stop
         style="stop-color:#bdc1c1;stop-opacity:1;"
         offset="1"
         id="stop228" /></linearGradient><linearGradient
       id="linearGradient129"
       inkscape:collect="always"><stop
         style="stop-color:#b4bbbc;stop-opacity:1;"
         offset="0"
         id="stop128" /><stop
         style="stop-color:#87929d;stop-opacity:1;"
         offset="1"
         id="stop129" /></linearGradient><linearGradient
       inkscape:collect="always"
       xlink:href="#linearGradient228"
       id="linearGradient278"
       gradientUnits="userSpaceOnUse"
       x1="-48.394196"
       y1="95.893806"
       x2="-31.685425"
       y2="95.893806" /><linearGradient
       inkscape:collect="always"
       xlink:href="#linearGradient231"
       id="linearGradient279"
       gradientUnits="userSpaceOnUse"
       x1="-41.342113"
       y1="78.312759"
       x2="-34.571285"
       y2="85.409012" /><linearGradient
       inkscape:collect="always"
       xlink:href="#linearGradient228"
       id="linearGradient280"
       gradientUnits="userSpaceOnUse"
       x1="-47.848145"
       y1="88.225822"
       x2="-31.376041"
       y2="88.225822" /><linearGradient
       inkscape:collect="always"
       xlink:href="#linearGradient233"
       id="linearGradient281"
       gradientUnits="userSpaceOnUse"
       x1="-49.308689"
       y1="98.485596"
       x2="-30.794989"
       y2="98.485596" /><linearGradient
       inkscape:collect="always"
       xlink:href="#linearGradient129"
       id="linearGradient282"
       gradientUnits="userSpaceOnUse"
       x1="-46.432087"
       y1="88.800941"
       x2="-35.097786"
       y2="88.800941" /></defs><g
     inkscape:groupmode="layer"
     id="layer5"
     inkscape:label="Projector"
     transform="translate(-18.850365,-114.54243)"><g
       id="g278"
       transform="translate(68.159049,40.825343)"><path
         style="fill:url(#linearGradient278);fill-rule:evenodd;stroke:#000000;stroke-width:0.264583px;stroke-linecap:butt;stroke-linejoin:miter;stroke-opacity:1"
         d="m -45.218991,93.568611 c 0,0 -1.079329,0.41231 -1.576946,0.700863 -0.469912,0.272488 -1.314119,0.963689 -1.314119,0.963689 l 11.257632,2.978674 2.1902,-1.007494 2.014987,-1.357924 0.788472,-1.664552 -0.569453,-0.306628 z"
         id="path242"
         sodipodi:nodetypes="csccccccc" /><path
         style="fill:url(#linearGradient279);fill-rule:evenodd;stroke:#000000;stroke-width:0.264583px;stroke-linecap:butt;stroke-linejoin:miter;stroke-opacity:1"
         d="m -32.781957,80.2815 c -0.704883,0.256465 -0.920234,-1.189204 -1.446049,-1.724136 -0.654073,-0.665413 -1.346792,-1.303568 -2.113455,-1.83537 -0.79752,-0.553206 -1.679065,-0.97951 -2.558394,-1.39043 -0.776606,-0.362917 -1.578209,-0.674726 -2.391542,-0.945494 -0.601669,-0.200303 -1.203051,-0.452605 -1.83537,-0.500555 -0.96765,-0.07338 -2.007538,-0.0654 -2.892097,0.333703 -0.682043,0.307734 -1.215198,0.906364 -1.668515,1.501667 -0.37672,0.494714 -0.657212,1.072436 -0.83426,1.668518 -0.185952,0.626059 -0.222824,1.293512 -0.22247,1.946603 2.63e-4,0.485214 0.02608,0.981705 0.166854,1.446049 0.235747,0.777603 0.686715,1.476914 1.112343,2.169073 0.528338,0.859187 1.095568,1.706053 1.779752,2.447157 0.579705,0.627933 1.237195,1.191972 1.946605,1.668518 0.640089,0.429979 1.351785,0.746749 2.057837,1.056728 0.687441,0.301809 1.386194,0.592213 2.113455,0.778642 0.726373,0.186201 1.476003,0.291782 2.22469,0.333703 0.500116,0.028 1.011977,0.04975 1.501667,-0.05562 0.528407,-0.113703 1.073708,-0.281646 1.501664,-0.611791 0.513758,-0.396336 0.885829,-0.972962 1.167963,-1.557282 0.34998,-0.724834 0.481875,-1.541574 0.611791,-2.335924 0.131967,-0.806893 0.166852,-2.224691 0.166852,-2.447158 0,-0.222469 0.269176,-2.011807 -0.389321,-1.946603 -1e-6,0 10e-7,2e-6 0,2e-6 z"
         id="path243"
         sodipodi:nodetypes="ssssssssssssssssssssssss" /><ellipse
         style="opacity:1;fill:#aab4b4;fill-opacity:1;fill-rule:evenodd;stroke:#000000;stroke-width:0.185208;stroke-linecap:round;stroke-linejoin:round;stroke-dasharray:none;stroke-opacity:0.690377"
         id="ellipse243"
         cx="-1.0456511"
         cy="90.001335"
         rx="3.6985469"
         ry="4.3103366"
         transform="rotate(29.16087)" /><g
         id="g253"><path
           style="fill:none;fill-rule:evenodd;stroke:#000000;stroke-width:0.132292;stroke-linecap:round;stroke-linejoin:miter;stroke-dasharray:none;stroke-opacity:1"
           d="m -38.162926,78.126331 -0.166852,1.084535"
           id="path244" /><path
           style="fill:none;fill-rule:evenodd;stroke:#000000;stroke-width:0.132292;stroke-linecap:round;stroke-linejoin:miter;stroke-dasharray:none;stroke-opacity:1"
           d="M -37.912648,78.279278 -38.0795,79.363813"
           id="path245" /><path
           style="fill:none;fill-rule:evenodd;stroke:#000000;stroke-width:0.132292;stroke-linecap:round;stroke-linejoin:miter;stroke-dasharray:none;stroke-opacity:1"
           d="m -37.648466,78.460034 -0.166852,1.084535"
           id="path246" /><path
           style="fill:none;fill-rule:evenodd;stroke:#000000;stroke-width:0.132292;stroke-linecap:round;stroke-linejoin:miter;stroke-dasharray:none;stroke-opacity:1"
           d="m -37.412093,78.654694 -0.166852,1.084535"
           id="path247" /><path
           style="fill:none;fill-rule:evenodd;stroke:#000000;stroke-width:0.132292;stroke-linecap:round;stroke-linejoin:miter;stroke-dasharray:none;stroke-opacity:1"
           d="m -37.189624,78.793737 -0.166852,1.084535"
           id="path248" /><path
           style="fill:none;fill-rule:evenodd;stroke:#000000;stroke-width:0.132292;stroke-linecap:round;stroke-linejoin:miter;stroke-dasharray:none;stroke-opacity:1"
           d="m -36.953251,78.960589 -0.166852,1.084535"
           id="path249" /><path
           style="fill:none;fill-rule:evenodd;stroke:#000000;stroke-width:0.132292;stroke-linecap:round;stroke-linejoin:miter;stroke-dasharray:none;stroke-opacity:1"
           d="m -36.744686,79.169154 -0.166852,1.084535"
           id="path250" /><path
           style="fill:none;fill-rule:evenodd;stroke:#000000;stroke-width:0.132292;stroke-linecap:round;stroke-linejoin:miter;stroke-dasharray:none;stroke-opacity:1"
           d="m -36.522217,79.322101 -0.166852,1.084535"
           id="path251" /><path
           style="fill:none;fill-rule:evenodd;stroke:#000000;stroke-width:0.132292;stroke-linecap:round;stroke-linejoin:miter;stroke-dasharray:none;stroke-opacity:1"
           d="m -36.313652,79.475048 -0.166852,1.084535"
           id="path252" /><path
           style="fill:none;fill-rule:evenodd;stroke:#000000;stroke-width:0.132292;stroke-linecap:round;stroke-linejoin:miter;stroke-dasharray:none;stroke-opacity:1"
           d="m -36.091183,79.627995 -0.166852,1.084535"
           id="path253" /></g><g
         id="g263"><path
           style="fill:none;fill-rule:evenodd;stroke:#000000;stroke-width:0.132292;stroke-linecap:round;stroke-linejoin:miter;stroke-dasharray:none;stroke-opacity:1"
           d="m -38.549829,80.131727 -0.438042,1.0951"
           id="path254" /><path
           style="fill:none;fill-rule:evenodd;stroke:#000000;stroke-width:0.132292;stroke-linecap:round;stroke-linejoin:miter;stroke-dasharray:none;stroke-opacity:1"
           d="m -38.330809,80.317894 -0.438042,1.0951"
           id="path255" /><path
           style="fill:none;fill-rule:evenodd;stroke:#000000;stroke-width:0.132292;stroke-linecap:round;stroke-linejoin:miter;stroke-dasharray:none;stroke-opacity:1"
           d="m -38.089887,80.49311 -0.438042,1.0951"
           id="path256" /><path
           style="fill:none;fill-rule:evenodd;stroke:#000000;stroke-width:0.132292;stroke-linecap:round;stroke-linejoin:miter;stroke-dasharray:none;stroke-opacity:1"
           d="m -37.848965,80.657375 -0.438042,1.0951"
           id="path257" /><path
           style="fill:none;fill-rule:evenodd;stroke:#000000;stroke-width:0.132292;stroke-linecap:round;stroke-linejoin:miter;stroke-dasharray:none;stroke-opacity:1"
           d="m -37.618994,80.82164 -0.438042,1.0951"
           id="path258" /><path
           style="fill:none;fill-rule:evenodd;stroke:#000000;stroke-width:0.132292;stroke-linecap:round;stroke-linejoin:miter;stroke-dasharray:none;stroke-opacity:1"
           d="m -37.378072,80.974954 -0.438042,1.0951"
           id="path259" /><path
           style="fill:none;fill-rule:evenodd;stroke:#000000;stroke-width:0.132292;stroke-linecap:round;stroke-linejoin:miter;stroke-dasharray:none;stroke-opacity:1"
           d="m -37.170003,81.139219 -0.438042,1.0951"
           id="path260" /><path
           style="fill:none;fill-rule:evenodd;stroke:#000000;stroke-width:0.132292;stroke-linecap:round;stroke-linejoin:miter;stroke-dasharray:none;stroke-opacity:1"
           d="m -36.972885,81.281582 -0.438042,1.0951"
           id="path261" /><path
           style="fill:none;fill-rule:evenodd;stroke:#000000;stroke-width:0.132292;stroke-linecap:round;stroke-linejoin:miter;stroke-dasharray:none;stroke-opacity:1"
           d="m -36.721012,81.445847 -0.438042,1.0951"
           id="path262" /><path
           style="fill:none;fill-rule:evenodd;stroke:#000000;stroke-width:0.132292;stroke-linecap:round;stroke-linejoin:miter;stroke-dasharray:none;stroke-opacity:1"
           d="m -36.545796,81.58821 -0.438042,1.0951"
           id="path263" /></g><path
         style="fill:none;fill-rule:evenodd;stroke:#000000;stroke-width:0.264583px;stroke-linecap:butt;stroke-linejoin:miter;stroke-opacity:1"
         d="m -42.678359,81.347289 2.190203,1.270318 2.277808,1.489337 1.883572,1.576943 1.357926,1.182709 1.138904,1.270317"
         id="path264" /><path
         style="fill:url(#linearGradient280);fill-rule:evenodd;stroke:#000000;stroke-width:0.264583px;stroke-linecap:butt;stroke-linejoin:miter;stroke-opacity:1"
         d="m -35.275478,90.458526 0.262824,-8.235156 0.35043,-0.963689 0.52565,-0.744668 0.613257,-0.306628 h 0.613254 l 0.744669,0.306628 0.394235,0.96369 0.175217,1.795962 0.08761,2.277812 v 2.496828 l -0.08761,2.496828 -0.131413,1.533141 -0.219019,1.533141 -0.700863,1.0951 -1.62075,0.876081 -1.620748,0.657061 -0.438041,-0.0438 -4.599422,-1.051298 -4.599421,-1.007491 -1.752161,-1.83977 -0.306628,-0.832276 -0.131411,-3.460517 0.0438,-3.153889 0.0438,-1.226513 v -0.744667 l 0.832276,1.182709 1.182709,1.445532 1.095102,1.007491 0.613254,0.525648 v 0.74467 l 3.022479,2.672045 3.59193,0.700863 z"
         id="path265" /><path
         style="fill:none;fill-rule:evenodd;stroke:#000000;stroke-width:0.264583px;stroke-linecap:butt;stroke-linejoin:miter;stroke-opacity:1"
         d="m -46.357895,84.764002 0.175215,4.336598 3.241497,3.241498 4.292794,0.832276 3.460517,-1.489337 -0.0438,-1.270315"
         id="path266" /><path
         style="fill:url(#linearGradient281);fill-rule:evenodd;stroke:#000000;stroke-width:0.264583px;stroke-linecap:butt;stroke-linejoin:miter;stroke-opacity:1"
         d="m -31.892778,94.194303 c 0,0 0.575378,0.744458 0.743379,1.177017 0.14811,0.381346 0.192523,0.799614 0.216818,1.20799 0.03132,0.526539 -0.09292,1.579679 -0.09292,1.579679 0,0 -0.326422,0.690701 -0.557533,0.991174 -0.658812,0.856537 -1.477147,1.588707 -2.32306,2.261107 -0.538071,0.4277 -1.122763,0.80176 -1.734551,1.11507 -0.325942,0.16692 -1.022146,0.40266 -1.022146,0.40266 l -4.986832,-1.39383 -7.37184,-2.168189 c 0,0 -0.152896,-0.926368 -0.154871,-1.393835 -0.0017,-0.404772 0.03142,-0.813919 0.123896,-1.20799 0.08061,-0.343527 0.185173,-0.691641 0.37169,-0.991174 0.127407,-0.204607 0.495586,-0.526558 0.495586,-0.526558 l 11.3675,2.973514 c 0,0 1.543457,-0.588431 2.261111,-0.991171 0.691888,-0.388281 1.451323,-0.746887 1.951371,-1.362861 0.38194,-0.470486 0.712402,-1.672603 0.712402,-1.672603 z"
         id="path267"
         sodipodi:nodetypes="csscssscccsssccssc" /><path
         style="fill:none;fill-rule:evenodd;stroke:#000000;stroke-width:0.264583px;stroke-linecap:butt;stroke-linejoin:miter;stroke-opacity:1"
         d="m -36.941559,98.282885 c 0,0 0.4718,0.694976 0.619482,1.084096 0.160946,0.424069 0.278767,0.878309 0.278767,1.331889 0,0.45358 -0.15574,0.89531 -0.278767,1.33189 -0.08326,0.29547 -0.30974,0.86727 -0.30974,0.86727"
         id="path268"
         sodipodi:nodetypes="csssc" /><path
         style="fill:url(#linearGradient282);fill-opacity:1;fill-rule:evenodd;stroke:#000000;stroke-width:0.264583px;stroke-linecap:butt;stroke-linejoin:miter;stroke-opacity:1"
         d="m -46.292189,84.676396 0.08761,4.468008 3.2634,3.175792 4.292794,0.854178 3.416713,-1.467435 -0.02191,-1.204611 -1.993085,0.635159 -3.61383,-0.678961 -3.044381,-2.693948 0.0438,-0.832276 -1.138905,-0.897982 -0.766569,-0.700866 z"
         id="path269" /><ellipse
         style="opacity:1;fill:#7ea8a4;fill-opacity:1;fill-rule:evenodd;stroke:#000000;stroke-width:0.152885;stroke-linecap:round;stroke-linejoin:round;stroke-dasharray:none;stroke-opacity:0.690377"
         id="ellipse269"
         cx="-1.2519243"
         cy="89.96595"
         rx="3.0530734"
         ry="3.5580931"
         transform="rotate(29.16087)" /><ellipse
         style="opacity:1;fill:#2e6761;fill-opacity:0.531381;fill-rule:evenodd;stroke:none;stroke-width:0.031561;stroke-linecap:round;stroke-linejoin:round;stroke-dasharray:none;stroke-opacity:0.690377"
         id="ellipse270"
         cx="-1.4045497"
         cy="90.141914"
         rx="0.63026553"
         ry="0.73452002"
         transform="rotate(29.16087)" /><g
         id="g277"
         transform="translate(-26.415607,-3.8589347)"><path
           style="fill:#42494a;fill-opacity:0.556485;fill-rule:evenodd;stroke:#000000;stroke-width:0.15875;stroke-linecap:butt;stroke-linejoin:miter;stroke-dasharray:none;stroke-opacity:0.225941"
           d="m -19.596053,100.4201 6.876254,1.76552 -0.371689,3.00449 -6.752357,-1.88942 z"
           id="path270" /><path
           style="fill:#90c965;fill-opacity:1;fill-rule:evenodd;stroke:none;stroke-width:0.264583px;stroke-linecap:butt;stroke-linejoin:miter;stroke-opacity:1"
           d="m -16.901303,101.65907 1.672601,0.46461 -0.09292,0.80532 -1.610654,-0.43363 z"
           id="path271" /><ellipse
           style="opacity:1;fill:#c2bdb1;fill-opacity:1;fill-rule:evenodd;stroke:none;stroke-width:0.132292;stroke-linecap:round;stroke-linejoin:round;stroke-dasharray:none;stroke-opacity:0.690377"
           id="ellipse271"
           cx="102.77859"
           cy="-19.495693"
           rx="0.15487058"
           ry="0.13938352"
           transform="rotate(110.07817)" /><ellipse
           style="opacity:1;fill:#c2bdb1;fill-opacity:1;fill-rule:evenodd;stroke:none;stroke-width:0.132292;stroke-linecap:round;stroke-linejoin:round;stroke-dasharray:none;stroke-opacity:0.690377"
           id="ellipse272"
           cx="102.7356"
           cy="-20.027983"
           rx="0.15487058"
           ry="0.13938352"
           transform="rotate(110.07817)" /><ellipse
           style="opacity:1;fill:#c2bdb1;fill-opacity:1;fill-rule:evenodd;stroke:none;stroke-width:0.132292;stroke-linecap:round;stroke-linejoin:round;stroke-dasharray:none;stroke-opacity:0.690377"
           id="ellipse273"
           cx="102.71042"
           cy="-20.543461"
           rx="0.15487058"
           ry="0.13938352"
           transform="rotate(110.07817)" /><ellipse
           style="opacity:1;fill:#c2bdb1;fill-opacity:1;fill-rule:evenodd;stroke:none;stroke-width:0.132292;stroke-linecap:round;stroke-linejoin:round;stroke-dasharray:none;stroke-opacity:0.690377"
           id="ellipse274"
           cx="102.6609"
           cy="-21.061707"
           rx="0.15487058"
           ry="0.13938352"
           transform="rotate(110.07817)" /><ellipse
           style="opacity:1;fill:#c2bdb1;fill-opacity:1;fill-rule:evenodd;stroke:none;stroke-width:0.132292;stroke-linecap:round;stroke-linejoin:round;stroke-dasharray:none;stroke-opacity:0.690377"
           id="ellipse275"
           cx="101.51355"
           cy="-18.427"
           rx="0.15487058"
           ry="0.13938352"
           transform="rotate(110.07817)" /><ellipse
           style="opacity:1;fill:#c2bdb1;fill-opacity:1;fill-rule:evenodd;stroke:none;stroke-width:0.132292;stroke-linecap:round;stroke-linejoin:round;stroke-dasharray:none;stroke-opacity:0.690377"
           id="ellipse276"
           cx="102.03633"
           cy="-18.559788"
           rx="0.15487058"
           ry="0.13938352"
           transform="rotate(110.07817)" /><ellipse
           style="opacity:1;fill:#c2bdb1;fill-opacity:1;fill-rule:evenodd;stroke:none;stroke-width:0.132292;stroke-linecap:round;stroke-linejoin:round;stroke-dasharray:none;stroke-opacity:0.690377"
           id="ellipse277"
           cx="101.21336"
           cy="-21.162222"
           rx="0.15487058"
           ry="0.13938352"
           transform="rotate(110.07817)" /></g></g></g></svg>
