<?xml version="1.0" encoding="UTF-8" standalone="no"?>
<!-- Created with Inkscape (http://www.inkscape.org/) -->

<svg
   width="25.539719mm"
   height="22.386965mm"
   viewBox="0 0 25.539719 22.386965"
   version="1.1"
   id="svg5"
   xml:space="preserve"
   inkscape:version="1.3 (0e150ed6c4, 2023-07-21)"
   sodipodi:docname="SaynetesFixtures.svg"
   xmlns:inkscape="http://www.inkscape.org/namespaces/inkscape"
   xmlns:sodipodi="http://sodipodi.sourceforge.net/DTD/sodipodi-0.dtd"
   xmlns:xlink="http://www.w3.org/1999/xlink"
   xmlns="http://www.w3.org/2000/svg"
   xmlns:svg="http://www.w3.org/2000/svg"><sodipodi:namedview
     id="namedview7"
     pagecolor="#505050"
     bordercolor="#eeeeee"
     borderopacity="1"
     inkscape:showpageshadow="0"
     inkscape:pageopacity="0"
     inkscape:pagecheckerboard="0"
     inkscape:deskcolor="#505050"
     inkscape:document-units="px"
     showgrid="false"
     inkscape:zoom="0.5338799"
     inkscape:cx="502.9221"
     inkscape:cy="576.90878"
     inkscape:window-width="1280"
     inkscape:window-height="961"
     inkscape:window-x="-8"
     inkscape:window-y="-8"
     inkscape:window-maximized="1"
     inkscape:current-layer="g173" /><defs
     id="defs2"><inkscape:path-effect
       effect="perspective-envelope"
       up_left_point="11.399388,168.74076"
       up_right_point="19.222226,169.5194"
       down_left_point="11.399388,177.17539"
       down_right_point="19.166608,176.06305"
       id="path-effect302"
       is_visible="true"
       lpeversion="1"
       deform_type="perspective"
       horizontal_mirror="false"
       vertical_mirror="false"
       overflow_perspective="false" /><linearGradient
       id="linearGradient231"
       inkscape:collect="always"><stop
         style="stop-color:#bdc1c1;stop-opacity:1;"
         offset="0"
         id="stop231" /><stop
         style="stop-color:#697477;stop-opacity:1;"
         offset="1"
         id="stop230" /></linearGradient><linearGradient
       id="linearGradient228"
       inkscape:collect="always"><stop
         style="stop-color:#697477;stop-opacity:1;"
         offset="0"
         id="stop227" /><stop
         style="stop-color:#bdc1c1;stop-opacity:1;"
         offset="1"
         id="stop228" /></linearGradient><linearGradient
       id="linearGradient61"
       inkscape:collect="always"><stop
         style="stop-color:#5e6667;stop-opacity:1;"
         offset="0"
         id="stop61" /><stop
         style="stop-color:#31383c;stop-opacity:1;"
         offset="1"
         id="stop60" /></linearGradient><linearGradient
       inkscape:collect="always"
       xlink:href="#linearGradient228"
       id="linearGradient287"
       x1="-17.100685"
       y1="110.89471"
       x2="-1.1069046"
       y2="110.89471"
       gradientUnits="userSpaceOnUse" /><linearGradient
       inkscape:collect="always"
       xlink:href="#linearGradient231"
       id="linearGradient289"
       x1="-10.710549"
       y1="119.24119"
       x2="1.9150107"
       y2="119.24119"
       gradientUnits="userSpaceOnUse" /><linearGradient
       inkscape:collect="always"
       xlink:href="#linearGradient228"
       id="linearGradient291"
       x1="-23.625006"
       y1="119.2375"
       x2="-8.2033787"
       y2="119.2375"
       gradientUnits="userSpaceOnUse" /><linearGradient
       inkscape:collect="always"
       xlink:href="#linearGradient61"
       id="linearGradient302"
       gradientUnits="userSpaceOnUse"
       gradientTransform="translate(7.2302419,-7.8420316)"
       x1="4.0368543"
       y1="180.80009"
       x2="12.736064"
       y2="180.80009" /></defs><g
     inkscape:groupmode="layer"
     id="layer5"
     inkscape:label="Projector"
     transform="translate(-210.63916,-103.50989)"><g
       id="g302"
       transform="translate(234.26388,1.0512964)"><path
         style="fill:#242829;fill-opacity:1;fill-rule:evenodd;stroke:#000000;stroke-width:0.362294px;stroke-linecap:butt;stroke-linejoin:miter;stroke-opacity:1"
         d="m -10.900482,113.8126 v -1.96769 h 4.8350676 v 2.68871 z"
         id="path291"
         sodipodi:nodetypes="ccccc" /><path
         style="fill:url(#linearGradient289);fill-rule:evenodd;stroke:#000000;stroke-width:0.264583px;stroke-linecap:butt;stroke-linejoin:miter;stroke-opacity:1"
         d="m -9.9567576,124.66946 10.33774844,-1.31412 1.09510036,-0.43804 0.306628,-0.83228 v -2.93486 l -0.1314119,-2.05879 -0.5256482,-1.27032 -1.35792455,-0.65706 -2.75965315,-0.52565 -3.7233414,-0.61325 -2.5844366,-0.13141 -1.2703174,-0.0876 z"
         id="path285" /><path
         style="fill:url(#linearGradient291);fill-rule:evenodd;stroke:#000000;stroke-width:0.264583px;stroke-linecap:butt;stroke-linejoin:miter;stroke-opacity:1"
         d="m -22.002861,124.18762 10.951004,0.52565 h 1.1389039 c 0,0 0.8697695,-0.47989 1.1389042,-0.87608 0.2389264,-0.35172 0.3504327,-1.22652 0.3504327,-1.22652 l 0.087606,-6.39538 c 0,0 -0.2600017,-1.13728 -0.6132539,-1.57695 -0.2637915,-0.32832 -1.0512979,-0.70086 -1.0512979,-0.70086 l -0.700863,-0.17522 -10.951004,0.35043 c 0,0 -0.921869,0.20155 -1.226513,0.52565 -0.297336,0.31633 -0.438041,1.22652 -0.438041,1.22652 l -0.175215,6.30777 c 0,0 0.102762,0.8809 0.350432,1.22652 0.268951,0.37532 1.138905,0.78847 1.138905,0.78847 z"
         id="path282"
         sodipodi:nodetypes="cccsccscccsccsc" /><path
         style="fill:#242829;fill-opacity:1;fill-rule:evenodd;stroke:#000000;stroke-width:0.264583px;stroke-linecap:butt;stroke-linejoin:miter;stroke-opacity:1"
         d="m -19.627027,116.38726 c 0,0 1.022142,0.0717 1.517732,0.10841 0.377614,0.028 1.053246,0.13449 1.409323,0.26328 0.412812,0.1493 0.760948,0.43069 1.022144,0.78984 0.261196,0.35915 0.501584,1.04319 0.480099,1.48676 -0.0276,0.56987 -0.105118,0.9479 -0.294252,1.44029 -0.142236,0.37029 -0.459594,0.59491 -0.774352,0.8363 -0.286162,0.21946 -0.68143,0.48011 -1.006658,0.48011 -0.629807,0 -0.912653,-0.0164 -1.548707,-0.0465 -0.306634,-0.0145 -1.285426,-0.12389 -1.285426,-0.12389 z"
         id="path284"
         sodipodi:nodetypes="csssssssscc" /><ellipse
         style="opacity:1;fill:#42494a;fill-opacity:1;fill-rule:evenodd;stroke:#000000;stroke-width:0.15875;stroke-linecap:round;stroke-linejoin:round;stroke-dasharray:none;stroke-opacity:1"
         id="path283"
         cx="-18.860167"
         cy="119.15891"
         rx="2.2778089"
         ry="2.672045"
         transform="rotate(0.54265785)" /><path
         style="fill:url(#linearGradient287);fill-rule:evenodd;stroke:#000000;stroke-width:0.264583px;stroke-linecap:butt;stroke-linejoin:miter;stroke-opacity:1"
         d="m -1.458778,119.19396 0.2190202,-14.63054 -0.7008643,-1.13891 -1.0074924,-0.70086 -0.7884724,-0.13141 -11.7832811,1.44553 -1.0951,0.70086 -0.175215,0.87608 -0.175218,8.32277 1.445533,-0.0876 0.131413,-7.75331 0.525648,-0.74467 0.744667,-0.39424 11.0824175,-1.40172 0.394236,0.35043 -0.087608,15.2438 z"
         id="path286" /><g
         id="g301"
         transform="translate(-0.32522823,-0.06194823)"><ellipse
           style="opacity:1;fill:#878992;fill-opacity:1;fill-rule:evenodd;stroke:none;stroke-width:0.15875;stroke-linecap:round;stroke-linejoin:round;stroke-dasharray:none;stroke-opacity:1"
           id="path300"
           cx="-19.983229"
           cy="119.04329"
           rx="1.2234777"
           ry="1.6648589" /><g
           id="g300"
           transform="translate(-26.266051,17.407454)"><ellipse
             style="opacity:1;fill:#17171a;fill-opacity:1;fill-rule:evenodd;stroke:none;stroke-width:0.15875;stroke-linecap:round;stroke-linejoin:round;stroke-dasharray:none;stroke-opacity:1"
             id="path293"
             cx="6.2595925"
             cy="100.53625"
             rx="0.16261412"
             ry="0.2090753" /><ellipse
             style="opacity:1;fill:#17171a;fill-opacity:1;fill-rule:evenodd;stroke:none;stroke-width:0.24564;stroke-linecap:round;stroke-linejoin:round;stroke-dasharray:none;stroke-opacity:1"
             id="ellipse293"
             cx="6.2655258"
             cy="101.66639"
             rx="0.25161931"
             ry="0.32351053" /><ellipse
             style="opacity:1;fill:#17171a;fill-opacity:1;fill-rule:evenodd;stroke:none;stroke-width:0.15875;stroke-linecap:round;stroke-linejoin:round;stroke-dasharray:none;stroke-opacity:1"
             id="ellipse294"
             cx="5.7020583"
             cy="101.01635"
             rx="0.16261412"
             ry="0.2090753" /><ellipse
             style="opacity:1;fill:#17171a;fill-opacity:1;fill-rule:evenodd;stroke:none;stroke-width:0.15875;stroke-linecap:round;stroke-linejoin:round;stroke-dasharray:none;stroke-opacity:1"
             id="ellipse295"
             cx="5.5162134"
             cy="101.83717"
             rx="0.16261412"
             ry="0.2090753" /><ellipse
             style="opacity:1;fill:#17171a;fill-opacity:1;fill-rule:evenodd;stroke:none;stroke-width:0.15875;stroke-linecap:round;stroke-linejoin:round;stroke-dasharray:none;stroke-opacity:1"
             id="ellipse296"
             cx="5.8104677"
             cy="102.62701"
             rx="0.16261412"
             ry="0.2090753" /><ellipse
             style="opacity:1;fill:#17171a;fill-opacity:1;fill-rule:evenodd;stroke:none;stroke-width:0.15875;stroke-linecap:round;stroke-linejoin:round;stroke-dasharray:none;stroke-opacity:1"
             id="ellipse297"
             cx="6.445437"
             cy="102.73541"
             rx="0.16261412"
             ry="0.2090753" /><ellipse
             style="opacity:1;fill:#17171a;fill-opacity:1;fill-rule:evenodd;stroke:none;stroke-width:0.15875;stroke-linecap:round;stroke-linejoin:round;stroke-dasharray:none;stroke-opacity:1"
             id="ellipse298"
             cx="7.0339451"
             cy="102.31726"
             rx="0.16261412"
             ry="0.2090753" /><ellipse
             style="opacity:1;fill:#17171a;fill-opacity:1;fill-rule:evenodd;stroke:none;stroke-width:0.15875;stroke-linecap:round;stroke-linejoin:round;stroke-dasharray:none;stroke-opacity:1"
             id="ellipse299"
             cx="6.9410229"
             cy="100.84599"
             rx="0.16261412"
             ry="0.2090753" /><ellipse
             style="opacity:1;fill:#17171a;fill-opacity:1;fill-rule:evenodd;stroke:none;stroke-width:0.15875;stroke-linecap:round;stroke-linejoin:round;stroke-dasharray:none;stroke-opacity:1"
             id="ellipse300"
             cx="7.0958934"
             cy="101.63583"
             rx="0.16261412"
             ry="0.2090753" /></g></g><path
         id="path301"
         style="fill:url(#linearGradient302);fill-opacity:1;fill-rule:evenodd;stroke:#000000;stroke-width:0.264583px;stroke-linecap:butt;stroke-linejoin:miter;stroke-opacity:1"
         d="m 15.79611,169.17838 c -0.555495,-0.0553 -1.010427,0.40366 -1.273664,0.97016 -0.148849,0.32034 -0.171779,0.87115 -0.149503,1.39544 -0.579347,-0.0344 -1.212528,-0.0269 -1.603026,0.10785 -0.72215,0.24976 -1.370529,0.71652 -1.370529,1.31427 0,0.59697 0.757115,1.0494 1.366701,1.25028 0.41473,0.13668 1.037025,0.11866 1.598018,0.0566 -0.02563,0.52194 -0.0063,1.06711 0.139657,1.37746 0.257576,0.54748 0.705535,0.97935 1.257141,0.90036 0.532279,-0.0762 0.961566,-0.6838 1.170236,-1.16511 0.144927,-0.33427 0.168683,-0.82973 0.148652,-1.2899 0.453936,-0.007 0.924443,-0.0579 1.221196,-0.21385 0.412105,-0.21677 0.889467,-0.62464 0.893404,-1.08785 0.0039,-0.46367 -0.396201,-0.83355 -0.877287,-1.05126 -0.276534,-0.12514 -0.753417,-0.15288 -1.221833,-0.14268 0.02577,-0.46392 0.0081,-0.96231 -0.133411,-1.2934 -0.204227,-0.47787 -0.629874,-1.07501 -1.165752,-1.12835 z m 0.03464,3.65882 0.0011,0.0825 -0.08552,2.8e-4 0.0017,-0.0791 z"
         inkscape:path-effect="#path-effect302"
         inkscape:original-d="m 15.604816,168.74076 c -0.597364,0 -1.068921,0.55389 -1.334803,1.19579 -0.148557,0.35865 -0.169719,0.95886 -0.145727,1.52911 -0.570245,-0.024 -1.170457,-0.002 -1.529106,0.14624 -0.641899,0.26588 -1.195792,0.73744 -1.195792,1.3348 0,0.59736 0.650383,1.09115 1.195792,1.33481 0.38277,0.171 0.975237,0.1954 1.529106,0.16794 -0.02406,0.57056 -0.0029,1.17128 0.145727,1.53014 0.265882,0.6419 0.737439,1.1958 1.334803,1.1958 0.597363,0 1.091142,-0.65039 1.334802,-1.1958 0.171114,-0.38302 0.196005,-0.97595 0.168465,-1.53014 0.554188,0.0275 1.147112,0.003 1.530139,-0.16794 0.54541,-0.24366 1.195793,-0.73745 1.195793,-1.33481 0,-0.59736 -0.553893,-1.06892 -1.195793,-1.3348 -0.358864,-0.14865 -0.959587,-0.1703 -1.530139,-0.14624 0.02745,-0.55387 0.0025,-1.14634 -0.168465,-1.52911 -0.24366,-0.54541 -0.737439,-1.19579 -1.334802,-1.19579 z m 0.05736,4.17029 0.0016,0.0946 -0.09405,-0.002 0.0015,-0.0904 z"
         transform="matrix(0.63249969,-0.41493457,0.41493457,0.63249969,-83.880834,15.922244)" /></g></g></svg>
