<?xml version="1.0" encoding="UTF-8" standalone="no"?>
<!-- Created with Inkscape (http://www.inkscape.org/) -->

<svg
   width="40.290646mm"
   height="27.623686mm"
   viewBox="0 0 40.290646 27.623686"
   version="1.1"
   id="svg5"
   xml:space="preserve"
   inkscape:version="1.3 (0e150ed6c4, 2023-07-21)"
   sodipodi:docname="SaynetesFixtures.svg"
   xmlns:inkscape="http://www.inkscape.org/namespaces/inkscape"
   xmlns:sodipodi="http://sodipodi.sourceforge.net/DTD/sodipodi-0.dtd"
   xmlns:xlink="http://www.w3.org/1999/xlink"
   xmlns="http://www.w3.org/2000/svg"
   xmlns:svg="http://www.w3.org/2000/svg"><sodipodi:namedview
     id="namedview7"
     pagecolor="#505050"
     bordercolor="#eeeeee"
     borderopacity="1"
     inkscape:showpageshadow="0"
     inkscape:pageopacity="0"
     inkscape:pagecheckerboard="0"
     inkscape:deskcolor="#505050"
     inkscape:document-units="px"
     showgrid="false"
     inkscape:zoom="0.5338799"
     inkscape:cx="502.9221"
     inkscape:cy="576.90878"
     inkscape:window-width="1280"
     inkscape:window-height="961"
     inkscape:window-x="-8"
     inkscape:window-y="-8"
     inkscape:window-maximized="1"
     inkscape:current-layer="g173" /><defs
     id="defs2"><linearGradient
       id="linearGradient505"
       inkscape:collect="always"><stop
         style="stop-color:#454545;stop-opacity:1;"
         offset="0"
         id="stop503" /><stop
         style="stop-color:#747e80;stop-opacity:1;"
         offset="0.5"
         id="stop504" /><stop
         style="stop-color:#3b3b3b;stop-opacity:1;"
         offset="1"
         id="stop505" /></linearGradient><linearGradient
       inkscape:collect="always"
       xlink:href="#linearGradient505"
       id="linearGradient651"
       gradientUnits="userSpaceOnUse"
       x1="-73.332031"
       y1="71.059258"
       x2="-51.054188"
       y2="71.059258"
       gradientTransform="matrix(2.2501636,0,0,0.99566335,118.708,1.3182714)" /><linearGradient
       inkscape:collect="always"
       xlink:href="#linearGradient505"
       id="linearGradient652"
       gradientUnits="userSpaceOnUse"
       x1="-73.276627"
       y1="87.073471"
       x2="-50.990631"
       y2="87.073471"
       gradientTransform="matrix(2.2501636,0,0,0.99566335,118.708,1.3182714)" /></defs><g
     inkscape:groupmode="layer"
     id="layer5"
     inkscape:label="Projector"
     transform="translate(49.685337,-122.92044)"><g
       id="g720"
       transform="matrix(0.80416044,0,0,0.80416044,-12.520068,76.110569)"><path
         style="fill:url(#linearGradient652);fill-rule:evenodd;stroke:#000000;stroke-width:0.396027px;stroke-linecap:butt;stroke-linejoin:miter;stroke-opacity:1"
         d="m -43.329206,92.362368 45.302937,-0.06168 1.6727244,-8.63514 H -45.903999 Z"
         id="path650"
         sodipodi:nodetypes="ccccc" /><path
         style="fill:url(#linearGradient651);fill-rule:evenodd;stroke:#000000;stroke-width:0.396027px;stroke-linecap:butt;stroke-linejoin:miter;stroke-opacity:1"
         d="m -45.977687,83.665547 4.321203,-23.068168 41.2605227,-0.123358 3.9030235,23.191526 z"
         id="path651" /><g
         id="g656"
         transform="translate(25.929177)"><path
           style="fill:#223b5e;fill-opacity:1;fill-rule:evenodd;stroke:#0f1b2a;stroke-width:0.264583px;stroke-linecap:butt;stroke-linejoin:miter;stroke-opacity:1"
           d="m -66.858527,67.981144 h 9.593079 l -0.0438,-4.862245 -9.505471,0.350432 z"
           id="path652" /><path
           style="fill:#4778be;fill-opacity:1;fill-rule:evenodd;stroke:#0f1b2a;stroke-width:0.264583px;stroke-linecap:butt;stroke-linejoin:miter;stroke-opacity:1"
           d="m -64.580718,59.658382 0.175216,-1.226513 4.643226,-0.08761 0.08761,1.226513 1.226512,1.051296 1.138904,0.262824 V 63.1627 l -0.963688,1.314122 -1.401728,1.226511 -0.876081,0.350432 h -3.416713 l -0.350432,-0.350432 -1.401729,-0.963687 -1.051296,-1.051298 v -2.540632 z"
           id="path653" /><path
           style="fill:none;fill-rule:evenodd;stroke:#0f1b2a;stroke-width:0.264583px;stroke-linecap:butt;stroke-linejoin:miter;stroke-opacity:1"
           d="m -60.112709,58.364606 v 7.513947"
           id="path654"
           sodipodi:nodetypes="cc" /><path
           style="fill:none;fill-rule:evenodd;stroke:#0f1b2a;stroke-width:0.264583px;stroke-linecap:butt;stroke-linejoin:miter;stroke-opacity:1"
           d="m -64.098874,58.431869 0.08761,7.490489"
           id="path655" /><path
           style="fill:#3a66a4;fill-opacity:1;fill-rule:evenodd;stroke:none;stroke-width:0.264583px;stroke-linecap:butt;stroke-linejoin:miter;stroke-opacity:1"
           d="m -57.265448,64.170197 -0.65706,0.87608 -1.489336,1.226511 -1.051297,0.32853 -3.548125,0.02191 -0.722766,-0.459941 -1.248415,-0.985592 -0.832276,-0.985589 -0.0219,-0.678963 1.0951,1.226513 1.423631,0.963687 0.32853,0.350432 3.438615,0.02191 0.87608,-0.372335 1.401729,-1.248413 0.963688,-1.314121 z"
           id="path656" /></g><g
         id="g661"
         transform="translate(35.98335)"><path
           style="fill:#223b5e;fill-opacity:1;fill-rule:evenodd;stroke:#0f1b2a;stroke-width:0.264583px;stroke-linecap:butt;stroke-linejoin:miter;stroke-opacity:1"
           d="m -66.858527,67.981144 h 9.593079 l -0.0438,-4.862245 -9.505471,0.350432 z"
           id="path657" /><path
           style="fill:#4778be;fill-opacity:1;fill-rule:evenodd;stroke:#0f1b2a;stroke-width:0.264583px;stroke-linecap:butt;stroke-linejoin:miter;stroke-opacity:1"
           d="m -64.580718,59.658382 0.175216,-1.226513 4.643226,-0.08761 0.08761,1.226513 1.226512,1.051296 1.138904,0.262824 V 63.1627 l -0.963688,1.314122 -1.401728,1.226511 -0.876081,0.350432 h -3.416713 l -0.350432,-0.350432 -1.401729,-0.963687 -1.051296,-1.051298 v -2.540632 z"
           id="path658" /><path
           style="fill:none;fill-rule:evenodd;stroke:#0f1b2a;stroke-width:0.264583px;stroke-linecap:butt;stroke-linejoin:miter;stroke-opacity:1"
           d="m -60.112709,58.364606 v 7.513947"
           id="path659"
           sodipodi:nodetypes="cc" /><path
           style="fill:none;fill-rule:evenodd;stroke:#0f1b2a;stroke-width:0.264583px;stroke-linecap:butt;stroke-linejoin:miter;stroke-opacity:1"
           d="m -64.098874,58.431869 0.08761,7.490489"
           id="path660" /><path
           style="fill:#3a66a4;fill-opacity:1;fill-rule:evenodd;stroke:none;stroke-width:0.264583px;stroke-linecap:butt;stroke-linejoin:miter;stroke-opacity:1"
           d="m -57.265448,64.170197 -0.65706,0.87608 -1.489336,1.226511 -1.051297,0.32853 -3.548125,0.02191 -0.722766,-0.459941 -1.248415,-0.985592 -0.832276,-0.985589 -0.0219,-0.678963 1.0951,1.226513 1.423631,0.963687 0.32853,0.350432 3.438615,0.02191 0.87608,-0.372335 1.401729,-1.248413 0.963688,-1.314121 z"
           id="path661" /></g><g
         id="g666"
         transform="translate(46.037523)"><path
           style="fill:#223b5e;fill-opacity:1;fill-rule:evenodd;stroke:#0f1b2a;stroke-width:0.264583px;stroke-linecap:butt;stroke-linejoin:miter;stroke-opacity:1"
           d="m -66.858527,67.981144 h 9.593079 l -0.0438,-4.862245 -9.505471,0.350432 z"
           id="path662" /><path
           style="fill:#4778be;fill-opacity:1;fill-rule:evenodd;stroke:#0f1b2a;stroke-width:0.264583px;stroke-linecap:butt;stroke-linejoin:miter;stroke-opacity:1"
           d="m -64.580718,59.658382 0.175216,-1.226513 4.643226,-0.08761 0.08761,1.226513 1.226512,1.051296 1.138904,0.262824 V 63.1627 l -0.963688,1.314122 -1.401728,1.226511 -0.876081,0.350432 h -3.416713 l -0.350432,-0.350432 -1.401729,-0.963687 -1.051296,-1.051298 v -2.540632 z"
           id="path663" /><path
           style="fill:none;fill-rule:evenodd;stroke:#0f1b2a;stroke-width:0.264583px;stroke-linecap:butt;stroke-linejoin:miter;stroke-opacity:1"
           d="m -60.112709,58.364606 v 7.513947"
           id="path664"
           sodipodi:nodetypes="cc" /><path
           style="fill:none;fill-rule:evenodd;stroke:#0f1b2a;stroke-width:0.264583px;stroke-linecap:butt;stroke-linejoin:miter;stroke-opacity:1"
           d="m -64.098874,58.431869 0.08761,7.490489"
           id="path665" /><path
           style="fill:#3a66a4;fill-opacity:1;fill-rule:evenodd;stroke:none;stroke-width:0.264583px;stroke-linecap:butt;stroke-linejoin:miter;stroke-opacity:1"
           d="m -57.265448,64.170197 -0.65706,0.87608 -1.489336,1.226511 -1.051297,0.32853 -3.548125,0.02191 -0.722766,-0.459941 -1.248415,-0.985592 -0.832276,-0.985589 -0.0219,-0.678963 1.0951,1.226513 1.423631,0.963687 0.32853,0.350432 3.438615,0.02191 0.87608,-0.372335 1.401729,-1.248413 0.963688,-1.314121 z"
           id="path666" /></g><g
         id="g671"
         transform="translate(56.091696)"><path
           style="fill:#223b5e;fill-opacity:1;fill-rule:evenodd;stroke:#0f1b2a;stroke-width:0.264583px;stroke-linecap:butt;stroke-linejoin:miter;stroke-opacity:1"
           d="m -66.858527,67.981144 h 9.593079 l -0.0438,-4.862245 -9.505471,0.350432 z"
           id="path667" /><path
           style="fill:#4778be;fill-opacity:1;fill-rule:evenodd;stroke:#0f1b2a;stroke-width:0.264583px;stroke-linecap:butt;stroke-linejoin:miter;stroke-opacity:1"
           d="m -64.580718,59.658382 0.175216,-1.226513 4.643226,-0.08761 0.08761,1.226513 1.226512,1.051296 1.138904,0.262824 V 63.1627 l -0.963688,1.314122 -1.401728,1.226511 -0.876081,0.350432 h -3.416713 l -0.350432,-0.350432 -1.401729,-0.963687 -1.051296,-1.051298 v -2.540632 z"
           id="path668" /><path
           style="fill:none;fill-rule:evenodd;stroke:#0f1b2a;stroke-width:0.264583px;stroke-linecap:butt;stroke-linejoin:miter;stroke-opacity:1"
           d="m -60.112709,58.364606 v 7.513947"
           id="path669"
           sodipodi:nodetypes="cc" /><path
           style="fill:none;fill-rule:evenodd;stroke:#0f1b2a;stroke-width:0.264583px;stroke-linecap:butt;stroke-linejoin:miter;stroke-opacity:1"
           d="m -64.098874,58.431869 0.08761,7.490489"
           id="path670" /><path
           style="fill:#3a66a4;fill-opacity:1;fill-rule:evenodd;stroke:none;stroke-width:0.264583px;stroke-linecap:butt;stroke-linejoin:miter;stroke-opacity:1"
           d="m -57.265448,64.170197 -0.65706,0.87608 -1.489336,1.226511 -1.051297,0.32853 -3.548125,0.02191 -0.722766,-0.459941 -1.248415,-0.985592 -0.832276,-0.985589 -0.0219,-0.678963 1.0951,1.226513 1.423631,0.963687 0.32853,0.350432 3.438615,0.02191 0.87608,-0.372335 1.401729,-1.248413 0.963688,-1.314121 z"
           id="path671" /></g><g
         id="g679"
         transform="translate(30.162513,1.0583333)"><path
           style="fill:#363636;fill-opacity:1;fill-rule:evenodd;stroke:none;stroke-width:0.264583px;stroke-linecap:butt;stroke-linejoin:miter;stroke-opacity:1"
           d="m -69.793396,78.581717 h 1.357925 l 0.65706,-0.613256 v -8.541785 l -0.52079,-0.597766 -1.099959,-0.01549 -0.525648,0.394234 -0.394236,8.541784 z"
           id="path672"
           sodipodi:nodetypes="ccccccccc" /><path
           style="fill:#1f1f1f;fill-opacity:1;fill-rule:evenodd;stroke:#000000;stroke-width:0.264583px;stroke-linecap:butt;stroke-linejoin:miter;stroke-opacity:1"
           d="m -68.469103,69.55809 c 0,0 -0.177764,-0.309928 -0.327202,-0.306629 -0.156042,0.0034 -0.327201,0.334946 -0.327201,0.334946 l -0.319458,7.944012 c 0,0 0.260501,0.260592 0.427867,0.262827 0.164724,0.0022 0.427868,-0.24734 0.427868,-0.24734 z"
           id="path673"
           sodipodi:nodetypes="csccscc" /><path
           style="fill:none;fill-rule:evenodd;stroke:#b5b5b5;stroke-width:0.264583px;stroke-linecap:butt;stroke-linejoin:miter;stroke-opacity:1"
           d="m -67.384175,70.215151 h 0.963688"
           id="path674" /><path
           style="fill:none;fill-rule:evenodd;stroke:#b5b5b5;stroke-width:0.264583px;stroke-linecap:butt;stroke-linejoin:miter;stroke-opacity:1"
           d="m -67.384175,71.474817 h 0.963688"
           id="path675" /><path
           style="fill:none;fill-rule:evenodd;stroke:#b5b5b5;stroke-width:0.264583px;stroke-linecap:butt;stroke-linejoin:miter;stroke-opacity:1"
           d="m -67.384175,72.860986 h 0.963688"
           id="path676" /><path
           style="fill:none;fill-rule:evenodd;stroke:#b5b5b5;stroke-width:0.264583px;stroke-linecap:butt;stroke-linejoin:miter;stroke-opacity:1"
           d="m -67.384175,74.355565 h 0.963688"
           id="path677" /><path
           style="fill:none;fill-rule:evenodd;stroke:#b5b5b5;stroke-width:0.264583px;stroke-linecap:butt;stroke-linejoin:miter;stroke-opacity:1"
           d="m -67.384175,75.819169 h 0.963688"
           id="path678" /><path
           style="fill:none;fill-rule:evenodd;stroke:#b5b5b5;stroke-width:0.264583px;stroke-linecap:butt;stroke-linejoin:miter;stroke-opacity:1"
           d="m -67.384175,77.360209 h 0.963688"
           id="path679" /><ellipse
           style="opacity:1;fill:#b5b5b5;fill-opacity:1;fill-rule:evenodd;stroke:none;stroke-width:0.465667;stroke-linecap:round;stroke-linejoin:round;stroke-dasharray:none;stroke-opacity:1"
           id="ellipse679"
           cx="-68.961121"
           cy="75.909668"
           rx="1.1213828"
           ry="0.52564818" /></g><g
         id="g687"
         transform="translate(35.454183,1.0583333)"><path
           style="fill:#363636;fill-opacity:1;fill-rule:evenodd;stroke:none;stroke-width:0.264583px;stroke-linecap:butt;stroke-linejoin:miter;stroke-opacity:1"
           d="m -69.793396,78.581717 h 1.357925 l 0.65706,-0.613256 v -8.541785 l -0.52079,-0.597766 -1.099959,-0.01549 -0.525648,0.394234 -0.394236,8.541784 z"
           id="path680"
           sodipodi:nodetypes="ccccccccc" /><path
           style="fill:#1f1f1f;fill-opacity:1;fill-rule:evenodd;stroke:#000000;stroke-width:0.264583px;stroke-linecap:butt;stroke-linejoin:miter;stroke-opacity:1"
           d="m -68.469103,69.55809 c 0,0 -0.177764,-0.309928 -0.327202,-0.306629 -0.156042,0.0034 -0.327201,0.334946 -0.327201,0.334946 l -0.319458,7.944012 c 0,0 0.260501,0.260592 0.427867,0.262827 0.164724,0.0022 0.427868,-0.24734 0.427868,-0.24734 z"
           id="path681"
           sodipodi:nodetypes="csccscc" /><path
           style="fill:none;fill-rule:evenodd;stroke:#b5b5b5;stroke-width:0.264583px;stroke-linecap:butt;stroke-linejoin:miter;stroke-opacity:1"
           d="m -67.384175,70.215151 h 0.963688"
           id="path682" /><path
           style="fill:none;fill-rule:evenodd;stroke:#b5b5b5;stroke-width:0.264583px;stroke-linecap:butt;stroke-linejoin:miter;stroke-opacity:1"
           d="m -67.384175,71.474817 h 0.963688"
           id="path683" /><path
           style="fill:none;fill-rule:evenodd;stroke:#b5b5b5;stroke-width:0.264583px;stroke-linecap:butt;stroke-linejoin:miter;stroke-opacity:1"
           d="m -67.384175,72.860986 h 0.963688"
           id="path684" /><path
           style="fill:none;fill-rule:evenodd;stroke:#b5b5b5;stroke-width:0.264583px;stroke-linecap:butt;stroke-linejoin:miter;stroke-opacity:1"
           d="m -67.384175,74.355565 h 0.963688"
           id="path685" /><path
           style="fill:none;fill-rule:evenodd;stroke:#b5b5b5;stroke-width:0.264583px;stroke-linecap:butt;stroke-linejoin:miter;stroke-opacity:1"
           d="m -67.384175,75.819169 h 0.963688"
           id="path686" /><path
           style="fill:none;fill-rule:evenodd;stroke:#b5b5b5;stroke-width:0.264583px;stroke-linecap:butt;stroke-linejoin:miter;stroke-opacity:1"
           d="m -67.384175,77.360209 h 0.963688"
           id="path687" /><ellipse
           style="opacity:1;fill:#b5b5b5;fill-opacity:1;fill-rule:evenodd;stroke:none;stroke-width:0.465667;stroke-linecap:round;stroke-linejoin:round;stroke-dasharray:none;stroke-opacity:1"
           id="ellipse687"
           cx="-68.961121"
           cy="75.909668"
           rx="1.1213828"
           ry="0.52564818" /></g><g
         id="g695"
         transform="translate(40.216686,1.0583333)"><path
           style="fill:#363636;fill-opacity:1;fill-rule:evenodd;stroke:none;stroke-width:0.264583px;stroke-linecap:butt;stroke-linejoin:miter;stroke-opacity:1"
           d="m -69.793396,78.581717 h 1.357925 l 0.65706,-0.613256 v -8.541785 l -0.52079,-0.597766 -1.099959,-0.01549 -0.525648,0.394234 -0.394236,8.541784 z"
           id="path688"
           sodipodi:nodetypes="ccccccccc" /><path
           style="fill:#1f1f1f;fill-opacity:1;fill-rule:evenodd;stroke:#000000;stroke-width:0.264583px;stroke-linecap:butt;stroke-linejoin:miter;stroke-opacity:1"
           d="m -68.469103,69.55809 c 0,0 -0.177764,-0.309928 -0.327202,-0.306629 -0.156042,0.0034 -0.327201,0.334946 -0.327201,0.334946 l -0.319458,7.944012 c 0,0 0.260501,0.260592 0.427867,0.262827 0.164724,0.0022 0.427868,-0.24734 0.427868,-0.24734 z"
           id="path689"
           sodipodi:nodetypes="csccscc" /><path
           style="fill:none;fill-rule:evenodd;stroke:#b5b5b5;stroke-width:0.264583px;stroke-linecap:butt;stroke-linejoin:miter;stroke-opacity:1"
           d="m -67.384175,70.215151 h 0.963688"
           id="path690" /><path
           style="fill:none;fill-rule:evenodd;stroke:#b5b5b5;stroke-width:0.264583px;stroke-linecap:butt;stroke-linejoin:miter;stroke-opacity:1"
           d="m -67.384175,71.474817 h 0.963688"
           id="path691" /><path
           style="fill:none;fill-rule:evenodd;stroke:#b5b5b5;stroke-width:0.264583px;stroke-linecap:butt;stroke-linejoin:miter;stroke-opacity:1"
           d="m -67.384175,72.860986 h 0.963688"
           id="path692" /><path
           style="fill:none;fill-rule:evenodd;stroke:#b5b5b5;stroke-width:0.264583px;stroke-linecap:butt;stroke-linejoin:miter;stroke-opacity:1"
           d="m -67.384175,74.355565 h 0.963688"
           id="path693" /><path
           style="fill:none;fill-rule:evenodd;stroke:#b5b5b5;stroke-width:0.264583px;stroke-linecap:butt;stroke-linejoin:miter;stroke-opacity:1"
           d="m -67.384175,75.819169 h 0.963688"
           id="path694" /><path
           style="fill:none;fill-rule:evenodd;stroke:#b5b5b5;stroke-width:0.264583px;stroke-linecap:butt;stroke-linejoin:miter;stroke-opacity:1"
           d="m -67.384175,77.360209 h 0.963688"
           id="path695" /><ellipse
           style="opacity:1;fill:#b5b5b5;fill-opacity:1;fill-rule:evenodd;stroke:none;stroke-width:0.465667;stroke-linecap:round;stroke-linejoin:round;stroke-dasharray:none;stroke-opacity:1"
           id="ellipse695"
           cx="-68.961121"
           cy="75.909668"
           rx="1.1213828"
           ry="0.52564818" /></g><g
         id="g703"
         transform="translate(45.508356,1.0583333)"><path
           style="fill:#363636;fill-opacity:1;fill-rule:evenodd;stroke:none;stroke-width:0.264583px;stroke-linecap:butt;stroke-linejoin:miter;stroke-opacity:1"
           d="m -69.793396,78.581717 h 1.357925 l 0.65706,-0.613256 v -8.541785 l -0.52079,-0.597766 -1.099959,-0.01549 -0.525648,0.394234 -0.394236,8.541784 z"
           id="path696"
           sodipodi:nodetypes="ccccccccc" /><path
           style="fill:#1f1f1f;fill-opacity:1;fill-rule:evenodd;stroke:#000000;stroke-width:0.264583px;stroke-linecap:butt;stroke-linejoin:miter;stroke-opacity:1"
           d="m -68.469103,69.55809 c 0,0 -0.177764,-0.309928 -0.327202,-0.306629 -0.156042,0.0034 -0.327201,0.334946 -0.327201,0.334946 l -0.319458,7.944012 c 0,0 0.260501,0.260592 0.427867,0.262827 0.164724,0.0022 0.427868,-0.24734 0.427868,-0.24734 z"
           id="path697"
           sodipodi:nodetypes="csccscc" /><path
           style="fill:none;fill-rule:evenodd;stroke:#b5b5b5;stroke-width:0.264583px;stroke-linecap:butt;stroke-linejoin:miter;stroke-opacity:1"
           d="m -67.384175,70.215151 h 0.963688"
           id="path698" /><path
           style="fill:none;fill-rule:evenodd;stroke:#b5b5b5;stroke-width:0.264583px;stroke-linecap:butt;stroke-linejoin:miter;stroke-opacity:1"
           d="m -67.384175,71.474817 h 0.963688"
           id="path699" /><path
           style="fill:none;fill-rule:evenodd;stroke:#b5b5b5;stroke-width:0.264583px;stroke-linecap:butt;stroke-linejoin:miter;stroke-opacity:1"
           d="m -67.384175,72.860986 h 0.963688"
           id="path700" /><path
           style="fill:none;fill-rule:evenodd;stroke:#b5b5b5;stroke-width:0.264583px;stroke-linecap:butt;stroke-linejoin:miter;stroke-opacity:1"
           d="m -67.384175,74.355565 h 0.963688"
           id="path701" /><path
           style="fill:none;fill-rule:evenodd;stroke:#b5b5b5;stroke-width:0.264583px;stroke-linecap:butt;stroke-linejoin:miter;stroke-opacity:1"
           d="m -67.384175,75.819169 h 0.963688"
           id="path702" /><path
           style="fill:none;fill-rule:evenodd;stroke:#b5b5b5;stroke-width:0.264583px;stroke-linecap:butt;stroke-linejoin:miter;stroke-opacity:1"
           d="m -67.384175,77.360209 h 0.963688"
           id="path703" /><ellipse
           style="opacity:1;fill:#b5b5b5;fill-opacity:1;fill-rule:evenodd;stroke:none;stroke-width:0.465667;stroke-linecap:round;stroke-linejoin:round;stroke-dasharray:none;stroke-opacity:1"
           id="ellipse703"
           cx="-68.961121"
           cy="75.909668"
           rx="1.1213828"
           ry="0.52564818" /></g><g
         id="g705"
         transform="translate(49.310792,1.2389646)"><ellipse
           style="opacity:1;fill:#0a0a0a;fill-opacity:1;fill-rule:evenodd;stroke:none;stroke-width:0.291042;stroke-linecap:round;stroke-linejoin:round;stroke-dasharray:none;stroke-opacity:1"
           id="ellipse704"
           cx="-64.230286"
           cy="76.084885"
           rx="0.87608027"
           ry="0.56945223" /><ellipse
           style="opacity:1;fill:#7e7e7e;fill-opacity:1;fill-rule:evenodd;stroke:none;stroke-width:0.219026;stroke-linecap:round;stroke-linejoin:round;stroke-dasharray:none;stroke-opacity:1"
           id="ellipse705"
           cx="-64.230286"
           cy="75.975372"
           rx="0.67896223"
           ry="0.41613817" /></g><g
         id="g707"
         transform="translate(52.617205,1.2389646)"><ellipse
           style="opacity:1;fill:#0a0a0a;fill-opacity:1;fill-rule:evenodd;stroke:none;stroke-width:0.291042;stroke-linecap:round;stroke-linejoin:round;stroke-dasharray:none;stroke-opacity:1"
           id="ellipse706"
           cx="-64.230286"
           cy="76.084885"
           rx="0.87608027"
           ry="0.56945223" /><ellipse
           style="opacity:1;fill:#7e7e7e;fill-opacity:1;fill-rule:evenodd;stroke:none;stroke-width:0.219026;stroke-linecap:round;stroke-linejoin:round;stroke-dasharray:none;stroke-opacity:1"
           id="ellipse707"
           cx="-64.230286"
           cy="75.975372"
           rx="0.67896223"
           ry="0.41613817" /></g><g
         id="g709"
         transform="translate(56.189959,1.2389646)"><ellipse
           style="opacity:1;fill:#0a0a0a;fill-opacity:1;fill-rule:evenodd;stroke:none;stroke-width:0.291042;stroke-linecap:round;stroke-linejoin:round;stroke-dasharray:none;stroke-opacity:1"
           id="ellipse708"
           cx="-64.230286"
           cy="76.084885"
           rx="0.87608027"
           ry="0.56945223" /><ellipse
           style="opacity:1;fill:#7e7e7e;fill-opacity:1;fill-rule:evenodd;stroke:none;stroke-width:0.219026;stroke-linecap:round;stroke-linejoin:round;stroke-dasharray:none;stroke-opacity:1"
           id="ellipse709"
           cx="-64.230286"
           cy="75.975372"
           rx="0.67896223"
           ry="0.41613817" /></g><rect
         style="opacity:1;fill:#0e0e0e;fill-opacity:1;fill-rule:evenodd;stroke:none;stroke-width:0.346818;stroke-linecap:round;stroke-linejoin:round;stroke-dasharray:none;stroke-opacity:1"
         id="rect709"
         width="8.1528578"
         height="2.205739"
         x="-15.657233"
         y="72.388275" /><rect
         style="opacity:1;fill:#383948;fill-opacity:1;fill-rule:evenodd;stroke:none;stroke-width:0.291042;stroke-linecap:round;stroke-linejoin:round;stroke-dasharray:none;stroke-opacity:1"
         id="rect710"
         width="7.4337878"
         height="1.7035764"
         x="-15.297698"
         y="72.639359" /><g
         id="g714"
         transform="translate(51.85067,42.124798)"><path
           style="fill:none;fill-rule:evenodd;stroke:#679535;stroke-width:0.15875;stroke-linecap:butt;stroke-linejoin:miter;stroke-dasharray:none;stroke-opacity:1"
           d="m -65.610113,31.711421 0.0438,-0.678963 0.175216,-0.262824 h 0.394236 l 0.0219,0.941787"
           id="path710" /><path
           style="fill:none;fill-rule:evenodd;stroke:#679535;stroke-width:0.15875;stroke-linecap:butt;stroke-linejoin:miter;stroke-dasharray:none;stroke-opacity:1"
           d="m -65.588211,31.295282 0.591355,0.02191"
           id="path711" /><path
           style="fill:none;fill-rule:evenodd;stroke:#679535;stroke-width:0.15875;stroke-linecap:butt;stroke-linejoin:miter;stroke-dasharray:none;stroke-opacity:1"
           d="m -64.27409,31.623812 0.569452,0.02191 0.0219,-0.810374 -0.394236,-0.0438 -0.197118,0.240922 z"
           id="path712" /><path
           style="fill:none;fill-rule:evenodd;stroke:#679535;stroke-width:0.15875;stroke-linecap:butt;stroke-linejoin:miter;stroke-dasharray:none;stroke-opacity:1"
           d="m -63.200892,31.645714 0.613257,0.02191 0.240922,-0.41614 0.0219,-0.284726 -0.262824,-0.153313 h -0.240923 l -0.10951,0.21902 -0.284726,0.02191 z"
           id="path713" /><path
           style="fill:none;fill-rule:evenodd;stroke:#679535;stroke-width:0.15875;stroke-linecap:butt;stroke-linejoin:miter;stroke-dasharray:none;stroke-opacity:1"
           d="m -61.470633,31.842831 -0.416138,-0.0657 -0.0438,-0.372334 0.459942,0.02191 0.197118,-0.153315 -0.0438,-0.43804 -0.459942,-0.0438"
           id="path714" /></g><ellipse
         style="opacity:1;fill:#000000;fill-opacity:1;fill-rule:evenodd;stroke:none;stroke-width:0.269974;stroke-linecap:round;stroke-linejoin:round;stroke-dasharray:none;stroke-opacity:1"
         id="ellipse714"
         cx="-8.1881399"
         cy="89.150757"
         rx="1.6726023"
         ry="1.1460423" /><circle
         style="opacity:1;fill:#dadada;fill-opacity:1;fill-rule:evenodd;stroke:none;stroke-width:0.291042;stroke-linecap:round;stroke-linejoin:round;stroke-dasharray:none;stroke-opacity:1"
         id="circle714"
         cx="-8.8757458"
         cy="88.869789"
         r="0.27876702" /><circle
         style="opacity:1;fill:#dadada;fill-opacity:1;fill-rule:evenodd;stroke:none;stroke-width:0.291042;stroke-linecap:round;stroke-linejoin:round;stroke-dasharray:none;stroke-opacity:1"
         id="circle715"
         cx="-7.4083128"
         cy="88.869789"
         r="0.27876702" /><circle
         style="opacity:1;fill:#dadada;fill-opacity:1;fill-rule:evenodd;stroke:none;stroke-width:0.291042;stroke-linecap:round;stroke-linejoin:round;stroke-dasharray:none;stroke-opacity:1"
         id="circle716"
         cx="-8.1529808"
         cy="89.329735"
         r="0.27876702" /><ellipse
         style="opacity:1;fill:#dadada;fill-opacity:1;fill-rule:evenodd;stroke:none;stroke-width:0.269974;stroke-linecap:round;stroke-linejoin:round;stroke-dasharray:none;stroke-opacity:1"
         id="ellipse716"
         cx="-2.668839"
         cy="89.238365"
         rx="1.6726023"
         ry="1.1460423" /><circle
         style="opacity:1;fill:#000000;fill-opacity:1;fill-rule:evenodd;stroke:none;stroke-width:0.291042;stroke-linecap:round;stroke-linejoin:round;stroke-dasharray:none;stroke-opacity:1"
         id="circle717"
         cx="-3.3783488"
         cy="88.957397"
         r="0.27876702" /><circle
         style="opacity:1;fill:#000000;fill-opacity:1;fill-rule:evenodd;stroke:none;stroke-width:0.291042;stroke-linecap:round;stroke-linejoin:round;stroke-dasharray:none;stroke-opacity:1"
         id="circle718"
         cx="-1.9109154"
         cy="88.957397"
         r="0.27876702" /><circle
         style="opacity:1;fill:#000000;fill-opacity:1;fill-rule:evenodd;stroke:none;stroke-width:0.291042;stroke-linecap:round;stroke-linejoin:round;stroke-dasharray:none;stroke-opacity:1"
         id="circle719"
         cx="-2.6555829"
         cy="89.417343"
         r="0.27876702" /></g></g></svg>
