<?xml version="1.0" encoding="UTF-8" standalone="no"?>
<!-- Created with Inkscape (http://www.inkscape.org/) -->

<svg
   width="21.508635mm"
   height="34.177727mm"
   viewBox="0 0 21.508635 34.177727"
   version="1.1"
   id="svg5"
   xml:space="preserve"
   inkscape:version="1.3 (0e150ed6c4, 2023-07-21)"
   sodipodi:docname="SaynetesFixtures.svg"
   xmlns:inkscape="http://www.inkscape.org/namespaces/inkscape"
   xmlns:sodipodi="http://sodipodi.sourceforge.net/DTD/sodipodi-0.dtd"
   xmlns:xlink="http://www.w3.org/1999/xlink"
   xmlns="http://www.w3.org/2000/svg"
   xmlns:svg="http://www.w3.org/2000/svg"><sodipodi:namedview
     id="namedview7"
     pagecolor="#505050"
     bordercolor="#eeeeee"
     borderopacity="1"
     inkscape:showpageshadow="0"
     inkscape:pageopacity="0"
     inkscape:pagecheckerboard="0"
     inkscape:deskcolor="#505050"
     inkscape:document-units="px"
     showgrid="false"
     inkscape:zoom="0.5338799"
     inkscape:cx="502.9221"
     inkscape:cy="576.90878"
     inkscape:window-width="1280"
     inkscape:window-height="961"
     inkscape:window-x="-8"
     inkscape:window-y="-8"
     inkscape:window-maximized="1"
     inkscape:current-layer="g173" /><defs
     id="defs2"><inkscape:path-effect
       effect="bspline"
       id="path-effect501"
       is_visible="true"
       lpeversion="1.3"
       weight="33.333333"
       steps="2"
       helper_size="0"
       apply_no_weight="true"
       apply_with_weight="true"
       only_selected="false"
       uniform="false" /><inkscape:path-effect
       effect="bspline"
       id="path-effect499"
       is_visible="true"
       lpeversion="1.3"
       weight="33.333333"
       steps="2"
       helper_size="0"
       apply_no_weight="true"
       apply_with_weight="true"
       only_selected="false"
       uniform="false" /><inkscape:path-effect
       effect="bspline"
       id="path-effect497"
       is_visible="true"
       lpeversion="1.3"
       weight="33.333333"
       steps="2"
       helper_size="0"
       apply_no_weight="true"
       apply_with_weight="true"
       only_selected="false"
       uniform="false" /><inkscape:path-effect
       effect="bspline"
       id="path-effect495"
       is_visible="true"
       lpeversion="1.3"
       weight="33.333333"
       steps="2"
       helper_size="0"
       apply_no_weight="true"
       apply_with_weight="true"
       only_selected="false"
       uniform="false" /><linearGradient
       id="linearGradient11"
       inkscape:collect="always"><stop
         style="stop-color:#31383c;stop-opacity:1;"
         offset="0"
         id="stop12" /><stop
         style="stop-color:#5e6667;stop-opacity:1;"
         offset="1"
         id="stop13" /></linearGradient><linearGradient
       id="linearGradient9"
       inkscape:collect="always"><stop
         style="stop-color:#323f42;stop-opacity:1;"
         offset="0"
         id="stop9" /><stop
         style="stop-color:#626a6b;stop-opacity:1;"
         offset="0.5"
         id="stop11" /><stop
         style="stop-color:#293137;stop-opacity:1;"
         offset="1"
         id="stop10" /></linearGradient><linearGradient
       inkscape:collect="always"
       xlink:href="#linearGradient9"
       id="linearGradient501"
       gradientUnits="userSpaceOnUse"
       x1="30.898764"
       y1="164.70915"
       x2="39.686584"
       y2="181.3053" /><linearGradient
       inkscape:collect="always"
       xlink:href="#linearGradient11"
       id="linearGradient502"
       gradientUnits="userSpaceOnUse"
       x1="23.010962"
       y1="166.96333"
       x2="38.69854"
       y2="166.96333" /><linearGradient
       inkscape:collect="always"
       xlink:href="#linearGradient9"
       id="linearGradient503"
       gradientUnits="userSpaceOnUse"
       x1="20.332512"
       y1="168.7585"
       x2="31.358286"
       y2="187.22342" /></defs><g
     inkscape:groupmode="layer"
     id="layer5"
     inkscape:label="Projector"
     transform="translate(-59.658875,-202.86553)"><g
       id="g503"><path
         style="fill:url(#linearGradient501);fill-opacity:1;fill-rule:evenodd;stroke:#000000;stroke-width:0.264583px;stroke-linecap:butt;stroke-linejoin:miter;stroke-opacity:1"
         d="m 31.715732,187.22155 c 0.811085,-0.37542 1.62217,-0.75083 2.519007,-1.24444 0.896838,-0.49361 1.879391,-1.10539 2.170533,-1.5018 0.291142,-0.39641 -0.109114,-0.57742 4.1e-4,-0.97783 0.109524,-0.40041 0.728818,-1.02016 1.492705,-1.71939 0.763887,-0.69922 1.672266,-1.47783 2.107944,-2.06183 0.435677,-0.58399 0.398601,-0.9733 0.315173,-1.83538 -0.08343,-0.86209 -0.213195,-2.19684 -0.454208,-3.40191 -0.241014,-1.20507 -0.593241,-2.28029 -0.991839,-3.27215 -0.398598,-0.99186 -0.84352,-1.90024 -1.427513,-2.69743 -0.583992,-0.7972 -1.306989,-1.48312 -2.002218,-1.99295 -0.695228,-0.50984 -1.36261,-0.84353 -2.317391,-0.86207 -0.954781,-0.0185 -2.19685,0.27807 -2.973795,0.15938 -0.776946,-0.1187 -1.088683,-0.6527 -1.708041,-0.83628 -0.619358,-0.18357 -1.546294,-0.0167 -2.408368,0.20575 -0.862075,0.22247 -1.65924,0.50055 -2.223526,0.75199 -0.564285,0.25143 -0.895656,0.47621 -1.221258,0.70912 -0.325601,0.2329 -0.645392,0.4739 -0.965191,0.7149 3.098344,6.13412 6.196692,12.26825 7.877957,15.57864 1.681264,3.31039 1.945437,3.79703 2.209619,4.28368 z"
         id="path446"
         inkscape:path-effect="#path-effect495"
         inkscape:original-d="m 31.715732,187.22155 c 0,0 1.622171,-0.75083 2.433255,-1.12625 0.982591,-0.6118 1.965143,-1.22358 2.947715,-1.83537 -0.400287,-0.18103 -0.800545,-0.36204 -1.200831,-0.54307 0.619337,-0.61979 1.238631,-1.23954 1.857971,-1.85934 0.908436,-0.77865 1.816815,-1.55726 2.725245,-2.33592 -0.03708,-0.38933 -0.07415,-0.77864 -0.111234,-1.16797 -0.129776,-1.33484 -0.259544,-2.66959 -0.389321,-4.00444 -0.35225,-1.07529 -0.704478,-2.15051 -1.056727,-3.2258 -0.444946,-0.90843 -0.889868,-1.81681 -1.334815,-2.72524 -0.723037,-0.68596 -1.446035,-1.37188 -2.169073,-2.05784 -0.667419,-0.33371 -1.334801,-0.6674 -2.002221,-1.00111 -1.242142,0.29663 -2.484211,0.59324 -3.726354,0.88987 -0.311748,-0.53402 -0.623485,-1.06802 -0.935227,-1.60203 -0.926973,0.16686 -1.853909,0.33371 -2.780862,0.50056 -0.797197,0.27809 -1.594361,0.55617 -2.391542,0.83425 -0.331394,0.22479 -0.662764,0.44957 -0.994158,0.67437 -0.319807,0.24101 -0.959397,0.72301 -0.959397,0.72301 0,0 6.19669,12.26825 9.295031,18.40236 0.264189,0.48667 0.792545,1.45996 0.792545,1.45996 z"
         sodipodi:nodetypes="cccccccccccccccccccc"
         transform="translate(40.661175,48.89118)" /><g
         id="g452"
         transform="translate(66.22394,49.756381)"><path
           style="fill:#0c0c0c;fill-opacity:1;fill-rule:evenodd;stroke:none;stroke-width:0.264583px;stroke-linecap:butt;stroke-linejoin:miter;stroke-opacity:1"
           d="m 6.9521556,173.85951 1.8909863,-1.02892 0.027808,-0.83426 -2.4471587,1.22358 z"
           id="path447" /><path
           style="fill:#0c0c0c;fill-opacity:1;fill-rule:evenodd;stroke:none;stroke-width:0.264583px;stroke-linecap:butt;stroke-linejoin:miter;stroke-opacity:1"
           d="m 5.5617244,172.10756 0.6117897,0.72303 2.8920966,-1.75195 -0.139043,-0.52836 z"
           id="path448" /><path
           style="fill:#0c0c0c;fill-opacity:1;fill-rule:evenodd;stroke:none;stroke-width:0.264583px;stroke-linecap:butt;stroke-linejoin:miter;stroke-opacity:1"
           d="m 4.922126,171.2733 0.3337036,0.44494 3.8653984,-1.6129 -0.055617,-0.52836 z"
           id="path449" /><path
           style="fill:#0c0c0c;fill-opacity:1;fill-rule:evenodd;stroke:none;stroke-width:0.264583px;stroke-linecap:butt;stroke-linejoin:miter;stroke-opacity:1"
           d="m 3.9210157,169.9663 0.4171294,0.58398 3.5873123,-1.33482 -1.9466036,-0.16685 z"
           id="path450"
           sodipodi:nodetypes="ccccc" /><path
           style="fill:#0c0c0c;fill-opacity:1;fill-rule:evenodd;stroke:none;stroke-width:0.264583px;stroke-linecap:butt;stroke-linejoin:miter;stroke-opacity:1"
           d="m 2.5305846,168.13093 0.2780862,0.47275 1.6963261,-0.80645 1.9466033,0.11123 2.8920969,-0.75083 v -0.75084 l -4.8943175,0.72303 z"
           id="path451" /><path
           style="fill:#0c0c0c;fill-opacity:1;fill-rule:evenodd;stroke:none;stroke-width:0.264583px;stroke-linecap:butt;stroke-linejoin:miter;stroke-opacity:1"
           d="m 3.0311399,169.02081 0.5283637,0.63959 2.1690726,-0.94549 3.4482691,-0.0834 -0.083426,-0.91768 -2.8086709,0.66741 -1.6407087,-0.13905 z"
           id="path452" /></g><g
         id="g455"
         transform="translate(66.912515,47.834453)"><path
           style="fill:#000000;fill-opacity:1;fill-rule:evenodd;stroke:none;stroke-width:0.264583px;stroke-linecap:butt;stroke-linejoin:miter;stroke-opacity:1"
           d="m 9.2046538,183.23101 -0.027809,0.47275 1.3070052,-0.61179 0.639599,-0.75084 z"
           id="path453" /><path
           style="fill:#000000;fill-opacity:1;fill-rule:evenodd;stroke:none;stroke-width:0.264583px;stroke-linecap:butt;stroke-linejoin:miter;stroke-opacity:1"
           d="m 9.260271,181.64592 0.083426,0.55617 2.669628,-1.307 1.695849,-1.3547 z"
           id="path454"
           sodipodi:nodetypes="ccccc" /><path
           style="fill:#000000;fill-opacity:1;fill-rule:evenodd;stroke:none;stroke-width:0.264583px;stroke-linecap:butt;stroke-linejoin:miter;stroke-opacity:1"
           d="m 9.0099935,180.36672 0.027809,0.80645 3.5038865,-2.00222 -0.528364,-0.44494 z"
           id="path455" /></g><path
         style="fill:url(#linearGradient502);fill-rule:evenodd;stroke:#000000;stroke-width:0.264583px;stroke-linecap:butt;stroke-linejoin:miter;stroke-opacity:1"
         d="m 33.759666,179.59735 c -0.166851,-0.2132 -0.500555,-0.6396 -0.648867,-1.33483 -0.148312,-0.69522 -0.111235,-1.65923 0.111237,-2.52131 0.222472,-0.86207 0.630327,-1.62216 0.945493,-2.81795 0.315167,-1.19578 0.537632,-2.82719 0.685945,-5.20022 0.148314,-2.37304 0.222469,-5.48754 0.194659,-7.43415 -0.02781,-1.94661 -0.157581,-2.72524 -0.255515,-3.35604 -0.09793,-0.6308 -0.180084,-1.23109 -1.14445,-1.42382 -0.964365,-0.19272 -4.049319,-0.22533 -5.31401,0.0718 -1.26469,0.29708 -1.312243,0.91749 -1.456525,1.75606 -0.144283,0.83857 -0.385286,1.89528 -0.617027,2.90567 -0.231741,1.01039 -0.454205,1.9744 -0.583979,2.80867 -0.129774,0.83426 -0.166851,1.53873 -0.203929,2.24322 -0.426399,0.14831 -0.852796,0.29663 -1.25139,0.46348 -0.398595,0.16685 -0.76937,0.35224 -1.140152,0.53763 0.01854,-0.63033 0.03708,-1.26066 0.139047,-2.15055 0.101967,-0.88988 0.287354,-2.03928 0.444938,-3.23507 0.157584,-1.19578 0.287354,-2.43787 0.39859,-3.3741 0.111235,-0.93623 0.203929,-1.56655 0.407862,-2.02076 0.203932,-0.45421 0.51909,-0.73229 0.852797,-0.94549 0.333706,-0.21321 0.685942,-0.36152 2.410109,-0.42641 1.724167,-0.0649 4.820131,-0.0464 6.609159,0.0834 1.789027,0.12978 2.271029,0.37078 2.567656,0.73229 0.296627,0.36152 0.40786,0.84353 0.491286,2.32668 0.08343,1.48315 0.139043,3.96734 0.19466,5.75637 0.05562,1.78903 0.111234,2.88282 0.166852,4.4772 0.05562,1.59438 0.111234,3.68925 0.250278,5.06115 0.139045,1.3719 0.361511,2.02076 0.472745,2.89211 0.111234,0.87134 0.111234,1.96513 -0.04635,2.70669 -0.157586,0.74157 -0.472742,1.13088 -0.732292,1.32554 -0.25955,0.19466 -0.463475,0.19466 -0.789037,0.0431 -0.325563,-0.15159 -0.772734,-0.45476 -1.214401,-0.4291 -0.441667,0.0257 -0.877763,0.38011 -1.173285,0.55025 -0.295521,0.17015 -0.450387,0.15591 -0.527818,0.1488 -0.07743,-0.007 -0.07743,-0.007 -0.244285,-0.22025 z"
         id="path459"
         inkscape:path-effect="#path-effect497"
         inkscape:original-d="m 33.926518,179.81055 c -0.333703,-0.4264 -0.667407,-0.8528 -1.00111,-1.2792 0.03708,-0.96405 0.07416,-1.92806 0.111234,-2.8921 0.407868,-0.76011 0.815721,-1.5202 1.223581,-2.2803 0.222473,-1.63147 0.444937,-3.26288 0.667407,-4.89432 0.07416,-3.11463 0.148312,-6.22913 0.222469,-9.3437 -0.129778,-0.77865 -0.259548,-1.55728 -0.389321,-2.33592 -0.06609,-0.48296 0.167329,-1.12644 -0.198275,-1.44884 -1.8787,-0.0199 -4.963655,-0.0524 -7.445483,-0.0787 -0.04755,0.62039 -0.09511,1.2408 -0.142657,1.86119 -0.241012,1.05675 -0.482015,2.11346 -0.723024,3.17019 -0.222473,0.96405 -0.444938,1.92806 -0.667407,2.89209 -0.03708,0.7045 -0.111234,2.11346 -0.111234,2.11346 0,0 -0.852798,0.29662 -1.279197,0.44494 -0.370789,0.18539 -1.112345,0.55617 -1.112345,0.55617 0,0 0.03708,-1.26066 0.05562,-1.89099 0.185394,-1.14944 0.370782,-2.29884 0.556173,-3.44827 0.129776,-1.24214 0.259547,-2.48423 0.38932,-3.72635 0.0927,-0.63034 0.185391,-1.26066 0.278087,-1.89099 0.31517,-0.27809 0.630329,-0.55617 0.945493,-0.83426 0.352249,-0.14831 0.704485,-0.29662 1.056727,-0.44494 3.09609,0.0185 6.192054,0.0371 9.288081,0.0556 0.482026,0.24102 0.96403,0.48202 1.446048,0.72303 0.111236,0.48202 0.22247,0.96403 0.333703,1.44604 0.05562,2.48429 0.111234,4.96848 0.166852,7.45272 0.05562,1.09382 0.111233,2.18761 0.166851,3.28141 0.05562,2.09496 0.111234,4.18983 0.166852,6.28475 0.222475,0.64888 0.444939,1.29774 0.667406,1.94661 0,1.09382 0,2.18761 0,3.28141 -0.315169,0.38933 -0.630327,0.77864 -0.945491,1.16796 -0.203936,0 -0.407861,0 -0.611791,0 -0.447196,-0.30318 -0.894365,-0.60635 -1.341561,-0.90953 -0.436143,0.35449 -0.872238,0.70895 -1.308402,1.06347 -0.154879,-0.0142 -0.309739,-0.0285 -0.464603,-0.0427 z"
         sodipodi:nodetypes="cccccccascccccccccccccccccccccccccc"
         transform="translate(40.661175,48.89118)" /><path
         style="fill:url(#linearGradient503);fill-opacity:1;fill-rule:evenodd;stroke:#000000;stroke-width:0.264583px;stroke-linecap:butt;stroke-linejoin:miter;stroke-opacity:1"
         d="m 21.245787,167.38009 c -0.259547,0.26882 -0.511563,0.52984 -0.821226,0.95551 -0.309664,0.42567 -0.6619,1.00037 -0.902909,1.73267 -0.24101,0.7323 -0.370781,1.62216 -0.389319,2.56767 -0.01854,0.9455 0.07416,1.94659 0.241009,2.87355 0.166854,0.92696 0.407857,1.77974 0.760104,2.66036 0.352246,0.88061 0.815715,1.78901 1.260658,2.60474 0.444943,0.81573 0.87133,1.53873 1.381162,2.28031 0.509832,0.74157 1.103067,1.50165 1.761214,2.19688 0.658146,0.69522 1.381154,1.32553 2.020758,1.79828 0.639604,0.47275 1.195766,0.78791 1.798295,0.90842 0.60253,0.1205 1.25138,0.0463 1.779749,-0.0834 0.528369,-0.12978 0.936218,-0.31517 1.242114,-0.46348 0.305895,-0.14831 0.509826,-0.25955 0.667408,-0.59325 0.157583,-0.33371 0.268816,-0.88988 0.352242,-1.4924 0.08343,-0.60253 0.139042,-1.25138 0.15758,-1.97442 0.01854,-0.72303 -10e-7,-1.52019 -0.120508,-2.32665 -0.120507,-0.80646 -0.34297,-1.62216 -0.61179,-2.57693 -0.26882,-0.95478 -0.583977,-2.04856 -1.04746,-3.17019 -0.463482,-1.12162 -1.075259,-2.27102 -1.733404,-3.29068 -0.658144,-1.01966 -1.362616,-1.90952 -2.076378,-2.65109 -0.713762,-0.74157 -1.436773,-1.33481 -2.067107,-1.71486 -0.630333,-0.38005 -1.167957,-0.5469 -1.575822,-0.63959 -0.407864,-0.0927 -0.685941,-0.11123 -0.964027,-0.12976 z"
         id="path460"
         inkscape:path-effect="#path-effect499"
         inkscape:original-d="m 21.245787,167.38009 c 0,0 -0.511562,0.52984 -0.778641,0.80646 -0.35225,0.57472 -0.704485,1.14942 -1.056728,1.72413 -0.129776,0.88989 -0.259547,1.77975 -0.389321,2.66963 0.0927,1.00113 0.185391,2.00222 0.278087,3.00333 0.241012,0.85281 0.482016,1.70559 0.723024,2.55839 0.463486,0.90843 0.926954,1.81683 1.390431,2.72525 0.426407,0.72304 0.852798,1.44604 1.279196,2.16907 0.593263,0.76012 1.186501,1.5202 1.779752,2.28031 0.723039,0.63034 1.446049,1.26065 2.169073,1.89098 0.556183,0.31517 1.112345,0.63033 1.668518,0.9455 0.64888,-0.0742 1.297734,-0.14832 1.946603,-0.22247 0.407869,-0.1854 0.815718,-0.37079 1.223579,-0.55618 0.203933,-0.11123 0.40786,-0.22247 0.611791,-0.3337 0.111236,-0.55618 0.222467,-1.11235 0.333703,-1.66852 0.05562,-0.64888 0.111233,-1.29773 0.166851,-1.9466 -0.01855,-0.7972 -0.03708,-1.59436 -0.05562,-2.39154 -0.222472,-0.81574 -0.444936,-1.63144 -0.667406,-2.44716 -0.315172,-1.09383 -0.63033,-2.18761 -0.945494,-3.28142 -0.611801,-1.14944 -1.223579,-2.29884 -1.835369,-3.44827 -0.704498,-0.88989 -1.40897,-1.77975 -2.113455,-2.66963 -0.723038,-0.59326 -1.446048,-1.1865 -2.169072,-1.77975 -0.537644,-0.16685 -1.075267,-0.3337 -1.6129,-0.50055 -0.278092,-0.0186 -0.834259,-0.0556 -0.834259,-0.0556 z"
         sodipodi:nodetypes="ccccccccccccccccccccccccc"
         transform="translate(40.661175,48.89118)" /><path
         style="fill:#8d9595;fill-opacity:1;fill-rule:evenodd;stroke:none;stroke-width:0.264583px;stroke-linecap:butt;stroke-linejoin:miter;stroke-opacity:1"
         d="m 21.273598,169.68821 c -0.340658,0.29199 -0.435672,0.45421 -0.57935,1.04746 -0.143677,0.59325 -0.241008,1.45532 -0.238689,2.30812 0.0023,0.85281 0.104282,1.69632 0.298945,2.58157 0.194663,0.88525 0.482014,1.81219 0.806452,2.68353 0.324438,0.87135 0.685942,1.68705 1.172598,2.53059 0.486656,0.84353 1.098434,1.71485 1.7195,2.47033 0.621066,0.75547 1.251386,1.39506 1.798292,1.83073 0.546907,0.43567 1.010373,0.6674 1.436775,0.78327 0.426403,0.11587 0.815716,0.11587 1.130883,0.051 0.315168,-0.0649 0.556172,-0.19466 0.746198,-0.42176 0.190027,-0.22711 0.329068,-0.55154 0.426398,-1.01965 0.09733,-0.46812 0.152946,-1.0799 0.162215,-1.74731 0.0093,-0.66742 -0.02781,-1.39043 -0.12514,-2.05321 -0.09733,-0.66278 -0.25491,-1.26528 -0.491287,-2.00686 -0.236378,-0.74157 -0.551537,-1.62216 -0.875973,-2.40544 -0.324436,-0.78328 -0.658135,-1.46922 -1.038189,-2.14126 -0.380054,-0.67205 -0.806444,-1.33017 -1.228213,-1.88635 -0.421769,-0.55618 -0.83889,-1.01038 -1.242119,-1.3997 -0.403228,-0.38933 -0.792538,-0.71375 -1.14015,-0.9594 -0.347612,-0.24564 -0.653502,-0.41249 -0.903781,-0.50982 -0.25028,-0.0973 -0.444936,-0.12512 -0.618731,-0.13439 -0.173796,-0.009 -0.250276,-0.005 -0.563134,0.051 -0.312858,0.0556 -0.312842,0.0556 -0.6535,0.34759 z"
         id="path461"
         inkscape:path-effect="#path-effect501"
         inkscape:original-d="m 21.217978,169.49355 c -0.285038,0.48665 -0.38005,0.64887 -0.570077,0.9733 -0.09733,0.86207 -0.194661,1.72414 -0.29199,2.5862 0.101967,0.84355 0.20393,1.68706 0.305895,2.53059 0.287362,0.92697 0.574711,1.85391 0.862067,2.78086 0.36152,0.81574 0.723024,1.63144 1.084537,2.44716 0.611801,0.87135 1.223579,1.74267 1.835369,2.61401 0.630341,0.63961 1.260657,1.2792 1.890986,1.91879 0.463486,0.23175 0.926954,0.46348 1.39043,0.69522 0.389329,0 0.778642,0 1.167963,0 0.241012,-0.12978 0.482016,-0.25955 0.723025,-0.38932 0.139046,-0.32444 0.278085,-0.64887 0.417129,-0.9733 0.05562,-0.6118 0.111233,-1.22358 0.166851,-1.83537 -0.03708,-0.72304 -0.07416,-1.44605 -0.111233,-2.16907 -0.157586,-0.60254 -0.315167,-1.20504 -0.472747,-1.80756 -0.315172,-0.88063 -0.63033,-1.76122 -0.945494,-2.64182 -0.333711,-0.68596 -0.667406,-1.3719 -1.001109,-2.05784 -0.426408,-0.65815 -0.8528,-1.31627 -1.279198,-1.97441 -0.417138,-0.45422 -0.834259,-0.90842 -1.251388,-1.36263 -0.389328,-0.32444 -0.778641,-0.64886 -1.167962,-0.9733 -0.305901,-0.16685 -0.61179,-0.3337 -0.917685,-0.50055 -0.194664,-0.0278 -0.38932,-0.0556 -0.58398,-0.0834 -0.152947,0.009 -0.229411,0.0139 -0.458843,0.0278 -0.39629,0.0973 -0.396273,0.0973 -0.792546,0.19464 z"
         sodipodi:nodetypes="scccccccccccccccccccccss"
         transform="translate(40.815326,48.899085)" /><g
         id="g462"
         transform="translate(40.817898,48.786623)"><ellipse
           style="fill:#bdc6c6;fill-opacity:1;fill-rule:evenodd;stroke:none;stroke-width:0.653464;stroke-linecap:round;stroke-linejoin:round"
           id="ellipse461"
           cx="-54.540176"
           cy="167.16505"
           rx="0.70802385"
           ry="1.6193297"
           transform="matrix(0.92056457,-0.39059041,0.43209427,0.90182844,0,0)" /><ellipse
           style="fill:#889290;fill-opacity:1;fill-rule:evenodd;stroke:none;stroke-width:0.523785;stroke-linecap:round;stroke-linejoin:round"
           id="ellipse462"
           cx="-54.692253"
           cy="167.1864"
           rx="0.56751823"
           ry="1.2979776"
           transform="matrix(0.92056457,-0.39059041,0.43209427,0.90182844,0,0)" /></g><g
         id="g464"
         transform="translate(42.847928,49.148135)"><ellipse
           style="fill:#bdc6c6;fill-opacity:1;fill-rule:evenodd;stroke:none;stroke-width:0.653464;stroke-linecap:round;stroke-linejoin:round"
           id="ellipse463"
           cx="-54.540176"
           cy="167.16505"
           rx="0.70802385"
           ry="1.6193297"
           transform="matrix(0.92056457,-0.39059041,0.43209427,0.90182844,0,0)" /><ellipse
           style="fill:#889290;fill-opacity:1;fill-rule:evenodd;stroke:none;stroke-width:0.523785;stroke-linecap:round;stroke-linejoin:round"
           id="ellipse464"
           cx="-54.692253"
           cy="167.1864"
           rx="0.56751823"
           ry="1.2979776"
           transform="matrix(0.92056457,-0.39059041,0.43209427,0.90182844,0,0)" /></g><g
         id="g466"
         transform="translate(40.539812,51.845571)"><ellipse
           style="fill:#bdc6c6;fill-opacity:1;fill-rule:evenodd;stroke:none;stroke-width:0.653464;stroke-linecap:round;stroke-linejoin:round"
           id="ellipse465"
           cx="-54.540176"
           cy="167.16505"
           rx="0.70802385"
           ry="1.6193297"
           transform="matrix(0.92056457,-0.39059041,0.43209427,0.90182844,0,0)" /><ellipse
           style="fill:#889290;fill-opacity:1;fill-rule:evenodd;stroke:none;stroke-width:0.523785;stroke-linecap:round;stroke-linejoin:round"
           id="ellipse466"
           cx="-54.692253"
           cy="167.1864"
           rx="0.56751823"
           ry="1.2979776"
           transform="matrix(0.92056457,-0.39059041,0.43209427,0.90182844,0,0)" /></g><g
         id="g468"
         transform="translate(42.486416,52.123657)"><ellipse
           style="fill:#bdc6c6;fill-opacity:1;fill-rule:evenodd;stroke:none;stroke-width:0.653464;stroke-linecap:round;stroke-linejoin:round"
           id="ellipse467"
           cx="-54.540176"
           cy="167.16505"
           rx="0.70802385"
           ry="1.6193297"
           transform="matrix(0.92056457,-0.39059041,0.43209427,0.90182844,0,0)" /><ellipse
           style="fill:#889290;fill-opacity:1;fill-rule:evenodd;stroke:none;stroke-width:0.523785;stroke-linecap:round;stroke-linejoin:round"
           id="ellipse468"
           cx="-54.692253"
           cy="167.1864"
           rx="0.56751823"
           ry="1.2979776"
           transform="matrix(0.92056457,-0.39059041,0.43209427,0.90182844,0,0)" /></g><g
         id="g470"
         transform="translate(44.655488,52.763256)"><ellipse
           style="fill:#bdc6c6;fill-opacity:1;fill-rule:evenodd;stroke:none;stroke-width:0.653464;stroke-linecap:round;stroke-linejoin:round"
           id="ellipse469"
           cx="-54.540176"
           cy="167.16505"
           rx="0.70802385"
           ry="1.6193297"
           transform="matrix(0.92056457,-0.39059041,0.43209427,0.90182844,0,0)" /><ellipse
           style="fill:#889290;fill-opacity:1;fill-rule:evenodd;stroke:none;stroke-width:0.523785;stroke-linecap:round;stroke-linejoin:round"
           id="ellipse470"
           cx="-54.692253"
           cy="167.1864"
           rx="0.56751823"
           ry="1.2979776"
           transform="matrix(0.92056457,-0.39059041,0.43209427,0.90182844,0,0)" /></g><g
         id="g472"
         transform="translate(41.59654,55.432884)"><ellipse
           style="fill:#bdc6c6;fill-opacity:1;fill-rule:evenodd;stroke:none;stroke-width:0.653464;stroke-linecap:round;stroke-linejoin:round"
           id="ellipse471"
           cx="-54.540176"
           cy="167.16505"
           rx="0.70802385"
           ry="1.6193297"
           transform="matrix(0.92056457,-0.39059041,0.43209427,0.90182844,0,0)" /><ellipse
           style="fill:#889290;fill-opacity:1;fill-rule:evenodd;stroke:none;stroke-width:0.523785;stroke-linecap:round;stroke-linejoin:round"
           id="ellipse472"
           cx="-54.692253"
           cy="167.1864"
           rx="0.56751823"
           ry="1.2979776"
           transform="matrix(0.92056457,-0.39059041,0.43209427,0.90182844,0,0)" /></g><g
         id="g474"
         transform="translate(43.626569,55.933439)"><ellipse
           style="fill:#bdc6c6;fill-opacity:1;fill-rule:evenodd;stroke:none;stroke-width:0.653464;stroke-linecap:round;stroke-linejoin:round"
           id="ellipse473"
           cx="-54.540176"
           cy="167.16505"
           rx="0.70802385"
           ry="1.6193297"
           transform="matrix(0.92056457,-0.39059041,0.43209427,0.90182844,0,0)" /><ellipse
           style="fill:#889290;fill-opacity:1;fill-rule:evenodd;stroke:none;stroke-width:0.523785;stroke-linecap:round;stroke-linejoin:round"
           id="ellipse474"
           cx="-54.692253"
           cy="167.1864"
           rx="0.56751823"
           ry="1.2979776"
           transform="matrix(0.92056457,-0.39059041,0.43209427,0.90182844,0,0)" /></g><g
         id="g476"
         transform="translate(45.740024,56.378377)"><ellipse
           style="fill:#bdc6c6;fill-opacity:1;fill-rule:evenodd;stroke:none;stroke-width:0.653464;stroke-linecap:round;stroke-linejoin:round"
           id="ellipse475"
           cx="-54.540176"
           cy="167.16505"
           rx="0.70802385"
           ry="1.6193297"
           transform="matrix(0.92056457,-0.39059041,0.43209427,0.90182844,0,0)" /><ellipse
           style="fill:#889290;fill-opacity:1;fill-rule:evenodd;stroke:none;stroke-width:0.523785;stroke-linecap:round;stroke-linejoin:round"
           id="ellipse476"
           cx="-54.692253"
           cy="167.1864"
           rx="0.56751823"
           ry="1.2979776"
           transform="matrix(0.92056457,-0.39059041,0.43209427,0.90182844,0,0)" /></g><g
         id="g478"
         transform="translate(43.348483,58.714301)"><ellipse
           style="fill:#bdc6c6;fill-opacity:1;fill-rule:evenodd;stroke:none;stroke-width:0.653464;stroke-linecap:round;stroke-linejoin:round"
           id="ellipse477"
           cx="-54.540176"
           cy="167.16505"
           rx="0.70802385"
           ry="1.6193297"
           transform="matrix(0.92056457,-0.39059041,0.43209427,0.90182844,0,0)" /><ellipse
           style="fill:#889290;fill-opacity:1;fill-rule:evenodd;stroke:none;stroke-width:0.523785;stroke-linecap:round;stroke-linejoin:round"
           id="ellipse478"
           cx="-54.692253"
           cy="167.1864"
           rx="0.56751823"
           ry="1.2979776"
           transform="matrix(0.92056457,-0.39059041,0.43209427,0.90182844,0,0)" /></g><g
         id="g480"
         transform="translate(45.517555,59.381708)"><ellipse
           style="fill:#bdc6c6;fill-opacity:1;fill-rule:evenodd;stroke:none;stroke-width:0.653464;stroke-linecap:round;stroke-linejoin:round"
           id="ellipse479"
           cx="-54.540176"
           cy="167.16505"
           rx="0.70802385"
           ry="1.6193297"
           transform="matrix(0.92056457,-0.39059041,0.43209427,0.90182844,0,0)" /><ellipse
           style="fill:#889290;fill-opacity:1;fill-rule:evenodd;stroke:none;stroke-width:0.523785;stroke-linecap:round;stroke-linejoin:round"
           id="ellipse480"
           cx="-54.692253"
           cy="167.1864"
           rx="0.56751823"
           ry="1.2979776"
           transform="matrix(0.92056457,-0.39059041,0.43209427,0.90182844,0,0)" /></g><g
         id="g482"
         transform="translate(47.631011,59.965689)"><ellipse
           style="fill:#bdc6c6;fill-opacity:1;fill-rule:evenodd;stroke:none;stroke-width:0.653464;stroke-linecap:round;stroke-linejoin:round"
           id="ellipse481"
           cx="-54.540176"
           cy="167.16505"
           rx="0.70802385"
           ry="1.6193297"
           transform="matrix(0.92056457,-0.39059041,0.43209427,0.90182844,0,0)" /><ellipse
           style="fill:#889290;fill-opacity:1;fill-rule:evenodd;stroke:none;stroke-width:0.523785;stroke-linecap:round;stroke-linejoin:round"
           id="ellipse482"
           cx="-54.692253"
           cy="167.1864"
           rx="0.56751823"
           ry="1.2979776"
           transform="matrix(0.92056457,-0.39059041,0.43209427,0.90182844,0,0)" /></g><g
         id="g484"
         transform="translate(46.582527,52.959893)"><ellipse
           style="fill:#bdc6c6;fill-opacity:1;fill-rule:evenodd;stroke:none;stroke-width:0.653464;stroke-linecap:round;stroke-linejoin:round"
           id="ellipse483"
           cx="-54.540176"
           cy="167.16505"
           rx="0.70802385"
           ry="1.6193297"
           transform="matrix(0.92056457,-0.39059041,0.43209427,0.90182844,0,0)" /><ellipse
           style="fill:#889290;fill-opacity:1;fill-rule:evenodd;stroke:none;stroke-width:0.523785;stroke-linecap:round;stroke-linejoin:round"
           id="ellipse484"
           cx="-54.692253"
           cy="167.1864"
           rx="0.56751823"
           ry="1.2979776"
           transform="matrix(0.92056457,-0.39059041,0.43209427,0.90182844,0,0)" /></g><g
         id="g486"
         transform="translate(47.745718,56.575014)"><ellipse
           style="fill:#bdc6c6;fill-opacity:1;fill-rule:evenodd;stroke:none;stroke-width:0.653464;stroke-linecap:round;stroke-linejoin:round"
           id="ellipse485"
           cx="-54.540176"
           cy="167.16505"
           rx="0.70802385"
           ry="1.6193297"
           transform="matrix(0.92056457,-0.39059041,0.43209427,0.90182844,0,0)" /><ellipse
           style="fill:#889290;fill-opacity:1;fill-rule:evenodd;stroke:none;stroke-width:0.523785;stroke-linecap:round;stroke-linejoin:round"
           id="ellipse486"
           cx="-54.692253"
           cy="167.1864"
           rx="0.56751823"
           ry="1.2979776"
           transform="matrix(0.92056457,-0.39059041,0.43209427,0.90182844,0,0)" /></g><g
         id="g488"
         transform="matrix(0.75323889,0,0,1,49.934172,49.580736)"><ellipse
           style="fill:#bdc6c6;fill-opacity:1;fill-rule:evenodd;stroke:none;stroke-width:0.653464;stroke-linecap:round;stroke-linejoin:round"
           id="ellipse487"
           cx="-54.540176"
           cy="167.16505"
           rx="0.70802385"
           ry="1.6193297"
           transform="matrix(0.92056457,-0.39059041,0.43209427,0.90182844,0,0)" /><ellipse
           style="fill:#889290;fill-opacity:1;fill-rule:evenodd;stroke:none;stroke-width:0.523785;stroke-linecap:round;stroke-linejoin:round"
           id="ellipse488"
           cx="-54.692253"
           cy="167.1864"
           rx="0.56751823"
           ry="1.2979776"
           transform="matrix(0.92056457,-0.39059041,0.43209427,0.90182844,0,0)" /></g><ellipse
         style="fill:#000000;fill-opacity:1;fill-rule:evenodd;stroke:none;stroke-width:0.356658;stroke-linecap:round;stroke-linejoin:round"
         id="ellipse489"
         cx="76.567032"
         cy="225.66754"
         rx="0.74721926"
         ry="0.51125532" /><ellipse
         style="fill:#000000;fill-opacity:0.633803;fill-rule:evenodd;stroke:none;stroke-width:0.356658;stroke-linecap:round;stroke-linejoin:round"
         id="ellipse490"
         cx="-9.6086721"
         cy="234.6924"
         rx="0.72302419"
         ry="0.38932073"
         transform="rotate(-19.764699)" /><ellipse
         style="fill:#000000;fill-opacity:0.633803;fill-rule:evenodd;stroke:none;stroke-width:0.356658;stroke-linecap:round;stroke-linejoin:round"
         id="ellipse491"
         cx="-189.13742"
         cy="125.31496"
         rx="0.72302419"
         ry="0.38932073"
         transform="rotate(-73.072148)" /><ellipse
         style="fill:#000000;fill-opacity:0.633803;fill-rule:evenodd;stroke:none;stroke-width:0.356658;stroke-linecap:round;stroke-linejoin:round"
         id="ellipse492"
         cx="172.63705"
         cy="173.91641"
         rx="0.72302419"
         ry="0.38932073"
         transform="rotate(27.785696)" /><g
         id="g493"
         transform="translate(66.38125,49.127144)"><path
           style="fill:#000000;fill-opacity:1;fill-rule:evenodd;stroke:none;stroke-width:0.264583px;stroke-linecap:butt;stroke-linejoin:miter;stroke-opacity:1"
           d="m 1.5730932,167.35745 0.176973,0.19664 1.2781382,-0.45226 -0.5309189,-0.11799 z"
           id="path492" /><path
           style="fill:#000000;fill-opacity:1;fill-rule:evenodd;stroke:none;stroke-width:0.264583px;stroke-linecap:butt;stroke-linejoin:miter;stroke-opacity:1"
           d="m 0.80621028,166.86586 0.21630032,0.25563 1.0225106,-0.35395 -0.471928,-0.059 z"
           id="path493" /></g></g></g></svg>
