<?xml version="1.0" encoding="UTF-8" standalone="no"?>
<!-- Created with Inkscape (http://www.inkscape.org/) -->

<svg
   width="36.178944mm"
   height="30.726572mm"
   viewBox="0 0 36.178943 30.726572"
   version="1.1"
   id="svg5"
   xml:space="preserve"
   inkscape:version="1.3 (0e150ed6c4, 2023-07-21)"
   sodipodi:docname="SaynetesFixtures.svg"
   xmlns:inkscape="http://www.inkscape.org/namespaces/inkscape"
   xmlns:sodipodi="http://sodipodi.sourceforge.net/DTD/sodipodi-0.dtd"
   xmlns:xlink="http://www.w3.org/1999/xlink"
   xmlns="http://www.w3.org/2000/svg"
   xmlns:svg="http://www.w3.org/2000/svg"><sodipodi:namedview
     id="namedview7"
     pagecolor="#505050"
     bordercolor="#eeeeee"
     borderopacity="1"
     inkscape:showpageshadow="0"
     inkscape:pageopacity="0"
     inkscape:pagecheckerboard="0"
     inkscape:deskcolor="#505050"
     inkscape:document-units="px"
     showgrid="false"
     inkscape:zoom="0.5338799"
     inkscape:cx="523.52598"
     inkscape:cy="691.16668"
     inkscape:window-width="1280"
     inkscape:window-height="961"
     inkscape:window-x="-8"
     inkscape:window-y="-8"
     inkscape:window-maximized="1"
     inkscape:current-layer="layer5" /><defs
     id="defs2"><inkscape:path-effect
       effect="perspective-envelope"
       up_left_point="11.399388,168.74076"
       up_right_point="19.222226,169.5194"
       down_left_point="11.399388,177.17539"
       down_right_point="19.166608,176.06305"
       id="path-effect38"
       is_visible="true"
       lpeversion="1"
       deform_type="perspective"
       horizontal_mirror="false"
       vertical_mirror="false"
       overflow_perspective="false" /><linearGradient
       id="linearGradient61"
       inkscape:collect="always"><stop
         style="stop-color:#5e6667;stop-opacity:1;"
         offset="0"
         id="stop61" /><stop
         style="stop-color:#31383c;stop-opacity:1;"
         offset="1"
         id="stop60" /></linearGradient><linearGradient
       id="linearGradient11"
       inkscape:collect="always"><stop
         style="stop-color:#31383c;stop-opacity:1;"
         offset="0"
         id="stop12" /><stop
         style="stop-color:#5e6667;stop-opacity:1;"
         offset="1"
         id="stop13" /></linearGradient><linearGradient
       id="linearGradient9"
       inkscape:collect="always"><stop
         style="stop-color:#323f42;stop-opacity:1;"
         offset="0"
         id="stop9" /><stop
         style="stop-color:#626a6b;stop-opacity:1;"
         offset="0.5"
         id="stop11" /><stop
         style="stop-color:#293137;stop-opacity:1;"
         offset="1"
         id="stop10" /></linearGradient><linearGradient
       inkscape:collect="always"
       xlink:href="#linearGradient9"
       id="linearGradient38"
       gradientUnits="userSpaceOnUse"
       gradientTransform="translate(124.41048,-8.46981)"
       x1="3.0442989"
       y1="139.25931"
       x2="9.143837"
       y2="154.36099" /><linearGradient
       inkscape:collect="always"
       xlink:href="#linearGradient11"
       id="linearGradient39"
       gradientUnits="userSpaceOnUse"
       gradientTransform="translate(124.41048,-8.46981)"
       x1="-0.26440275"
       y1="139.28838"
       x2="11.991067"
       y2="139.28838" /><linearGradient
       inkscape:collect="always"
       xlink:href="#linearGradient11"
       id="linearGradient40"
       gradientUnits="userSpaceOnUse"
       gradientTransform="translate(124.41048,-8.46981)"
       x1="-8.5556889"
       y1="150.02419"
       x2="2.0003819"
       y2="150.02419" /><linearGradient
       inkscape:collect="always"
       xlink:href="#linearGradient61"
       id="linearGradient41"
       gradientUnits="userSpaceOnUse"
       gradientTransform="translate(7.2302419,-7.8420316)"
       x1="4.0368543"
       y1="180.80009"
       x2="12.736064"
       y2="180.80009" /></defs><g
     inkscape:groupmode="layer"
     id="layer5"
     inkscape:label="Projector"
     transform="translate(-99.500495,-82.779822)"><g
       id="g45"
       transform="translate(-16.354334,-38.655699)"><path
         style="fill:#3c4141;fill-opacity:1;fill-rule:evenodd;stroke:none;stroke-width:0.264583px;stroke-linecap:butt;stroke-linejoin:miter;stroke-opacity:1"
         d="m 120.63907,132.45736 2.22469,-0.50056 3.5595,8.73191 0.83427,6.84092 -1.44605,0.9455 -2.22469,-9.17685 -1.89099,-5.1724 z"
         id="path16" /><path
         style="fill:url(#linearGradient38);fill-rule:evenodd;stroke:#000000;stroke-width:0.264583px;stroke-linecap:butt;stroke-linejoin:miter;stroke-opacity:1"
         d="m 126.41877,148.72938 c 0.44427,0.3417 1.19753,0.0138 1.65175,-0.31462 0.21875,-0.15815 0.16707,-0.5606 0.39327,-0.70789 0.48536,-0.31604 1.18294,0.0317 1.7304,-0.15731 0.50181,-0.17327 13.26557,-3.73852 13.60288,-4.14846 0.26913,-0.32708 0.15752,-0.896 0.47193,-1.17982 0.70842,-0.63948 1.86882,-0.42714 2.75291,-0.78655 0.71722,-0.29157 1.43624,-0.62284 2.04503,-1.10116 0.55472,-0.43585 1.01848,-0.99015 1.41578,-1.5731 0.3962,-0.58133 0.69978,-1.2279 0.94386,-1.88771 0.22503,-0.60831 0.44394,-1.23971 0.47192,-1.88771 0.0286,-0.66318 -0.1567,-1.32163 -0.31461,-1.96637 -0.17752,-0.72476 -0.38396,-1.45147 -0.7079,-2.12367 -0.2715,-0.5634 -0.60842,-1.10441 -1.02251,-1.57309 -0.4312,-0.48805 -0.966,-0.87785 -1.49444,-1.25848 -0.44877,-0.32325 -0.90797,-0.64606 -1.41578,-0.8652 -0.54893,-0.23689 -1.13279,-0.45437 -1.7304,-0.47193 -0.50885,-0.0149 -0.9918,0.23398 -1.49444,0.31462 -0.70326,0.11282 -1.4171,0.14626 -2.12368,0.23596 -0.55174,0.0701 -1.09884,0.29616 -1.65174,0.23597 -0.44539,-0.0485 -0.81069,-0.45775 -1.25848,-0.47193 -0.63001,-0.02 -13.50108,3.57278 -14.07481,3.83384 -0.22513,0.10244 -0.38529,0.35243 -0.62923,0.39328 -0.345,0.0578 -0.67297,-0.24927 -1.02251,-0.23597 -0.43918,0.0167 -0.8343,0.27824 -1.25848,0.39328 -0.3376,0.0916 -0.94054,-0.10409 -1.02251,0.23596 -0.15262,0.63311 1.08737,0.75012 1.49444,1.25847 0.46178,0.57667 0.68688,1.30823 1.02251,1.96637 0.3196,0.62672 0.68078,1.23524 0.94386,1.88771 0.3287,0.81522 0.54555,1.67164 0.78654,2.51695 0.23013,0.80723 0.4319,1.62243 0.62924,2.4383 0.19589,0.80987 0.43074,1.61373 0.55058,2.43829 0.11338,0.7801 0.10301,1.57322 0.15731,2.35964 0.0507,0.73423 -0.42607,1.75363 0.15731,2.20233 z"
         id="path17"
         sodipodi:nodetypes="ssssssssssssssssssssssssssssssssss" /><path
         style="fill:url(#linearGradient40);fill-rule:evenodd;stroke:#000000;stroke-width:0.264583px;stroke-linecap:butt;stroke-linejoin:miter;stroke-opacity:1"
         d="m 126.27807,148.67472 -0.0556,1.72414 H 126 l -0.0556,1.55728 -4.56061,-2.16907 -1.66852,-2.72525 -1.89098,-6.22913 -1.83537,-7.11901 0.27809,-2.61401 4.44937,0.72303 1.16796,1.05673 1.2792,2.78086 z"
         id="path19" /><path
         style="fill:#8d9595;fill-opacity:1;fill-rule:evenodd;stroke:#000000;stroke-width:0.264583px;stroke-linecap:butt;stroke-linejoin:miter;stroke-opacity:1"
         d="m 117.37931,133.54683 3.39265,0.55617 0.55617,2.50278 1.00111,0.27809 2.50278,10.17795 -0.9455,-0.27808 0.44494,2.33592 -3.17018,-1.22358 -0.61179,-2.44716 -0.88988,-0.3337 -2.33592,-9.3437 h 0.72303 z"
         id="path20" /><path
         style="fill:none;fill-rule:evenodd;stroke:#000000;stroke-width:0.264583px;stroke-linecap:butt;stroke-linejoin:miter;stroke-opacity:1"
         d="m 128.6211,147.58889 c 0,0 0.16379,-0.94046 0.19664,-1.41579 0.066,-0.95469 0.0801,-1.91729 0,-2.87089 -0.0724,-0.86117 -0.24818,-1.71198 -0.4326,-2.55628 -0.19407,-0.88851 -0.43747,-1.76661 -0.70789,-2.63493 -0.31438,-1.00948 -0.63382,-2.02209 -1.06184,-2.98888 -0.4155,-0.93851 -0.91453,-1.84111 -1.45511,-2.71358 -0.26246,-0.4236 -0.86521,-1.21915 -0.86521,-1.21915"
         id="path21"
         sodipodi:nodetypes="cssssssc" /><path
         style="fill:none;fill-rule:evenodd;stroke:#000000;stroke-width:0.264583px;stroke-linecap:butt;stroke-linejoin:miter;stroke-opacity:1"
         d="m 129.87958,147.54956 c 0,0 0.3259,-0.50829 0.48272,-0.82587 0.17316,-0.35066 0.34489,-0.72223 0.39918,-1.10953 0.0874,-0.62369 0.10019,-1.26012 0.0477,-1.88771 -0.058,-0.69434 -0.15956,-1.54601 -0.29588,-2.2293 -0.16699,-0.83711 -0.29954,-1.56207 -0.51573,-2.36364 -0.21619,-0.80157 -0.49131,-1.63796 -0.78655,-2.43829 -0.29524,-0.80033 -0.63831,-1.6522 -0.98318,-2.35964 -0.34487,-0.70744 -0.6864,-1.27105 -1.06184,-1.88771 -0.28551,-0.46895 -0.55105,-0.95637 -0.90453,-1.37646 -0.18511,-0.21999 -0.62924,-0.58991 -0.62924,-0.58991"
         id="path22"
         sodipodi:nodetypes="csssszzzssc" /><path
         style="fill:none;fill-rule:evenodd;stroke:#000000;stroke-width:0.264583px;stroke-linecap:butt;stroke-linejoin:miter;stroke-opacity:1"
         d="m 144.30688,142.10707 0.11799,-1.2978 -0.0787,-1.73041 -0.31462,-2.24165 -0.74722,-2.67426 -0.82587,-2.28099 -1.17982,-2.35964 -1.02251,-1.45511 -0.47193,-0.58991"
         id="path23" /><g
         id="g43"
         transform="translate(4.4888245,-1.2802275)"><path
           style="fill:url(#linearGradient39);fill-rule:evenodd;stroke:#000000;stroke-width:0.264583px;stroke-linecap:butt;stroke-linejoin:miter;stroke-opacity:1"
           d="m 125.47491,130.52082 -1.17982,-6.72497 2.20234,-0.94385 6.52833,0.94385 0.62924,0.62924 2.5956,13.29264 -2.5956,1.02251 -2.5956,-13.05668 -0.94386,-0.94385 -2.75291,-0.31462 -0.23597,0.23596 0.9369,5.21318 -0.47704,0.12136 c -0.53884,0.16042 -0.98315,0.31415 -1.40371,0.40525 -0.20996,0.0455 -0.53586,0.11877 -0.7079,0.11998 z"
           id="path18"
           sodipodi:nodetypes="cccccccccccccsc" /><path
           id="path24"
           style="fill:url(#linearGradient41);fill-opacity:1;fill-rule:evenodd;stroke:#000000;stroke-width:0.264583px;stroke-linecap:butt;stroke-linejoin:miter;stroke-opacity:1"
           d="m 15.79611,169.17838 c -0.555495,-0.0553 -1.010427,0.40366 -1.273664,0.97016 -0.148849,0.32034 -0.171779,0.87115 -0.149503,1.39544 -0.579347,-0.0344 -1.212528,-0.0269 -1.603026,0.10785 -0.72215,0.24976 -1.370529,0.71652 -1.370529,1.31427 0,0.59697 0.757115,1.0494 1.366701,1.25028 0.41473,0.13668 1.037025,0.11866 1.598018,0.0566 -0.02563,0.52194 -0.0063,1.06711 0.139657,1.37746 0.257576,0.54748 0.705535,0.97935 1.257141,0.90036 0.532279,-0.0762 0.961566,-0.6838 1.170236,-1.16511 0.144927,-0.33427 0.168683,-0.82973 0.148652,-1.2899 0.453936,-0.007 0.924443,-0.0579 1.221196,-0.21385 0.412105,-0.21677 0.889467,-0.62464 0.893404,-1.08785 0.0039,-0.46367 -0.396201,-0.83355 -0.877287,-1.05126 -0.276534,-0.12514 -0.753417,-0.15288 -1.221833,-0.14268 0.02577,-0.46392 0.0081,-0.96231 -0.133411,-1.2934 -0.204227,-0.47787 -0.629874,-1.07501 -1.165752,-1.12835 z m 0.03464,3.65882 0.0011,0.0825 -0.08552,2.8e-4 0.0017,-0.0791 z"
           inkscape:path-effect="#path-effect38"
           inkscape:original-d="m 15.604816,168.74076 c -0.597364,0 -1.068921,0.55389 -1.334803,1.19579 -0.148557,0.35865 -0.169719,0.95886 -0.145727,1.52911 -0.570245,-0.024 -1.170457,-0.002 -1.529106,0.14624 -0.641899,0.26588 -1.195792,0.73744 -1.195792,1.3348 0,0.59736 0.650383,1.09115 1.195792,1.33481 0.38277,0.171 0.975237,0.1954 1.529106,0.16794 -0.02406,0.57056 -0.0029,1.17128 0.145727,1.53014 0.265882,0.6419 0.737439,1.1958 1.334803,1.1958 0.597363,0 1.091142,-0.65039 1.334802,-1.1958 0.171114,-0.38302 0.196005,-0.97595 0.168465,-1.53014 0.554188,0.0275 1.147112,0.003 1.530139,-0.16794 0.54541,-0.24366 1.195793,-0.73745 1.195793,-1.33481 0,-0.59736 -0.553893,-1.06892 -1.195793,-1.3348 -0.358864,-0.14865 -0.959587,-0.1703 -1.530139,-0.14624 0.02745,-0.55387 0.0025,-1.14634 -0.168465,-1.52911 -0.24366,-0.54541 -0.737439,-1.19579 -1.334802,-1.19579 z m 0.05736,4.17029 0.0016,0.0946 -0.09405,-0.002 0.0015,-0.0904 z"
           transform="matrix(1.0479562,0,0,1.0479562,118.86033,-42.970082)" /></g></g></g></svg>
