<?xml version="1.0" encoding="UTF-8" standalone="no"?>
<!-- Created with Inkscape (http://www.inkscape.org/) -->

<svg
   width="46.74144mm"
   height="54.550968mm"
   viewBox="0 0 46.741441 54.550969"
   version="1.1"
   id="svg5"
   xml:space="preserve"
   inkscape:version="1.3 (0e150ed6c4, 2023-07-21)"
   sodipodi:docname="21_Fan.svg"
   xmlns:inkscape="http://www.inkscape.org/namespaces/inkscape"
   xmlns:sodipodi="http://sodipodi.sourceforge.net/DTD/sodipodi-0.dtd"
   xmlns:xlink="http://www.w3.org/1999/xlink"
   xmlns="http://www.w3.org/2000/svg"
   xmlns:svg="http://www.w3.org/2000/svg"><sodipodi:namedview
     id="namedview7"
     pagecolor="#505050"
     bordercolor="#eeeeee"
     borderopacity="1"
     inkscape:showpageshadow="0"
     inkscape:pageopacity="0"
     inkscape:pagecheckerboard="0"
     inkscape:deskcolor="#505050"
     inkscape:document-units="px"
     showgrid="false"
     inkscape:zoom="0.7550202"
     inkscape:cx="231.11965"
     inkscape:cy="-46.356376"
     inkscape:window-width="1280"
     inkscape:window-height="961"
     inkscape:window-x="-8"
     inkscape:window-y="-8"
     inkscape:window-maximized="1"
     inkscape:current-layer="layer5" /><defs
     id="defs2"><inkscape:path-effect
       effect="perspective-envelope"
       up_left_point="246.43032,167.84168"
       up_right_point="266.19855,167.77973"
       down_left_point="246.43032,189.902"
       down_right_point="266.13659,188.47719"
       id="path-effect21"
       is_visible="true"
       lpeversion="1"
       deform_type="perspective"
       horizontal_mirror="false"
       vertical_mirror="false"
       overflow_perspective="false" /><linearGradient
       id="linearGradient17"
       inkscape:collect="always"><stop
         style="stop-color:#5c5c5c;stop-opacity:1;"
         offset="0"
         id="stop17" /><stop
         style="stop-color:#bdc1c1;stop-opacity:1;"
         offset="1"
         id="stop16" /></linearGradient><linearGradient
       id="linearGradient231"
       inkscape:collect="always"><stop
         style="stop-color:#bdc1c1;stop-opacity:1;"
         offset="0"
         id="stop231" /><stop
         style="stop-color:#697477;stop-opacity:1;"
         offset="1"
         id="stop230" /></linearGradient><linearGradient
       id="linearGradient228"
       inkscape:collect="always"><stop
         style="stop-color:#697477;stop-opacity:1;"
         offset="0"
         id="stop227" /><stop
         style="stop-color:#bdc1c1;stop-opacity:1;"
         offset="1"
         id="stop228" /></linearGradient><linearGradient
       inkscape:collect="always"
       xlink:href="#linearGradient228"
       id="linearGradient14"
       x1="224.51907"
       y1="180.28802"
       x2="257.56876"
       y2="180.28802"
       gradientUnits="userSpaceOnUse" /><radialGradient
       inkscape:collect="always"
       xlink:href="#linearGradient17"
       id="radialGradient20"
       cx="299.70917"
       cy="185.06667"
       fx="299.70917"
       fy="185.06667"
       r="15.338596"
       gradientTransform="matrix(0.72536741,0,0,0.72536741,40.061214,44.630472)"
       gradientUnits="userSpaceOnUse" /><linearGradient
       inkscape:collect="always"
       xlink:href="#linearGradient231"
       id="linearGradient22"
       x1="227.02322"
       y1="203.79178"
       x2="271.2605"
       y2="203.79178"
       gradientUnits="userSpaceOnUse" /><linearGradient
       inkscape:collect="always"
       xlink:href="#linearGradient231"
       id="linearGradient26"
       x1="284.9845"
       y1="186.12015"
       x2="289.97461"
       y2="186.12015"
       gradientUnits="userSpaceOnUse" /><linearGradient
       inkscape:collect="always"
       xlink:href="#linearGradient228"
       id="linearGradient28"
       x1="283.87262"
       y1="186.46777"
       x2="288.08255"
       y2="186.46777"
       gradientUnits="userSpaceOnUse" /></defs><g
     inkscape:groupmode="layer"
     id="layer5"
     inkscape:label="Projector"
     transform="translate(-224.51907,-163.40289)"><g
       id="g29"
       transform="matrix(-1,0,0,1,495.77958,0)"><path
         style="fill:url(#linearGradient14);fill-rule:evenodd;stroke:#252525;stroke-width:0.264583px;stroke-linecap:butt;stroke-linejoin:miter;stroke-opacity:1"
         d="m 253.91753,163.87182 -24.88068,4.81845 c 0,0 -2.59536,3.3166 -3.32911,5.25648 -0.78471,2.07461 -1.00003,4.35314 -1.05129,6.5706 -0.0421,1.82158 0.17858,3.66224 0.61325,5.4317 0.46315,1.88543 1.10836,3.76411 2.10259,5.4317 1.19871,2.01055 4.55562,5.34409 4.55562,5.34409 l 25.49394,-1.92738 z"
         id="path13"
         sodipodi:nodetypes="ccssssccc" /><path
         style="fill:url(#linearGradient22);fill-rule:evenodd;stroke:#252525;stroke-width:0.264583px;stroke-linecap:butt;stroke-linejoin:miter;stroke-opacity:1"
         d="m 235.41952,184.39183 9.04338,27.40358 c 0,0 0.27008,1.27534 0.24779,1.92039 -0.0182,0.52615 -0.0168,1.11128 -0.30974,1.54871 -0.12429,0.18559 -0.33972,0.32227 -0.55754,0.37169 -0.14239,0.0323 -0.43363,-0.0619 -0.43363,-0.0619 0,0 -9.88753,-6.40312 -14.06225,-9.91172 -0.17026,-0.14309 -0.2478,-0.61948 -0.2478,-0.61948 l 16.41629,-6.19483 c 0,0 0.77008,-0.33757 1.17701,-0.43363 0.36397,-0.0859 0.74126,-0.11254 1.11507,-0.1239 0.41331,-0.0126 0.82679,0.0287 1.23896,0.0619 0.37278,0.03 0.74981,0.0437 1.11508,0.12389 0.25511,0.056 0.74337,0.2478 0.74337,0.2478 l 15.42511,7.55768 c 0,0 0.90443,0.19264 1.36287,0.18585 0.50236,-0.007 1.02799,-0.043 1.48675,-0.2478 0.48293,-0.21563 0.92083,-0.56867 1.23897,-0.99117 0.32296,-0.42889 0.50225,-0.96283 0.61948,-1.48676 0.0993,-0.44378 0.1096,-0.9106 0.062,-1.36286 -0.0514,-0.48814 -0.37169,-1.42481 -0.37169,-1.42481 l -5.07976,-11.08873 -1.42481,1.5487 4.77002,10.28341 c 0,0 0.13248,0.74119 0.12389,1.11507 -0.009,0.3971 -0.0372,0.8087 -0.18584,1.17702 -0.0944,0.23373 -0.2275,0.47443 -0.43364,0.61948 -0.19255,0.13549 -0.44599,0.18585 -0.68143,0.18585 -0.23544,0 -0.68143,-0.18585 -0.68143,-0.18585 l -14.74368,-7.0621 c 0,0 -0.64239,-0.37395 -0.99117,-0.49559 -0.37858,-0.13203 -0.77984,-0.19302 -1.17702,-0.24779 -0.61504,-0.0848 -1.23784,-0.14184 -1.85844,-0.1239 -0.66565,0.0192 -1.32577,0.13663 -1.98235,0.2478 -0.2915,0.0494 -0.86727,0.18584 -0.86727,0.18584 l -16.35434,5.57534 c 0,0 -0.83809,0.51708 -1.17701,0.86728 -0.27883,0.28811 -0.54151,0.61544 -0.68143,0.99117 -0.13051,0.35047 -0.18204,0.74564 -0.1239,1.11507 0.0704,0.44737 0.28877,0.87445 0.55753,1.23896 0.27783,0.37681 1.05312,0.92923 1.05312,0.92923 l 13.31887,9.54003 c 0,0 0.6333,0.38916 0.99118,0.43363 0.49858,0.0619 1.02484,-0.0501 1.48675,-0.24779 0.37969,-0.16247 0.71017,-0.44072 0.99117,-0.74338 0.41702,-0.44917 0.77112,-0.97666 0.99118,-1.5487 0.22548,-0.58615 0.29396,-1.23062 0.30974,-1.85845 0.0136,-0.54027 -0.0788,-1.08091 -0.18585,-1.61065 -0.10222,-0.50601 -0.43363,-1.48676 -0.43363,-1.48676 l -8.67169,-26.41241 z"
         id="path21"
         sodipodi:nodetypes="ccssscsccssssccsssssccccssssccssssccssssccssssssccc" /><path
         style="fill:#010000;fill-opacity:1;fill-rule:evenodd;stroke:#acd3f9;stroke-width:0.264583px;stroke-linecap:butt;stroke-linejoin:miter;stroke-opacity:1"
         d="m 259.08268,194.94548 c 6.38945,-0.60973 10.39707,-9.08695 9.54003,-16.72602 -0.90032,-8.02483 -6.82774,-15.45632 -13.38082,-14.61978 -6.21245,0.79305 -9.48849,10.37759 -8.79665,16.60213 0.71503,6.43324 6.19386,15.35856 12.63744,14.74367 z"
         id="path14"
         sodipodi:nodetypes="sssss" /><path
         id="path15"
         style="fill:url(#radialGradient20);fill-rule:evenodd;stroke:#828282;stroke-width:0.19192px;stroke-linecap:butt;stroke-linejoin:miter;stroke-opacity:1"
         d="m 256.79053,167.80921 c -1.13088,0.004 -3.15967,1.42012 -3.15967,1.42012 l 1.77293,7.89654 -7.60724,-1.94807 c 0,0 -1.36623,2.27342 -1.36623,3.53369 0,1.2598 1.36479,3.42838 1.36479,3.42838 l 7.5006,-2.27136 -2.01137,8.13532 c 0,0 2.02358,1.2563 3.15324,1.17462 1.12147,-0.0811 3.09431,-1.59825 3.09431,-1.59825 l -1.71756,-7.70585 7.13172,1.77618 c 0,0 1.21743,-2.15587 1.22097,-3.33773 0.004,-1.18229 -1.20246,-3.2481 -1.20246,-3.2481 l -7.04317,2.08935 1.96111,-7.9726 c 0,0 -1.96933,-1.37576 -3.09197,-1.37224 z"
         inkscape:path-effect="#path-effect21"
         inkscape:original-d="m 257.63928,167.84168 c -1.25999,0 -3.4958,1.43828 -3.4958,1.43828 l 1.96606,8.12549 -8.24132,-2.20821 c 0,0 -1.4379,2.23583 -1.4379,3.4958 0,1.25998 1.4379,3.4958 1.4379,3.4958 l 8.12549,-1.96606 -2.2082,8.24132 c 0,0 2.23581,1.4379 3.49579,1.4379 1.25998,0 3.4958,-1.4379 3.4958,-1.4379 l -1.96568,-8.12549 8.24132,2.2082 c 0,0 1.43789,-2.23582 1.43789,-3.4958 0,-1.25998 -1.43789,-3.49579 -1.43789,-3.49579 l -8.12587,1.96606 2.20821,-8.24132 c 0,0 -2.23583,-1.43828 -3.4958,-1.43828 z"
         transform="translate(1.2389647,0.61948234)" /><path
         style="fill:none;fill-rule:evenodd;stroke:#acd3f9;stroke-width:0.264583px;stroke-linecap:butt;stroke-linejoin:miter;stroke-opacity:1"
         d="m 259.08268,194.94548 c 6.38945,-0.60973 10.39707,-9.08695 9.54003,-16.72602 -0.90032,-8.02483 -6.82774,-15.45632 -13.38082,-14.61978 -6.21245,0.79305 -9.48849,10.37759 -8.79665,16.60213 0.71503,6.43324 6.19386,15.35856 12.63744,14.74367 z"
         id="path1"
         sodipodi:nodetypes="sssss" /><g
         id="g12"
         style="stroke:#acd3f9;stroke-opacity:1"><path
           style="fill:none;fill-rule:evenodd;stroke:#acd3f9;stroke-width:0.234392px;stroke-linecap:butt;stroke-linejoin:miter;stroke-opacity:1"
           d="m 258.77418,193.10573 c 5.69577,-0.53679 9.26828,-7.99998 8.5043,-14.72525 -0.80258,-7.06491 -6.08647,-13.60746 -11.9281,-12.87098 -5.53798,0.69818 -8.45834,9.13622 -7.84164,14.61619 0.63742,5.6637 5.52142,13.52139 11.26544,12.98004 z"
           id="path2"
           sodipodi:nodetypes="sssss" /><path
           style="fill:none;fill-rule:evenodd;stroke:#acd3f9;stroke-width:0.214115px;stroke-linecap:butt;stroke-linejoin:miter;stroke-opacity:1"
           d="m 258.60303,191.63159 c 5.24181,-0.48672 8.52959,-7.25386 7.8265,-13.35189 -0.73862,-6.40601 -5.60136,-12.33835 -10.9774,-11.67057 -5.0966,0.63306 -7.78419,8.28413 -7.21664,13.25301 0.58661,5.13548 5.08133,12.26032 10.36754,11.76945 z"
           id="path3"
           sodipodi:nodetypes="sssss" /><path
           style="fill:none;fill-rule:evenodd;stroke:#acd3f9;stroke-width:0.193446px;stroke-linecap:butt;stroke-linejoin:miter;stroke-opacity:1"
           d="m 258.5388,190.5291 c 4.71722,-0.44146 7.67597,-6.57947 7.04324,-12.11057 -0.6647,-5.81044 -5.04078,-11.19125 -9.87881,-10.58555 -4.58654,0.5742 -7.00516,7.51395 -6.49441,12.02088 0.52791,4.65803 4.57281,11.12047 9.32998,10.67524 z"
           id="path4"
           sodipodi:nodetypes="sssss" /><path
           style="fill:none;fill-rule:evenodd;stroke:#acd3f9;stroke-width:0.172254px;stroke-linecap:butt;stroke-linejoin:miter;stroke-opacity:1"
           d="m 258.47461,189.1792 c 4.19278,-0.39382 6.82258,-5.86942 6.2602,-10.80362 -0.5908,-5.18338 -4.48037,-9.98349 -8.78054,-9.44317 -4.07663,0.51223 -6.22635,6.70305 -5.77239,10.7236 0.46922,4.15534 4.06444,9.92037 8.29273,9.52319 z"
           id="path5"
           sodipodi:nodetypes="sssss" /><path
           style="fill:none;fill-rule:evenodd;stroke:#acd3f9;stroke-width:0.151781px;stroke-linecap:butt;stroke-linejoin:miter;stroke-opacity:1"
           d="m 258.35692,187.95283 c 3.70351,-0.34616 6.02642,-5.15915 5.52966,-9.49628 -0.52185,-4.55614 -3.95752,-8.77538 -7.75588,-8.30046 -3.60091,0.45025 -5.49978,5.89193 -5.09879,9.42595 0.41447,3.65251 3.59014,8.71992 7.32501,8.37079 z"
           id="path6"
           sodipodi:nodetypes="sssss" /><path
           style="fill:none;fill-rule:evenodd;stroke:#acd3f9;stroke-width:0.132019px;stroke-linecap:butt;stroke-linejoin:miter;stroke-opacity:1"
           d="m 258.30964,186.7261 c 3.2494,-0.29848 5.28748,-4.44868 4.85163,-8.18855 -0.45786,-3.92873 -3.47226,-7.56694 -6.80488,-7.15742 -3.15937,0.38826 -4.82541,5.08056 -4.4736,8.12792 0.36365,3.14953 3.14995,7.51911 6.42685,7.21805 z"
           id="path7"
           sodipodi:nodetypes="sssss" /><path
           style="fill:none;fill-rule:evenodd;stroke:#acd3f9;stroke-width:0.11233px;stroke-linecap:butt;stroke-linejoin:miter;stroke-opacity:1"
           d="m 258.25385,185.68501 c 2.75989,-0.25441 4.49095,-3.79192 4.12075,-6.97966 -0.38888,-3.34873 -2.94918,-6.44982 -5.77976,-6.10076 -2.68344,0.33093 -4.09849,4.33051 -3.79968,6.92798 0.30887,2.68456 2.67543,6.40905 5.45869,6.15244 z"
           id="path8"
           sodipodi:nodetypes="sssss" /><path
           style="fill:none;fill-rule:evenodd;stroke:#acd3f9;stroke-width:0.0922829px;stroke-linecap:butt;stroke-linejoin:miter;stroke-opacity:1"
           d="m 258.16285,184.5202 c 2.2528,-0.21034 3.66581,-3.13526 3.36363,-5.77095 -0.31743,-2.76883 -2.40731,-5.33289 -4.71783,-5.04427 -2.1904,0.27362 -3.34546,3.58057 -3.10156,5.72823 0.25213,2.21966 2.18387,5.29916 4.45576,5.08699 z"
           id="path9"
           sodipodi:nodetypes="sssss" /><path
           style="fill:none;fill-rule:evenodd;stroke:#acd3f9;stroke-width:0.0720695px;stroke-linecap:butt;stroke-linejoin:miter;stroke-opacity:1"
           d="m 258.10709,183.35559 c 1.76345,-0.16388 2.86953,-2.44283 2.63298,-4.49643 -0.24847,-2.15733 -1.88439,-4.15512 -3.69302,-3.93023 -1.71461,0.21318 -2.61877,2.78979 -2.42785,4.46315 0.19736,1.72944 1.7095,4.12882 3.48789,3.96351 z"
           id="path10"
           sodipodi:nodetypes="sssss" /><path
           style="fill:none;fill-rule:evenodd;stroke:#acd3f9;stroke-width:0.0524743px;stroke-linecap:butt;stroke-linejoin:miter;stroke-opacity:1"
           d="m 258.0865,182.19061 c 1.29162,-0.11862 2.10174,-1.76813 1.92848,-3.25454 -0.18198,-1.56147 -1.38018,-3.00749 -2.70488,-2.84472 -1.25583,0.15431 -1.91808,2.01927 -1.77824,3.23045 0.14456,1.25177 1.2521,2.98846 2.55464,2.86881 z"
           id="path11"
           sodipodi:nodetypes="sssss" /><path
           style="fill:#07090b;fill-opacity:1;fill-rule:evenodd;stroke:#acd3f9;stroke-width:0.037809px;stroke-linecap:butt;stroke-linejoin:miter;stroke-opacity:1"
           d="m 257.97571,181.27049 c 0.95983,-0.083 1.56185,-1.23524 1.4331,-2.27367 -0.13524,-1.09087 -1.02565,-2.10108 -2.01005,-1.98736 -0.93323,0.1078 -1.42537,1.41069 -1.32145,2.25683 0.10742,0.87451 0.93045,2.08779 1.8984,2.0042 z"
           id="path12"
           sodipodi:nodetypes="sssss" /></g><path
         style="fill:#a5abac;fill-opacity:1;fill-rule:evenodd;stroke:none;stroke-width:0.264583px;stroke-linecap:butt;stroke-linejoin:miter;stroke-opacity:1"
         d="m 240.28139,198.64689 0.82081,2.50891 1.78102,-0.77436 -0.85179,-2.60182 z"
         id="path23" /><g
         id="g28"
         transform="matrix(1.281123,0,0,1.1323003,-131.99212,-25.780298)"><path
           style="fill:url(#linearGradient26);fill-rule:evenodd;stroke:#000000;stroke-width:0.264583px;stroke-linecap:butt;stroke-linejoin:miter;stroke-opacity:1"
           d="m 289.39282,187.40749 c 0,0 0.3927,-0.36617 0.43804,-0.61325 0.0518,-0.28216 -0.0919,-0.57512 -0.21902,-0.83228 -0.0738,-0.14924 -0.17484,-0.29252 -0.30663,-0.39424 -0.088,-0.0679 -0.22034,-0.0613 -0.30663,-0.13141 -0.13831,-0.11241 -0.17736,-0.31534 -0.30663,-0.43804 -0.19982,-0.18966 -0.43942,-0.35115 -0.70086,-0.43804 -0.16685,-0.0554 -0.52565,-0.0438 -0.52565,-0.0438 l -2.234,0.39423 2.32161,2.80346 z"
           id="path25"
           sodipodi:nodetypes="csssssscccc" /><path
           style="fill:url(#linearGradient28);fill-rule:evenodd;stroke:#000000;stroke-width:0.264583px;stroke-linecap:butt;stroke-linejoin:miter;stroke-opacity:1"
           d="m 287.20262,187.75792 c -0.31391,0.0955 -0.59234,0.33093 -0.91989,0.35044 -0.30048,0.0179 -0.61656,-0.0665 -0.87607,-0.21902 -0.27609,-0.16225 -0.41054,-0.49649 -0.65707,-0.70087 -0.14656,-0.1215 -0.35656,-0.16328 -0.48184,-0.30663 -0.13757,-0.15741 -0.21798,-0.36526 -0.26283,-0.56945 -0.047,-0.21392 -0.0635,-0.44744 0,-0.65706 0.0458,-0.15116 0.12848,-0.31121 0.26283,-0.39424 0.10014,-0.0619 0.23892,-0.006 0.35043,-0.0438 0.19215,-0.065 0.33486,-0.23772 0.52565,-0.30663 0.16707,-0.0603 0.34802,-0.0889 0.52565,-0.0876 0.16324,0.001 0.33327,0.0199 0.48184,0.0876 0.17018,0.0775 0.43804,0.35043 0.43804,0.35043 0,0 0.20442,0.17522 0.30663,0.26283 0.10221,0.0876 0.18807,0.19906 0.30663,0.26282 0.0936,0.0503 0.22192,0.0234 0.30663,0.0876 0.1776,0.13465 0.27072,0.36131 0.35043,0.56945 0.0584,0.15245 0.0929,0.31869 0.0876,0.48185 -0.008,0.24068 -0.003,0.53214 -0.17522,0.70086 -0.13899,0.13649 -0.38307,0.0747 -0.56944,0.13142 z"
           id="path24"
           sodipodi:nodetypes="sssssssssssscsssssss" /></g></g></g></svg>
