<?xml version="1.0" encoding="UTF-8" standalone="no"?>
<!-- Created with Inkscape (http://www.inkscape.org/) -->

<svg
   width="26.440971mm"
   height="31.445988mm"
   viewBox="0 0 26.440972 31.445988"
   version="1.1"
   id="svg5"
   xml:space="preserve"
   inkscape:version="1.3 (0e150ed6c4, 2023-07-21)"
   sodipodi:docname="23_ParSmall.svg"
   xmlns:inkscape="http://www.inkscape.org/namespaces/inkscape"
   xmlns:sodipodi="http://sodipodi.sourceforge.net/DTD/sodipodi-0.dtd"
   xmlns:xlink="http://www.w3.org/1999/xlink"
   xmlns="http://www.w3.org/2000/svg"
   xmlns:svg="http://www.w3.org/2000/svg"><sodipodi:namedview
     id="namedview7"
     pagecolor="#505050"
     bordercolor="#eeeeee"
     borderopacity="1"
     inkscape:showpageshadow="0"
     inkscape:pageopacity="0"
     inkscape:pagecheckerboard="0"
     inkscape:deskcolor="#505050"
     inkscape:document-units="px"
     showgrid="false"
     inkscape:zoom="2.1355196"
     inkscape:cx="3.5120258"
     inkscape:cy="50.104902"
     inkscape:window-width="1280"
     inkscape:window-height="961"
     inkscape:window-x="-8"
     inkscape:window-y="-8"
     inkscape:window-maximized="1"
     inkscape:current-layer="layer5" /><defs
     id="defs2"><linearGradient
       id="linearGradient8"
       inkscape:collect="always"><stop
         style="stop-color:#8d9595;stop-opacity:1;"
         offset="0"
         id="stop8" /><stop
         style="stop-color:#797979;stop-opacity:1;"
         offset="1"
         id="stop14" /></linearGradient><linearGradient
       id="linearGradient7"
       inkscape:collect="always"><stop
         style="stop-color:#979b9b;stop-opacity:1;"
         offset="0.56532067"
         id="stop5" /><stop
         style="stop-color:#757878;stop-opacity:1;"
         offset="1"
         id="stop7" /></linearGradient><linearGradient
       inkscape:collect="always"
       xlink:href="#linearGradient7"
       id="linearGradient5"
       x1="96.828651"
       y1="230.46333"
       x2="109.29069"
       y2="223.98033"
       gradientUnits="userSpaceOnUse" /><linearGradient
       inkscape:collect="always"
       xlink:href="#linearGradient8"
       id="linearGradient14"
       x1="96.385017"
       y1="224.60944"
       x2="122.73206"
       y2="224.60944"
       gradientUnits="userSpaceOnUse" /><linearGradient
       inkscape:collect="always"
       xlink:href="#linearGradient7"
       id="linearGradient17"
       x1="138.84288"
       y1="211.36443"
       x2="156.25084"
       y2="211.36443"
       gradientUnits="userSpaceOnUse"
       gradientTransform="translate(-33.421072,0.96019761)" /><inkscape:path-effect
       effect="perspective-envelope"
       up_left_point="11.399388,168.74076"
       up_right_point="19.222226,169.5194"
       down_left_point="11.399388,177.17539"
       down_right_point="19.166608,176.06305"
       id="path-effect184"
       is_visible="true"
       lpeversion="1"
       deform_type="perspective"
       horizontal_mirror="false"
       vertical_mirror="false"
       overflow_perspective="false" /><linearGradient
       inkscape:collect="always"
       xlink:href="#linearGradient7"
       id="linearGradient184"
       gradientUnits="userSpaceOnUse"
       gradientTransform="translate(7.2302419,-7.8420316)"
       x1="4.0368543"
       y1="180.80009"
       x2="12.736064"
       y2="180.80009" /></defs><g
     inkscape:groupmode="layer"
     id="layer5"
     inkscape:label="Projector"
     transform="translate(-96.369271,-203.33961)"><path
       style="fill:url(#linearGradient14);fill-rule:evenodd;stroke:#000000;stroke-width:0.264583px;stroke-linecap:butt;stroke-linejoin:miter;stroke-opacity:1"
       d="m 122.41243,224.7952 c 0,0 0.33639,0.38624 0.2478,0.61949 -0.0722,0.19012 -0.68143,0.24779 -0.68143,0.24779 l -0.37169,0.68143 -4.77002,2.23014 -6.31872,3.15936 -4.46027,1.79649 c 0,0 -1.32268,0.55019 -2.00596,0.76153 -0.47935,0.14825 -0.96213,0.38074 -1.46314,0.35354 -0.54786,-0.0297 -1.05873,-0.31062 -1.5487,-0.55753 -0.46542,-0.23453 -0.91326,-0.51894 -1.300919,-0.86728 -0.599804,-0.53897 -1.099517,-1.18875 -1.548706,-1.85844 -0.442513,-0.65974 -0.845201,-1.35908 -1.115068,-2.10624 -0.308176,-0.85322 -0.489186,-1.75919 -0.557533,-2.66378 -0.05609,-0.74241 0.04632,-1.48643 0.201331,-2.21464 0.09661,-0.45387 0.09972,-0.77007 0.37169,-1.14605 0.249499,-0.34492 1.037633,-0.97568 1.037633,-0.97568 l 1.36286,-0.80533 2.663772,-1.30091 0.92923,-0.30974 2.91156,-1.36287 7.00015,-2.84961 2.41598,-1.05312 1.05313,0.18584 1.36286,0.61948 1.79649,0.68143 0.68143,0.68143 0.49559,0.49559 c 0,0 0.52562,0.009 0.68143,0.18584 0.2899,0.32839 0.18585,1.30092 0.18585,1.30092 l 0.30974,0.92922 0.24779,1.48676 0.37169,2.35403 z"
       id="path2"
       sodipodi:nodetypes="cscccccsssssssssccccccccccccsccccc" /><path
       style="fill:url(#linearGradient5);fill-rule:evenodd;stroke:#000000;stroke-width:0.264583px;stroke-linecap:butt;stroke-linejoin:miter;stroke-opacity:1"
       d="m 103.5492,219.62253 0.86727,0.12389 c 0,0 0.52178,0.0313 0.77436,0.0929 0.25712,0.0627 0.50148,0.17143 0.74338,0.27876 0.32923,0.14608 0.65193,0.3093 0.96019,0.49559 0.32359,0.19556 0.63047,0.41874 0.92923,0.65046 0.30087,0.23335 0.57495,0.4994 0.86727,0.74337 0.16342,0.13638 0.49559,0.40267 0.49559,0.40267 l 0.37169,0.99117 c 0,0 0.38516,1.02781 0.55753,1.5487 0.14571,0.44033 0.30246,0.87903 0.40266,1.33189 0.0946,0.4277 0.14933,0.8644 0.18585,1.30091 0.0344,0.41168 0.0396,0.82594 0.031,1.23897 -0.01,0.46554 -0.0563,0.92963 -0.0929,1.39384 -0.0269,0.34106 -0.0929,1.02214 -0.0929,1.02214 l -0.031,0.49559 -6.22359,2.85558 c 0,0 -1.17765,0.0908 -1.67481,0.056 -0.54128,-0.0379 -1.03483,-0.34104 -1.51773,-0.5885 -0.47149,-0.24161 -0.93734,-0.51371 -1.331884,-0.86728 -0.606456,-0.54348 -1.093251,-1.21435 -1.548707,-1.88942 -0.421223,-0.62433 -0.828934,-1.27374 -1.084093,-1.98234 -0.313512,-0.87065 -0.550788,-1.78742 -0.619482,-2.71024 -0.05447,-0.73168 0.03044,-1.49759 0.185842,-2.21465 0.09908,-0.4572 0.163169,-0.94615 0.449126,-1.31639 0.369834,-0.47884 1.53322,-1.06862 1.53322,-1.06862 l 2.075268,-1.11506 1.45578,-0.68143 0.65046,-0.21682 z"
       id="path3"
       sodipodi:nodetypes="ccsssssccssssscccssssssssccccc" /><path
       style="fill:#8d9595;fill-opacity:1;fill-rule:evenodd;stroke:#000000;stroke-width:0.264583px;stroke-linecap:butt;stroke-linejoin:miter;stroke-opacity:1"
       d="m 101.03177,222.626 c -0.37215,-0.16415 -0.73258,-0.2014 -1.132491,-0.27565 -0.186627,-0.0346 -0.591507,0.0615 -0.770784,0.12389 -0.422135,0.14687 -0.833049,0.65242 -1.090016,1.01813 -0.261734,0.37248 -0.488785,0.81337 -0.585166,1.29331 -0.0924,0.46011 -0.176373,1.22102 -0.16679,1.69021 0.01113,0.54505 0.20529,1.33062 0.328532,1.86167 0.11482,0.49476 0.357219,1.0279 0.569452,1.48934 0.249034,0.54145 0.638379,1.17521 0.961032,1.67629 0.278474,0.43247 0.751699,0.85612 1.097751,1.23668 0.32073,0.35271 0.80421,0.55163 1.20461,0.81037 0.3675,0.23748 0.6875,0.21326 1.09511,0.37234 0.32702,0.12762 0.65952,0.0605 1.01014,0.0777 0.22309,0.0109 0.71014,-0.16874 0.9126,-0.26305 0.25424,-0.11847 0.52976,-0.43123 0.69579,-0.65729 0.16693,-0.22728 0.25984,-0.43911 0.31922,-0.7148 0.0892,-0.41396 0.11411,-0.68759 0.15973,-1.15283 0.0499,-0.50944 0.0149,-0.75189 -0.067,-1.6776 -0.0447,-0.50489 -0.1585,-1.14978 -0.31945,-1.63138 -0.19633,-0.58749 -0.46135,-1.23671 -0.77299,-1.81146 -0.2413,-0.44502 -0.53103,-0.94091 -0.83228,-1.34775 -0.33932,-0.45825 -0.75541,-0.97073 -1.3274,-1.37607 -0.39959,-0.28317 -0.84148,-0.54437 -1.28957,-0.74201 z"
       id="path1"
       sodipodi:nodetypes="ssssssssssssssssssssssss" /><path
       style="fill:none;fill-rule:evenodd;stroke:#000000;stroke-width:0.264583px;stroke-linecap:butt;stroke-linejoin:miter;stroke-opacity:1"
       d="m 121.8549,219.40571 -10.96484,5.20365 c 0,0 -0.25239,0.22096 -0.30974,0.37169 -0.10761,0.28282 -0.10554,0.49539 -0.0951,0.79781 0.0174,0.50518 0.0959,1.1279 0.21902,1.61817 0.0924,0.36821 0.26685,0.71209 0.43364,1.05312 0.0731,0.14955 0.42301,0.34603 0.42301,0.34603 l 10.94449,-5.02313 -0.15487,-1.73454 -0.2478,-1.51773 z"
       id="path4"
       sodipodi:nodetypes="ccssssccccc" /><path
       style="fill:none;fill-rule:evenodd;stroke:#000000;stroke-width:0.264583px;stroke-linecap:butt;stroke-linejoin:miter;stroke-opacity:1"
       d="m 103.94473,224.89895 c 0,0 0.56374,-0.46814 0.87609,-0.65706 0.5812,-0.35152 1.83976,-0.87608 1.83976,-0.87608 l 2.93487,-1.31412 3.94236,-1.70836 7.00865,-3.24149"
       id="path5"
       sodipodi:nodetypes="cscccc" /><path
       style="fill:#8d9595;fill-opacity:1;fill-rule:evenodd;stroke:#1d1d1d;stroke-width:0.19851px;stroke-linecap:butt;stroke-linejoin:miter;stroke-opacity:1"
       d="m 101.11455,224.09895 c -0.27922,-0.12315 -0.54964,-0.1511 -0.84968,-0.20681 -0.14002,-0.026 -0.443792,0.0461 -0.578299,0.093 -0.316716,0.11019 -0.625014,0.48949 -0.81781,0.76388 -0.196372,0.27946 -0.366722,0.61025 -0.439034,0.97033 -0.06933,0.34521 -0.132328,0.9161 -0.125138,1.26812 0.0084,0.40894 0.154023,0.99833 0.246489,1.39676 0.08615,0.37121 0.268012,0.77121 0.427244,1.11742 0.186844,0.40623 0.478959,0.88172 0.721037,1.25767 0.208931,0.32447 0.563981,0.64232 0.823611,0.92785 0.24064,0.26463 0.60338,0.41387 0.90379,0.608 0.27573,0.17817 0.51582,0.16 0.82163,0.27935 0.24536,0.0957 0.49482,0.0454 0.75789,0.0583 0.16737,0.008 0.53279,-0.1266 0.68469,-0.19736 0.19075,-0.0889 0.39747,-0.32354 0.52204,-0.49315 0.12524,-0.17052 0.19495,-0.32945 0.2395,-0.53629 0.0669,-0.31058 0.0856,-0.51588 0.11984,-0.86494 0.0374,-0.38222 0.0112,-0.56412 -0.0503,-1.25866 -0.0335,-0.3788 -0.11892,-0.86265 -0.23967,-1.22398 -0.1473,-0.44078 -0.34614,-0.92787 -0.57996,-1.35909 -0.18104,-0.33388 -0.39841,-0.70594 -0.62443,-1.01118 -0.25459,-0.34381 -0.56677,-0.72831 -0.99592,-1.03243 -0.2998,-0.21245 -0.63134,-0.40842 -0.96753,-0.55671 z"
       id="path14"
       sodipodi:nodetypes="ssssssssssssssssssssssss" /><g
       id="g16"
       transform="matrix(1.256205,0,0,1.256205,-69.178128,-55.652716)"
       style="stroke-width:0.168497;stroke-dasharray:none"><path
         style="fill:#bdc6c6;fill-opacity:1;fill-rule:evenodd;stroke:#3d3d3d;stroke-width:0.168497;stroke-linecap:butt;stroke-linejoin:miter;stroke-dasharray:none;stroke-opacity:1"
         d="m 135.13319,224.63613 c -0.18262,0.0986 -0.32041,0.28789 -0.39423,0.48184 -0.0624,0.1639 -0.0307,0.3505 -0.0219,0.52565 0.0103,0.20623 0.0278,0.41562 0.0876,0.61325 0.0539,0.17815 0.12284,0.37798 0.20996,0.54247 0.0949,0.17926 0.2012,0.33678 0.33759,0.48693 0.15122,0.16647 0.33791,0.31279 0.54755,0.39423 0.11649,0.0453 0.24742,0.0474 0.37234,0.0438 0.12598,-0.004 0.28818,-0.0539 0.39556,-0.1199 0.12441,-0.0764 0.17889,-0.16343 0.2396,-0.29623 0.0714,-0.15628 0.10531,-0.33196 0.10951,-0.50375 0.005,-0.22197 -0.0178,-0.43193 -0.0631,-0.64932 -0.049,-0.23576 -0.15028,-0.44022 -0.2604,-0.6544 -0.0876,-0.17044 -0.19252,-0.36256 -0.33361,-0.49224 -0.13872,-0.1275 -0.2889,-0.24954 -0.45995,-0.32853 -0.10931,-0.0505 -0.18386,-0.0947 -0.30397,-0.10309 -0.13914,-0.01 -0.33986,-0.007 -0.4626,0.0593 z"
         id="path15"
         sodipodi:nodetypes="sssssssssssssssss" /></g><path
       style="fill:url(#linearGradient17);fill-rule:evenodd;stroke:#000000;stroke-width:0.264583px;stroke-linecap:butt;stroke-linejoin:miter;stroke-opacity:1"
       d="m 105.61067,218.63149 3.50432,-13.40403 c 0,0 0.43965,-0.83637 0.78847,-1.1389 0.24665,-0.21392 0.57179,-0.31968 0.87608,-0.43804 0.19814,-0.0771 0.61326,-0.17522 0.61326,-0.17522 l 8.7608,1.92738 c 0,0 0.81296,0.48714 1.0513,0.87608 0.34424,0.56176 0.43804,1.92738 0.43804,1.92738 l -0.43804,2.01498 -3.59193,14.63054 -0.43804,1.05129 -0.87608,0.35044 -1.1389,-0.26283 -0.70087,-0.61325 0.0876,-1.40173 0.26282,-1.13891 3.59193,-14.63053 c 0,0 0.19204,-0.94537 0.0876,-1.40173 -0.1196,-0.52258 -0.78847,-1.40173 -0.78847,-1.40173 l -1.92738,-0.61326 c 0,0 -1.37273,-0.2863 -2.01499,-0.0876 -0.41847,0.12946 -1.05129,0.78848 -1.05129,0.78848 l -0.78847,2.62824 -2.59727,9.01831 z"
       id="path16"
       sodipodi:nodetypes="ccssccsccccccccccsccscccc" /><path
       id="path183"
       style="fill:url(#linearGradient184);fill-rule:evenodd;stroke:#000000;stroke-width:0.264583px;stroke-linecap:butt;stroke-linejoin:miter;stroke-opacity:1"
       d="m 15.79611,169.17838 c -0.555495,-0.0553 -1.010427,0.40366 -1.273664,0.97016 -0.148849,0.32034 -0.171779,0.87115 -0.149503,1.39544 -0.579347,-0.0344 -1.212528,-0.0269 -1.603026,0.10785 -0.72215,0.24976 -1.370529,0.71652 -1.370529,1.31427 0,0.59697 0.757115,1.0494 1.366701,1.25028 0.41473,0.13668 1.037025,0.11866 1.598018,0.0566 -0.02563,0.52194 -0.0063,1.06711 0.139657,1.37746 0.257576,0.54748 0.705535,0.97935 1.257141,0.90036 0.532279,-0.0762 0.961566,-0.6838 1.170236,-1.16511 0.144927,-0.33427 0.168683,-0.82973 0.148652,-1.2899 0.453936,-0.007 0.924443,-0.0579 1.221196,-0.21385 0.412105,-0.21677 0.889467,-0.62464 0.893404,-1.08785 0.0039,-0.46367 -0.396201,-0.83355 -0.877287,-1.05126 -0.276534,-0.12514 -0.753417,-0.15288 -1.221833,-0.14268 0.02577,-0.46392 0.0081,-0.96231 -0.133411,-1.2934 -0.204227,-0.47787 -0.629874,-1.07501 -1.165752,-1.12835 z m 0.03464,3.65882 0.0011,0.0825 -0.08552,2.8e-4 0.0017,-0.0791 z"
       inkscape:path-effect="#path-effect184"
       inkscape:original-d="m 15.604816,168.74076 c -0.597364,0 -1.068921,0.55389 -1.334803,1.19579 -0.148557,0.35865 -0.169719,0.95886 -0.145727,1.52911 -0.570245,-0.024 -1.170457,-0.002 -1.529106,0.14624 -0.641899,0.26588 -1.195792,0.73744 -1.195792,1.3348 0,0.59736 0.650383,1.09115 1.195792,1.33481 0.38277,0.171 0.975237,0.1954 1.529106,0.16794 -0.02406,0.57056 -0.0029,1.17128 0.145727,1.53014 0.265882,0.6419 0.737439,1.1958 1.334803,1.1958 0.597363,0 1.091142,-0.65039 1.334802,-1.1958 0.171114,-0.38302 0.196005,-0.97595 0.168465,-1.53014 0.554188,0.0275 1.147112,0.003 1.530139,-0.16794 0.54541,-0.24366 1.195793,-0.73745 1.195793,-1.33481 0,-0.59736 -0.553893,-1.06892 -1.195793,-1.3348 -0.358864,-0.14865 -0.959587,-0.1703 -1.530139,-0.14624 0.02745,-0.55387 0.0025,-1.14634 -0.168465,-1.52911 -0.24366,-0.54541 -0.737439,-1.19579 -1.334802,-1.19579 z m 0.05736,4.17029 0.0016,0.0946 -0.09405,-0.002 0.0015,-0.0904 z"
       transform="matrix(0.69715265,0.35127918,-0.35127918,0.69715265,165.76541,98.710689)" /></g></svg>
