<?xml version="1.0" encoding="UTF-8" standalone="no"?>
<!-- Created with Inkscape (http://www.inkscape.org/) -->

<svg
   width="27.373356mm"
   height="31.607336mm"
   viewBox="0 0 27.373356 31.607337"
   version="1.1"
   id="svg5"
   xml:space="preserve"
   inkscape:version="1.3 (0e150ed6c4, 2023-07-21)"
   sodipodi:docname="24_Flower01.svg"
   xmlns:inkscape="http://www.inkscape.org/namespaces/inkscape"
   xmlns:sodipodi="http://sodipodi.sourceforge.net/DTD/sodipodi-0.dtd"
   xmlns:xlink="http://www.w3.org/1999/xlink"
   xmlns="http://www.w3.org/2000/svg"
   xmlns:svg="http://www.w3.org/2000/svg"><sodipodi:namedview
     id="namedview7"
     pagecolor="#505050"
     bordercolor="#eeeeee"
     borderopacity="1"
     inkscape:showpageshadow="0"
     inkscape:pageopacity="0"
     inkscape:pagecheckerboard="0"
     inkscape:deskcolor="#505050"
     inkscape:document-units="px"
     showgrid="false"
     inkscape:zoom="1.5100404"
     inkscape:cx="-6.6223394"
     inkscape:cy="86.090412"
     inkscape:window-width="1280"
     inkscape:window-height="961"
     inkscape:window-x="-8"
     inkscape:window-y="-8"
     inkscape:window-maximized="1"
     inkscape:current-layer="layer5" /><defs
     id="defs2"><linearGradient
       id="linearGradient8"
       inkscape:collect="always"><stop
         style="stop-color:#8d9595;stop-opacity:1;"
         offset="0"
         id="stop8" /><stop
         style="stop-color:#797979;stop-opacity:1;"
         offset="1"
         id="stop14" /></linearGradient><linearGradient
       id="linearGradient7"
       inkscape:collect="always"><stop
         style="stop-color:#979b9b;stop-opacity:1;"
         offset="0.56532067"
         id="stop5" /><stop
         style="stop-color:#757878;stop-opacity:1;"
         offset="1"
         id="stop7" /></linearGradient><linearGradient
       inkscape:collect="always"
       xlink:href="#linearGradient8"
       id="linearGradient19"
       x1="64.850876"
       y1="233.28325"
       x2="74.432838"
       y2="233.28325"
       gradientUnits="userSpaceOnUse" /><linearGradient
       inkscape:collect="always"
       xlink:href="#linearGradient7"
       id="linearGradient21"
       x1="68.287178"
       y1="222.94247"
       x2="74.293312"
       y2="222.94247"
       gradientUnits="userSpaceOnUse" /><linearGradient
       inkscape:collect="always"
       xlink:href="#linearGradient8"
       id="linearGradient23"
       x1="64.650352"
       y1="213.86378"
       x2="74.601479"
       y2="213.86378"
       gradientUnits="userSpaceOnUse" /><radialGradient
       inkscape:collect="always"
       xlink:href="#linearGradient7"
       id="radialGradient25"
       cx="58.859009"
       cy="223.28442"
       fx="58.859009"
       fy="223.28442"
       r="9.9524202"
       gradientTransform="matrix(1,0,0,1.2336243,0,-52.164668)"
       gradientUnits="userSpaceOnUse" /><linearGradient
       id="linearGradient233"
       inkscape:collect="always"><stop
         style="stop-color:#697477;stop-opacity:1;"
         offset="0"
         id="stop233" /><stop
         style="stop-color:#bdc1c1;stop-opacity:1;"
         offset="1"
         id="stop232" /></linearGradient><linearGradient
       inkscape:collect="always"
       xlink:href="#linearGradient233"
       id="linearGradient38"
       x1="20.193201"
       y1="217.19463"
       x2="42.272865"
       y2="217.19463"
       gradientUnits="userSpaceOnUse"
       gradientTransform="translate(31.345807,-1.7345506)" /></defs><g
     inkscape:groupmode="layer"
     id="layer5"
     inkscape:label="Projector"
     transform="translate(-48.282697,-205.49891)"><g
       id="g1"
       transform="rotate(-11.758644,61.629041,223.28899)"><path
         style="fill:url(#radialGradient25);fill-rule:evenodd;stroke:#000000;stroke-width:0.264583px;stroke-linecap:butt;stroke-linejoin:miter;stroke-opacity:1"
         d="m 49.04082,231.40216 2.911565,3.84079 13.194975,0.18585 3.53105,-4.27443 -0.247793,-16.23044 -3.716893,-3.77884 -13.009132,1.36286 -1.982343,3.15936 z"
         id="path17" /><path
         style="fill:url(#linearGradient19);fill-rule:evenodd;stroke:#000000;stroke-width:0.264583px;stroke-linecap:butt;stroke-linejoin:miter;stroke-opacity:1"
         d="m 70.853431,234.8566 -5.694522,0.56945 3.548126,-4.27089 5.346518,0.0181 z"
         id="path18"
         sodipodi:nodetypes="ccccc" /><path
         style="fill:url(#linearGradient21);fill-rule:evenodd;stroke:#000000;stroke-width:0.264583px;stroke-linecap:butt;stroke-linejoin:miter;stroke-opacity:1"
         d="m 68.685133,231.15516 -0.262824,-16.3827 5.694521,1.62075 0.0438,14.71815 z"
         id="path19" /><path
         style="fill:url(#linearGradient23);fill-rule:evenodd;stroke:#000000;stroke-width:0.264583px;stroke-linecap:butt;stroke-linejoin:miter;stroke-opacity:1"
         d="m 73.928523,216.19387 -3.019977,-3.09741 -6.16385,-1.98235 3.592999,3.65495 z"
         id="path21"
         sodipodi:nodetypes="ccccc" /><g
         id="g33"
         transform="translate(29.699124,1.6645527)"><path
           style="fill:#7ea8a4;fill-opacity:1;fill-rule:evenodd;stroke:#000000;stroke-width:0.264583px;stroke-linecap:butt;stroke-linejoin:miter;stroke-opacity:1"
           d="m 34.43039,212.01281 2.628242,2.54063 -3.591931,4.3804 -2.365415,-2.45302 z"
           id="path26" /><path
           style="fill:#7ea8a4;fill-opacity:1;fill-rule:evenodd;stroke:#000000;stroke-width:0.264583px;stroke-linecap:butt;stroke-linejoin:miter;stroke-opacity:1"
           d="m 33.466701,219.5471 4.90605,-0.26283 2e-6,3.76715 -5.081267,0.17521 z"
           id="path27"
           sodipodi:nodetypes="ccccc" /><path
           style="fill:#7ea8a4;fill-opacity:1;fill-rule:evenodd;stroke:#000000;stroke-width:0.264583px;stroke-linecap:butt;stroke-linejoin:miter;stroke-opacity:1"
           d="m 33.028662,224.01511 -2.102593,2.62824 3.59193,4.02997 2.453024,-2.62824 z"
           id="path28" /><path
           style="fill:#7ea8a4;fill-opacity:1;fill-rule:evenodd;stroke:#000000;stroke-width:0.264583px;stroke-linecap:butt;stroke-linejoin:miter;stroke-opacity:1"
           d="m 27.246532,226.99378 3.06628,0.17522 0.175218,5.78213 -3.241498,-0.0876 z"
           id="path29" /><path
           style="fill:#7ea8a4;fill-opacity:1;fill-rule:evenodd;stroke:#000000;stroke-width:0.264583px;stroke-linecap:butt;stroke-linejoin:miter;stroke-opacity:1"
           d="m 23.74221,230.84853 -2.409219,-2.40922 3.110085,-3.89856 2.365415,2.19021 z"
           id="path30"
           sodipodi:nodetypes="ccccc" /><path
           style="fill:#7ea8a4;fill-opacity:1;fill-rule:evenodd;stroke:#000000;stroke-width:0.264583px;stroke-linecap:butt;stroke-linejoin:miter;stroke-opacity:1"
           d="m 20.15028,223.83989 4.029972,-0.0876 0.08761,-3.59193 h -4.029969 z"
           id="path31"
           sodipodi:nodetypes="ccccc" /><path
           style="fill:#7ea8a4;fill-opacity:1;fill-rule:evenodd;stroke:#000000;stroke-width:0.264583px;stroke-linecap:butt;stroke-linejoin:miter;stroke-opacity:1"
           d="m 21.245383,215.38571 2.453024,-2.14639 3.285301,3.67954 -2.365417,2.01498 z"
           id="path32"
           sodipodi:nodetypes="ccccc" /><path
           style="fill:#7ea8a4;fill-opacity:1;fill-rule:evenodd;stroke:#000000;stroke-width:0.264583px;stroke-linecap:butt;stroke-linejoin:miter;stroke-opacity:1"
           d="m 27.334141,210.96151 3.06628,-0.26282 0.175214,5.5193 -2.978671,0.17522 z"
           id="path33"
           sodipodi:nodetypes="ccccc" /></g><g
         id="g35"
         transform="translate(31.841393,-1.6106541)"><path
           style="fill:#181b1b;fill-opacity:1;fill-rule:evenodd;stroke:#000000;stroke-width:0.264583px;stroke-linecap:butt;stroke-linejoin:miter;stroke-opacity:1"
           d="m 25.252698,220.56122 c 0,0 1.494279,0.0106 2.230136,0.1239 0.494997,0.0762 1.004106,0.15532 1.455783,0.37169 0.558685,0.26763 1.015567,0.69433 1.399149,1.18077 0.257714,0.32682 0.481626,0.67672 0.583194,1.08034 0.118848,0.47229 0.152228,0.96959 0.123896,1.45578 -0.03004,0.51546 -0.13384,1.03228 -0.30974,1.51773 -0.20773,0.5733 -0.476137,1.14286 -0.867275,1.61066 -0.372351,0.44533 -0.863253,0.78854 -1.362861,1.08409 -0.414235,0.24505 -1.146044,0.52655 -1.331888,0.55753 -0.185846,0.031 -0.822763,0.15486 -1.238965,0.15487 -0.24972,0 -0.743378,-0.0929 -0.743378,-0.0929 z"
           id="path35"
           sodipodi:nodetypes="csssssssssscc" /><ellipse
           style="fill:#8d9595;fill-opacity:1;fill-rule:evenodd;stroke:#1d1d1d;stroke-width:0.211667;stroke-linecap:round;stroke-linejoin:round;stroke-dasharray:none;stroke-opacity:1"
           id="path34"
           cx="24.859858"
           cy="225.062"
           rx="3.8547535"
           ry="4.4680095" /></g><ellipse
         style="fill:#f7cbcc;fill-opacity:1;fill-rule:evenodd;stroke:#1d1d1d;stroke-width:0.211667;stroke-linecap:round;stroke-linejoin:round;stroke-dasharray:none;stroke-opacity:1"
         id="path36"
         cx="56.629478"
         cy="223.28694"
         rx="0.77435291"
         ry="1.1150682" /></g><path
       style="fill:url(#linearGradient38);fill-rule:evenodd;stroke:#000000;stroke-width:0.264583px;stroke-linecap:butt;stroke-linejoin:miter;stroke-opacity:1"
       d="m 71.558328,224.29554 c 0,0 0.114597,0.82265 0.438041,0.96369 0.169298,0.0738 0.404637,-0.0357 0.525648,-0.17522 0.21392,-0.24665 0.175215,-0.96369 0.175215,-0.96369 l -0.08761,-2.36541 0.876078,-1.57695 -0.262824,-13.22881 c 0,0 -0.186677,-0.44409 -0.35043,-0.61326 -0.310034,-0.32028 -1.138905,-0.70086 -1.138905,-0.70086 l -19.361378,2.54063 c 0,0 -0.485975,0.15236 -0.613254,0.35043 -0.174375,0.27136 -0.08761,0.96369 -0.08761,0.96369 l 0.0219,4.63378 1.686454,-0.52566 0.0438,-3.58247 v -0.78847 c 0,0 0.07082,-0.21534 0.153314,-0.28473 0.123677,-0.10402 0.459943,-0.15331 0.459943,-0.15331 l 17.78443,-2.27781 0.350432,13.40403 -0.700865,1.66455 z"
       id="path37"
       sodipodi:nodetypes="cssccccsccscccccsccccc" /><circle
       style="fill:#000000;fill-opacity:1;fill-rule:evenodd;stroke:none;stroke-width:0.211667;stroke-linecap:round;stroke-linejoin:round;stroke-dasharray:none;stroke-opacity:1"
       id="path38"
       cx="72.147514"
       cy="224.26263"
       r="0.35620236" /></g></svg>
