<?xml version="1.0" encoding="UTF-8" standalone="no"?>
<!-- Created with Inkscape (http://www.inkscape.org/) -->

<svg
   width="24.548426mm"
   height="31.983381mm"
   viewBox="0 0 24.548426 31.983382"
   version="1.1"
   id="svg5"
   xml:space="preserve"
   inkscape:version="1.3 (0e150ed6c4, 2023-07-21)"
   sodipodi:docname="25_ParSquareMultipleTransparentLed.svg"
   xmlns:inkscape="http://www.inkscape.org/namespaces/inkscape"
   xmlns:sodipodi="http://sodipodi.sourceforge.net/DTD/sodipodi-0.dtd"
   xmlns:xlink="http://www.w3.org/1999/xlink"
   xmlns="http://www.w3.org/2000/svg"
   xmlns:svg="http://www.w3.org/2000/svg"><sodipodi:namedview
     id="namedview7"
     pagecolor="#505050"
     bordercolor="#eeeeee"
     borderopacity="1"
     inkscape:showpageshadow="0"
     inkscape:pageopacity="0"
     inkscape:pagecheckerboard="0"
     inkscape:deskcolor="#505050"
     inkscape:document-units="px"
     showgrid="false"
     inkscape:zoom="0.7550202"
     inkscape:cx="141.05583"
     inkscape:cy="-46.356376"
     inkscape:window-width="1280"
     inkscape:window-height="961"
     inkscape:window-x="-8"
     inkscape:window-y="-8"
     inkscape:window-maximized="1"
     inkscape:current-layer="layer5" /><defs
     id="defs2"><linearGradient
       id="linearGradient25"
       inkscape:collect="always"><stop
         style="stop-color:#747b7b;stop-opacity:1;"
         offset="0"
         id="stop24" /><stop
         style="stop-color:#697477;stop-opacity:1;"
         offset="1"
         id="stop25" /></linearGradient><linearGradient
       inkscape:collect="always"
       xlink:href="#linearGradient231"
       id="linearGradient5"
       x1="93.906662"
       y1="224.29149"
       x2="113.93419"
       y2="224.29149"
       gradientUnits="userSpaceOnUse" /><linearGradient
       inkscape:collect="always"
       xlink:href="#linearGradient231"
       id="linearGradient7"
       x1="112.73549"
       y1="225.18391"
       x2="116.96938"
       y2="225.18391"
       gradientUnits="userSpaceOnUse" /><linearGradient
       inkscape:collect="always"
       xlink:href="#linearGradient231"
       id="linearGradient14"
       x1="111.65269"
       y1="220.11305"
       x2="116.96365"
       y2="220.11305"
       gradientUnits="userSpaceOnUse" /><linearGradient
       inkscape:collect="always"
       xlink:href="#linearGradient228"
       id="linearGradient16"
       x1="92.420959"
       y1="212.14047"
       x2="114.8012"
       y2="212.14047"
       gradientUnits="userSpaceOnUse" /><linearGradient
       id="linearGradient231"
       inkscape:collect="always"><stop
         style="stop-color:#bdc1c1;stop-opacity:1;"
         offset="0"
         id="stop231" /><stop
         style="stop-color:#697477;stop-opacity:1;"
         offset="1"
         id="stop230" /></linearGradient><linearGradient
       id="linearGradient228"
       inkscape:collect="always"><stop
         style="stop-color:#697477;stop-opacity:1;"
         offset="0"
         id="stop227" /><stop
         style="stop-color:#bdc1c1;stop-opacity:1;"
         offset="1"
         id="stop228" /></linearGradient><radialGradient
       inkscape:collect="always"
       xlink:href="#linearGradient25"
       id="radialGradient24"
       cx="101.96948"
       cy="225.50822"
       fx="101.96948"
       fy="225.50822"
       r="9.4246883"
       gradientTransform="matrix(1.5130155,-1.2060458,1.1873978,1.4896211,-320.07989,12.566276)"
       gradientUnits="userSpaceOnUse" /><radialGradient
       inkscape:collect="always"
       xlink:href="#linearGradient231"
       id="radialGradient29"
       cx="101.78468"
       cy="225.61253"
       fx="101.78468"
       fy="225.61253"
       r="9.3027725"
       gradientTransform="matrix(1,0,0,1.0616089,0,-13.899744)"
       gradientUnits="userSpaceOnUse" /></defs><g
     inkscape:groupmode="layer"
     id="layer5"
     inkscape:label="Projector"
     transform="translate(-92.420956,-204.46779)"><path
       style="fill:url(#linearGradient7);fill-rule:evenodd;stroke:#000000;stroke-width:0.264583px;stroke-linecap:butt;stroke-linejoin:miter;stroke-opacity:1"
       d="m 112.87241,222.00753 3.96468,-2.84961 v 9.97366 l -3.3452,2.10624 z"
       id="path5" /><path
       style="fill:url(#linearGradient14);fill-rule:evenodd;stroke:#000000;stroke-width:0.264583px;stroke-linecap:butt;stroke-linejoin:miter;stroke-opacity:1"
       d="m 116.65125,219.21986 -4.83196,-1.17701 0.74338,4.08858 z"
       id="path7" /><path
       style="fill:url(#linearGradient5);fill-rule:evenodd;stroke:#000000;stroke-width:0.264583px;stroke-linecap:butt;stroke-linejoin:miter;stroke-opacity:1"
       d="m 109.89889,235.69809 3.03547,-2.04429 c 0,0 0.59433,-0.60602 0.74337,-0.99117 0.1572,-0.40624 0.1239,-1.30091 0.1239,-1.30091 l -0.55753,-12.94718 c 0,0 -0.11456,-1.34283 -0.49559,-1.85845 -0.57887,-0.78336 -2.47793,-1.54871 -2.47793,-1.54871 L 99.181849,212.8392 c 0,0 -1.182733,0.002 -1.734553,0.18584 -1.230008,0.40876 -3.345204,1.98234 -3.345204,1.98234 z"
       id="path4"
       sodipodi:nodetypes="ccsccsccscc" /><path
       style="fill:url(#linearGradient16);fill-rule:evenodd;stroke:#000000;stroke-width:0.264583px;stroke-linecap:butt;stroke-linejoin:miter;stroke-opacity:1"
       d="m 114.66891,225.35274 v -15.30122 l -0.30975,-1.30091 -1.48675,-0.86727 -16.911871,-3.28326 H 95.27911 l -0.37169,0.1239 -1.42481,1.05312 -0.619482,0.30974 -0.309743,0.80533 0.06195,11.08873 2.601825,-3.15936 -0.06195,-7.61963 15.73485,2.84961 1.11507,0.68144 0.37169,1.17701 v 13.87641 c 0,0 0.69919,0.76384 1.14605,0.7124 0.5367,-0.0618 1.14604,-1.14604 1.14604,-1.14604 z"
       id="path14"
       sodipodi:nodetypes="cccccccccccccccccsc" /><path
       style="fill:url(#radialGradient24);fill-opacity:1;fill-rule:evenodd;stroke:#000000;stroke-width:0.264583px;stroke-linecap:butt;stroke-linejoin:miter;stroke-opacity:1"
       d="m 96.580021,214.69764 c 0,0 -1.97718,0.0101 -2.725722,0.55754 -0.649166,0.47479 -1.177017,2.10624 -1.177017,2.10624 l 0.123896,12.76133 c 0,0 0.547683,1.58178 1.053121,2.23014 0.460029,0.59011 1.73455,1.42481 1.73455,1.42481 l 12.203801,2.53988 c 0,0 1.61521,-0.15353 2.23014,-0.61949 0.63508,-0.48123 1.23896,-2.04429 1.23896,-2.04429 l -0.0619,-12.38964 c 0,0 -0.10799,-1.72245 -0.55754,-2.41599 -0.57731,-0.89065 -2.53988,-1.92039 -2.53988,-1.92039 z"
       id="path3"
       sodipodi:nodetypes="csccsccsccscc" /><path
       style="fill:url(#radialGradient29);fill-opacity:1;fill-rule:evenodd;stroke:#000000;stroke-width:0.264583px;stroke-linecap:butt;stroke-linejoin:miter;stroke-opacity:1"
       d="m 92.615335,223.86598 c 0.07903,-4.67748 3.809185,-8.56289 9.044445,-7.92937 4.83484,0.58507 9.43268,6.4065 9.29223,11.27458 -0.16393,5.68213 -3.98201,8.46804 -8.92054,8.11521 -4.931616,-0.35233 -9.499661,-6.51694 -9.416135,-11.46042 z"
       id="path1"
       sodipodi:nodetypes="sssss" /><path
       style="fill:#8d9595;fill-opacity:1;fill-rule:evenodd;stroke:#000000;stroke-width:0.211321px;stroke-linecap:butt;stroke-linejoin:miter;stroke-opacity:1"
       d="m 94.440148,224.24856 c 0.06313,-3.73589 3.042379,-6.83915 7.223762,-6.33316 3.86155,0.46729 7.53383,5.11684 7.42165,9.00495 -0.13093,4.53829 -3.18042,6.76338 -7.12479,6.48158 -3.938857,-0.2814 -7.587332,-5.20505 -7.520622,-9.15337 z"
       id="path2"
       sodipodi:nodetypes="sssss" /><circle
       style="fill:#000000;fill-opacity:1;fill-rule:evenodd;stroke-width:0.211667;stroke-linecap:round;stroke-linejoin:round"
       id="path18"
       cx="113.66923"
       cy="225.07416"
       r="0.48184419" /><ellipse
       style="fill:#000000;fill-opacity:1;fill-rule:evenodd;stroke-width:0.211667;stroke-linecap:round;stroke-linejoin:round"
       id="path19"
       cx="103.68191"
       cy="207.33354"
       rx="1.0074923"
       ry="0.61325622" /><g
       id="g20"
       transform="matrix(0.47614198,-0.22584507,0.26938412,0.56793397,-22.166928,110.59469)"><circle
         style="fill:#bdc6c6;fill-opacity:1;fill-rule:evenodd;stroke-width:0.211667;stroke-linecap:round;stroke-linejoin:round"
         id="path20"
         cx="118.7943"
         cy="249.21017"
         r="3.0662811" /><circle
         style="fill:#8d9595;fill-opacity:1;fill-rule:evenodd;stroke-width:0.127;stroke-linecap:round;stroke-linejoin:round"
         id="circle20"
         cx="118.7943"
         cy="249.21017"
         r="1.8397686" /></g><g
       id="g30"
       transform="matrix(0.47614198,-0.22584507,0.26938412,0.56793397,-22.290824,106.50611)"><circle
         style="fill:#bdc6c6;fill-opacity:1;fill-rule:evenodd;stroke-width:0.211667;stroke-linecap:round;stroke-linejoin:round"
         id="circle29"
         cx="118.7943"
         cy="249.21017"
         r="3.0662811" /><circle
         style="fill:#8d9595;fill-opacity:1;fill-rule:evenodd;stroke-width:0.127;stroke-linecap:round;stroke-linejoin:round"
         id="circle30"
         cx="118.7943"
         cy="249.21017"
         r="1.8397686" /></g><g
       id="g32"
       transform="matrix(0.47614198,-0.22584507,0.26938412,0.56793397,-22.043032,114.93107)"><circle
         style="fill:#bdc6c6;fill-opacity:1;fill-rule:evenodd;stroke-width:0.211667;stroke-linecap:round;stroke-linejoin:round"
         id="circle31"
         cx="118.7943"
         cy="249.21017"
         r="3.0662811" /><circle
         style="fill:#8d9595;fill-opacity:1;fill-rule:evenodd;stroke-width:0.127;stroke-linecap:round;stroke-linejoin:round"
         id="circle32"
         cx="118.7943"
         cy="249.21017"
         r="1.8397686" /></g><g
       id="g34"
       transform="matrix(0.47614198,-0.22584507,0.26938412,0.56793397,-18.573931,108.73625)"><circle
         style="fill:#bdc6c6;fill-opacity:1;fill-rule:evenodd;stroke-width:0.211667;stroke-linecap:round;stroke-linejoin:round"
         id="circle33"
         cx="118.7943"
         cy="249.21017"
         r="3.0662811" /><circle
         style="fill:#8d9595;fill-opacity:1;fill-rule:evenodd;stroke-width:0.127;stroke-linecap:round;stroke-linejoin:round"
         id="circle34"
         cx="118.7943"
         cy="249.21017"
         r="1.8397686" /></g><g
       id="g36"
       transform="matrix(0.47614198,-0.22584507,0.26938412,0.56793397,-25.512133,108.36456)"><circle
         style="fill:#bdc6c6;fill-opacity:1;fill-rule:evenodd;stroke-width:0.211667;stroke-linecap:round;stroke-linejoin:round"
         id="circle35"
         cx="118.7943"
         cy="249.21017"
         r="3.0662811" /><circle
         style="fill:#8d9595;fill-opacity:1;fill-rule:evenodd;stroke-width:0.127;stroke-linecap:round;stroke-linejoin:round"
         id="circle36"
         cx="118.7943"
         cy="249.21017"
         r="1.8397686" /></g><g
       id="g38"
       transform="matrix(0.47614198,-0.22584507,0.26938412,0.56793397,-18.326138,113.19652)"><circle
         style="fill:#bdc6c6;fill-opacity:1;fill-rule:evenodd;stroke-width:0.211667;stroke-linecap:round;stroke-linejoin:round"
         id="circle37"
         cx="118.7943"
         cy="249.21017"
         r="3.0662811" /><circle
         style="fill:#8d9595;fill-opacity:1;fill-rule:evenodd;stroke-width:0.127;stroke-linecap:round;stroke-linejoin:round"
         id="circle38"
         cx="118.7943"
         cy="249.21017"
         r="1.8397686" /></g><g
       id="g40"
       transform="matrix(0.47614198,-0.22584507,0.26938412,0.56793397,-25.63603,112.57704)"><circle
         style="fill:#bdc6c6;fill-opacity:1;fill-rule:evenodd;stroke-width:0.211667;stroke-linecap:round;stroke-linejoin:round"
         id="circle39"
         cx="118.7943"
         cy="249.21017"
         r="3.0662811" /><circle
         style="fill:#8d9595;fill-opacity:1;fill-rule:evenodd;stroke-width:0.127;stroke-linecap:round;stroke-linejoin:round"
         id="circle40"
         cx="118.7943"
         cy="249.21017"
         r="1.8397686" /></g></g></svg>
