<?xml version="1.0" encoding="UTF-8" standalone="no"?>
<!-- Created with Inkscape (http://www.inkscape.org/) -->

<svg
   width="32.054306mm"
   height="30.817671mm"
   viewBox="0 0 32.054306 30.817672"
   version="1.1"
   id="svg5"
   xml:space="preserve"
   inkscape:version="1.3 (0e150ed6c4, 2023-07-21)"
   sodipodi:docname="32_Flower02.svg"
   xmlns:inkscape="http://www.inkscape.org/namespaces/inkscape"
   xmlns:sodipodi="http://sodipodi.sourceforge.net/DTD/sodipodi-0.dtd"
   xmlns:xlink="http://www.w3.org/1999/xlink"
   xmlns="http://www.w3.org/2000/svg"
   xmlns:svg="http://www.w3.org/2000/svg"><sodipodi:namedview
     id="namedview7"
     pagecolor="#505050"
     bordercolor="#eeeeee"
     borderopacity="1"
     inkscape:showpageshadow="0"
     inkscape:pageopacity="0"
     inkscape:pagecheckerboard="0"
     inkscape:deskcolor="#505050"
     inkscape:document-units="px"
     showgrid="false"
     inkscape:zoom="1.5100404"
     inkscape:cx="94.699453"
     inkscape:cy="65.56116"
     inkscape:window-width="1280"
     inkscape:window-height="961"
     inkscape:window-x="-8"
     inkscape:window-y="-8"
     inkscape:window-maximized="1"
     inkscape:current-layer="layer5" /><defs
     id="defs2"><linearGradient
       id="linearGradient25"
       inkscape:collect="always"><stop
         style="stop-color:#717171;stop-opacity:1;"
         offset="0"
         id="stop25" /><stop
         style="stop-color:#bdc1c1;stop-opacity:1;"
         offset="1"
         id="stop24" /></linearGradient><linearGradient
       id="linearGradient17"
       inkscape:collect="always"><stop
         style="stop-color:#bdc1c1;stop-opacity:1;"
         offset="0"
         id="stop17" /><stop
         style="stop-color:#717171;stop-opacity:1;"
         offset="1"
         id="stop16" /></linearGradient><linearGradient
       id="linearGradient12"
       inkscape:collect="always"><stop
         style="stop-color:#979b9b;stop-opacity:1;"
         offset="0.36451745"
         id="stop11" /><stop
         style="stop-color:#868989;stop-opacity:1;"
         offset="0.44731897"
         id="stop13" /><stop
         style="stop-color:#757878;stop-opacity:1;"
         offset="1"
         id="stop12" /></linearGradient><linearGradient
       inkscape:collect="always"
       xlink:href="#linearGradient12"
       id="linearGradient11"
       x1="23.567165"
       y1="217.51654"
       x2="27.566471"
       y2="226.18974"
       gradientUnits="userSpaceOnUse" /><radialGradient
       inkscape:collect="always"
       xlink:href="#linearGradient17"
       id="radialGradient16"
       cx="14.961477"
       cy="228.95621"
       fx="14.961477"
       fy="228.95621"
       r="6.5922403"
       gradientTransform="matrix(1,0,0,1.658123,0,-150.68133)"
       gradientUnits="userSpaceOnUse" /><radialGradient
       inkscape:collect="always"
       xlink:href="#linearGradient17"
       id="radialGradient17"
       cx="17.693977"
       cy="227.9893"
       fx="17.693977"
       fy="227.9893"
       r="5.3623543"
       gradientTransform="matrix(1,0,0,1.699849,0,-159.55809)"
       gradientUnits="userSpaceOnUse" /><linearGradient
       inkscape:collect="always"
       xlink:href="#linearGradient17"
       id="linearGradient20"
       x1="15.486791"
       y1="227.75827"
       x2="5.6964579"
       y2="233.01476"
       gradientUnits="userSpaceOnUse" /><linearGradient
       inkscape:collect="always"
       xlink:href="#linearGradient25"
       id="linearGradient24"
       x1="24.32102"
       y1="217.23795"
       x2="33.784611"
       y2="217.23795"
       gradientUnits="userSpaceOnUse" /></defs><g
     inkscape:groupmode="layer"
     id="layer5"
     inkscape:label="Projector"
     transform="translate(-6.0251234,-209.87716)"><g
       id="g58"><path
         style="fill:none;fill-rule:evenodd;stroke:#000000;stroke-width:0.264583px;stroke-linecap:butt;stroke-linejoin:miter;stroke-opacity:1"
         d="m 15.6049,220.56749 4.468011,2.01499 1.051296,1.57694 2.286274,8.84451 -0.402664,0.55753 -2.26111,-1.26994 z"
         id="path1" /><path
         style="fill:url(#radialGradient17);fill-rule:evenodd;stroke:#000000;stroke-width:0.264583px;stroke-linecap:butt;stroke-linejoin:miter;stroke-opacity:1"
         d="m 12.626226,219.16576 8.673196,4.24899 1.620749,4.73084 -1.489336,8.54178 z"
         id="path6" /><path
         style="fill:url(#linearGradient11);fill-rule:evenodd;stroke:#000000;stroke-width:0.264583px;stroke-linecap:butt;stroke-linejoin:miter;stroke-opacity:1"
         d="m 23.038791,233.56146 0.433638,-0.61948 -2.354033,-8.8586 -1.053121,-1.54871 -4.584168,-2.07526 14.402964,-6.3497 5.296574,1.57968 0.960198,1.36287 1.796499,8.57983 -0.557534,0.7124 z"
         id="path2" /><path
         style="fill:none;fill-rule:evenodd;stroke:#000000;stroke-width:0.264583px;stroke-linecap:butt;stroke-linejoin:miter;stroke-opacity:1"
         d="m 20.405993,222.78247 14.867575,-7.0621"
         id="path57" /><path
         style="fill:none;fill-rule:evenodd;stroke:#000000;stroke-width:0.264583px;stroke-linecap:butt;stroke-linejoin:miter;stroke-opacity:1"
         d="m 21.149371,224.08338 14.929524,-6.9382"
         id="path58" /><path
         style="fill:url(#linearGradient24);fill-rule:evenodd;stroke:#000000;stroke-width:0.264583px;stroke-linecap:butt;stroke-linejoin:miter;stroke-opacity:1"
         d="m 24.453312,216.44991 v -5.78213 l 0.175216,-0.35043 0.262824,-0.13141 1.927377,-0.17522 6.395386,1.35793 0.306628,0.35043 0.08761,0.52565 0.0438,11.25763 c 0,0 -0.708627,0.98427 -1.226512,0.96369 -0.517885,-0.0206 -1.138905,-1.0513 -1.138905,-1.0513 l 0.0438,-10.9072 -0.0438,-0.43804 -0.306628,-0.35043 -4.424205,-1.00749 -0.0438,4.90605 z"
         id="path3"
         sodipodi:nodetypes="ccccccccczccccccc" /><path
         style="fill:url(#radialGradient16);fill-opacity:1;fill-rule:evenodd;stroke:#000000;stroke-width:0.264583px;stroke-linecap:butt;stroke-linejoin:miter;stroke-opacity:1"
         d="m 8.5524526,218.68392 c 0,0 1.2320012,-0.5446 1.8835744,-0.52565 0.540022,0.0157 1.054925,0.2743 1.533141,0.52565 0.43428,0.22826 0.816895,0.54915 1.182709,0.87608 0.431383,0.38553 0.806537,0.83075 1.182706,1.27032 0.507087,0.59255 0.985727,1.20981 1.445532,1.83976 0.675695,0.92572 1.375649,1.84272 1.927379,2.84727 0.406109,0.73941 0.886733,1.63708 1.226511,2.40922 0.418587,0.95124 0.682822,1.7879 1.051297,2.75965 0.396232,1.04495 0.731852,2.11467 1.007491,3.19769 0.168804,0.66325 0.348869,1.3321 0.394238,2.01499 0.032,0.48167 0.05533,0.98089 0.0053,1.46102 -0.0413,0.39639 -0.122692,0.79617 -0.268137,1.16722 -0.122672,0.31297 -0.340799,0.58588 -0.569452,0.83228 -0.127192,0.13707 -0.264896,0.27982 -0.438042,0.35043 -0.135878,0.0554 -0.438039,0.0438 -0.438039,0.0438 z"
         id="path5"
         sodipodi:nodetypes="csssssssssssssscc" /><path
         style="fill:url(#linearGradient20);fill-rule:evenodd;stroke:#000000;stroke-width:0.264583px;stroke-linecap:butt;stroke-linejoin:miter;stroke-opacity:1"
         d="m 7.5887646,219.77902 c -0.3457452,0.65938 -0.5994524,1.22019 -0.8322746,1.92738 -0.2417823,0.7344 -0.3332821,1.51175 -0.4380416,2.2778 -0.088711,0.6487 -0.1560495,1.30291 -0.1605518,1.95763 -0.00626,0.91066 0.048125,1.82551 0.185846,2.72572 0.080287,0.52479 0.2122959,1.04231 0.3716893,1.54871 0.1865059,0.59254 0.4570503,1.53995 0.7124032,2.10624 0.4099904,0.90923 0.7763453,1.46373 1.3318894,2.29208 0.4241612,0.63245 0.9476339,1.19673 1.4867575,1.73455 0.653293,0.65171 1.349208,1.26884 2.106239,1.7965 0.796381,0.55508 1.653966,1.02795 2.539879,1.42481 0.637672,0.28566 1.313635,0.47881 1.982343,0.68143 0.388264,0.11765 0.771501,0.29758 1.177015,0.30974 0.315733,0.009 0.64521,-0.0476 0.929224,-0.18584 0.342351,-0.16665 0.676371,-0.41394 0.867275,-0.74338 0.221328,-0.38194 0.216302,-0.86061 0.247793,-1.30092 0.03244,-0.4536 -0.01416,-0.91062 -0.06195,-1.36286 -0.066,-0.62455 -0.174676,-1.24511 -0.309742,-1.85844 -0.184233,-0.83659 -0.415992,-1.66345 -0.681432,-2.47793 -0.253124,-0.77669 -0.54685,-1.54066 -0.867275,-2.29209 -0.376787,-0.8836 -0.801604,-1.74658 -1.238964,-2.60182 -0.450209,-0.88037 -0.912611,-1.75602 -1.424808,-2.60183 -0.462794,-0.76423 -0.960705,-1.508 -1.486757,-2.23014 -0.527875,-0.72464 -1.055718,-1.45569 -1.672604,-2.10624 -0.493222,-0.52014 -1.000451,-1.04869 -1.610653,-1.42481 -0.37865,-0.23339 -0.8064459,-0.39178 -1.2389649,-0.49558 -0.2217812,-0.0532 -0.4548743,-0.0882 -0.6814317,-0.0619 -0.2594537,0.0301 -0.5413325,0.0823 -0.7433786,0.24779 -0.1859108,0.15231 -0.3779167,0.50055 -0.4895252,0.7134 z"
         id="path4"
         sodipodi:nodetypes="sssssssssssssssssssssssssssss" /><ellipse
         style="fill:#000000;fill-opacity:1;fill-rule:evenodd;stroke:none;stroke-width:0.185208;stroke-linecap:round;stroke-linejoin:round;paint-order:stroke fill markers"
         id="path25"
         cx="32.487453"
         cy="223.09753"
         rx="0.58850825"
         ry="0.65045649" /><g
         id="g56"
         transform="translate(-19.711807,-25.055897)"><path
           style="fill:#7ea8a4;fill-opacity:1;fill-rule:evenodd;stroke:#282828;stroke-width:0.185208;stroke-linecap:butt;stroke-linejoin:miter;stroke-dasharray:none;stroke-opacity:1"
           d="m 31.804467,247.37592 c -0.580643,-0.24077 -1.19801,0.34035 -1.42481,0.86727 -0.2268,0.52692 -0.126576,1.45775 0.37169,1.73455 0.498266,0.2768 1.252562,-0.007 1.548705,-0.55753 0.296143,-0.55029 0.08506,-1.80352 -0.495585,-2.04429 z"
           id="path39"
           sodipodi:nodetypes="zzzzz" /><path
           style="fill:#7ea8a4;fill-opacity:1;fill-rule:evenodd;stroke:#282828;stroke-width:0.185208;stroke-linecap:butt;stroke-linejoin:miter;stroke-dasharray:none;stroke-opacity:1"
           d="m 33.539017,253.01321 c -0.771126,-0.32146 -1.474418,0.30517 -1.672602,0.86727 -0.198184,0.5621 0.181561,1.28427 0.68143,1.54871 0.499869,0.26444 1.338609,0.25075 1.672603,-0.30974 0.333994,-0.56049 0.08969,-1.78478 -0.681431,-2.10624 z"
           id="path40"
           sodipodi:nodetypes="zzzzz" /><path
           style="fill:#7ea8a4;fill-opacity:1;fill-rule:evenodd;stroke:#282828;stroke-width:0.185208;stroke-linecap:butt;stroke-linejoin:miter;stroke-dasharray:none;stroke-opacity:1"
           d="m 37.751497,259.08413 c 0.16109,-0.61948 -0.588449,-1.33618 -1.177016,-1.48675 -0.588567,-0.15057 -1.433599,0.11031 -1.610655,0.68143 -0.177056,0.57112 0.281289,1.18927 0.991172,1.5487 0.709883,0.35943 1.635409,-0.1239 1.796499,-0.74338 z"
           id="path41"
           sodipodi:nodetypes="zzzzz" /><path
           style="fill:#7ea8a4;fill-opacity:1;fill-rule:evenodd;stroke:#282828;stroke-width:0.185208;stroke-linecap:butt;stroke-linejoin:miter;stroke-dasharray:none;stroke-opacity:1"
           d="m 28.724204,246.47757 c -0.281357,0.002 -0.814795,0.63111 -1.007493,1.02939 -0.192698,0.39828 -0.223285,0.92994 -0.153314,1.20461 0.06997,0.27467 0.162501,0.32685 0.284726,0.39424 0.122225,0.0674 0.202238,0.0801 0.350432,0.0219 0.148194,-0.0582 0.277125,-0.23505 0.416138,-0.43804 0.139013,-0.20299 0.297297,-0.52504 0.372335,-0.78848 0.07504,-0.26344 0.1127,-0.554 0.08761,-0.76657 -0.04001,-0.33366 -0.165062,-0.52108 -0.350434,-0.65705 z"
           id="path44"
           sodipodi:nodetypes="zzzzzzzzz" /><path
           style="fill:#7ea8a4;fill-opacity:1;fill-rule:evenodd;stroke:#282828;stroke-width:0.185208;stroke-linecap:butt;stroke-linejoin:miter;stroke-dasharray:none;stroke-opacity:1"
           d="m 27.651005,250.0914 c -0.549797,0.001 -0.633523,1.02405 -0.635158,1.53314 -0.0016,0.50909 0.04241,1.26096 0.525648,1.29222 0.483237,0.0313 0.713799,-0.79007 0.744668,-1.31412 0.03087,-0.52405 -0.08536,-1.51265 -0.635158,-1.51124 z"
           id="path45"
           sodipodi:nodetypes="zzzzz" /><path
           style="fill:#7ea8a4;fill-opacity:1;fill-rule:evenodd;stroke:#282828;stroke-width:0.185208;stroke-linecap:butt;stroke-linejoin:miter;stroke-dasharray:none;stroke-opacity:1"
           d="m 29.7755,250.83607 c -0.30467,0.0799 -0.730764,0.58684 -0.854179,0.96369 -0.123415,0.37685 -0.07133,0.73813 0.04381,1.02939 0.115136,0.29126 0.322689,0.55802 0.503746,0.70086 0.181057,0.14284 0.282174,0.22338 0.481844,0.19712 0.19967,-0.0263 0.383666,-0.19229 0.54755,-0.41613 0.163884,-0.22384 0.30999,-0.59647 0.32853,-0.91989 0.01854,-0.32342 -0.113877,-0.70908 -0.21902,-0.94179 -0.105143,-0.23271 -0.18075,-0.35377 -0.32853,-0.45994 -0.14778,-0.10617 -0.199076,-0.23317 -0.503746,-0.15331 z"
           id="path46"
           sodipodi:nodetypes="zzzzzzzzzz" /><path
           style="fill:#7ea8a4;fill-opacity:1;fill-rule:evenodd;stroke:#282828;stroke-width:0.185208;stroke-linecap:butt;stroke-linejoin:miter;stroke-dasharray:none;stroke-opacity:1"
           d="m 26.774925,248.62397 c 0.332558,0.0305 0.15567,0.98217 0.08761,1.46743 -0.05805,0.41388 -0.11708,1.22345 -0.416138,1.18271 -0.295401,-0.0402 -0.162995,-0.89241 -0.10951,-1.33603 0.05527,-0.45841 0.08783,-1.34622 0.438038,-1.31411 z"
           id="path47"
           sodipodi:nodetypes="sssss" /><path
           style="fill:#7ea8a4;fill-opacity:1;fill-rule:evenodd;stroke:#282828;stroke-width:0.185208;stroke-linecap:butt;stroke-linejoin:miter;stroke-dasharray:none;stroke-opacity:1"
           d="m 30.147834,254.82223 c -0.488136,0.26908 -0.396259,1.25773 -0.131412,1.75216 0.264847,0.49443 0.901128,1.05722 1.401728,0.78848 0.5006,-0.26874 0.404462,-1.30171 0.131413,-1.79597 -0.273049,-0.49426 -0.913593,-1.01375 -1.401729,-0.74467 z"
           id="path48"
           sodipodi:nodetypes="zzzzz" /><path
           style="fill:#7ea8a4;fill-opacity:1;fill-rule:evenodd;stroke:#282828;stroke-width:0.185208;stroke-linecap:butt;stroke-linejoin:miter;stroke-dasharray:none;stroke-opacity:1"
           d="m 32.075211,258.41416 c -0.390835,0.41104 -0.01068,1.27768 0.394236,1.66455 0.404912,0.38687 1.229956,0.70552 1.620749,0.30663 0.390793,-0.39889 0.05454,-1.26971 -0.350433,-1.66455 -0.404972,-0.39484 -1.273717,-0.71767 -1.664552,-0.30663 z"
           id="path49"
           sodipodi:nodetypes="zzzzz" /><path
           style="fill:#7ea8a4;fill-opacity:1;fill-rule:evenodd;stroke:#282828;stroke-width:0.185208;stroke-linecap:butt;stroke-linejoin:miter;stroke-dasharray:none;stroke-opacity:1"
           d="m 34.484432,262.40033 c -0.222028,0.48012 0.480079,1.05473 0.963688,1.27031 0.483609,0.21558 1.367787,0.34871 1.576945,-0.13141 0.209158,-0.48012 -0.486962,-1.01095 -0.963689,-1.22651 -0.476727,-0.21556 -1.354916,-0.39251 -1.576944,0.0876 z"
           id="path50"
           sodipodi:nodetypes="zzzzz" /><path
           style="fill:#7ea8a4;fill-opacity:1;fill-rule:evenodd;stroke:#282828;stroke-width:0.185208;stroke-linecap:butt;stroke-linejoin:miter;stroke-dasharray:none;stroke-opacity:1"
           d="m 31.374347,260.60436 c -0.350594,0.36844 0.2248,1.14642 0.613256,1.48934 0.388456,0.34292 1.121615,0.78935 1.445532,0.39424 0.323917,-0.39511 -0.325298,-1.06962 -0.700864,-1.40173 -0.375566,-0.33211 -1.00733,-0.85029 -1.357924,-0.48185 z"
           id="path51"
           sodipodi:nodetypes="zzzzz" /><path
           style="fill:#7ea8a4;fill-opacity:1;fill-rule:evenodd;stroke:#282828;stroke-width:0.185208;stroke-linecap:butt;stroke-linejoin:miter;stroke-dasharray:none;stroke-opacity:1"
           d="m 29.22795,257.36287 c -0.401595,0.25139 -0.130976,0.95493 0.131412,1.40173 0.262388,0.4468 0.93394,1.26866 1.401728,0.96368 0.467788,-0.30498 -0.0138,-1.19824 -0.306628,-1.62075 -0.292828,-0.42251 -0.824917,-0.99605 -1.226512,-0.74466 z"
           id="path52"
           sodipodi:nodetypes="zzzzz" /><path
           style="fill:#7ea8a4;fill-opacity:1;fill-rule:evenodd;stroke:#282828;stroke-width:0.185208;stroke-linecap:butt;stroke-linejoin:miter;stroke-dasharray:none;stroke-opacity:1"
           d="m 27.870025,253.77094 c -0.460444,0.15985 -0.323818,0.98606 -0.175216,1.48933 0.148602,0.50327 0.510385,1.44254 1.051297,1.27032 0.540912,-0.17222 0.315878,-1.25496 0.131411,-1.75216 -0.184467,-0.4972 -0.547048,-1.16734 -1.007492,-1.00749 z"
           id="path53"
           sodipodi:nodetypes="zzzzz" /><path
           style="fill:#7ea8a4;fill-opacity:1;fill-rule:evenodd;stroke:#282828;stroke-width:0.185208;stroke-linecap:butt;stroke-linejoin:miter;stroke-dasharray:none;stroke-opacity:1"
           d="m 26.555905,252.76344 c -0.286508,0.0677 -0.187916,0.89363 -0.08761,1.35793 0.100306,0.4643 0.422555,1.39338 0.700864,1.31412 0.278309,-0.0793 0.123436,-1.16417 0,-1.62075 -0.123436,-0.45658 -0.326746,-1.11904 -0.613254,-1.0513 z"
           id="path54"
           sodipodi:nodetypes="zzzzz" /><path
           style="fill:#7ea8a4;fill-opacity:1;fill-rule:evenodd;stroke:#282828;stroke-width:0.185208;stroke-linecap:butt;stroke-linejoin:miter;stroke-dasharray:none;stroke-opacity:1"
           d="m 27.519593,256.31157 c -0.290509,0.1567 0.07154,0.95247 0.262824,1.35793 0.191288,0.40546 0.621796,1.14058 0.832276,1.00749 0.21048,-0.13309 -0.06328,-1.04039 -0.262824,-1.44554 -0.199545,-0.40515 -0.541767,-1.07658 -0.832276,-0.91988 z"
           id="path55"
           sodipodi:nodetypes="zzzzz" /><path
           style="fill:#7ea8a4;fill-opacity:1;fill-rule:evenodd;stroke:#282828;stroke-width:0.185208;stroke-linecap:butt;stroke-linejoin:miter;stroke-dasharray:none;stroke-opacity:1"
           d="m 29.184146,259.68448 c -0.216584,0.22102 0.311326,0.96921 0.613256,1.31412 0.30193,0.34491 0.908101,0.89409 1.0951,0.70086 0.186999,-0.19323 -0.227763,-0.91708 -0.525648,-1.27031 -0.297885,-0.35323 -0.966124,-0.96569 -1.182708,-0.74467 z"
           id="path56"
           sodipodi:nodetypes="zzzzz" /></g></g></g></svg>
