<?xml version="1.0" encoding="UTF-8" standalone="no"?>
<!-- Created with Inkscape (http://www.inkscape.org/) -->

<svg
   width="17.220106mm"
   height="9.4750261mm"
   viewBox="0 0 17.220106 9.4750258"
   version="1.1"
   id="svg5"
   xml:space="preserve"
   inkscape:version="1.3 (0e150ed6c4, 2023-07-21)"
   sodipodi:docname="37_BarShortx2TransparentLed.svg"
   xmlns:inkscape="http://www.inkscape.org/namespaces/inkscape"
   xmlns:sodipodi="http://sodipodi.sourceforge.net/DTD/sodipodi-0.dtd"
   xmlns="http://www.w3.org/2000/svg"
   xmlns:svg="http://www.w3.org/2000/svg"><sodipodi:namedview
     id="namedview7"
     pagecolor="#505050"
     bordercolor="#eeeeee"
     borderopacity="1"
     inkscape:showpageshadow="0"
     inkscape:pageopacity="0"
     inkscape:pagecheckerboard="0"
     inkscape:deskcolor="#505050"
     inkscape:document-units="px"
     showgrid="false"
     inkscape:zoom="6.0401616"
     inkscape:cx="46.853051"
     inkscape:cy="-12.748003"
     inkscape:window-width="1280"
     inkscape:window-height="961"
     inkscape:window-x="-8"
     inkscape:window-y="-8"
     inkscape:window-maximized="1"
     inkscape:current-layer="layer5" /><defs
     id="defs2" /><g
     inkscape:groupmode="layer"
     id="layer5"
     inkscape:label="Projector"
     transform="translate(-57.128027,-130.2328)"><path
       id="rect1"
       style="fill:#9da6ac;fill-opacity:1;fill-rule:evenodd;stroke:#000000;stroke-width:0.160861;stroke-linecap:round;stroke-linejoin:round;stroke-opacity:1"
       d="M 58.222534 130.31342 C 57.660708 130.31342 57.208642 130.87902 57.208642 131.58155 L 57.208642 138.35944 C 57.208642 139.06197 57.660708 139.62758 58.222534 139.62758 L 73.253658 139.62758 C 73.815484 139.62758 74.267549 139.06197 74.267549 138.35944 L 74.267549 131.58155 C 74.267549 130.87902 73.815484 130.31342 73.253658 130.31342 L 58.222534 130.31342 z M 58.707259 131.08856 L 72.655761 131.08856 C 73.090737 131.08856 73.440726 131.48468 73.440726 131.97636 L 73.440726 138.03077 C 73.440726 138.52246 73.090737 138.91857 72.655761 138.91857 L 58.707259 138.91857 C 58.272283 138.91857 57.922294 138.52246 57.922294 138.03077 L 57.922294 131.97636 C 57.922294 131.48468 58.272283 131.08856 58.707259 131.08856 z " /><g
       id="g35"
       transform="translate(25.088,-22.512499)" /><g
       id="g36"
       transform="translate(21.25932,-22.512499)" /><g
       id="g38"
       transform="translate(17.43064,-22.512499)" /><circle
       style="fill:#7683aa;fill-opacity:1;fill-rule:evenodd;stroke-width:0.356658;stroke-linecap:round;stroke-linejoin:round"
       id="circle46-9"
       cx="69.582733"
       cy="133.27139"
       r="1.293101" /><circle
       style="fill:#7683aa;fill-opacity:1;fill-rule:evenodd;stroke-width:0.356658;stroke-linecap:round;stroke-linejoin:round"
       id="circle48-8"
       cx="65.754066"
       cy="133.27139"
       r="1.293101" /><circle
       style="fill:#7683aa;fill-opacity:1;fill-rule:evenodd;stroke-width:0.356658;stroke-linecap:round;stroke-linejoin:round"
       id="circle50-8"
       cx="61.925385"
       cy="133.27139"
       r="1.293101" /><circle
       style="fill:#7683aa;fill-opacity:1;fill-rule:evenodd;stroke-width:0.356658;stroke-linecap:round;stroke-linejoin:round"
       id="circle19"
       cx="69.582733"
       cy="136.4464"
       r="1.293101" /><circle
       style="fill:#7683aa;fill-opacity:1;fill-rule:evenodd;stroke-width:0.356658;stroke-linecap:round;stroke-linejoin:round"
       id="circle21"
       cx="65.754066"
       cy="136.4464"
       r="1.293101" /><circle
       style="fill:#7683aa;fill-opacity:1;fill-rule:evenodd;stroke-width:0.356658;stroke-linecap:round;stroke-linejoin:round"
       id="circle23"
       cx="61.925385"
       cy="136.4464"
       r="1.293101" /></g></svg>
