<?xml version="1.0" encoding="UTF-8" standalone="no"?>
<!-- Created with Inkscape (http://www.inkscape.org/) -->

<svg
   width="17.435438mm"
   height="9.595561mm"
   viewBox="0 0 17.435438 9.5955606"
   version="1.1"
   id="svg5"
   xml:space="preserve"
   inkscape:version="1.3 (0e150ed6c4, 2023-07-21)"
   sodipodi:docname="38_BarShortx2ColoredLed.svg"
   xmlns:inkscape="http://www.inkscape.org/namespaces/inkscape"
   xmlns:sodipodi="http://sodipodi.sourceforge.net/DTD/sodipodi-0.dtd"
   xmlns="http://www.w3.org/2000/svg"
   xmlns:svg="http://www.w3.org/2000/svg"><sodipodi:namedview
     id="namedview7"
     pagecolor="#505050"
     bordercolor="#eeeeee"
     borderopacity="1"
     inkscape:showpageshadow="0"
     inkscape:pageopacity="0"
     inkscape:pagecheckerboard="0"
     inkscape:deskcolor="#505050"
     inkscape:document-units="px"
     showgrid="false"
     inkscape:zoom="2.1355196"
     inkscape:cx="-8.4288619"
     inkscape:cy="36.525068"
     inkscape:window-width="1280"
     inkscape:window-height="961"
     inkscape:window-x="-8"
     inkscape:window-y="-8"
     inkscape:window-maximized="1"
     inkscape:current-layer="layer5" /><defs
     id="defs2" /><g
     inkscape:groupmode="layer"
     id="layer5"
     inkscape:label="Projector"
     transform="translate(-57.114982,-130.20577)"><path
       id="rect1"
       style="fill:#9da6ac;fill-opacity:1;fill-rule:evenodd;stroke:#000000;stroke-width:0.162888;stroke-linecap:round;stroke-linejoin:round;stroke-opacity:1"
       d="M 58.05446 130.28742 C 57.57919 130.28742 57.196631 130.68132 57.196631 131.17057 L 57.196631 138.83677 C 57.196631 139.32602 57.57919 139.71992 58.05446 139.71992 L 73.611133 139.71992 C 74.086402 139.71992 74.468961 139.32602 74.468961 138.83677 L 74.468961 131.17057 C 74.468961 130.68132 74.086402 130.28742 73.611133 130.28742 L 58.05446 130.28742 z M 58.635303 131.08944 L 73.030289 131.08944 C 73.421189 131.08944 73.735673 131.40595 73.735673 131.79947 L 73.735673 138.20735 C 73.735673 138.60087 73.421189 138.9179 73.030289 138.9179 L 58.635303 138.9179 C 58.244403 138.9179 57.929403 138.60087 57.929403 138.20735 L 57.929403 131.79947 C 57.929403 131.40595 58.244403 131.08944 58.635303 131.08944 z " /><g
       id="g35"
       transform="translate(25.088,-22.512499)" /><g
       id="g36"
       transform="translate(21.25932,-22.512499)" /><g
       id="g38"
       transform="translate(17.43064,-22.512499)" /><circle
       style="fill:#3941b0;fill-opacity:1;fill-rule:evenodd;stroke-width:0.356658;stroke-linecap:round;stroke-linejoin:round"
       id="circle46-9"
       cx="69.582733"
       cy="133.27139"
       r="1.293101" /><circle
       style="fill:#4eaa4a;fill-opacity:1;fill-rule:evenodd;stroke-width:0.356658;stroke-linecap:round;stroke-linejoin:round"
       id="circle48-8"
       cx="65.754066"
       cy="133.27139"
       r="1.293101" /><circle
       style="fill:#ac3b3c;fill-opacity:1;fill-rule:evenodd;stroke-width:0.356658;stroke-linecap:round;stroke-linejoin:round"
       id="circle50-8"
       cx="61.925385"
       cy="133.27139"
       r="1.293101" /><circle
       style="fill:#ac3b3c;fill-opacity:1;fill-rule:evenodd;stroke-width:0.356658;stroke-linecap:round;stroke-linejoin:round"
       id="circle19"
       cx="69.582733"
       cy="136.4464"
       r="1.293101" /><circle
       style="fill:#4eaa4a;fill-opacity:1;fill-rule:evenodd;stroke-width:0.356658;stroke-linecap:round;stroke-linejoin:round"
       id="circle21"
       cx="65.754066"
       cy="136.4464"
       r="1.293101" /><circle
       style="fill:#3941b0;fill-opacity:1;fill-rule:evenodd;stroke-width:0.356658;stroke-linecap:round;stroke-linejoin:round"
       id="circle23"
       cx="61.925385"
       cy="136.4464"
       r="1.293101" /></g></svg>
