<?xml version="1.0" encoding="UTF-8" standalone="no"?>
<!-- Created with Inkscape (http://www.inkscape.org/) -->

<svg
   width="23.763998mm"
   height="31.275311mm"
   viewBox="0 0 23.763998 31.275311"
   version="1.1"
   id="svg5"
   xml:space="preserve"
   inkscape:version="1.3 (0e150ed6c4, 2023-07-21)"
   sodipodi:docname="42_MovingHead03.svg"
   xmlns:inkscape="http://www.inkscape.org/namespaces/inkscape"
   xmlns:sodipodi="http://sodipodi.sourceforge.net/DTD/sodipodi-0.dtd"
   xmlns:xlink="http://www.w3.org/1999/xlink"
   xmlns="http://www.w3.org/2000/svg"
   xmlns:svg="http://www.w3.org/2000/svg"><sodipodi:namedview
     id="namedview7"
     pagecolor="#505050"
     bordercolor="#eeeeee"
     borderopacity="1"
     inkscape:showpageshadow="0"
     inkscape:pageopacity="0"
     inkscape:pagecheckerboard="0"
     inkscape:deskcolor="#505050"
     inkscape:document-units="px"
     showgrid="false"
     inkscape:zoom="1.5100404"
     inkscape:cx="31.124995"
     inkscape:cy="47.01861"
     inkscape:window-width="1280"
     inkscape:window-height="961"
     inkscape:window-x="-8"
     inkscape:window-y="-8"
     inkscape:window-maximized="1"
     inkscape:current-layer="layer5" /><defs
     id="defs2"><linearGradient
       id="linearGradient13"
       inkscape:collect="always"><stop
         style="stop-color:#6378be;stop-opacity:1;"
         offset="0"
         id="stop13" /><stop
         style="stop-color:#c5cfe7;stop-opacity:1;"
         offset="1"
         id="stop14" /></linearGradient><linearGradient
       id="linearGradient233"
       inkscape:collect="always"><stop
         style="stop-color:#697477;stop-opacity:1;"
         offset="0"
         id="stop233" /><stop
         style="stop-color:#bdc1c1;stop-opacity:1;"
         offset="1"
         id="stop232" /></linearGradient><linearGradient
       id="linearGradient231"
       inkscape:collect="always"><stop
         style="stop-color:#bdc1c1;stop-opacity:1;"
         offset="0.52857143"
         id="stop231" /><stop
         style="stop-color:#697477;stop-opacity:1;"
         offset="1"
         id="stop230" /></linearGradient><linearGradient
       id="linearGradient228"
       inkscape:collect="always"><stop
         style="stop-color:#697477;stop-opacity:1;"
         offset="0"
         id="stop227" /><stop
         style="stop-color:#bdc1c1;stop-opacity:1;"
         offset="1"
         id="stop228" /></linearGradient><linearGradient
       inkscape:collect="always"
       xlink:href="#linearGradient228"
       id="linearGradient278"
       gradientUnits="userSpaceOnUse"
       x1="-47.577442"
       y1="94.834923"
       x2="-42.337772"
       y2="95.824432"
       gradientTransform="matrix(-1,0,0,1,-10.201331,41.438599)" /><linearGradient
       inkscape:collect="always"
       xlink:href="#linearGradient233"
       id="linearGradient281"
       gradientUnits="userSpaceOnUse"
       x1="-49.220753"
       y1="96.82106"
       x2="-42.433323"
       y2="98.576241"
       gradientTransform="matrix(-1,0,0,1,-10.201331,41.438599)" /><linearGradient
       inkscape:collect="always"
       xlink:href="#linearGradient231"
       id="linearGradient6"
       x1="46.206585"
       y1="127.88973"
       x2="69.970581"
       y2="127.88973"
       gradientUnits="userSpaceOnUse"
       gradientTransform="matrix(-1,0,0,1,133.87399,-1.4017285)" /><linearGradient
       inkscape:collect="always"
       xlink:href="#linearGradient231"
       id="linearGradient8"
       x1="48.191315"
       y1="121.397"
       x2="69.819336"
       y2="121.397"
       gradientUnits="userSpaceOnUse"
       gradientTransform="matrix(-1,0,0,1,133.87399,-1.4017285)" /><radialGradient
       inkscape:collect="always"
       xlink:href="#linearGradient13"
       id="radialGradient14"
       cx="55.491379"
       cy="126.22425"
       fx="55.491379"
       fy="126.22425"
       r="1.9078515"
       gradientTransform="matrix(-1,0,0,0.81506085,133.87399,21.942076)"
       gradientUnits="userSpaceOnUse" /><radialGradient
       inkscape:collect="always"
       xlink:href="#linearGradient13"
       id="radialGradient16"
       cx="58.633541"
       cy="126.1366"
       fx="58.633541"
       fy="126.1366"
       r="1.8304174"
       gradientTransform="matrix(-1,0,0,0.81507912,133.87399,21.923561)"
       gradientUnits="userSpaceOnUse" /><radialGradient
       inkscape:collect="always"
       xlink:href="#linearGradient13"
       id="radialGradient17"
       cx="61.793205"
       cy="126.04765"
       fx="61.793205"
       fy="126.04765"
       r="1.8142917"
       gradientTransform="matrix(-1,0,0,0.82817443,133.87399,20.256481)"
       gradientUnits="userSpaceOnUse" /><radialGradient
       inkscape:collect="always"
       xlink:href="#linearGradient13"
       id="radialGradient18"
       cx="64.782837"
       cy="125.95799"
       fx="64.782837"
       fy="125.95799"
       r="1.7065167"
       gradientTransform="matrix(-1,0,0,0.82789104,133.87399,20.276769)"
       gradientUnits="userSpaceOnUse" /><radialGradient
       inkscape:collect="always"
       xlink:href="#linearGradient13"
       id="radialGradient19"
       cx="67.663437"
       cy="125.8467"
       fx="67.663437"
       fy="125.8467"
       r="1.5826212"
       gradientTransform="matrix(-1,0,0,0.83931014,133.87399,18.82056)"
       gradientUnits="userSpaceOnUse" /><radialGradient
       inkscape:collect="always"
       xlink:href="#linearGradient13"
       id="radialGradient23"
       gradientUnits="userSpaceOnUse"
       gradientTransform="matrix(1,0,0,0.81506085,0,23.343805)"
       cx="55.491379"
       cy="126.22425"
       fx="55.491379"
       fy="126.22425"
       r="1.9078515" /><radialGradient
       inkscape:collect="always"
       xlink:href="#linearGradient13"
       id="radialGradient24"
       gradientUnits="userSpaceOnUse"
       gradientTransform="matrix(1,0,0,0.81507912,0,23.32529)"
       cx="58.633541"
       cy="126.1366"
       fx="58.633541"
       fy="126.1366"
       r="1.8304174" /><radialGradient
       inkscape:collect="always"
       xlink:href="#linearGradient13"
       id="radialGradient25"
       gradientUnits="userSpaceOnUse"
       gradientTransform="matrix(1,0,0,0.82817443,0,21.65821)"
       cx="61.793205"
       cy="126.04765"
       fx="61.793205"
       fy="126.04765"
       r="1.8142917" /><radialGradient
       inkscape:collect="always"
       xlink:href="#linearGradient13"
       id="radialGradient26"
       gradientUnits="userSpaceOnUse"
       gradientTransform="matrix(1,0,0,0.82789104,0,21.678498)"
       cx="64.782837"
       cy="125.95799"
       fx="64.782837"
       fy="125.95799"
       r="1.7065167" /><radialGradient
       inkscape:collect="always"
       xlink:href="#linearGradient13"
       id="radialGradient27"
       gradientUnits="userSpaceOnUse"
       gradientTransform="matrix(1,0,0,0.83931014,0,20.222289)"
       cx="67.663437"
       cy="125.8467"
       fx="67.663437"
       fy="125.8467"
       r="1.5826212" /><radialGradient
       inkscape:collect="always"
       xlink:href="#linearGradient13"
       id="radialGradient31"
       gradientUnits="userSpaceOnUse"
       gradientTransform="matrix(-0.98520536,0.03607499,0.0311693,0.75750597,130.87309,20.944839)"
       cx="55.491379"
       cy="126.22425"
       fx="55.491379"
       fy="126.22425"
       r="1.9078515" /><radialGradient
       inkscape:collect="always"
       xlink:href="#linearGradient13"
       id="radialGradient32"
       gradientUnits="userSpaceOnUse"
       gradientTransform="matrix(-0.98520536,0.03607499,0.03116999,0.75752295,130.87238,20.927632)"
       cx="58.633541"
       cy="126.1366"
       fx="58.633541"
       fy="126.1366"
       r="1.8304174" /><radialGradient
       inkscape:collect="always"
       xlink:href="#linearGradient13"
       id="radialGradient33"
       gradientUnits="userSpaceOnUse"
       gradientTransform="matrix(-0.98520536,0.03607499,0.03167078,0.76969355,130.80863,19.378271)"
       cx="61.793205"
       cy="126.04765"
       fx="61.793205"
       fy="126.04765"
       r="1.8142917" /><radialGradient
       inkscape:collect="always"
       xlink:href="#linearGradient13"
       id="radialGradient34"
       gradientUnits="userSpaceOnUse"
       gradientTransform="matrix(-0.98520536,0.03607499,0.03165994,0.76943017,130.80941,19.397126)"
       cx="64.782837"
       cy="125.95799"
       fx="64.782837"
       fy="125.95799"
       r="1.7065167" /><radialGradient
       inkscape:collect="always"
       xlink:href="#linearGradient13"
       id="radialGradient35"
       gradientUnits="userSpaceOnUse"
       gradientTransform="matrix(-0.98520536,0.03768353,0.03209663,0.8148241,130.75372,13.612965)"
       cx="67.663437"
       cy="125.8467"
       fx="67.663437"
       fy="125.8467"
       r="1.5826212" /><radialGradient
       inkscape:collect="always"
       xlink:href="#linearGradient13"
       id="radialGradient39"
       gradientUnits="userSpaceOnUse"
       gradientTransform="matrix(-0.9672325,0.05493419,0.04668915,0.75602772,128.77777,16.989437)"
       cx="55.491379"
       cy="126.22425"
       fx="55.491379"
       fy="126.22425"
       r="1.9078515" /><radialGradient
       inkscape:collect="always"
       xlink:href="#linearGradient13"
       id="radialGradient40"
       gradientUnits="userSpaceOnUse"
       gradientTransform="matrix(-0.9672325,0.05493419,0.04669019,0.75604467,128.77671,16.972263)"
       cx="58.633541"
       cy="126.1366"
       fx="58.633541"
       fy="126.1366"
       r="1.8304174" /><radialGradient
       inkscape:collect="always"
       xlink:href="#linearGradient13"
       id="radialGradient41"
       gradientUnits="userSpaceOnUse"
       gradientTransform="matrix(-0.9672325,0.05493419,0.04744033,0.76819151,128.68121,15.425926)"
       cx="61.793205"
       cy="126.04765"
       fx="61.793205"
       fy="126.04765"
       r="1.8142917" /><radialGradient
       inkscape:collect="always"
       xlink:href="#linearGradient13"
       id="radialGradient42"
       gradientUnits="userSpaceOnUse"
       gradientTransform="matrix(-0.9672325,0.05493419,0.0474241,0.76792865,128.68237,15.444746)"
       cx="64.782837"
       cy="125.95799"
       fx="64.782837"
       fy="125.95799"
       r="1.7065167" /><radialGradient
       inkscape:collect="always"
       xlink:href="#linearGradient13"
       id="radialGradient43"
       gradientUnits="userSpaceOnUse"
       gradientTransform="matrix(-0.96007034,0.0558968,0.04772221,0.79216271,128.17008,12.334139)"
       cx="67.663437"
       cy="125.8467"
       fx="67.663437"
       fy="125.8467"
       r="1.5826212" /><radialGradient
       inkscape:collect="always"
       xlink:href="#linearGradient13"
       id="radialGradient47"
       gradientUnits="userSpaceOnUse"
       gradientTransform="matrix(-0.95547073,0.05769791,0.05235228,0.6814747,128.30649,23.375282)"
       cx="55.491379"
       cy="126.22425"
       fx="55.491379"
       fy="126.22425"
       r="1.9078515" /><radialGradient
       inkscape:collect="always"
       xlink:href="#linearGradient13"
       id="radialGradient48"
       gradientUnits="userSpaceOnUse"
       gradientTransform="matrix(-0.95547073,0.05769791,0.05235345,0.68148998,128.30531,23.359802)"
       cx="58.633541"
       cy="126.1366"
       fx="58.633541"
       fy="126.1366"
       r="1.8304174" /><radialGradient
       inkscape:collect="always"
       xlink:href="#linearGradient13"
       id="radialGradient49"
       gradientUnits="userSpaceOnUse"
       gradientTransform="matrix(-0.95547073,0.05769791,0.05319458,0.692439,128.19823,21.965951)"
       cx="61.793205"
       cy="126.04765"
       fx="61.793205"
       fy="126.04765"
       r="1.8142917" /><radialGradient
       inkscape:collect="always"
       xlink:href="#linearGradient13"
       id="radialGradient50"
       gradientUnits="userSpaceOnUse"
       gradientTransform="matrix(-0.95547073,0.05769791,0.05317638,0.69220206,128.19953,21.982914)"
       cx="64.782837"
       cy="125.95799"
       fx="64.782837"
       fy="125.95799"
       r="1.7065167" /><radialGradient
       inkscape:collect="always"
       xlink:href="#linearGradient13"
       id="radialGradient51"
       gradientUnits="userSpaceOnUse"
       gradientTransform="matrix(-0.95547073,0.05992057,0.05390984,0.72878268,128.106,17.257104)"
       cx="67.663437"
       cy="125.8467"
       fx="67.663437"
       fy="125.8467"
       r="1.5826212" /></defs><g
     inkscape:groupmode="layer"
     id="layer5"
     inkscape:label="Projector"
     transform="translate(-63.903407,-110.82597)"><g
       id="g51"
       transform="matrix(-0.99445448,0.10516794,0.10516794,0.99445448,90.14965,-4.3858719)"><path
         style="fill:url(#linearGradient278);fill-rule:evenodd;stroke:#000000;stroke-width:0.264583px;stroke-linecap:butt;stroke-linejoin:miter;stroke-opacity:1"
         d="m 35.01766,135.00721 c 0,0 1.079329,0.41231 1.576946,0.70087 0.469912,0.27248 1.314119,0.96369 1.314119,0.96369 l -11.257632,2.97867 -2.1902,-1.00749 -2.014987,-1.35793 -0.788472,-1.66455 0.569453,-0.30663 z"
         id="path242"
         sodipodi:nodetypes="csccccccc" /><path
         style="fill:url(#linearGradient281);fill-rule:evenodd;stroke:#000000;stroke-width:0.264583px;stroke-linecap:butt;stroke-linejoin:miter;stroke-opacity:1"
         d="m 21.691447,135.63291 c 0,0 -0.575378,0.74445 -0.743379,1.17701 -0.14811,0.38135 -0.192523,0.79962 -0.216818,1.20799 -0.03132,0.52654 0.09292,1.57968 0.09292,1.57968 0,0 0.326422,0.6907 0.557533,0.99118 0.658812,0.85653 1.477147,1.5887 2.32306,2.2611 0.538071,0.4277 1.122763,0.80176 1.734551,1.11507 0.325942,0.16692 1.022146,0.40266 1.022146,0.40266 l 4.986832,-1.39383 7.37184,-2.16819 c 0,0 0.152896,-0.92636 0.154871,-1.39383 0.0017,-0.40477 -0.03142,-0.81392 -0.123896,-1.20799 -0.08061,-0.34353 -0.185173,-0.69164 -0.37169,-0.99117 -0.127407,-0.20461 -0.495586,-0.52656 -0.495586,-0.52656 l -11.3675,2.97351 c 0,0 -1.543457,-0.58843 -2.261111,-0.99117 -0.691888,-0.38828 -1.451323,-0.74689 -1.951371,-1.36286 -0.38194,-0.47049 -0.712402,-1.6726 -0.712402,-1.6726 z"
         id="path267"
         sodipodi:nodetypes="csscssscccsssccssc" /><path
         style="fill:none;fill-rule:evenodd;stroke:#000000;stroke-width:0.264583px;stroke-linecap:butt;stroke-linejoin:miter;stroke-opacity:1"
         d="m 26.740228,139.72149 c 0,0 -0.4718,0.69497 -0.619482,1.08409 -0.160946,0.42407 -0.278767,0.87831 -0.278767,1.33189 0,0.45358 0.15574,0.89531 0.278767,1.33189 0.08326,0.29547 0.30974,0.86727 0.30974,0.86727"
         id="path268"
         sodipodi:nodetypes="csssc" /><g
         id="g277"
         transform="matrix(-1,0,0,1,16.214276,37.579664)"><path
           style="fill:#42494a;fill-opacity:0.556485;fill-rule:evenodd;stroke:#000000;stroke-width:0.15875;stroke-linecap:butt;stroke-linejoin:miter;stroke-dasharray:none;stroke-opacity:0.225941"
           d="m -19.596053,100.4201 6.876254,1.76552 -0.371689,3.00449 -6.752357,-1.88942 z"
           id="path270" /><path
           style="fill:#90c965;fill-opacity:1;fill-rule:evenodd;stroke:none;stroke-width:0.264583px;stroke-linecap:butt;stroke-linejoin:miter;stroke-opacity:1"
           d="m -16.901303,101.65907 1.672601,0.46461 -0.09292,0.80532 -1.610654,-0.43363 z"
           id="path271" /><ellipse
           style="opacity:1;fill:#c2bdb1;fill-opacity:1;fill-rule:evenodd;stroke:none;stroke-width:0.132292;stroke-linecap:round;stroke-linejoin:round;stroke-dasharray:none;stroke-opacity:0.690377"
           id="ellipse271"
           cx="102.77859"
           cy="-19.495693"
           rx="0.15487058"
           ry="0.13938352"
           transform="rotate(110.07817)" /><ellipse
           style="opacity:1;fill:#c2bdb1;fill-opacity:1;fill-rule:evenodd;stroke:none;stroke-width:0.132292;stroke-linecap:round;stroke-linejoin:round;stroke-dasharray:none;stroke-opacity:0.690377"
           id="ellipse272"
           cx="102.7356"
           cy="-20.027983"
           rx="0.15487058"
           ry="0.13938352"
           transform="rotate(110.07817)" /><ellipse
           style="opacity:1;fill:#c2bdb1;fill-opacity:1;fill-rule:evenodd;stroke:none;stroke-width:0.132292;stroke-linecap:round;stroke-linejoin:round;stroke-dasharray:none;stroke-opacity:0.690377"
           id="ellipse273"
           cx="102.71042"
           cy="-20.543461"
           rx="0.15487058"
           ry="0.13938352"
           transform="rotate(110.07817)" /><ellipse
           style="opacity:1;fill:#c2bdb1;fill-opacity:1;fill-rule:evenodd;stroke:none;stroke-width:0.132292;stroke-linecap:round;stroke-linejoin:round;stroke-dasharray:none;stroke-opacity:0.690377"
           id="ellipse274"
           cx="102.6609"
           cy="-21.061707"
           rx="0.15487058"
           ry="0.13938352"
           transform="rotate(110.07817)" /><ellipse
           style="opacity:1;fill:#c2bdb1;fill-opacity:1;fill-rule:evenodd;stroke:none;stroke-width:0.132292;stroke-linecap:round;stroke-linejoin:round;stroke-dasharray:none;stroke-opacity:0.690377"
           id="ellipse275"
           cx="101.51355"
           cy="-18.427"
           rx="0.15487058"
           ry="0.13938352"
           transform="rotate(110.07817)" /><ellipse
           style="opacity:1;fill:#c2bdb1;fill-opacity:1;fill-rule:evenodd;stroke:none;stroke-width:0.132292;stroke-linecap:round;stroke-linejoin:round;stroke-dasharray:none;stroke-opacity:0.690377"
           id="ellipse276"
           cx="102.03633"
           cy="-18.559788"
           rx="0.15487058"
           ry="0.13938352"
           transform="rotate(110.07817)" /><ellipse
           style="opacity:1;fill:#c2bdb1;fill-opacity:1;fill-rule:evenodd;stroke:none;stroke-width:0.132292;stroke-linecap:round;stroke-linejoin:round;stroke-dasharray:none;stroke-opacity:0.690377"
           id="ellipse277"
           cx="101.21336"
           cy="-21.162222"
           rx="0.15487058"
           ry="0.13938352"
           transform="rotate(110.07817)" /></g></g><path
       style="fill:url(#linearGradient6);fill-rule:evenodd;stroke:#000000;stroke-width:0.264583px;stroke-linecap:butt;stroke-linejoin:miter;stroke-opacity:1"
       d="m 82.389637,118.84324 -0.08761,10.951 -0.832276,0.65706 -11.301437,-0.91988 -1.620747,-2.36542 -1.226513,-9.72449 c 0,0 -0.829588,-0.14285 -1.226514,-0.0438 -0.311028,0.0776 -0.603838,0.25695 -0.832276,0.48185 -0.182014,0.17919 -0.302134,0.41882 -0.394237,0.65706 -0.214779,0.55555 -0.35043,1.75216 -0.35043,1.75216 l -0.394237,3.2853 -0.08761,3.15389 0.131414,4.68703 1.97118,2.75965 16.119877,1.75216 2.453027,-0.65706 c 0,0 0.788121,-0.9621 1.226513,-1.40173 0.343344,-0.34432 1.0951,-0.96369 1.0951,-0.96369 0,0 0.420771,-2.35612 0.481843,-3.54812 0.06877,-1.34228 -0.05232,-2.68826 -0.131411,-4.02997 -0.07071,-1.19958 -0.153867,-2.40001 -0.306628,-3.59193 -0.131828,-1.02859 -0.173874,-2.09077 -0.52565,-3.06628 -0.188609,-0.52303 -0.38854,-1.11051 -0.832276,-1.44553 -0.192188,-0.1451 -0.700863,-0.17522 -0.700863,-0.17522 h -1.97118 c 0,0 -0.409871,0.58624 -0.525651,0.91988 -0.09681,0.27897 -0.131408,0.87608 -0.131408,0.87608 z"
       id="path3"
       sodipodi:nodetypes="ccccccssscccccccscsssssccsc" /><path
       style="fill:none;fill-rule:evenodd;stroke:#000000;stroke-width:0.264583px;stroke-linecap:butt;stroke-linejoin:miter;stroke-opacity:1"
       d="m 84.930269,117.13488 c 0,0 -0.598946,0.37525 -0.788471,0.65706 -0.189525,0.28181 -0.306629,0.96369 -0.306629,0.96369 0,0 0.565351,2.57537 0.744667,3.76714 0.179316,1.19177 0.26969,2.23342 0.350433,3.37291 0.08074,1.13949 0.135401,2.22565 0.131413,3.46052 -0.004,1.23487 -0.175217,3.94236 -0.175217,3.94236 0,0 -1.113244,0.68569 -1.576943,1.13891 -0.432302,0.42254 -1.095103,1.44553 -1.095103,1.44553"
       id="path4"
       sodipodi:nodetypes="czczzzcac" /><path
       style="fill:none;fill-rule:evenodd;stroke:#000000;stroke-width:0.264583px;stroke-linecap:butt;stroke-linejoin:miter;stroke-opacity:1"
       d="m 81.469752,130.44035 c 0,0 -0.572613,0.80967 -0.963689,0.97464 -0.783191,0.33037 -2.540633,0.21902 -2.540633,0.21902 l -3.416713,-0.26283 -3.329106,-0.30662 -2.496828,-0.26283 c 0,0 -0.802716,-0.1743 -1.138905,-0.39423 -0.432353,-0.28284 -0.752077,-0.71773 -1.051295,-1.13891 -0.143759,-0.20236 -0.283692,-0.41798 -0.350433,-0.65706 -0.216248,-0.77465 -0.131413,-2.40922 -0.131413,-2.40922 l -0.08761,-6.17637 c 0,0 0.144391,-1.31188 0.45994,-1.88357 0.114863,-0.20809 0.41614,-0.52565 0.41614,-0.52565 l 0.438039,-0.21902"
       id="path5"
       sodipodi:nodetypes="csccccsssccscc" /><path
       style="fill:url(#linearGradient8);fill-rule:evenodd;stroke:#000000;stroke-width:0.264583px;stroke-linecap:butt;stroke-linejoin:miter;stroke-opacity:1"
       d="m 83.96658,111.17753 1.576946,2.67205 -0.644231,3.23884 c 0,0 -0.576818,-0.13426 -0.888911,-0.12876 -0.329369,0.006 -0.694391,0.0293 -0.963686,0.21902 -0.311262,0.2193 -0.48811,0.60409 -0.613257,0.96369 -0.139919,0.40205 -0.131413,1.27032 -0.131413,1.27032 v 7.49048 l -0.613257,1.35793 c 0,0 -0.278681,0.38026 -0.481843,0.48184 -0.277041,0.13852 -0.919885,0.13142 -0.919885,0.13142 l -13.535441,-0.83228 -0.394237,-0.0876 -0.350432,-0.26282 -1.752159,-1.79597 z"
       id="path7"
       sodipodi:nodetypes="cccssscccscccccc" /><path
       style="fill:#27458f;fill-opacity:1;fill-rule:evenodd;stroke:#000000;stroke-width:0.264583px;stroke-linecap:butt;stroke-linejoin:miter;stroke-opacity:1"
       d="m 69.642668,111.74698 c 0,0 -0.289798,0.11982 -0.394238,0.21902 -0.10444,0.0992 -0.219019,0.35044 -0.219019,0.35044 l -4.68703,13.00979 c 0,0 -0.07586,0.38878 0,0.52565 0.07586,0.13687 0.350432,0.21902 0.350432,0.21902 l 14.411522,0.70086 c 0,0 0.393016,-0.14574 0.525647,-0.26282 0.132631,-0.11708 0.262824,-0.39424 0.262824,-0.39424 l 3.986168,-14.54293 c 0,0 0.0429,-0.36811 -0.0438,-0.48185 -0.0867,-0.11374 -0.350432,-0.13141 -0.350432,-0.13141 z"
       id="path6"
       sodipodi:nodetypes="czcczcczcczcc" /><path
       style="fill:url(#radialGradient14);fill-opacity:1;fill-rule:evenodd;stroke:none;stroke-width:0.264583px;stroke-linecap:butt;stroke-linejoin:miter;stroke-opacity:1"
       d="m 79.958513,123.28934 c 0,0 0.171074,0.0361 0.262824,0.13142 0.09175,0.0953 0.06571,0.26282 0.06571,0.26282 l -0.700863,2.32161 c 0,0 -0.0431,0.15149 -0.109511,0.21902 -0.12071,0.12275 -0.284726,0.15332 -0.284726,0.15332 l -2.356801,-0.0838 c 0,0 -0.0722,0.047 -0.227635,-0.13516 -0.155432,-0.18207 -0.131414,-0.35044 -0.131414,-0.35044 l 0.678963,-2.12449 c 0,0 0.04916,-0.1823 0.153314,-0.28472 0.104156,-0.10243 0.32853,-0.13142 0.32853,-0.13142 z"
       id="path8"
       sodipodi:nodetypes="czccscczcczcc" /><path
       style="fill:url(#radialGradient16);fill-opacity:1;fill-rule:evenodd;stroke:none;stroke-width:0.253844px;stroke-linecap:butt;stroke-linejoin:miter;stroke-opacity:1"
       d="m 76.752391,123.26396 c 0,0 0.164131,0.0346 0.252157,0.12608 0.08803,0.0914 0.06304,0.25216 0.06304,0.25216 l -0.672417,2.22738 c 0,0 -0.04135,0.14534 -0.105066,0.21013 -0.115811,0.11777 -0.27317,0.14709 -0.27317,0.14709 l -2.17765,-0.0675 c 0,0 -0.152766,0.0321 -0.30189,-0.14265 -0.149123,-0.17468 -0.12608,-0.33621 -0.12608,-0.33621 l 0.651406,-2.03826 c 0,0 0.04716,-0.17491 0.147091,-0.27317 0.09993,-0.0983 0.315196,-0.12608 0.315196,-0.12608 z"
       id="path9"
       sodipodi:nodetypes="czccscczcczcc" /><path
       style="fill:url(#radialGradient17);fill-opacity:1;fill-rule:evenodd;stroke:none;stroke-width:0.251696px;stroke-linecap:butt;stroke-linejoin:miter;stroke-opacity:1"
       d="m 73.579295,123.21069 c 0,0 0.162741,0.0343 0.250023,0.12502 0.08728,0.0907 0.06251,0.25002 0.06251,0.25002 l -0.666727,2.20854 c 0,0 -0.041,0.14411 -0.104177,0.20835 -0.114831,0.11677 -0.270859,0.14585 -0.270859,0.14585 l -2.222352,-0.0983 c 0,0 -0.158038,-0.0143 -0.236208,-0.11008 -0.07817,-0.0958 -0.125013,-0.33337 -0.125013,-0.33337 l 0.645893,-2.02102 c 0,0 0.04677,-0.17342 0.145847,-0.27085 0.09908,-0.0974 0.20412,-0.17148 0.20412,-0.17148 z"
       id="path10"
       sodipodi:nodetypes="czccscczcczcc" /><path
       style="fill:url(#radialGradient18);fill-opacity:1;fill-rule:evenodd;stroke:none;stroke-width:0.236662px;stroke-linecap:butt;stroke-linejoin:miter;stroke-opacity:1"
       d="m 70.500746,123.17392 c 0,0 0.15302,0.0323 0.235089,0.11755 0.08207,0.0853 0.05878,0.23509 0.05878,0.23509 l -0.626902,2.07662 c 0,0 -0.03855,0.1355 -0.09795,0.1959 -0.107972,0.1098 -0.249204,0.16999 -0.249204,0.16999 l -2.014187,-0.0911 c 0,0 -0.163965,0.0253 -0.302995,-0.13759 -0.139029,-0.16285 -0.117545,-0.31346 -0.117545,-0.31346 l 0.607312,-1.9003 c 0,0 0.04398,-0.16306 0.137135,-0.25467 0.09316,-0.0916 0.162449,-0.1285 0.162449,-0.1285 z"
       id="path11"
       sodipodi:nodetypes="czccscczcczcc" /><path
       style="fill:url(#radialGradient19);fill-opacity:1;fill-rule:evenodd;stroke:none;stroke-width:0.21948px;stroke-linecap:butt;stroke-linejoin:miter;stroke-opacity:1"
       d="m 67.525558,123.16507 c 0,0 0.134167,0.0765 0.210277,0.15548 0.07611,0.0791 0.05451,0.21802 0.05451,0.21802 l -0.581388,1.92585 c 0,0 -0.03575,0.12567 -0.09084,0.18168 -0.100133,0.10183 -0.236189,0.12718 -0.236189,0.12718 l -1.833519,-0.0675 c 0,0 -0.181417,0.0369 -0.310353,-0.11423 -0.128935,-0.15103 -0.109011,-0.2907 -0.109011,-0.2907 l 0.56322,-1.76234 c 0,0 0.04079,-0.15122 0.127179,-0.23618 0.0864,-0.0849 0.272526,-0.18567 0.272526,-0.18567 z"
       id="path12"
       sodipodi:nodetypes="czccscczcczcc" /><g
       id="g23"
       transform="matrix(-0.99973551,0.02170036,0.02299815,0.94332019,131.91828,1.3889022)"><path
         style="fill:url(#radialGradient23);fill-opacity:1;fill-rule:evenodd;stroke:none;stroke-width:0.264583px;stroke-linecap:butt;stroke-linejoin:miter;stroke-opacity:1"
         d="m 53.915477,124.69107 c 0,0 -0.171074,0.0361 -0.262824,0.13142 -0.09175,0.0953 -0.06571,0.26282 -0.06571,0.26282 l 0.700863,2.32161 c 0,0 0.0431,0.15149 0.109511,0.21902 0.12071,0.12275 0.284726,0.15332 0.284726,0.15332 l 2.356801,-0.0838 c 0,0 0.0722,0.047 0.227635,-0.13516 0.155432,-0.18207 0.131414,-0.35044 0.131414,-0.35044 l -0.678963,-2.12449 c 0,0 -0.04916,-0.1823 -0.153314,-0.28472 -0.104156,-0.10243 -0.32853,-0.13142 -0.32853,-0.13142 z"
         id="path19"
         sodipodi:nodetypes="czccscczcczcc" /><path
         style="fill:url(#radialGradient24);fill-opacity:1;fill-rule:evenodd;stroke:none;stroke-width:0.253844px;stroke-linecap:butt;stroke-linejoin:miter;stroke-opacity:1"
         d="m 57.121599,124.66569 c 0,0 -0.164131,0.0346 -0.252157,0.12608 -0.08803,0.0914 -0.06304,0.25216 -0.06304,0.25216 l 0.672417,2.22738 c 0,0 0.04135,0.14534 0.105066,0.21013 0.115811,0.11777 0.27317,0.14709 0.27317,0.14709 l 2.17765,-0.0675 c 0,0 0.152766,0.0321 0.30189,-0.14265 0.149123,-0.17468 0.12608,-0.33621 0.12608,-0.33621 l -0.651406,-2.03826 c 0,0 -0.04716,-0.17491 -0.147091,-0.27317 -0.09993,-0.0983 -0.315196,-0.12608 -0.315196,-0.12608 z"
         id="path20"
         sodipodi:nodetypes="czccscczcczcc" /><path
         style="fill:url(#radialGradient25);fill-opacity:1;fill-rule:evenodd;stroke:none;stroke-width:0.251696px;stroke-linecap:butt;stroke-linejoin:miter;stroke-opacity:1"
         d="m 60.294695,124.61242 c 0,0 -0.162741,0.0343 -0.250023,0.12502 -0.08728,0.0907 -0.06251,0.25002 -0.06251,0.25002 l 0.666727,2.20854 c 0,0 0.041,0.14411 0.104177,0.20835 0.114831,0.11677 0.270859,0.14585 0.270859,0.14585 l 2.222352,-0.0983 c 0,0 0.158038,-0.0143 0.236208,-0.11008 0.07817,-0.0958 0.125013,-0.33337 0.125013,-0.33337 l -0.645893,-2.02102 c 0,0 -0.04677,-0.17342 -0.145847,-0.27085 -0.09908,-0.0974 -0.20412,-0.17148 -0.20412,-0.17148 z"
         id="path21"
         sodipodi:nodetypes="czccscczcczcc" /><path
         style="fill:url(#radialGradient26);fill-opacity:1;fill-rule:evenodd;stroke:none;stroke-width:0.236662px;stroke-linecap:butt;stroke-linejoin:miter;stroke-opacity:1"
         d="m 63.373244,124.57565 c 0,0 -0.15302,0.0323 -0.235089,0.11755 -0.08207,0.0853 -0.05878,0.23509 -0.05878,0.23509 l 0.626902,2.07662 c 0,0 0.03855,0.1355 0.09795,0.1959 0.107972,0.1098 0.249204,0.16999 0.249204,0.16999 l 2.014187,-0.0911 c 0,0 0.163965,0.0253 0.302995,-0.13759 0.139029,-0.16285 0.117545,-0.31346 0.117545,-0.31346 l -0.607312,-1.9003 c 0,0 -0.04398,-0.16306 -0.137135,-0.25467 -0.09316,-0.0916 -0.162449,-0.1285 -0.162449,-0.1285 z"
         id="path22"
         sodipodi:nodetypes="czccscczcczcc" /><path
         style="fill:url(#radialGradient27);fill-opacity:1;fill-rule:evenodd;stroke:none;stroke-width:0.21948px;stroke-linecap:butt;stroke-linejoin:miter;stroke-opacity:1"
         d="m 66.348432,124.5668 c 0,0 -0.134167,0.0765 -0.210277,0.15548 -0.07611,0.0791 -0.05451,0.21802 -0.05451,0.21802 l 0.581388,1.92585 c 0,0 0.03575,0.12567 0.09084,0.18168 0.100133,0.10183 0.236189,0.12718 0.236189,0.12718 l 1.833519,-0.0675 c 0,0 0.181417,0.0369 0.310353,-0.11423 0.128935,-0.15103 0.109011,-0.2907 0.109011,-0.2907 l -0.56322,-1.76234 c 0,0 -0.04079,-0.15122 -0.127179,-0.23618 -0.0864,-0.0849 -0.272526,-0.18567 -0.272526,-0.18567 z"
         id="path23"
         sodipodi:nodetypes="czccscczcczcc" /></g><path
       style="fill:url(#radialGradient31);fill-opacity:1;fill-rule:evenodd;stroke:none;stroke-width:0.253367px;stroke-linecap:butt;stroke-linejoin:miter;stroke-opacity:1"
       d="m 81.630964,117.08055 c 0,0 0.169924,0.0274 0.263962,0.11265 0.09404,0.0853 0.07479,0.2419 0.07479,0.2419 l -0.601712,2.18295 c 0,0 -0.03667,0.14235 -0.09951,0.20751 -0.11423,0.11843 -0.27465,0.15276 -0.27465,0.15276 l -2.325138,0.007 c 0,0 -0.06933,0.0463 -0.229436,-0.1174 -0.160095,-0.16361 -0.142871,-0.32096 -0.142871,-0.32096 l 0.587674,-1.99896 c 0,0 0.04146,-0.1712 0.140158,-0.27015 0.0987,-0.099 0.318643,-0.13399 0.318643,-0.13399 z"
       id="path27"
       sodipodi:nodetypes="czccscczcczcc" /><path
       style="fill:url(#radialGradient32);fill-opacity:1;fill-rule:evenodd;stroke:none;stroke-width:0.243083px;stroke-linecap:butt;stroke-linejoin:miter;stroke-opacity:1"
       d="m 78.471305,117.17262 c 0,0 0.163026,0.0262 0.253248,0.10808 0.09022,0.0818 0.07175,0.23208 0.07175,0.23208 l -0.57729,2.09435 c 0,0 -0.03518,0.13657 -0.09548,0.19908 -0.109593,0.11364 -0.263503,0.14656 -0.263503,0.14656 l -2.148014,0.0158 c 0,0 -0.149278,0.0353 -0.302879,-0.12169 -0.153597,-0.15696 -0.137072,-0.30792 -0.137072,-0.30792 l 0.563823,-1.91783 c 0,0 0.03977,-0.16426 0.134468,-0.25919 0.09469,-0.095 0.305711,-0.12854 0.305711,-0.12854 z"
       id="path28"
       sodipodi:nodetypes="czccscczcczcc" /><path
       style="fill:url(#radialGradient33);fill-opacity:1;fill-rule:evenodd;stroke:none;stroke-width:0.241026px;stroke-linecap:butt;stroke-linejoin:miter;stroke-opacity:1"
       d="m 75.343117,117.23758 c 0,0 0.161645,0.026 0.251105,0.10717 0.08946,0.0811 0.07115,0.23011 0.07115,0.23011 l -0.572405,2.07664 c 0,0 -0.03488,0.13541 -0.09467,0.1974 -0.108666,0.11266 -0.261274,0.14532 -0.261274,0.14532 l -2.193232,-0.0112 c 0,0 -0.156247,-0.008 -0.236923,-0.0938 -0.08068,-0.0862 -0.135912,-0.30532 -0.135912,-0.30532 l 0.55905,-1.90161 c 0,0 0.03945,-0.16286 0.133331,-0.25699 0.09389,-0.0941 0.194543,-0.16673 0.194543,-0.16673 z"
       id="path29"
       sodipodi:nodetypes="czccscczcczcc" /><path
       style="fill:url(#radialGradient34);fill-opacity:1;fill-rule:evenodd;stroke:none;stroke-width:0.22663px;stroke-linecap:butt;stroke-linejoin:miter;stroke-opacity:1"
       d="m 72.308708,117.31447 c 0,0 0.151991,0.0245 0.236106,0.10076 0.08412,0.0763 0.0669,0.21637 0.0669,0.21637 l -0.538214,1.9526 c 0,0 -0.0328,0.12732 -0.08901,0.1856 -0.102175,0.10594 -0.239016,0.16698 -0.239016,0.16698 l -1.987872,-0.012 c 0,0 -0.160571,0.0294 -0.303774,-0.11694 -0.143199,-0.14634 -0.127793,-0.28709 -0.127793,-0.28709 l 0.525657,-1.78802 c 0,0 0.03709,-0.15313 0.125367,-0.24163 0.08828,-0.0885 0.155131,-0.12529 0.155131,-0.12529 z"
       id="path30"
       sodipodi:nodetypes="czccscczcczcc" /><path
       style="fill:url(#radialGradient35);fill-opacity:1;fill-rule:evenodd;stroke:none;stroke-width:0.214811px;stroke-linecap:butt;stroke-linejoin:miter;stroke-opacity:1"
       d="m 69.377198,117.41357 c 0,0 0.135108,0.0693 0.213112,0.14303 0.07801,0.0739 0.06204,0.20959 0.06204,0.20959 l -0.499139,1.89157 c 0,0 -0.03042,0.12336 -0.08255,0.17981 -0.09476,0.10268 -0.227831,0.13237 -0.227831,0.13237 l -1.808974,0.003 c 0,0 -0.177322,0.0426 -0.31013,-0.0992 -0.132803,-0.14177 -0.118515,-0.27811 -0.118515,-0.27811 l 0.487492,-1.73216 c 0,0 0.0344,-0.14834 0.116266,-0.23408 0.08187,-0.0857 0.261394,-0.19053 0.261394,-0.19053 z"
       id="path31"
       sodipodi:nodetypes="czccscczcczcc" /><path
       style="fill:url(#radialGradient39);fill-opacity:1;fill-rule:evenodd;stroke:none;stroke-width:0.251051px;stroke-linecap:butt;stroke-linejoin:miter;stroke-opacity:1"
       d="m 82.434443,113.95814 c 0,0 0.167536,0.0241 0.26174,0.10746 0.0942,0.0834 0.07861,0.24017 0.07861,0.24017 l -0.544909,2.19197 c 0,0 -0.03301,0.14288 -0.09338,0.20917 -0.109723,0.12049 -0.266614,0.15786 -0.266614,0.15786 l -2.284375,0.0517 c 0,0 -0.06714,0.0476 -0.227918,-0.11286 -0.160768,-0.16035 -0.147182,-0.31784 -0.147182,-0.31784 l 0.535018,-2.00792 c 0,0 0.03711,-0.17179 0.13198,-0.27252 0.09488,-0.10073 0.310237,-0.13995 0.310237,-0.13995 z"
       id="path35"
       sodipodi:nodetypes="czccscczcczcc" /><path
       style="fill:url(#radialGradient40);fill-opacity:1;fill-rule:evenodd;stroke:none;stroke-width:0.240861px;stroke-linecap:butt;stroke-linejoin:miter;stroke-opacity:1"
       d="m 79.331924,114.11072 c 0,0 0.160734,0.0231 0.251116,0.1031 0.09038,0.0799 0.07542,0.23043 0.07542,0.23043 l -0.522792,2.10299 c 0,0 -0.03167,0.13709 -0.08959,0.20069 -0.10527,0.1156 -0.255793,0.15144 -0.255793,0.15144 l -2.11016,0.057 c 0,0 -0.145922,0.0382 -0.30017,-0.11574 -0.154242,-0.15383 -0.141207,-0.30493 -0.141207,-0.30493 l 0.513303,-1.92642 c 0,0 0.0356,-0.16483 0.126623,-0.26146 0.09103,-0.0967 0.297646,-0.13427 0.297646,-0.13427 z"
       id="path36"
       sodipodi:nodetypes="czccscczcczcc" /><path
       style="fill:url(#radialGradient41);fill-opacity:1;fill-rule:evenodd;stroke:none;stroke-width:0.238823px;stroke-linecap:butt;stroke-linejoin:miter;stroke-opacity:1"
       d="m 76.259751,114.23562 c 0,0 0.159373,0.0229 0.248991,0.10223 0.08962,0.0793 0.07478,0.22848 0.07478,0.22848 l -0.518368,2.0852 c 0,0 -0.0314,0.13593 -0.08883,0.19899 -0.104379,0.11462 -0.253628,0.15016 -0.253628,0.15016 l -2.155162,0.0309 c 0,0 -0.153679,-0.005 -0.234774,-0.0891 -0.0811,-0.0846 -0.140013,-0.30235 -0.140013,-0.30235 l 0.508963,-1.91016 c 0,0 0.0353,-0.16343 0.125553,-0.25924 0.09025,-0.0958 0.187609,-0.17027 0.187609,-0.17027 z"
       id="path37"
       sodipodi:nodetypes="czccscczcczcc" /><path
       style="fill:url(#radialGradient42);fill-opacity:1;fill-rule:evenodd;stroke:none;stroke-width:0.224558px;stroke-linecap:butt;stroke-linejoin:miter;stroke-opacity:1"
       d="m 73.279972,114.37063 c 0,0 0.149856,0.0216 0.234119,0.0961 0.08427,0.0746 0.07032,0.21484 0.07032,0.21484 l -0.487405,1.96065 c 0,0 -0.02952,0.1278 -0.08352,0.18709 -0.09814,0.10778 -0.231301,0.17137 -0.231301,0.17137 l -1.953405,0.0262 c 0,0 -0.157143,0.0325 -0.300949,-0.11098 -0.143801,-0.14342 -0.131649,-0.2843 -0.131649,-0.2843 l 0.478557,-1.79603 c 0,0 0.0332,-0.15367 0.118053,-0.24376 0.08486,-0.0901 0.149765,-0.12812 0.149765,-0.12812 z"
       id="path38"
       sodipodi:nodetypes="czccscczcczcc" /><path
       style="fill:url(#radialGradient43);fill-opacity:1;fill-rule:evenodd;stroke:none;stroke-width:0.209292px;stroke-linecap:butt;stroke-linejoin:miter;stroke-opacity:1"
       d="m 70.403827,114.52586 c 0,0 0.13316,0.0647 0.210721,0.13499 0.07758,0.0704 0.06473,0.20273 0.06473,0.20273 l -0.51062,1.85017 c 0,0 -0.01169,0.12061 -0.0614,0.17655 -0.09034,0.10165 -0.227271,0.13323 -0.227271,0.13323 l -1.709939,0.0388 c 0,0 -0.172075,0.045 -0.304456,-0.0905 -0.132374,-0.13534 -0.121187,-0.26828 -0.121187,-0.26828 l 0.510218,-1.69482 c 0,0 0.01507,-0.14501 0.09319,-0.23003 0.07812,-0.085 0.251087,-0.19047 0.251087,-0.19047 z"
       id="path39"
       sodipodi:nodetypes="czccscczcczcc" /><path
       style="fill:url(#radialGradient47);fill-opacity:1;fill-rule:evenodd;stroke:none;stroke-width:0.237031px;stroke-linecap:butt;stroke-linejoin:miter;stroke-opacity:1"
       d="m 83.301484,111.22283 c 0,0 0.165775,0.0203 0.259562,0.0947 0.09379,0.0744 0.07966,0.21596 0.07966,0.21596 l -0.520535,1.98154 c 0,0 -0.03145,0.12915 -0.09057,0.18944 -0.107451,0.1096 -0.2622,0.14462 -0.2622,0.14462 l -2.257237,0.0659 c 0,0 -0.06597,0.0435 -0.22618,-0.0999 -0.160205,-0.14327 -0.148071,-0.28543 -0.148071,-0.28543 l 0.512271,-1.81546 c 0,0 0.03526,-0.15526 0.128199,-0.2469 0.09294,-0.0917 0.30546,-0.12884 0.30546,-0.12884 z"
       id="path43"
       sodipodi:nodetypes="czccscczcczcc" /><path
       style="fill:url(#radialGradient48);fill-opacity:1;fill-rule:evenodd;stroke:none;stroke-width:0.22741px;stroke-linecap:butt;stroke-linejoin:miter;stroke-opacity:1"
       d="m 80.236498,111.38659 c 0,0 0.159045,0.0195 0.249027,0.0909 0.08998,0.0713 0.07643,0.2072 0.07643,0.2072 l -0.499407,1.90111 c 0,0 -0.03017,0.12391 -0.08689,0.18175 -0.10309,0.10515 -0.251558,0.13875 -0.251558,0.13875 l -2.085017,0.0692 c 0,0 -0.143901,0.0356 -0.297609,-0.10185 -0.153703,-0.13745 -0.142061,-0.27384 -0.142061,-0.27384 l 0.491477,-1.7418 c 0,0 0.03383,-0.14896 0.122996,-0.23688 0.08917,-0.088 0.293062,-0.1236 0.293062,-0.1236 z"
       id="path44"
       sodipodi:nodetypes="czccscczcczcc" /><path
       style="fill:url(#radialGradient49);fill-opacity:1;fill-rule:evenodd;stroke:none;stroke-width:0.225486px;stroke-linecap:butt;stroke-linejoin:miter;stroke-opacity:1"
       d="m 77.201276,111.52514 c 0,0 0.157697,0.0193 0.24692,0.0901 0.08922,0.0708 0.07579,0.20544 0.07579,0.20544 l -0.495181,1.88503 c 0,0 -0.02992,0.12286 -0.08615,0.18021 -0.102218,0.10426 -0.24943,0.13758 -0.24943,0.13758 l -2.129706,0.046 c 0,0 -0.151919,-0.003 -0.232761,-0.0784 -0.08084,-0.0756 -0.140859,-0.27151 -0.140859,-0.27151 l 0.48732,-1.72705 c 0,0 0.03355,-0.1477 0.121955,-0.23487 0.08841,-0.0872 0.184017,-0.15516 0.184017,-0.15516 z"
       id="path45"
       sodipodi:nodetypes="czccscczcczcc" /><path
       style="fill:url(#radialGradient50);fill-opacity:1;fill-rule:evenodd;stroke:none;stroke-width:0.212018px;stroke-linecap:butt;stroke-linejoin:miter;stroke-opacity:1"
       d="m 74.257451,111.67202 c 0,0 0.14828,0.0182 0.232171,0.0847 0.08389,0.0666 0.07126,0.19317 0.07126,0.19317 l -0.465603,1.77244 c 0,0 -0.02813,0.11551 -0.081,0.16944 -0.09611,0.098 -0.227188,0.15651 -0.227188,0.15651 l -1.930349,0.04 c 0,0 -0.155038,0.0306 -0.29834,-0.0975 -0.143298,-0.12814 -0.132445,-0.25531 -0.132445,-0.25531 l 0.458211,-1.62388 c 0,0 0.03155,-0.13888 0.11467,-0.22085 0.08313,-0.082 0.146962,-0.11681 0.146962,-0.11681 z"
       id="path46"
       sodipodi:nodetypes="czccscczcczcc" /><path
       style="fill:url(#radialGradient51);fill-opacity:1;fill-rule:evenodd;stroke:none;stroke-width:0.200376px;stroke-linecap:butt;stroke-linejoin:miter;stroke-opacity:1"
       d="m 71.414177,111.83628 c 0,0 0.133106,0.0584 0.2109,0.12241 0.0778,0.0641 0.06609,0.18604 0.06609,0.18604 l -0.493748,1.70707 c 0,0 -0.0106,0.11127 -0.05963,0.16321 -0.08913,0.0944 -0.256221,0.12458 -0.256221,0.12458 l -1.671031,0.0513 c 0,0 -0.170968,0.0429 -0.30387,-0.0806 -0.132894,-0.12342 -0.122829,-0.24588 -0.122829,-0.24588 l 0.486891,-1.56401 c 0,0 0.04475,-0.13376 0.121833,-0.2127 0.0771,-0.0789 0.240722,-0.17755 0.240722,-0.17755 z"
       id="path47"
       sodipodi:nodetypes="czccscczcczcc" /></g></svg>
