<?xml version="1.0" encoding="UTF-8" standalone="no"?>
<!-- Created with Inkscape (http://www.inkscape.org/) -->

<svg
   width="65.29068mm"
   height="29.827297mm"
   viewBox="0 0 65.290681 29.827297"
   version="1.1"
   id="svg5"
   xml:space="preserve"
   inkscape:version="1.3 (0e150ed6c4, 2023-07-21)"
   sodipodi:docname="49_MovingHead05.svg"
   xmlns:inkscape="http://www.inkscape.org/namespaces/inkscape"
   xmlns:sodipodi="http://sodipodi.sourceforge.net/DTD/sodipodi-0.dtd"
   xmlns:xlink="http://www.w3.org/1999/xlink"
   xmlns="http://www.w3.org/2000/svg"
   xmlns:svg="http://www.w3.org/2000/svg"><sodipodi:namedview
     id="namedview7"
     pagecolor="#505050"
     bordercolor="#eeeeee"
     borderopacity="1"
     inkscape:showpageshadow="0"
     inkscape:pageopacity="0"
     inkscape:pagecheckerboard="0"
     inkscape:deskcolor="#505050"
     inkscape:document-units="px"
     showgrid="false"
     inkscape:zoom="1.5100404"
     inkscape:cx="158.60503"
     inkscape:cy="39.071803"
     inkscape:window-width="1280"
     inkscape:window-height="961"
     inkscape:window-x="-8"
     inkscape:window-y="-8"
     inkscape:window-maximized="1"
     inkscape:current-layer="layer5" /><defs
     id="defs2"><linearGradient
       id="linearGradient18"
       inkscape:collect="always"><stop
         style="stop-color:#0d0d0e;stop-opacity:1;"
         offset="0"
         id="stop18" /><stop
         style="stop-color:#3e4046;stop-opacity:1;"
         offset="1"
         id="stop19" /></linearGradient><linearGradient
       id="linearGradient231"
       inkscape:collect="always"><stop
         style="stop-color:#bdc1c1;stop-opacity:1;"
         offset="0"
         id="stop231" /><stop
         style="stop-color:#697477;stop-opacity:1;"
         offset="1"
         id="stop230" /></linearGradient><linearGradient
       id="linearGradient228"
       inkscape:collect="always"><stop
         style="stop-color:#697477;stop-opacity:1;"
         offset="0"
         id="stop227" /><stop
         style="stop-color:#bdc1c1;stop-opacity:1;"
         offset="1"
         id="stop228" /></linearGradient><linearGradient
       id="linearGradient129"
       inkscape:collect="always"><stop
         style="stop-color:#b4bbbc;stop-opacity:1;"
         offset="0"
         id="stop128" /><stop
         style="stop-color:#87929d;stop-opacity:1;"
         offset="1"
         id="stop129" /></linearGradient><linearGradient
       inkscape:collect="always"
       xlink:href="#linearGradient228"
       id="linearGradient3"
       x1="-27.185778"
       y1="166.96793"
       x2="-21.830198"
       y2="166.96793"
       gradientUnits="userSpaceOnUse" /><linearGradient
       inkscape:collect="always"
       xlink:href="#linearGradient129"
       id="linearGradient5"
       x1="-26.922928"
       y1="166.73586"
       x2="-21.342045"
       y2="166.73586"
       gradientUnits="userSpaceOnUse" /><linearGradient
       inkscape:collect="always"
       xlink:href="#linearGradient231"
       id="linearGradient14"
       x1="-22.519217"
       y1="159.84677"
       x2="-18.791306"
       y2="166.28938"
       gradientUnits="userSpaceOnUse" /><linearGradient
       inkscape:collect="always"
       xlink:href="#linearGradient231"
       id="linearGradient17"
       x1="-21.717047"
       y1="167.79636"
       x2="-16.490896"
       y2="167.79636"
       gradientUnits="userSpaceOnUse" /><linearGradient
       inkscape:collect="always"
       xlink:href="#linearGradient18"
       id="linearGradient19"
       x1="-22.252289"
       y1="167.13647"
       x2="-17.203506"
       y2="167.13647"
       gradientUnits="userSpaceOnUse" /><radialGradient
       inkscape:collect="always"
       xlink:href="#linearGradient13"
       id="radialGradient21"
       cx="-85.079697"
       cy="147.73972"
       fx="-85.079697"
       fy="147.73972"
       r="1.3450185"
       gradientTransform="matrix(1,0,0,1.8068153,0,-119.19867)"
       gradientUnits="userSpaceOnUse" /><linearGradient
       id="linearGradient13"
       inkscape:collect="always"><stop
         style="stop-color:#6378be;stop-opacity:1;"
         offset="0"
         id="stop13" /><stop
         style="stop-color:#c5cfe7;stop-opacity:1;"
         offset="1"
         id="stop14" /></linearGradient><linearGradient
       id="linearGradient231-4"
       inkscape:collect="always"><stop
         style="stop-color:#bdc1c1;stop-opacity:1;"
         offset="0.52857143"
         id="stop231-4" /><stop
         style="stop-color:#697477;stop-opacity:1;"
         offset="1"
         id="stop230-0" /></linearGradient><linearGradient
       inkscape:collect="always"
       xlink:href="#linearGradient231-4"
       id="linearGradient25"
       x1="-29.906067"
       y1="166.14664"
       x2="35.041176"
       y2="166.14664"
       gradientUnits="userSpaceOnUse"
       gradientTransform="matrix(-0.99809708,0.06166214,0.06166214,0.99809708,-0.14939273,-0.71956502)" /><linearGradient
       inkscape:collect="always"
       xlink:href="#linearGradient231-4"
       id="linearGradient27"
       x1="-27.036747"
       y1="173.90868"
       x2="-29.784063"
       y2="180.43024"
       gradientUnits="userSpaceOnUse"
       gradientTransform="matrix(-0.99809708,0.06166214,0.06166214,0.99809708,-0.14939273,-0.71956502)" /><linearGradient
       inkscape:collect="always"
       xlink:href="#linearGradient18"
       id="linearGradient46"
       gradientUnits="userSpaceOnUse"
       x1="-22.252289"
       y1="167.13647"
       x2="-17.203506"
       y2="167.13647" /><linearGradient
       inkscape:collect="always"
       xlink:href="#linearGradient231"
       id="linearGradient47"
       gradientUnits="userSpaceOnUse"
       x1="-22.519217"
       y1="159.84677"
       x2="-18.791306"
       y2="166.28938" /><linearGradient
       inkscape:collect="always"
       xlink:href="#linearGradient129"
       id="linearGradient48"
       gradientUnits="userSpaceOnUse"
       x1="-26.922928"
       y1="166.73586"
       x2="-21.342045"
       y2="166.73586" /><linearGradient
       inkscape:collect="always"
       xlink:href="#linearGradient228"
       id="linearGradient49"
       gradientUnits="userSpaceOnUse"
       x1="-27.185778"
       y1="166.96793"
       x2="-21.830198"
       y2="166.96793" /><radialGradient
       inkscape:collect="always"
       xlink:href="#linearGradient13"
       id="radialGradient49"
       gradientUnits="userSpaceOnUse"
       gradientTransform="matrix(1,0,0,1.8068153,0,-119.19867)"
       cx="-85.079697"
       cy="147.73972"
       fx="-85.079697"
       fy="147.73972"
       r="1.3450185" /><linearGradient
       inkscape:collect="always"
       xlink:href="#linearGradient231"
       id="linearGradient50"
       gradientUnits="userSpaceOnUse"
       x1="-21.717047"
       y1="167.79636"
       x2="-16.490896"
       y2="167.79636" /><linearGradient
       inkscape:collect="always"
       xlink:href="#linearGradient18"
       id="linearGradient62"
       gradientUnits="userSpaceOnUse"
       x1="-22.252289"
       y1="167.13647"
       x2="-17.203506"
       y2="167.13647" /><linearGradient
       inkscape:collect="always"
       xlink:href="#linearGradient231"
       id="linearGradient63"
       gradientUnits="userSpaceOnUse"
       x1="-22.519217"
       y1="159.84677"
       x2="-18.791306"
       y2="166.28938" /><linearGradient
       inkscape:collect="always"
       xlink:href="#linearGradient129"
       id="linearGradient64"
       gradientUnits="userSpaceOnUse"
       x1="-26.922928"
       y1="166.73586"
       x2="-21.342045"
       y2="166.73586" /><linearGradient
       inkscape:collect="always"
       xlink:href="#linearGradient228"
       id="linearGradient65"
       gradientUnits="userSpaceOnUse"
       x1="-27.185778"
       y1="166.96793"
       x2="-21.830198"
       y2="166.96793" /><radialGradient
       inkscape:collect="always"
       xlink:href="#linearGradient13"
       id="radialGradient65"
       gradientUnits="userSpaceOnUse"
       gradientTransform="matrix(1,0,0,1.8068153,0,-119.19867)"
       cx="-85.079697"
       cy="147.73972"
       fx="-85.079697"
       fy="147.73972"
       r="1.3450185" /><linearGradient
       inkscape:collect="always"
       xlink:href="#linearGradient231"
       id="linearGradient66"
       gradientUnits="userSpaceOnUse"
       x1="-21.717047"
       y1="167.79636"
       x2="-16.490896"
       y2="167.79636" /><linearGradient
       inkscape:collect="always"
       xlink:href="#linearGradient231"
       id="linearGradient83"
       x1="-27.174358"
       y1="171.70596"
       x2="34.827892"
       y2="171.70596"
       gradientUnits="userSpaceOnUse"
       gradientTransform="matrix(-0.99809708,0.06166214,0.06166214,0.99809708,-0.14939273,-0.71956502)" /></defs><g
     inkscape:groupmode="layer"
     id="layer5"
     inkscape:label="Projector"
     transform="translate(25.134005,-149.31212)"><path
       style="fill:url(#linearGradient25);fill-rule:evenodd;stroke:#000000;stroke-width:0.264583px;stroke-linecap:butt;stroke-linejoin:miter;stroke-opacity:1"
       d="m 39.939455,166.77508 -60.310242,-7.24593 -4.434514,3.52163 62.36461,7.82122 z"
       id="path24" /><g
       id="g33"
       transform="matrix(-0.99809708,0.06166214,0.06166214,0.99809708,-0.14939273,-0.71956502)"><path
         style="fill:url(#linearGradient19);fill-opacity:1;fill-rule:evenodd;stroke:none;stroke-width:0.259861;stroke-linecap:butt;stroke-linejoin:miter;stroke-dasharray:none;stroke-opacity:1"
         d="m -21.632805,170.35779 4.429299,-3.593 -0.247793,-2.84962 -4.800989,2.35403 z"
         id="path14" /><path
         style="fill:url(#linearGradient14);fill-rule:evenodd;stroke:#000000;stroke-width:0.259861;stroke-linecap:butt;stroke-linejoin:miter;stroke-dasharray:none;stroke-opacity:1"
         d="m -26.960352,164.65855 c -0.735772,-0.72901 -1.337177,-1.81852 -1.238967,-2.84962 0.04508,-0.47324 0.470104,-0.83995 0.805328,-1.17702 0.345348,-0.34725 0.731715,-0.65262 1.146042,-0.91374 0.563376,-0.35505 1.187937,-0.64335 1.7965,-0.91373 0.635539,-0.28237 1.312774,-0.46252 1.982343,-0.65045 0.653436,-0.1834 1.313099,-0.35179 1.982343,-0.46461 0.491335,-0.0828 0.979035,-0.20391 1.475807,-0.24249 0.401981,-0.0312 1.431651,-0.12728 1.646029,0.0257 0.35806,0.25552 0.932345,4.14689 0.378239,6.13288 -0.0533,0.19103 -0.223714,0.33256 -0.371689,0.46461 -0.318454,0.28419 -0.718437,0.46126 -1.084093,0.68143 -0.602311,0.36266 -1.206301,0.72381 -1.827475,1.05312 -0.354941,0.18817 -0.71206,0.37496 -1.084093,0.52656 -0.302356,0.12321 -0.602984,0.32266 -0.929224,0.30974 -1.691963,-0.067 -3.474241,-0.79059 -4.67709,-1.98239 z"
         id="path7"
         sodipodi:nodetypes="ssssssssssssssss" /><path
         style="fill:url(#linearGradient5);fill-rule:evenodd;stroke:#000000;stroke-width:0.259861;stroke-linecap:butt;stroke-linejoin:miter;stroke-dasharray:none;stroke-opacity:1"
         d="m -21.97352,172.34013 0.495586,-0.61948 -0.588508,-7.68158 c 0,0 -0.166334,-0.82049 -0.371689,-1.17702 -0.237104,-0.41165 -0.590453,-0.75486 -0.960199,-1.05312 -0.288067,-0.23237 -0.608201,-0.44317 -0.960197,-0.55753 -0.384968,-0.12507 -0.805994,-0.17124 -1.207992,-0.1239 -0.217275,0.0256 -0.438617,0.0937 -0.619482,0.21682 -0.248119,0.16886 -0.588508,0.68143 -0.588508,0.68143 l 3.964686,10.03561 z"
         id="path2"
         sodipodi:nodetypes="cccsssssccc" /><path
         style="fill:url(#linearGradient3);fill-rule:evenodd;stroke:#000000;stroke-width:0.259861;stroke-linecap:butt;stroke-linejoin:miter;stroke-dasharray:none;stroke-opacity:1"
         d="m -27.053276,170.72948 c 0,0 1.54348,0.73063 2.354035,0.99117 0.887046,0.28512 2.725721,0.61948 2.725721,0.61948 l -0.505203,-7.5545 c 0,0 -0.09476,-0.81548 -0.262824,-1.1827 -0.162852,-0.35582 -0.349684,-0.72411 -0.62343,-1.00374 -0.349383,-0.35689 -0.7927,-0.68204 -1.260144,-0.85793 -0.465443,-0.17514 -1.015932,-0.23991 -1.489337,-0.0876 -0.331048,0.10651 -0.64106,0.3533 -0.810374,0.65706 -0.139759,0.25074 -0.109508,0.85418 -0.109508,0.85418 z"
         id="path1"
         sodipodi:nodetypes="csccssssscc" /><path
         style="fill:#27458f;fill-opacity:1;fill-rule:evenodd;stroke:#000000;stroke-width:0.259861;stroke-linecap:butt;stroke-linejoin:miter;stroke-dasharray:none;stroke-opacity:1"
         d="m -16.926564,163.53722 c 0.415929,-0.0493 0.768547,-0.35981 1.084149,-0.63516 0.293838,-0.25636 0.545418,-0.57259 0.722765,-0.91988 0.04834,-0.0947 0.07788,-0.20078 0.08761,-0.30663 0.0141,-0.15336 -0.0091,-0.3099 -0.04381,-0.45994 -0.149559,-0.64599 -0.411152,-1.26523 -0.700862,-1.86167 -0.283372,-0.58339 -0.548003,-1.20683 -1.007494,-1.66455 -0.09048,-0.0901 -0.207211,-0.15723 -0.328531,-0.19712 -0.146301,-0.0481 -0.309463,-0.0766 -0.459941,-0.0438 -0.370731,0.0808 -0.693697,0.32705 -0.985591,0.56946 -0.207123,0.17201 -0.383375,0.38468 -0.525648,0.61325 -0.05876,0.0944 -0.107039,0.19813 -0.13141,0.30663 -0.04323,0.19246 -0.05236,0.39646 -0.02191,0.59135 0.112672,0.72102 0.432085,1.39935 0.744667,2.05879 0.244013,0.51478 0.540175,1.00732 0.876081,1.46744 0.09759,0.13368 0.189271,0.28287 0.32853,0.37233 0.105904,0.068 0.236395,0.1243 0.361395,0.1095 z"
         id="path5"
         sodipodi:nodetypes="sssssssssssssssss" /><path
         id="path6"
         style="fill:url(#radialGradient21);fill-rule:evenodd;stroke-width:0.523459;stroke-linejoin:round;stroke-dasharray:none"
         transform="matrix(0.94801423,-0.31822795,0.43053704,0.90257291,0,0)"
         d="m -83.734677,147.5868 c 1e-6,1.33682 -0.693601,2.58312 -1.397662,2.58312 -0.704061,0 -1.292377,-0.90115 -1.292375,-2.23798 -2e-6,-1.33682 0.776796,-2.62242 1.480857,-2.62242 0.704061,0 1.209181,0.94046 1.20918,2.27728 z"
         sodipodi:nodetypes="sssss" /><path
         style="fill:none;fill-rule:evenodd;stroke:#000000;stroke-width:0.259861;stroke-linecap:round;stroke-linejoin:miter;stroke-dasharray:none;stroke-opacity:1"
         d="m -20.115073,159.37746 c 0,0 0.166869,0.71162 0.294253,1.05312 0.10976,0.29425 0.402664,0.85179 0.402664,0.85179"
         id="path8"
         sodipodi:nodetypes="csc" /><path
         style="fill:none;fill-rule:evenodd;stroke:#000000;stroke-width:0.259861;stroke-linecap:round;stroke-linejoin:miter;stroke-dasharray:none;stroke-opacity:1"
         d="m -20.719068,159.62525 c 0,0 0.166869,0.71162 0.294253,1.05312 0.10976,0.29425 0.402664,0.85179 0.402664,0.85179"
         id="path9"
         sodipodi:nodetypes="csc" /><path
         style="fill:none;fill-rule:evenodd;stroke:#000000;stroke-width:0.259861;stroke-linecap:round;stroke-linejoin:miter;stroke-dasharray:none;stroke-opacity:1"
         d="m -21.338551,159.78012 c 0,0 0.166869,0.71162 0.294253,1.05312 0.10976,0.29425 0.402664,0.85179 0.402664,0.85179"
         id="path10"
         sodipodi:nodetypes="csc" /><path
         style="fill:none;fill-rule:evenodd;stroke:#000000;stroke-width:0.259861;stroke-linecap:round;stroke-linejoin:miter;stroke-dasharray:none;stroke-opacity:1"
         d="m -17.977859,163.72933 c -0.263279,-0.30974 -0.405376,-0.46857 -0.573022,-0.72789 -0.145417,-0.22494 -0.371689,-0.71241 -0.371689,-0.71241"
         id="path11"
         sodipodi:nodetypes="csc" /><path
         style="fill:none;fill-rule:evenodd;stroke:#000000;stroke-width:0.259861;stroke-linecap:round;stroke-linejoin:miter;stroke-dasharray:none;stroke-opacity:1"
         d="m -18.519906,163.99261 c -0.263279,-0.30974 -0.405376,-0.46857 -0.573022,-0.72789 -0.145417,-0.22494 -0.371689,-0.71241 -0.371689,-0.71241"
         id="path12"
         sodipodi:nodetypes="csc" /><path
         style="fill:none;fill-rule:evenodd;stroke:#000000;stroke-width:0.259861;stroke-linecap:round;stroke-linejoin:miter;stroke-dasharray:none;stroke-opacity:1"
         d="m -19.123902,164.30235 c -0.263279,-0.30974 -0.405376,-0.46857 -0.573022,-0.72789 -0.145417,-0.22494 -0.371689,-0.71241 -0.371689,-0.71241"
         id="path13"
         sodipodi:nodetypes="csc" /><path
         style="fill:url(#linearGradient17);fill-rule:evenodd;stroke:#000000;stroke-width:0.259861;stroke-linecap:butt;stroke-linejoin:miter;stroke-dasharray:none;stroke-opacity:1"
         d="m -21.493134,171.68477 4.862247,-3.92046 -0.459944,-3.87666 -0.525647,0.39424 0.350433,2.65014 -4.314698,3.3072 z"
         id="path15"
         sodipodi:nodetypes="ccccccc" /></g><path
       style="fill:url(#linearGradient27);fill-rule:evenodd;stroke:#000000;stroke-width:0.264583px;stroke-linecap:butt;stroke-linejoin:miter;stroke-opacity:1"
       d="m 39.957011,167.05927 0.06704,7.47868 -2.531818,4.12824 0.04521,-7.79284 z"
       id="path25"
       sodipodi:nodetypes="ccccc" /><path
       style="fill:url(#linearGradient83);fill-rule:evenodd;stroke:#000000;stroke-width:0.264583px;stroke-linecap:butt;stroke-linejoin:miter;stroke-opacity:1"
       d="m 37.484309,178.74789 -61.80736,-9.37066 -0.466919,-6.30192 62.327414,7.79804 z"
       id="path32" /><path
       style="fill:#90c965;fill-opacity:1;fill-rule:evenodd;stroke:#000000;stroke-width:0.264583px;stroke-linecap:butt;stroke-linejoin:miter;stroke-opacity:1"
       d="m 2.8044803,168.4461 0.06267,1.51675 -3.80985003,-0.38528 -0.03561,-1.5805 z"
       id="path33" /><g
       id="g46"
       transform="matrix(-0.99809708,0.06166214,0.06166214,0.99809708,-24.159638,-3.580864)"><path
         style="fill:url(#linearGradient46);fill-opacity:1;fill-rule:evenodd;stroke:none;stroke-width:0.259861;stroke-linecap:butt;stroke-linejoin:miter;stroke-dasharray:none;stroke-opacity:1"
         d="m -21.632805,170.35779 4.429299,-3.593 -0.247793,-2.84962 -4.800989,2.35403 z"
         id="path34" /><path
         style="fill:url(#linearGradient47);fill-rule:evenodd;stroke:#000000;stroke-width:0.259861;stroke-linecap:butt;stroke-linejoin:miter;stroke-dasharray:none;stroke-opacity:1"
         d="m -26.960352,164.65855 c -0.735772,-0.72901 -1.337177,-1.81852 -1.238967,-2.84962 0.04508,-0.47324 0.470104,-0.83995 0.805328,-1.17702 0.345348,-0.34725 0.731715,-0.65262 1.146042,-0.91374 0.563376,-0.35505 1.187937,-0.64335 1.7965,-0.91373 0.635539,-0.28237 1.312774,-0.46252 1.982343,-0.65045 0.653436,-0.1834 1.313099,-0.35179 1.982343,-0.46461 0.491335,-0.0828 0.979035,-0.20391 1.475807,-0.24249 0.401981,-0.0312 1.431651,-0.12728 1.646029,0.0257 0.35806,0.25552 0.932345,4.14689 0.378239,6.13288 -0.0533,0.19103 -0.223714,0.33256 -0.371689,0.46461 -0.318454,0.28419 -0.718437,0.46126 -1.084093,0.68143 -0.602311,0.36266 -1.206301,0.72381 -1.827475,1.05312 -0.354941,0.18817 -0.71206,0.37496 -1.084093,0.52656 -0.302356,0.12321 -0.602984,0.32266 -0.929224,0.30974 -1.691963,-0.067 -3.474241,-0.79059 -4.67709,-1.98239 z"
         id="path35"
         sodipodi:nodetypes="ssssssssssssssss" /><path
         style="fill:url(#linearGradient48);fill-rule:evenodd;stroke:#000000;stroke-width:0.259861;stroke-linecap:butt;stroke-linejoin:miter;stroke-dasharray:none;stroke-opacity:1"
         d="m -21.97352,172.34013 0.495586,-0.61948 -0.588508,-7.68158 c 0,0 -0.166334,-0.82049 -0.371689,-1.17702 -0.237104,-0.41165 -0.590453,-0.75486 -0.960199,-1.05312 -0.288067,-0.23237 -0.608201,-0.44317 -0.960197,-0.55753 -0.384968,-0.12507 -0.805994,-0.17124 -1.207992,-0.1239 -0.217275,0.0256 -0.438617,0.0937 -0.619482,0.21682 -0.248119,0.16886 -0.588508,0.68143 -0.588508,0.68143 l 3.964686,10.03561 z"
         id="path36"
         sodipodi:nodetypes="cccsssssccc" /><path
         style="fill:url(#linearGradient49);fill-rule:evenodd;stroke:#000000;stroke-width:0.259861;stroke-linecap:butt;stroke-linejoin:miter;stroke-dasharray:none;stroke-opacity:1"
         d="m -27.053276,170.72948 c 0,0 1.54348,0.73063 2.354035,0.99117 0.887046,0.28512 2.725721,0.61948 2.725721,0.61948 l -0.505203,-7.5545 c 0,0 -0.09476,-0.81548 -0.262824,-1.1827 -0.162852,-0.35582 -0.349684,-0.72411 -0.62343,-1.00374 -0.349383,-0.35689 -0.7927,-0.68204 -1.260144,-0.85793 -0.465443,-0.17514 -1.015932,-0.23991 -1.489337,-0.0876 -0.331048,0.10651 -0.64106,0.3533 -0.810374,0.65706 -0.139759,0.25074 -0.109508,0.85418 -0.109508,0.85418 z"
         id="path37"
         sodipodi:nodetypes="csccssssscc" /><path
         style="fill:#27458f;fill-opacity:1;fill-rule:evenodd;stroke:#000000;stroke-width:0.259861;stroke-linecap:butt;stroke-linejoin:miter;stroke-dasharray:none;stroke-opacity:1"
         d="m -16.926564,163.53722 c 0.415929,-0.0493 0.768547,-0.35981 1.084149,-0.63516 0.293838,-0.25636 0.545418,-0.57259 0.722765,-0.91988 0.04834,-0.0947 0.07788,-0.20078 0.08761,-0.30663 0.0141,-0.15336 -0.0091,-0.3099 -0.04381,-0.45994 -0.149559,-0.64599 -0.411152,-1.26523 -0.700862,-1.86167 -0.283372,-0.58339 -0.548003,-1.20683 -1.007494,-1.66455 -0.09048,-0.0901 -0.207211,-0.15723 -0.328531,-0.19712 -0.146301,-0.0481 -0.309463,-0.0766 -0.459941,-0.0438 -0.370731,0.0808 -0.693697,0.32705 -0.985591,0.56946 -0.207123,0.17201 -0.383375,0.38468 -0.525648,0.61325 -0.05876,0.0944 -0.107039,0.19813 -0.13141,0.30663 -0.04323,0.19246 -0.05236,0.39646 -0.02191,0.59135 0.112672,0.72102 0.432085,1.39935 0.744667,2.05879 0.244013,0.51478 0.540175,1.00732 0.876081,1.46744 0.09759,0.13368 0.189271,0.28287 0.32853,0.37233 0.105904,0.068 0.236395,0.1243 0.361395,0.1095 z"
         id="path38"
         sodipodi:nodetypes="sssssssssssssssss" /><path
         id="path39"
         style="fill:url(#radialGradient49);fill-rule:evenodd;stroke-width:0.523459;stroke-linejoin:round;stroke-dasharray:none"
         transform="matrix(0.94801423,-0.31822795,0.43053704,0.90257291,0,0)"
         d="m -83.734677,147.5868 c 1e-6,1.33682 -0.693601,2.58312 -1.397662,2.58312 -0.704061,0 -1.292377,-0.90115 -1.292375,-2.23798 -2e-6,-1.33682 0.776796,-2.62242 1.480857,-2.62242 0.704061,0 1.209181,0.94046 1.20918,2.27728 z"
         sodipodi:nodetypes="sssss" /><path
         style="fill:none;fill-rule:evenodd;stroke:#000000;stroke-width:0.259861;stroke-linecap:round;stroke-linejoin:miter;stroke-dasharray:none;stroke-opacity:1"
         d="m -20.115073,159.37746 c 0,0 0.166869,0.71162 0.294253,1.05312 0.10976,0.29425 0.402664,0.85179 0.402664,0.85179"
         id="path40"
         sodipodi:nodetypes="csc" /><path
         style="fill:none;fill-rule:evenodd;stroke:#000000;stroke-width:0.259861;stroke-linecap:round;stroke-linejoin:miter;stroke-dasharray:none;stroke-opacity:1"
         d="m -20.719068,159.62525 c 0,0 0.166869,0.71162 0.294253,1.05312 0.10976,0.29425 0.402664,0.85179 0.402664,0.85179"
         id="path41"
         sodipodi:nodetypes="csc" /><path
         style="fill:none;fill-rule:evenodd;stroke:#000000;stroke-width:0.259861;stroke-linecap:round;stroke-linejoin:miter;stroke-dasharray:none;stroke-opacity:1"
         d="m -21.338551,159.78012 c 0,0 0.166869,0.71162 0.294253,1.05312 0.10976,0.29425 0.402664,0.85179 0.402664,0.85179"
         id="path42"
         sodipodi:nodetypes="csc" /><path
         style="fill:none;fill-rule:evenodd;stroke:#000000;stroke-width:0.259861;stroke-linecap:round;stroke-linejoin:miter;stroke-dasharray:none;stroke-opacity:1"
         d="m -17.977859,163.72933 c -0.263279,-0.30974 -0.405376,-0.46857 -0.573022,-0.72789 -0.145417,-0.22494 -0.371689,-0.71241 -0.371689,-0.71241"
         id="path43"
         sodipodi:nodetypes="csc" /><path
         style="fill:none;fill-rule:evenodd;stroke:#000000;stroke-width:0.259861;stroke-linecap:round;stroke-linejoin:miter;stroke-dasharray:none;stroke-opacity:1"
         d="m -18.519906,163.99261 c -0.263279,-0.30974 -0.405376,-0.46857 -0.573022,-0.72789 -0.145417,-0.22494 -0.371689,-0.71241 -0.371689,-0.71241"
         id="path44"
         sodipodi:nodetypes="csc" /><path
         style="fill:none;fill-rule:evenodd;stroke:#000000;stroke-width:0.259861;stroke-linecap:round;stroke-linejoin:miter;stroke-dasharray:none;stroke-opacity:1"
         d="m -19.123902,164.30235 c -0.263279,-0.30974 -0.405376,-0.46857 -0.573022,-0.72789 -0.145417,-0.22494 -0.371689,-0.71241 -0.371689,-0.71241"
         id="path45"
         sodipodi:nodetypes="csc" /><path
         style="fill:url(#linearGradient50);fill-rule:evenodd;stroke:#000000;stroke-width:0.259861;stroke-linecap:butt;stroke-linejoin:miter;stroke-dasharray:none;stroke-opacity:1"
         d="m -21.493134,171.68477 4.862247,-3.92046 -0.459944,-3.87666 -0.525647,0.39424 0.350433,2.65014 -4.314698,3.3072 z"
         id="path46"
         sodipodi:nodetypes="ccccccc" /></g><g
       id="g62"
       transform="matrix(-0.99809708,0.06166214,0.06166214,0.99809708,-46.809615,-6.526199)"><path
         style="fill:url(#linearGradient62);fill-opacity:1;fill-rule:evenodd;stroke:none;stroke-width:0.259861;stroke-linecap:butt;stroke-linejoin:miter;stroke-dasharray:none;stroke-opacity:1"
         d="m -21.632805,170.35779 4.429299,-3.593 -0.247793,-2.84962 -4.800989,2.35403 z"
         id="path50" /><path
         style="fill:url(#linearGradient63);fill-rule:evenodd;stroke:#000000;stroke-width:0.259861;stroke-linecap:butt;stroke-linejoin:miter;stroke-dasharray:none;stroke-opacity:1"
         d="m -26.960352,164.65855 c -0.735772,-0.72901 -1.337177,-1.81852 -1.238967,-2.84962 0.04508,-0.47324 0.470104,-0.83995 0.805328,-1.17702 0.345348,-0.34725 0.731715,-0.65262 1.146042,-0.91374 0.563376,-0.35505 1.187937,-0.64335 1.7965,-0.91373 0.635539,-0.28237 1.312774,-0.46252 1.982343,-0.65045 0.653436,-0.1834 1.313099,-0.35179 1.982343,-0.46461 0.491335,-0.0828 0.979035,-0.20391 1.475807,-0.24249 0.401981,-0.0312 1.431651,-0.12728 1.646029,0.0257 0.35806,0.25552 0.932345,4.14689 0.378239,6.13288 -0.0533,0.19103 -0.223714,0.33256 -0.371689,0.46461 -0.318454,0.28419 -0.718437,0.46126 -1.084093,0.68143 -0.602311,0.36266 -1.206301,0.72381 -1.827475,1.05312 -0.354941,0.18817 -0.71206,0.37496 -1.084093,0.52656 -0.302356,0.12321 -0.602984,0.32266 -0.929224,0.30974 -1.691963,-0.067 -3.474241,-0.79059 -4.67709,-1.98239 z"
         id="path51"
         sodipodi:nodetypes="ssssssssssssssss" /><path
         style="fill:url(#linearGradient64);fill-rule:evenodd;stroke:#000000;stroke-width:0.259861;stroke-linecap:butt;stroke-linejoin:miter;stroke-dasharray:none;stroke-opacity:1"
         d="m -21.97352,172.34013 0.495586,-0.61948 -0.588508,-7.68158 c 0,0 -0.166334,-0.82049 -0.371689,-1.17702 -0.237104,-0.41165 -0.590453,-0.75486 -0.960199,-1.05312 -0.288067,-0.23237 -0.608201,-0.44317 -0.960197,-0.55753 -0.384968,-0.12507 -0.805994,-0.17124 -1.207992,-0.1239 -0.217275,0.0256 -0.438617,0.0937 -0.619482,0.21682 -0.248119,0.16886 -0.588508,0.68143 -0.588508,0.68143 l 3.964686,10.03561 z"
         id="path52"
         sodipodi:nodetypes="cccsssssccc" /><path
         style="fill:url(#linearGradient65);fill-rule:evenodd;stroke:#000000;stroke-width:0.259861;stroke-linecap:butt;stroke-linejoin:miter;stroke-dasharray:none;stroke-opacity:1"
         d="m -27.053276,170.72948 c 0,0 1.54348,0.73063 2.354035,0.99117 0.887046,0.28512 2.725721,0.61948 2.725721,0.61948 l -0.505203,-7.5545 c 0,0 -0.09476,-0.81548 -0.262824,-1.1827 -0.162852,-0.35582 -0.349684,-0.72411 -0.62343,-1.00374 -0.349383,-0.35689 -0.7927,-0.68204 -1.260144,-0.85793 -0.465443,-0.17514 -1.015932,-0.23991 -1.489337,-0.0876 -0.331048,0.10651 -0.64106,0.3533 -0.810374,0.65706 -0.139759,0.25074 -0.109508,0.85418 -0.109508,0.85418 z"
         id="path53"
         sodipodi:nodetypes="csccssssscc" /><path
         style="fill:#27458f;fill-opacity:1;fill-rule:evenodd;stroke:#000000;stroke-width:0.259861;stroke-linecap:butt;stroke-linejoin:miter;stroke-dasharray:none;stroke-opacity:1"
         d="m -16.926564,163.53722 c 0.415929,-0.0493 0.768547,-0.35981 1.084149,-0.63516 0.293838,-0.25636 0.545418,-0.57259 0.722765,-0.91988 0.04834,-0.0947 0.07788,-0.20078 0.08761,-0.30663 0.0141,-0.15336 -0.0091,-0.3099 -0.04381,-0.45994 -0.149559,-0.64599 -0.411152,-1.26523 -0.700862,-1.86167 -0.283372,-0.58339 -0.548003,-1.20683 -1.007494,-1.66455 -0.09048,-0.0901 -0.207211,-0.15723 -0.328531,-0.19712 -0.146301,-0.0481 -0.309463,-0.0766 -0.459941,-0.0438 -0.370731,0.0808 -0.693697,0.32705 -0.985591,0.56946 -0.207123,0.17201 -0.383375,0.38468 -0.525648,0.61325 -0.05876,0.0944 -0.107039,0.19813 -0.13141,0.30663 -0.04323,0.19246 -0.05236,0.39646 -0.02191,0.59135 0.112672,0.72102 0.432085,1.39935 0.744667,2.05879 0.244013,0.51478 0.540175,1.00732 0.876081,1.46744 0.09759,0.13368 0.189271,0.28287 0.32853,0.37233 0.105904,0.068 0.236395,0.1243 0.361395,0.1095 z"
         id="path54"
         sodipodi:nodetypes="sssssssssssssssss" /><path
         id="path55"
         style="fill:url(#radialGradient65);fill-rule:evenodd;stroke-width:0.523459;stroke-linejoin:round;stroke-dasharray:none"
         transform="matrix(0.94801423,-0.31822795,0.43053704,0.90257291,0,0)"
         d="m -83.734677,147.5868 c 1e-6,1.33682 -0.693601,2.58312 -1.397662,2.58312 -0.704061,0 -1.292377,-0.90115 -1.292375,-2.23798 -2e-6,-1.33682 0.776796,-2.62242 1.480857,-2.62242 0.704061,0 1.209181,0.94046 1.20918,2.27728 z"
         sodipodi:nodetypes="sssss" /><path
         style="fill:none;fill-rule:evenodd;stroke:#000000;stroke-width:0.259861;stroke-linecap:round;stroke-linejoin:miter;stroke-dasharray:none;stroke-opacity:1"
         d="m -20.115073,159.37746 c 0,0 0.166869,0.71162 0.294253,1.05312 0.10976,0.29425 0.402664,0.85179 0.402664,0.85179"
         id="path56"
         sodipodi:nodetypes="csc" /><path
         style="fill:none;fill-rule:evenodd;stroke:#000000;stroke-width:0.259861;stroke-linecap:round;stroke-linejoin:miter;stroke-dasharray:none;stroke-opacity:1"
         d="m -20.719068,159.62525 c 0,0 0.166869,0.71162 0.294253,1.05312 0.10976,0.29425 0.402664,0.85179 0.402664,0.85179"
         id="path57"
         sodipodi:nodetypes="csc" /><path
         style="fill:none;fill-rule:evenodd;stroke:#000000;stroke-width:0.259861;stroke-linecap:round;stroke-linejoin:miter;stroke-dasharray:none;stroke-opacity:1"
         d="m -21.338551,159.78012 c 0,0 0.166869,0.71162 0.294253,1.05312 0.10976,0.29425 0.402664,0.85179 0.402664,0.85179"
         id="path58"
         sodipodi:nodetypes="csc" /><path
         style="fill:none;fill-rule:evenodd;stroke:#000000;stroke-width:0.259861;stroke-linecap:round;stroke-linejoin:miter;stroke-dasharray:none;stroke-opacity:1"
         d="m -17.977859,163.72933 c -0.263279,-0.30974 -0.405376,-0.46857 -0.573022,-0.72789 -0.145417,-0.22494 -0.371689,-0.71241 -0.371689,-0.71241"
         id="path59"
         sodipodi:nodetypes="csc" /><path
         style="fill:none;fill-rule:evenodd;stroke:#000000;stroke-width:0.259861;stroke-linecap:round;stroke-linejoin:miter;stroke-dasharray:none;stroke-opacity:1"
         d="m -18.519906,163.99261 c -0.263279,-0.30974 -0.405376,-0.46857 -0.573022,-0.72789 -0.145417,-0.22494 -0.371689,-0.71241 -0.371689,-0.71241"
         id="path60"
         sodipodi:nodetypes="csc" /><path
         style="fill:none;fill-rule:evenodd;stroke:#000000;stroke-width:0.259861;stroke-linecap:round;stroke-linejoin:miter;stroke-dasharray:none;stroke-opacity:1"
         d="m -19.123902,164.30235 c -0.263279,-0.30974 -0.405376,-0.46857 -0.573022,-0.72789 -0.145417,-0.22494 -0.371689,-0.71241 -0.371689,-0.71241"
         id="path61"
         sodipodi:nodetypes="csc" /><path
         style="fill:url(#linearGradient66);fill-rule:evenodd;stroke:#000000;stroke-width:0.259861;stroke-linecap:butt;stroke-linejoin:miter;stroke-dasharray:none;stroke-opacity:1"
         d="m -21.493134,171.68477 4.862247,-3.92046 -0.459944,-3.87666 -0.525647,0.39424 0.350433,2.65014 -4.314698,3.3072 z"
         id="path62"
         sodipodi:nodetypes="ccccccc" /></g></g></svg>
